<svg version="1.1" id="Слой_1" xmlns="http://www.w3.org/2000/svg" xmlns:xlink="http://www.w3.org/1999/xlink" x="0" y="0" viewBox="0 0 677.2 319.3" xml:space="preserve" enable-background="new 0 0 677.2 319.3"><style>.st1{fill:#5ab1dc}.st28{fill:#2b9d29}.st28,.st29,.st30{clip-path:url(#SVGID_26_)}.st29{fill:#2b9e2a}.st30{fill:#2b9f2b}.st31{fill:#2b9c27}.st31,.st32,.st33,.st34,.st35{clip-path:url(#SVGID_26_)}.st32{fill:#2b9d28}.st33{fill:#2ba02c}.st34{fill:#2ba02d}.st35{fill:#2ca12e}.st36{fill:#2ca22f}.st36,.st37,.st38,.st39,.st40{clip-path:url(#SVGID_26_)}.st37{fill:#2ca230}.st38{fill:#2ca331}.st39{fill:#2ca432}.st40{fill:#2ca433}.st41{fill:#2ca534}.st41,.st42,.st43,.st44,.st45{clip-path:url(#SVGID_26_)}.st42{fill:#2ca635}.st43{fill:#2ca736}.st44{fill:#2ca737}.st45{fill:#2ca838}.st46{fill:#2ca939}.st46,.st47,.st48,.st49,.st50{clip-path:url(#SVGID_26_)}.st47{fill:#2da93b}.st48{fill:#2daa3c}.st49{fill:#2dab3d}.st50{fill:#2dab3e}.st51{fill:#2dac3f}.st51,.st52,.st53,.st54,.st55{clip-path:url(#SVGID_26_)}.st52{fill:#2dad40}.st53{fill:#2dae41}.st54{fill:#2dae42}.st55{fill:#2daf43}.st56{fill:#2db044}.st56,.st57,.st58,.st59,.st60{clip-path:url(#SVGID_26_)}.st57{fill:#2db045}.st58{fill:#2db146}.st59{fill:#2eb247}.st60{fill:#2eb248}.st61{fill:#2eb349}.st61,.st62,.st63,.st64,.st65{clip-path:url(#SVGID_26_)}.st62{fill:#2eb44a}.st63{fill:#2eb54b}.st64{fill:#2eb54c}.st65{fill:#2eb64d}.st76{fill:#ffc444}.st77{fill:#7556b8}.st79{fill:#eea886}.st80{fill:#1d3b54}.st83{fill:#fccca2}.st89{fill:#efaa88}.st91{fill:#f8bb66}.st95{fill:#1b1d2e}.st96{fill:#1f2136}.st97{fill:#282b45}.st101{fill:#323657}</style><path class="st1" d="M72.5 185.7H72v-22.9h32.3v-32.7h.5v33.2H72.5z"/><defs><filter id="Adobe_OpacityMaskFilter" filterUnits="userSpaceOnUse" x="4.7" y="43.2" width="668.4" height="269.5"><feFlood result="back" flood-color="#fff" flood-opacity="1"/><feBlend in="SourceGraphic" in2="back"/></filter></defs><mask maskUnits="userSpaceOnUse" x="4.7" y="43.2" width="668.4" height="269.5" id="SVGID_1_"><g filter="url(#Adobe_OpacityMaskFilter)"><defs><filter id="Adobe_OpacityMaskFilter_1_" filterUnits="userSpaceOnUse" x="4.7" y="43.2" width="668.4" height="269.5"><feFlood result="back" flood-color="#fff" flood-opacity="1"/><feBlend in="SourceGraphic" in2="back"/></filter></defs><linearGradient id="SVGID_2_" gradientUnits="userSpaceOnUse" x1="338.917" y1="38.24" x2="338.917" y2="210.747"><stop offset="0" stop-color="#fff"/><stop offset="1"/></linearGradient><path mask="url(#SVGID_1_)" fill="url(#SVGID_2_)" d="M4.7 200.3h52.1v26.4h22.3v-57h21.8v20.1h12.6v-57.2h15V87.3h28v23.1h27.3l10.8 10.7h10.9V65.2h25.2v14.5h21.4v27.7h28.7V72.6h22.6v14.6h11.8l10.2-10.1H337V43.2h32.4v50.2h33.2v12.1h12.9V87.3h25.8v20.1h41.9V79.7h28.6v85.9H583v34.7h90.1v112.4H4.7z"/></g></mask><linearGradient id="SVGID_3_" gradientUnits="userSpaceOnUse" x1="338.917" y1="38.24" x2="338.917" y2="210.747"><stop offset="0" stop-color="#24b6ff"/><stop offset="1" stop-color="#fff"/></linearGradient><path fill="url(#SVGID_3_)" d="M4.7 200.3h52.1v26.4h22.3v-57h21.8v20.1h12.6v-57.2h15V87.3h28v23.1h27.3l10.8 10.7h10.9V65.2h25.2v14.5h21.4v27.7h28.7V72.6h22.6v14.6h11.8l10.2-10.1H337V43.2h32.4v50.2h33.2v12.1h12.9V87.3h25.8v20.1h41.9V79.7h28.6v85.9H583v34.7h90.1v112.4H4.7z"/><linearGradient id="SVGID_4_" gradientUnits="userSpaceOnUse" x1="77.043" y1="236.357" x2="102.258" y2="236.357"><stop offset="0" stop-color="#2b9c27"/><stop offset="1" stop-color="#2eb64d"/></linearGradient><path d="M101.7 283.8c-5.9-4.1-12.7-32.8-13.1-49.9-.2-8.8-2.8-12.4-5.1-15.6-2.2-3.1-4.1-5.7-3-11.8 2.1-11.7-3.4-16.7-3.5-16.8l.6-.7c.2.2 6 5.4 3.8 17.6-1 5.7.7 8.1 2.8 11.1 2.2 3.2 5 7.1 5.3 16.2.4 18.4 7.4 45.5 12.7 49.2l-.5.7z" fill="url(#SVGID_4_)"/><linearGradient id="SVGID_5_" gradientUnits="userSpaceOnUse" x1="96.634" y1="257.17" x2="142.474" y2="257.17"><stop offset="0" stop-color="#2b9c27"/><stop offset="1" stop-color="#2eb64d"/></linearGradient><path d="M103.9 285.9c-.8 0-1.6-.1-2.5-.3-2.3-.5-3.7-1.6-4.4-3.5-1.6-4.5 2.1-11.9 5.1-15.4 0-.1 5-6.1 4.5-14.6-.1-1.4-.2-2.7-.4-3.9-.4-3.3-.6-5.7.8-7.3 1.3-1.4 3.7-2 8.1-2.1 7.8 0 10.9-3.3 13.4-5.9 1.1-1.1 2-2.1 3.3-2.8 3.9-2.1 8-2.4 9.8-.7.8.8 1.6 2.4.2 5.3-1.3 2.7-2.9 4.4-4.3 5.7-1.8 1.8-3 3-2.4 5.5.1.6.3 1.1.5 1.7 1.2 4.1 2.6 8.8-4.5 11.9-1.5.7-2.9 1.2-4.1 1.7-4.9 1.9-7.9 3.1-11.2 10.2-.6 1.4-1.2 2.7-1.8 3.9-2.7 6.1-4.7 10.6-10.1 10.6zm28.3-54.8c-1.1.6-2 1.5-3 2.6-2.6 2.7-5.8 6.1-14.1 6.2-4.1 0-6.4.6-7.4 1.7-1.1 1.3-.9 3.5-.5 6.6.1 1.2.3 2.5.4 3.9.6 8.8-4.5 15-4.7 15.2-2.9 3.5-6.3 10.5-4.9 14.4.5 1.5 1.8 2.5 3.7 2.9 6.6 1.3 8.5-2.8 11.5-9.7.6-1.3 1.1-2.6 1.8-3.9 3.5-7.4 6.8-8.7 11.7-10.6 1.2-.5 2.5-1 4-1.7 6.3-2.8 5.1-6.7 3.9-10.8-.2-.6-.3-1.2-.5-1.7-.8-2.9.7-4.5 2.6-6.4 1.4-1.4 2.9-2.9 4.1-5.5.6-1.3 1.2-3.1 0-4.2-1.4-1.3-5.1-.9-8.6 1z" fill="url(#SVGID_5_)"/><linearGradient id="SVGID_6_" gradientUnits="userSpaceOnUse" x1="100.553" y1="263.836" x2="134.959" y2="263.836"><stop offset="0" stop-color="#2b9c27"/><stop offset="1" stop-color="#2eb64d"/></linearGradient><path d="M101.5 291.5l-1-.1c0-.9 1.3-22.3 9.9-28.6 9.4-6.9 12.4-14.3 13.8-19.2 1.7-5.8 10.2-7.4 10.5-7.5l.2 1c-.1 0-8.3 1.5-9.8 6.8-1.5 5.1-4.5 12.7-14.2 19.8-8.1 5.9-9.4 27.6-9.4 27.8z" fill="url(#SVGID_6_)"/><linearGradient id="SVGID_7_" gradientUnits="userSpaceOnUse" x1="58.963" y1="228.885" x2="110.63" y2="228.885"><stop offset="0" stop-color="#2b9c27"/><stop offset="1" stop-color="#2eb64d"/></linearGradient><path d="M102.2 296.6c-1.2 0-2.8-.8-5-2.6l-.1-.1v-.1c-.1-.3-12-26.1-24-34-7.3-4.8-3.8-10.3-.5-15.6 2.7-4.2 5.4-8.6 3.8-13.2-2-5.7-5-9.2-7.7-12.3-4.6-5.4-8-9.3-1.6-20.5 4.8-8.4.2-15.5-3.9-21.8-2.6-4-4.8-7.4-4-10.5.5-1.8 2-3.2 4.5-4.4.7-.3 1.5-.4 2.3 0 3.7 1.6 6.8 11 7.1 12 3.2 4.2 6.9 3.9 10.2 3.7 2.2-.2 4-.3 5.3 1 1.2 1.2 1.6 3.4 1.3 7-.8 11.8 5.5 14.2 11.1 16.2 3.2 1.2 6.3 2.3 7.4 5.2 1.1 2.9 0 7.3-3.5 13.7-7.6 14-3.6 17.1.5 20.4 3.7 2.9 7.6 6 3.3 16.3-4.1 9.8-3.9 20.4-3.7 28.1.1 6.1.2 10.2-1.8 11.2-.3.2-.7.3-1 .3zm-4.4-3.3c2.4 1.9 4 2.6 4.9 2.2 1.5-.7 1.4-5 1.3-10.3-.1-7.8-.3-18.6 3.8-28.5 4-9.7.6-12.4-3-15.2-4.3-3.4-8.7-6.9-.8-21.6 3.3-6.2 4.4-10.3 3.4-12.9-.9-2.5-3.7-3.5-6.8-4.6-5.6-2.1-12.6-4.6-11.8-17.2.2-3.3-.1-5.3-1.1-6.3s-2.5-.8-4.5-.7c-3.4.2-7.5.6-11.1-4.1l-.1-.1v-.1c0-.1-3.2-10-6.6-11.5-.5-.2-1-.2-1.5 0-2.3 1.1-3.6 2.3-4 3.8-.7 2.6 1.4 5.9 3.8 9.7 4 6.2 9 13.9 3.9 22.8-6 10.6-3 14.1 1.5 19.4 2.7 3.2 5.8 6.7 7.8 12.6 1.8 5-1.2 9.8-3.9 14.1-3.4 5.4-6.3 10 .2 14.3 12.3 7.8 23.7 32.1 24.6 34.2z" fill="url(#SVGID_7_)"/><path fill="#3dbeff" d="M79.3 227H56.6v-26.5H4.7v-.5h52.4v26.5h21.8v-57h22.2v20.1h12.1v-57.2h15V87h28.6v23.1h27.1l10.8 10.8h10.6V65H231v14.4h21.3v27.8h28.2V72.3h23.2V87h11.4l10.2-10.2h11.5V43h32.9v50.2h33.1v12.1h12.4V87h26.3v20.2h41.4V79.4H512v85.9h71.2V200h89.9v.5h-90.4v-34.7h-71.2V79.9h-28.1v27.8H441V87.5h-25.3v18.3h-13.3V93.7h-33.2V43.5h-31.9v33.8h-11.8l-10.2 10.2h-12.1V72.8H281v34.9h-29.2V79.9h-21.3V65.5h-24.7v55.9h-11.3l-10.8-10.8h-27.4V87.5h-27.6v45.3h-15v57.3h-13.1V170H79.3z"/><linearGradient id="SVGID_8_" gradientUnits="userSpaceOnUse" x1="413.227" y1="237.413" x2="458.464" y2="237.413"><stop offset="0" stop-color="#2b9c27"/><stop offset="1" stop-color="#2eb64d"/></linearGradient><path fill="url(#SVGID_8_)" d="M458.5 260.9h-45.3v-1h44.3v-46h1z"/><linearGradient id="SVGID_9_" gradientUnits="userSpaceOnUse" x1="332.351" y1="159.097" x2="388.068" y2="70.917"><stop offset="0" stop-color="#1a2b69"/><stop offset="1" stop-color="#296cc4"/></linearGradient><path d="M479.8 72.2L453 24.8l-26.9 47.3h17c-59.5 168.5-249.8 149.6-249.8 149.6v29.8h53.1c182.5 0 211.9-145.7 216.3-179.4h17.1z" fill="url(#SVGID_9_)"/><linearGradient id="SVGID_10_" gradientUnits="userSpaceOnUse" x1="373.52" y1="219.799" x2="479.625" y2="105.942"><stop offset="0" stop-color="#1a2b69"/><stop offset="1" stop-color="#296cc4"/></linearGradient><path d="M511.5 113.3l-19.1-33.7-19.1 33.7h12.1C443 233.2 307.6 219.8 307.6 219.8V241h37.7c129.9 0 150.8-103.6 153.9-127.6h12.3z" fill="url(#SVGID_10_)"/><linearGradient id="SVGID_11_" gradientUnits="userSpaceOnUse" x1="219.126" y1="301.45" x2="274.156" y2="301.45"><stop offset="0" stop-color="#ff9340"/><stop offset="1" stop-color="#ffce45"/></linearGradient><path fill="url(#SVGID_11_)" d="M219.1 298.1h55v6.7h-55z"/><linearGradient id="SVGID_12_" gradientUnits="userSpaceOnUse" x1="221.134" y1="294.769" x2="276.164" y2="294.769"><stop offset="0" stop-color="#f58631"/><stop offset="1" stop-color="#f2c23f"/></linearGradient><path fill="url(#SVGID_12_)" d="M221.1 291.4h55v6.7h-55z"/><linearGradient id="SVGID_13_" gradientUnits="userSpaceOnUse" x1="220.012" y1="288.088" x2="275.042" y2="288.088"><stop offset="0" stop-color="#ff9340"/><stop offset="1" stop-color="#ffce45"/></linearGradient><path fill="url(#SVGID_13_)" d="M220 284.7h55v6.7h-55z"/><linearGradient id="SVGID_14_" gradientUnits="userSpaceOnUse" x1="221.134" y1="281.407" x2="276.164" y2="281.407"><stop offset="0" stop-color="#f58631"/><stop offset="1" stop-color="#f2c23f"/></linearGradient><path fill="url(#SVGID_14_)" d="M221.1 278.1h55v6.7h-55z"/><linearGradient id="SVGID_15_" gradientUnits="userSpaceOnUse" x1="222.074" y1="274.727" x2="277.104" y2="274.727"><stop offset="0" stop-color="#ff9340"/><stop offset="1" stop-color="#ffce45"/></linearGradient><path fill="url(#SVGID_15_)" d="M222.1 271.4h55v6.7h-55z"/><linearGradient id="SVGID_16_" gradientUnits="userSpaceOnUse" x1="223.485" y1="307.855" x2="278.514" y2="307.855"><stop offset="0" stop-color="#f58631"/><stop offset="1" stop-color="#f2c23f"/></linearGradient><path fill="url(#SVGID_16_)" d="M223.5 304.5h55v6.7h-55z"/><linearGradient id="SVGID_17_" gradientUnits="userSpaceOnUse" x1="282.864" y1="307.687" x2="337.894" y2="307.687"><stop offset="0" stop-color="#f58631"/><stop offset="1" stop-color="#f2c23f"/></linearGradient><path fill="url(#SVGID_17_)" d="M282.9 304.3h55v6.7h-55z"/><linearGradient id="SVGID_18_" gradientUnits="userSpaceOnUse" x1="281.641" y1="301.006" x2="336.671" y2="301.006"><stop offset="0" stop-color="#ff9340"/><stop offset="1" stop-color="#ffce45"/></linearGradient><path fill="url(#SVGID_18_)" d="M281.6 297.7h55v6.7h-55z"/><linearGradient id="SVGID_19_" gradientUnits="userSpaceOnUse" x1="283.887" y1="294.325" x2="338.917" y2="294.325"><stop offset="0" stop-color="#f58631"/><stop offset="1" stop-color="#f2c23f"/></linearGradient><path fill="url(#SVGID_19_)" d="M283.9 291h55v6.7h-55z"/><linearGradient id="SVGID_20_" gradientUnits="userSpaceOnUse" x1="1060.65" y1="-1202.87" x2="1115.919" y2="-1202.87" gradientTransform="rotate(12.735 -5978.604 -3916.116)"><stop offset="0" stop-color="#ff9340"/><stop offset="1" stop-color="#ffce45"/></linearGradient><path fill="url(#SVGID_20_)" d="M343.9 291.9l-55-1.3.1-6.7 55 1.3z"/><linearGradient id="SVGID_21_" gradientUnits="userSpaceOnUse" x1="293.423" y1="171.152" x2="323.114" y2="171.152"><stop offset="0" stop-color="#2b9c27"/><stop offset="1" stop-color="#2eb64d"/></linearGradient><path d="M294.3 182l-.9-.3c2.2-6.5 6.5-12.3 12.3-16.1 5.2-3.5 11.2-5.3 17.4-5.3v1c-6 0-11.9 1.8-16.9 5.1-5.5 3.7-9.7 9.3-11.9 15.6z" fill="url(#SVGID_21_)"/><linearGradient id="SVGID_22_" gradientUnits="userSpaceOnUse" x1="323.114" y1="207.112" x2="354.158" y2="207.112"><stop offset="0" stop-color="#2b9c27"/><stop offset="1" stop-color="#2eb64d"/></linearGradient><path d="M323.1 222.6v-.5c16.9 0 30.6-13.7 30.6-30.6h.5c0 17.2-14 31.1-31.1 31.1z" fill="url(#SVGID_22_)"/><linearGradient id="SVGID_23_" gradientUnits="userSpaceOnUse" x1="323.114" y1="167.403" x2="336.804" y2="167.403"><stop offset="0" stop-color="#2b9c27"/><stop offset="1" stop-color="#2eb64d"/></linearGradient><path d="M336.3 169.7c-4-2.4-8.5-3.7-13.2-3.7v-1c4.8 0 9.6 1.3 13.7 3.8l-.5.9z" fill="url(#SVGID_23_)"/><linearGradient id="SVGID_24_" gradientUnits="userSpaceOnUse" x1="287.673" y1="172.074" x2="344.027" y2="172.074"><stop offset="0" stop-color="#2b9c27"/><stop offset="1" stop-color="#2eb64d"/></linearGradient><path d="M288.6 188.2l-1-.1c.9-8.8 4.9-16.9 11.5-22.8 6.6-6 15.1-9.3 24-9.3 7.6 0 14.8 2.3 20.9 6.8l-.6.8c-5.9-4.3-13-6.6-20.3-6.6-17.9-.1-32.7 13.4-34.5 31.2z" fill="url(#SVGID_24_)"/><defs><path id="SVGID_25_" d="M385 233.1H192.8V131.6h218.6V233l-26.4.1zm-191.3-1h216.6v-99.5H193.7v99.5zm15.3-77.9l-.6-.8c3.7-2.8 6.6-6.5 8.4-10.7l.9.4c-1.9 4.4-4.9 8.3-8.7 11.1z"/></defs><clipPath id="SVGID_26_"><use xlink:href="#SVGID_25_" overflow="visible"/></clipPath><path class="st28" d="M208.4 142.7h1.7v11.5h-1.7z"/><path class="st29" d="M210 142.7h5.8v11.5H210z"/><path class="st30" d="M215.8 142.7h1.8v11.5h-1.8z"/><path class="st31" d="M193.7 132.6h4.8v99.5h-4.8z"/><path class="st32" d="M198.5 132.6h5.8v99.5h-5.8z"/><path class="st28" d="M204.3 132.6h5.8v99.5h-5.8z"/><path class="st29" d="M210 132.6h5.8v99.5H210z"/><path class="st30" d="M215.8 132.6h5.8v99.5h-5.8z"/><path class="st33" d="M221.5 132.6h5.8v99.5h-5.8z"/><path class="st34" d="M227.3 132.6h5.8v99.5h-5.8z"/><path class="st35" d="M233 132.6h5.8v99.5H233z"/><path class="st36" d="M238.8 132.6h5.8v99.5h-5.8z"/><path class="st37" d="M244.5 132.6h5.8v99.5h-5.8z"/><path class="st38" d="M250.3 132.6h5.8v99.5h-5.8z"/><path class="st39" d="M256 132.6h5.8v99.5H256z"/><path class="st40" d="M261.8 132.6h5.8v99.5h-5.8z"/><path class="st41" d="M267.6 132.6h5.8v99.5h-5.8z"/><path class="st42" d="M273.3 132.6h5.8v99.5h-5.8z"/><path class="st43" d="M279.1 132.6h5.8v99.5h-5.8z"/><path class="st44" d="M284.8 132.6h5.8v99.5h-5.8z"/><path class="st45" d="M290.6 132.6h5.8v99.5h-5.8z"/><path class="st46" d="M296.3 132.6h5.8v99.5h-5.8z"/><path class="st47" d="M302.1 132.6h5.8v99.5h-5.8z"/><path class="st48" d="M307.8 132.6h5.8v99.5h-5.8z"/><path class="st49" d="M313.6 132.6h5.8v99.5h-5.8z"/><path class="st50" d="M319.3 132.6h5.8v99.5h-5.8z"/><path class="st51" d="M325.1 132.6h5.8v99.5h-5.8z"/><path class="st52" d="M330.8 132.6h5.8v99.5h-5.8z"/><path class="st53" d="M336.6 132.6h5.8v99.5h-5.8z"/><path class="st54" d="M342.3 132.6h5.8v99.5h-5.8z"/><path class="st55" d="M348.1 132.6h5.8v99.5h-5.8z"/><path class="st56" d="M353.8 132.6h5.8v99.5h-5.8z"/><path class="st57" d="M359.6 132.6h5.8v99.5h-5.8z"/><path class="st58" d="M365.3 132.6h5.8v99.5h-5.8z"/><path class="st59" d="M371.1 132.6h5.8v99.5h-5.8z"/><path class="st60" d="M376.8 132.6h5.8v99.5h-5.8z"/><path class="st61" d="M382.6 132.6h5.8v99.5h-5.8z"/><path class="st62" d="M388.3 132.6h5.8v99.5h-5.8z"/><path class="st63" d="M394.1 132.6h5.8v99.5h-5.8z"/><path class="st64" d="M399.8 132.6h5.8v99.5h-5.8z"/><path class="st65" d="M405.6 132.6h4.8v99.5h-4.8z"/><path class="st31" d="M192.8 131.6V233 131.6zm0 0h5.8V233h-5.8z"/><path class="st32" d="M198.5 131.6h5.8V233h-5.8z"/><path class="st28" d="M204.3 131.6h5.8V233h-5.8z"/><path class="st29" d="M210 131.6h5.8V233H210z"/><path class="st30" d="M215.8 131.6h5.8V233h-5.8z"/><path class="st33" d="M221.5 131.6h5.8V233h-5.8z"/><path class="st34" d="M227.3 131.6h5.8V233h-5.8z"/><path class="st35" d="M233 131.6h5.8V233H233z"/><path class="st36" d="M238.8 131.6h5.8V233h-5.8z"/><path class="st37" d="M244.5 131.6h5.8V233h-5.8z"/><path class="st38" d="M250.3 131.6h5.8V233h-5.8z"/><path class="st39" d="M256 131.6h5.8V233H256z"/><path class="st40" d="M261.8 131.6h5.8V233h-5.8z"/><path class="st41" d="M267.6 131.6h5.8V233h-5.8z"/><path class="st42" d="M273.3 131.6h5.8V233h-5.8z"/><path class="st43" d="M279.1 131.6h5.8V233h-5.8z"/><path class="st44" d="M284.8 131.6h5.8V233h-5.8z"/><path class="st45" d="M290.6 131.6h5.8V233h-5.8z"/><path class="st46" d="M296.3 131.6h5.8V233h-5.8z"/><path class="st47" d="M302.1 131.6h5.8V233h-5.8z"/><path class="st48" d="M307.8 131.6h5.8V233h-5.8z"/><path class="st49" d="M313.6 131.6h5.8V233h-5.8z"/><path class="st50" d="M319.3 131.6h5.8V233h-5.8z"/><path class="st51" d="M325.1 131.6h5.8V233h-5.8z"/><path class="st52" d="M330.8 131.6h5.8V233h-5.8z"/><path class="st53" d="M336.6 131.6h5.8V233h-5.8z"/><path class="st54" d="M342.3 131.6h5.8V233h-5.8z"/><path class="st55" d="M348.1 131.6h5.8V233h-5.8z"/><path class="st56" d="M353.8 131.6h5.8V233h-5.8z"/><path class="st57" d="M359.6 131.6h5.8V233h-5.8z"/><path class="st58" d="M365.3 131.6h5.8V233h-5.8z"/><path class="st59" d="M371.1 131.6h5.8V233h-5.8z"/><path class="st60" d="M376.8 131.6h5.8V233h-5.8z"/><path class="st61" d="M382.6 131.6h5.8V233h-5.8z"/><path class="st62" d="M388.3 131.6h5.8V233h-5.8z"/><path class="st63" d="M394.1 131.6h5.8V233h-5.8z"/><path class="st64" d="M399.8 131.6h5.8V233h-5.8z"/><path class="st65" d="M405.6 131.6h5.8V233h-5.8zm5.7 101.5V131.6v101.5z"/><linearGradient id="SVGID_27_" gradientUnits="userSpaceOnUse" x1="192.778" y1="191.832" x2="453.44" y2="191.832"><stop offset="0" stop-color="#2b9c27"/><stop offset="1" stop-color="#2eb64d"/></linearGradient><path d="M453 252H192.8v-31.3h1V251h258.7V132.1H421v-.5h32.5V252h-.5zm-29.2-10H223.2l-.1-.3c-3.2-9.2-10.6-16.4-19.9-19.2l.3-.9c9.5 2.9 17.1 10.1 20.5 19.5h199.1c2.9-9.3 10.1-16.8 19.4-20.1v-59.3c-9.5-3-17-10.3-20.2-19.7l.9-.3c3.2 9.2 10.6 16.4 19.9 19.2l.3.1v60.8l-.3.1c-9.2 3.2-16.4 10.6-19.2 19.9l-.1.2zm-220-39.6h-1v-40.8l.3-.1c9.2-3.2 16.4-10.6 19.2-19.9l.1-.3h149.4v1H223.2c-2.9 9.3-10.1 16.8-19.4 20.1v40z" fill="url(#SVGID_27_)"/><linearGradient id="SVGID_28_" gradientUnits="userSpaceOnUse" x1="193.262" y1="191.59" x2="452.955" y2="191.59"><stop offset="0" stop-color="#3ddb6f"/><stop offset="1" stop-color="#84f0b1"/></linearGradient><path d="M453 131.6v119.9H193.3v-42.8c3.4-.1 6.7-.2 10.1-.4 93.6-4.8 153.8-47 177-66.7 7.2-6.1 10.8-10.1 10.8-10.1H453z" fill="url(#SVGID_28_)"/><linearGradient id="SVGID_29_" gradientUnits="userSpaceOnUse" x1="275.396" y1="196.142" x2="345.639" y2="196.142"><stop offset="0" stop-color="#2b9c27"/><stop offset="1" stop-color="#2eb64d"/></linearGradient><path d="M358.2 191.6c0 19.4-15.7 35.1-35.1 35.1-19.1 0-34.6-15.2-35.1-34.2 7.6-2.5 14.7-5.3 21.5-8.1 2.6-1.1 5.1-2.2 7.5-3.3l5.2-2.4c.8-.4 1.5-.7 2.3-1.1.7-.3 1.3-.6 2-1 2.8-1.4 5.5-2.8 8.1-4.2 4.3-2.3 8.3-4.6 12.1-6.9 7.1 6.5 11.5 15.8 11.5 26.1z" fill="url(#SVGID_29_)"/><linearGradient id="SVGID_30_" gradientUnits="userSpaceOnUse" x1="379.542" y1="191.589" x2="402.463" y2="191.589"><stop offset="0" stop-color="#2b9c27"/><stop offset="1" stop-color="#2eb64d"/></linearGradient><path d="M410.9 191.6c0 6.3-5.1 11.5-11.5 11.5-6.3 0-11.5-5.1-11.5-11.5 0-6.3 5.1-11.5 11.5-11.5 6.3 0 11.5 5.2 11.5 11.5z" fill="url(#SVGID_30_)"/><linearGradient id="SVGID_31_" gradientUnits="userSpaceOnUse" x1="237.006" y1="196.163" x2="246.154" y2="196.163"><stop offset="0" stop-color="#2b9c27"/><stop offset="1" stop-color="#2eb64d"/></linearGradient><path d="M246.2 200.7c-5 0-9.1-4.1-9.1-9.1h1c0 4.5 3.7 8.2 8.2 8.2v.9z" fill="url(#SVGID_31_)"/><linearGradient id="SVGID_32_" gradientUnits="userSpaceOnUse" x1="246.154" y1="187.015" x2="255.302" y2="187.015"><stop offset="0" stop-color="#2b9c27"/><stop offset="1" stop-color="#2eb64d"/></linearGradient><path d="M255.3 191.6h-1c0-4.5-3.7-8.2-8.2-8.2v-1c5.1 0 9.2 4.1 9.2 9.2z" fill="url(#SVGID_32_)"/><linearGradient id="SVGID_33_" gradientUnits="userSpaceOnUse" x1="234.208" y1="185.616" x2="255.183" y2="185.616"><stop offset="0" stop-color="#2b9c27"/><stop offset="1" stop-color="#2eb64d"/></linearGradient><path d="M235.2 191.6h-1c0-6.6 5.4-11.9 11.9-11.9 3.5 0 6.8 1.5 9 4.1l-.7.6c-2.1-2.4-5.1-3.8-8.3-3.8-6 0-10.9 4.9-10.9 11z" fill="url(#SVGID_33_)"/><path d="M334.6 172.5c-2.6 1.4-5.3 2.8-8.1 4.2.4.1.7.2 1.1.3 1 .3 1.9.7 2.7 1 .8.4 1.5.8 2.1 1.1.6.4 1 .7 1.2.9l3.3-6.1c-.7-.5-1.5-1-2.3-1.4zm2.9 20.6c-.6-1.2-1.4-2.3-2.5-3.1-1.1-.9-2.4-1.6-3.9-2.2-1.6-.6-3.3-1.1-5.2-1.6l-1.4-.3v-8.2c-.8.4-1.5.7-2.3 1.1v6.4c-1.8-.5-3.1-1.1-3.9-1.7-.7-.5-1.1-1.3-1.3-2.3-2.4 1.1-5 2.2-7.5 3.3.1.4.2.8.4 1.2.5 1.1 1.1 2 2.1 2.8.9.8 2 1.5 3.4 2.1 1.4.6 3 1.2 4.8 1.7.3.1.7.2 1 .3.3.1.7.2 1 .2v9.4c-1.3-.1-2.6-.4-3.8-.8-1.2-.4-2.3-.8-3.3-1.3s-1.9-.9-2.6-1.4c-.7-.5-1.2-.9-1.5-1.2l-3.3 6.5c2 1.4 4.2 2.5 6.6 3.4 2.4.9 4.9 1.4 7.5 1.6v6.1h3.3v-6c1.8-.1 3.5-.3 5.1-.8 1.6-.5 3-1.1 4.3-2.1 1.2-.9 2.2-2.1 2.9-3.5.7-1.4 1.1-3.1 1.1-5.2-.2-1.7-.5-3.2-1-4.4zm-13 9.3v-8.8c1.8.6 3.2 1.2 4.3 1.9 1 .7 1.5 1.7 1.5 2.9 0 2.5-2 3.9-5.8 4z" fill="#73fc9c"/><linearGradient id="SVGID_34_" gradientUnits="userSpaceOnUse" x1="193.262" y1="191.59" x2="452.955" y2="191.59"><stop offset="0" stop-color="#2b9c27"/><stop offset="1" stop-color="#2eb64d"/></linearGradient><path d="M391.1 131.6s-3.6 3.9-10.8 10.1h42.4c3.2 9.3 10.8 16.6 20.3 19.5v60c-9.3 3.2-16.6 10.8-19.5 20.3H223.6c-3.2-9.3-10.8-16.6-20.3-19.5v-13.7c-3.3.2-6.7.3-10.1.4v42.8H453V131.6h-61.9z" fill="url(#SVGID_34_)"/><linearGradient id="SVGID_35_" gradientUnits="userSpaceOnUse" x1="246.154" y1="144.756" x2="322.973" y2="144.756"><stop offset="0" stop-color="#2b9c27"/><stop offset="1" stop-color="#2eb64d"/></linearGradient><path fill="url(#SVGID_35_)" d="M246.2 144.3H323v1h-76.8z"/><path class="st76" d="M485.9 200.6s-5.8-13.2.9-12.1c0 0 2.3 1.9 4.7 5.8 1.8 2.9 5.5 10.7 5.4 13.3-.1 2.6-2 4.6-4 8.8 0 0-4.2 7.8-4.4 8.8l-4.4-2.3s3.8-7.5 6.4-14l-4.6-8.3z"/><path transform="rotate(9.667 476.816 224.913)" class="st77" d="M431.5 217.2h90.4v15.4h-90.4z"/><path transform="rotate(9.667 429.87 216.928)" fill="#2d3038" d="M427.3 211.1h4.8v11.7h-4.8z"/><path class="st79" d="M452.2 312.2h-1.1s.4-4.1-.7-4.2c-1 0-3.5 3.4-5 3.9s-9.2 1-9.3-.4c0-1.4 3-2 3.9-2.4.9-.4 5.5-4.8 6.3-5.4.8-.5 2.2-4.2 2.2-4.2l4.3-.2s.2 3.4.5 5.3c.1.7.2 1.3.2 1.7.1 1.5-1.3 5.9-1.3 5.9zm27.8-.8h-1v-3.9c-.8.1-3.3 2.5-4.1 3.2-.8.7-1.9.7-5.2.9-3.3.2-3.7-1.8-3.1-2.5.5-.7 2.2-1 3.1-1.4.9-.4 4.4-4.4 5.3-5.3.9-.9 1.5-3.6 1.5-3.6l3.9.3s0 2.5.4 4.5c0 .2.1.3.1.5.7 2.2-.9 7.3-.9 7.3z"/><path class="st80" d="M465.5 223.9s-1.5 3.5-1.6 4.4c-.1.9-3.6 9.2-4.6 14.8-.6 3.4-2.2 13.9-2.4 15.2-.2 2.3-1.3 7.4-1.5 9.7-.1 1.3-6.5 21.4-8.1 31.9 0 0 3.7.5 6.5-.2 0 0 5.7-10.8 8.8-26.2 1.9-9.3 3.6-14.2 5-18 1.5-3.8 9.8-14.6 10.6-15.8.9-1.2 6.3-7.9 1.2-15.2-5-7.3-13.9-.6-13.9-.6z"/><path class="st80" d="M484.1 254.8c-.5 3.1 0 7.2 1 18.7 1 11.4-1.7 25.3-1.7 25.3-3.4 1.2-7.3 0-7.3 0 .1-.8 0-27.9 0-30.3 0-2.4-.7-5.2-.9-7.9-.1-1.9-1-5.4-2-8.9-.3-1.1-.6-2.1-.9-3.2-.2-.6-.3-1.2-.5-1.7-1.4-4.8-3.3-23.5-3.3-23.5s10.4-8.4 15.4-.5c5.1 7.9 2.5 13.6 2.3 14.6-.1 1-1.6 14.3-2.1 17.4z"/><path d="M479.8 238c-.1.2-5.3 11.7-6.6 13.6-.3-1.1-.6-2.1-.9-3.2s7.3-10.2 7.5-10.4z" fill="#122536"/><path d="M480 311.4h-1v-3.9c-.8.1-3.3 2.5-4.1 3.2-.8.7-1.9.7-5.2.9-3.3.2-3.7-1.8-3.1-2.5.5-.7 2.2-1 3.1-1.4 3.6.2 7.9-4.8 10-4.8 1.1 0 1.1.6 1.1.7 0 .2.1.3.1.5.7 2.2-.9 7.3-.9 7.3zm-27.8.8h-1.1s.4-4.1-.7-4.2c-1 0-3.5 3.4-5 3.9s-9.2 1-9.3-.4c0-1.4 3-2 3.9-2.4 3.2 0 8.4-3.5 10-4.2 1.6-.7 3.3-.3 3.3-.3.1.7.2 1.3.2 1.7.1 1.5-1.3 5.9-1.3 5.9z" fill="#172f42"/><path class="st79" d="M474.7 180.2s1.7 4.4.4 7.8c0 0 6.1-.4 6.3-1.1.2-.7-.2-7.3.6-9.2.8-2-7.3 2.5-7.3 2.5z"/><path class="st76" d="M474.1 186.4s-3.6 1.3-5.2 1.6c-1.6.4-5 2-4.7 8 .3 6 1.3 11.3 1.7 13.9.4 2.6.1 9.2-.5 12.4 0 0 8.6 2.2 18.7 0 0 0-1.8-5.5-1.7-6.9 0-1.4 6-13.1 6.3-14.9.3-1.8 1.5-10-1.2-11.8-2.7-1.8-4.9-1.6-6.1-2.4-1.3-.7-5.6-.4-7.3.1z"/><path class="st76" d="M487.9 231.9c-14.7 3.9-26.4 0-26.4 0 1.1-2.2 1.9-4.4 2.4-6.5.4-1.5.7-3 .9-4.4 1.2-8-.4-14.1-.4-14.1 1.7-14 22.8-18.1 24.5-13.7 1.7 4.4-3.3 23.4-3.5 25.1-.1 1.6 2.5 13.6 2.5 13.6z"/><path class="st79" d="M480 162.6c-2.4-.8-9-1.7-10.7 8.4-1.7 10.1 2 10.3 5.8 10 3.8-.3 9.7-7.1 10.1-9.2.4-2.1 1.7-6.8-5.2-9.2z"/><path class="st83" d="M470.6 166.5s2 4.3 4.7 5.8c0 0 1.7 4.6 5.2 6.4 0 0 9.5-6.3 4-13.8-5.5-7.5-13.3-1.5-13.9 1.6z"/><path class="st79" d="M475 170.8c.2-.5 1.6-1.4 2.3.1.6 1.4-1.7 4-2.3 3.9-.6-.2-.8-2 0-4z"/><path class="st83" d="M484.2 166.1c.2-.3 6.5-3.2 7.8 2.9 1.3 6.1-5.1 13.2-6.2 16.2-1.1 3 .5 10.2.5 10.2s-3.8-3.6-5-7.4c-1.3-4.2-1.7-14.8 2.9-21.9z"/><path d="M484.5 165.9s-1.9 1.5-2.2 3.9c0 0-.4-1.9.4-3 .8-1.2 1.8-.9 1.8-.9z" fill="#e54242"/><path d="M464 225.4c.4-1.5.7-3 .9-4.4 0 0 1-2.1 1.3-3 .3-1 2.8-13.1 2.8-13.1s2.5 11.4-5 20.5z" fill="#b88311"/><path class="st79" d="M453.2 226.1s-1.9 1.9-2.5 2.1c-.6.2-1.8-.9-6.1-1.2-.4 0-1.1.3-.9.8.2.5 2.1 1.9 2.9 2.1.8.2 4.6 1.7 6.5 1 1.9-.7 3.1-3.1 3.1-3.1l-3-1.7z"/><path class="st76" d="M467.9 188.4s-5 2-5.3 9c-.3 7-.6 10.6-.8 11.7-.3 1.1-.8 5.4-2.1 8-1.2 2.5-9.3 10.5-9.3 10.5l3.9 3.7s11.2-11.3 11.9-13.3c.7-2.1 3.5-16.4 3.7-18.8.2-2 2.8-10.6-2-10.8z"/><path d="M326.6 204.5c0 26.1 21.1 47.2 47.2 47.2s47.2-21.1 47.2-47.2-21.1-47.2-47.2-47.2-47.2 21.1-47.2 47.2z" opacity=".1" fill="#b8b8b8"/><path d="M405.2 169.9s-60.7-7.5-72.8 56.5c-3.5-6.5-5.5-14-5.5-21.9 0-25.8 20.9-46.8 46.8-46.8 12.2 0 23.2 4.6 31.5 12.2z" opacity=".3" fill="#869ac2"/><path d="M373.8 148.5c-30.9 0-55.9 25-55.9 55.9s25 55.9 55.9 55.9 55.9-25 55.9-55.9c0-30.8-25-55.9-55.9-55.9zm0 102.6c-25.7 0-46.6-20.9-46.6-46.6 0-25.7 20.9-46.6 46.6-46.6 25.7 0 46.6 20.9 46.6 46.6 0 25.7-20.9 46.6-46.6 46.6z" fill="#3f444f"/><path class="st89" d="M208.2 234.5s2 .7 2.8-.2c.7-.7 2.2-1.2 2.6-1.3.6-.2 2.2-1.4 2.5-.7.2.8-2.6 2.2-3.1 2.6-.5.4 2.4 1.1 2.9 1.6.4.5-.9 5.4-2.9 4.7-2-.7-3.7-2.7-4-2.8-.4-.1-1.5-.4-1.5-.4l.7-3.5z"/><path class="st89" d="M215.4 236.3s5.9 2.5 6.2 3c.3.5.1.8-.5.6-.6-.2-5.8-2.2-5.8-2.2s6.5 4.1 6.8 4.5c.2.2-.1.8-.4.8-.3-.1-7-3.8-7-3.8s6.1 3.9 6.2 4.2c.1.3-.2.8-.7.6-.5-.3-6.3-3.5-6.3-3.5s4.3 3.1 4.2 3.5c0 .2-.2.8-1.3 0s-3.8-2.5-3.8-2.5l2.4-5.2z"/><path d="M181.5 205.7s8.1 12.1 12.7 16.6c1.4 1.4 15.9 11.2 16.4 11.8.5.6-1.4 5.4-1.4 5.4s-18.5-10.7-19.6-11.4c-1.1-.7-14.5-16-15.1-18.2-.7-2.1-.4-4.6 1.7-5.6 3.1-1.5 5.3 1.4 5.3 1.4z" fill="#292c47"/><path class="st91" d="M200.4 236.3c-2.7-15.4 7.6-30 23-32.7 15.4-2.7 30 7.6 32.7 23 2.7 15.4-7.6 30-23 32.7-15.4 2.7-30.1-7.6-32.7-23z"/><path class="st91" d="M234.7 259l-9.8-55.6c14.8-1.7 28.5 8.4 31.1 23.2 2.6 14.8-6.8 28.9-21.3 32.4zm-34.3-22.7c-2.3-13 4.7-25.5 16.3-30.7l9.5 54c-12.7-.9-23.6-10.2-25.8-23.3z"/><path d="M206.7 230.9c.3-11.9 10.2-21.2 22-20.9 11.9.3 21.2 10.2 20.9 22-.3 11.9-10.2 21.2-22 20.9-11.8-.3-21.2-10.1-20.9-22z" fill="#f89829"/><path d="M236.1 228.6c-.1-.3-.3-.6-.6-.9-.3-.3-.6-.7-1-1-.4-.3-.8-.7-1.4-1-.5-.3-1-.6-1.6-.8l-1.9 6.2.5.3c1 .6 1.9 1.2 2.7 1.8.8.6 1.4 1.2 1.9 1.8.5.6.8 1.3.9 2.1.1.8 0 1.6-.2 2.6-.3 1.1-.8 1.9-1.4 2.5-.6.6-1.3 1.1-2.1 1.4-.8.3-1.7.4-2.7.4-1 0-2-.2-3-.5l-.9 3.2-1.6-.5 1-3.2c-1.4-.5-2.7-1.2-3.9-2.1-1.2-.9-2.2-1.9-3-3l2.4-2.4c.1.3.4.7.7 1.1.3.4.7.8 1.2 1.3.5.4 1 .8 1.6 1.2.6.4 1.3.8 2 1l1.9-6.2c-.1-.1-.2-.1-.3-.2-.1-.1-.2-.1-.3-.2-1-.6-1.8-1.2-2.5-1.7s-1.2-1.1-1.6-1.7c-.4-.6-.6-1.2-.7-1.9-.1-.7 0-1.4.2-2.3.3-1 .7-1.8 1.3-2.5.6-.7 1.2-1.2 2-1.5.8-.4 1.6-.6 2.6-.6.9-.1 1.9 0 2.9.2l.9-3 1.6.5-.9 3c1.3.5 2.4 1.1 3.4 1.9 1 .8 1.8 1.6 2.4 2.5l-2.5 2.2zm-10.1-2.2c-.3.8-.1 1.6.3 2.2.5.6 1.2 1.2 2.4 1.9l1.8-5.9c-1.2-.3-2.2-.3-3 0-.8.4-1.3 1-1.5 1.8zm5.7 12.6c.3-.9.1-1.7-.5-2.3-.6-.7-1.4-1.4-2.6-2.1l-1.8 5.9c1.3.4 2.3.4 3.2.2.9-.2 1.4-.8 1.7-1.7z" fill="#f8c681"/><path d="M239.2 257.5c11.9-5 19.2-17.7 16.9-30.9-2.3-13.2-13.5-22.7-26.4-23.4l9.5 54.3zm-13.1 2.2l-9.5-54c2.1-.9 4.3-1.6 6.6-2 .6-.1 1.1-.2 1.7-.2l9.8 55.6c-.5.1-1.1.2-1.7.3-2.3.3-4.6.4-6.9.3z" fill="#f8f8f8"/><path class="st95" d="M153.6 305.3s.9.4 2.2 1.1c1.3.7 2.9 1.5 4.8 1.6 1.9.1 3.9.8 3.8 2.6-.1 1.8-6.2 2.4-12 1.4-5.7-1-5.8-1.1-5.9-1.6 0-.4.4-5 .6-5.1.4-.1 6.5 0 6.5 0z"/><path class="st96" d="M154.1 303.3s-.4 2-.4 2.3c0 .2-6.9 1.4-6.5 0 .4-1.5 2.5-4.4 2.5-4.4l4.4 2.1z"/><path class="st97" d="M178.8 256c-.5-5.6-19.2-17.8-20.1-12.5-.9 5.3 6.8 17.5 7.3 21.5s.1 5-2.9 8.5c-3 3.4-15.7 28.9-15.7 28.9.4 1.9 7 2.5 7.2 2.1.2-.4 18.2-24.2 19.1-25.1 1-.9 4.5-5 5.1-6.9.3-1.3.9-6.8.6-10.7-.1-.1-.5-5.3-.6-5.8z"/><path class="st95" d="M189.9 305.1s1.2.2 2.6.9c1.4.7 3.2 1.9 5.2 2.1 1.9.1 4.2.9 4 2.8-.1 1.9-6.5 2.4-12.4 1.3-5.8-1-5.9-1.2-6-1.6 0-.5.2-3.9.5-4.8.1-.3 6.1-.7 6.1-.7z"/><path class="st96" d="M191.8 303.6s-.6 1.7-.4 1.9c.2.2-7.8.9-7.6.2.1-.4 1.2-2.8 1.8-4 .5-1 6.2 1.9 6.2 1.9z"/><path class="st97" d="M184.2 241.2s21.6 16.4 24.1 19.7c2.4 3.4-.3 8.3-.7 10-.4 1.6-15.5 30.7-15.7 33.5 0 0-6.6.9-8.3-1.2 0 0 9.6-28 11.2-33.3 1.5-5.3-5.3-6.1-9.6-8-4.3-1.9-22.9-12.9-24-17-1-3.8 0-6.6 0-6.6s5.2-3.4 23 2.9z"/><path d="M186 201s1.6 7.1 1.2 11.1c-.4 3.9-4.4 14-4.7 16.2-.3 2.2 1.7 13 1.7 13l-24.3 3.7s0-6.3.9-13.8c.9-7.5 3.7-13.4 4.7-17.6 3.4-14.4 15.7-16.4 15.7-16.4l4.8 3.8z" fill="#cfbeb6"/><path class="st79" d="M197.8 185s1.6 3.8.5 4.3c-.9.4.5 4.1.7 4.7.2.6-1.6.9-2 1.2-.4.3-1.9 4.8-3.3 4.8s-7.4-2.8-8.9-4.8c-1.5-1.9-2.1-10.1-.6-13.3 1.5-3.2 10.8-3.7 13.6 3.1z"/><path class="st79" d="M189.7 198.6s-.2.4-.5.9c-.1.2-.3.5-.4.8-.1.2-.2.4-.4.7-.8 1.5-1.7 3.3-1.9 4.3-.4 1.8-4.4-8.1-4.4-8.1s2.9-5 5.2-11.1c2.2-6.1 2.4 12.5 2.4 12.5z"/><path class="st97" d="M198.1 185.8s2.4-3.7-.9-7-10.6 1.1-11.3 1.2c-.8.1-5-.1-3.7 7.7 1.1 6.7 1.5 6.5 1.5 6.5s1.7-3.2 2.6-3.7c1.3-.8 4-.3 4-.3s-.9-3.5 1.1-3.8c1.9-.2 4.7-1.6 6.7-.6z"/><path class="st79" d="M188.2 188.1c-.1-.5-.5-2.6-2.3-1.6-1.8 1 .6 5.1.8 5.2.3.1 2.6.5 1.5-3.6z"/><path d="M182.5 196.4s2.5 5.9 4.7 7.9l-1 3.5-4.9-10.7 1.2-.7z" fill="#eddad3"/><path fill="#3d4169" d="M184.2 241.2l-.4-2.3-23.8 3.5-.1 2.4z"/><path class="st101" d="M185.4 214.7c-.6 1.3-1.2 2.5-1.8 3.8-1.2 2.8-2.3 5.7-3.3 8.5-.3 1-.7 2-1 3-3.7 11.7-11.1 19.9-11.1 19.9s-9.5-1.8-11.6-3.6c0 0 2.1-13.7 6.5-26.7.3-1 .7-2 1.1-3 3.3-12.7 9.5-19.6 16.9-19.6.2.2 7.5 11.1 4.3 17.7z"/><path class="st101" d="M162.9 220.5s-3.1 13.6-11.1 24.3c-1.1 1.5 10.4 3.7 10.4 3.7l.7-28z"/><path d="M173.8 210c-3.2 2.8-10.5 9.6-10.5 9.6.3-1 .7-2 1.1-3 2.4-2 9.2-6.6 9.4-6.6z" fill="#1d2133"/><path d="M189.7 198.6s-.2.4-.5.9c-.1.2-.3.5-.4.8-3.1-2.8-3.7-4.7-3.7-4.8 1.4 1.3 4.6 3.1 4.6 3.1z" fill="#a77860"/><path class="st77" d="M187.2 207.6s-2.2 8.5-9.7 8.3c-6.7-.2-16.7 2.2-20.1 4.4l-4.2 3 1.4-4.4s3.5-6.8 23-3.9c0 0 5.9 1.7 8.9-8.4-.1 0 .9.6.7 1z"/><path d="M187.1 204.4s.4 2.4.1 3.3c-.1.3-1-.2-1-.2l.9-3.1z" fill="#548ad1"/><path class="st79" d="M215.2 230.2s.5.4 1.1.4c.9 0 2-1.1 3-.2 1 .9-1 4.9-1.7 5.4s-2.4-.3-4.3-2.5c-1.9-2.1 1.9-3.1 1.9-3.1z"/><path class="st79" d="M218.8 230.2s1.9.6 4 1.5c1.8.8 3.9 2.1 3.7 2.6-.3.7-1.9-.6-3.7-1.3-1.7-.6-1.5-.2-1.5-.2s-.1-.1 1.6.9c1.8 1.1 3.7 2.4 3.6 2.8-.2.5-.3.5-1 .2.4.3.4.4.3.6-.5.9-3.4-.4-4.6-.9.9.4 1.5.8.9 1.1-.8.4-4.8-1.6-6.4-2.1-1.7-.5 3.1-5.2 3.1-5.2z"/><path class="st101" d="M182.9 201.3s9.4 12.8 14.7 17.4c1.7 1.5 18.2 10.5 18.8 11.1.6.6-1.5 6.9-1.5 6.9S194.2 226 193 225.3c-1.2-.7-17.7-19.3-18.5-21.6-.8-2.3.4-2.6 2.7-3.8 3.1-1.6 5.7 1.4 5.7 1.4z"/><linearGradient id="SVGID_36_" gradientUnits="userSpaceOnUse" x1="184.509" y1="137.569" x2="216.112" y2="137.569"><stop offset="0" stop-color="#2b9c27"/><stop offset="1" stop-color="#2eb64d"/></linearGradient><path fill="url(#SVGID_36_)" d="M185.5 152h-1v-28.9h31.6v1h-30.6z"/><path class="st1" d="M194.8 114.6l-11.5-11.4h-22.1V88.4h.5v14.3h21.8l11.6 11.5zm365.3 44.8h-40.7V99.5h.5v59.4h40.2zM203.4 55.1h-76.1v-.2c0-6.9 5.7-12.6 12.6-12.6 4.1 0 7.9 2 10.3 5.3 2.3-1.4 5.2-1.6 7.7-.5 2.9-5.8 8.8-9.3 15.2-9.3 5.4 0 10.4 2.5 13.7 6.8 1.6-.8 3.4-1.2 5.1-1.2 6.3 0 11.5 5.2 11.5 11.5v.2zm-75.6-.5h75.1c-.1-6-5-10.8-11-10.8-1.8 0-3.5.4-5.1 1.2l-.2.1-.1-.2c-3.1-4.2-8.1-6.8-13.4-6.8-6.4 0-12.1 3.5-14.9 9.3l-.1.2-.2-.1c-1.1-.5-2.2-.7-3.4-.7-1.5 0-3 .4-4.3 1.2l-.2.1-.1-.2c-2.3-3.3-6-5.3-10-5.3-6.6.2-12 5.5-12.1 12zm277.8-29.5h-60.4v-.2c0-6.8 5.5-12.3 12.3-12.3 2.6 0 5.1.8 7.2 2.3 3.1-4 7.8-6.3 12.8-6.3 6.4 0 12.2 3.7 14.8 9.6 1.4-1.1 3.2-1.7 5-1.7 4.6 0 8.3 3.7 8.3 8.3v.3zm-60-.5H405c-.1-4.2-3.6-7.6-7.8-7.6-1.8 0-3.5.6-4.9 1.7l-.2.2-.1-.3c-2.5-5.8-8.2-9.6-14.5-9.6-5 0-9.6 2.3-12.6 6.3l-.1.2-.2-.1c-2.1-1.6-4.5-2.4-7.1-2.4-6.5.1-11.7 5.2-11.9 11.6z"/><linearGradient id="SVGID_37_" gradientUnits="userSpaceOnUse" x1="89.06" y1="236.487" x2="129.129" y2="236.487"><stop offset="0" stop-color="#2b9c27"/><stop offset="1" stop-color="#2eb64d"/></linearGradient><path d="M122.1 183.9c-6.1-2.1-4.8 9.7-7.4 18.4-2.6 8.7-28.7 3.8-17.8 25.6 11 21.8-13.9 7.3-6.5 26.4 7.4 19.1.6 39.4 8.7 34.3 8.1-5.2 4.5-29.2 12.9-32 8.4-2.9 9.8-6.2 1.5-13.9-8.3-7.8 21.8-15.4 14.4-31.1-7.4-15.8 1.3-25.3-5.8-27.7z" fill="url(#SVGID_37_)"/><path d="M102 287.3c-.8-3.3-7.3-32-1.2-35.4 5.4-3.1 5.3-15 4.4-26.2-.7-9.9 12-14.6 12.6-14.8l.3.9c-.1 0-12.6 4.6-11.9 13.8.9 11.5 1 23.8-4.9 27.1-4.7 2.6-.4 25.7 1.7 34.4l-1 .2z" fill="#fff"/><linearGradient id="SVGID_38_" gradientUnits="userSpaceOnUse" x1="78.933" y1="293.623" x2="115.908" y2="293.623"><stop offset="0" stop-color="#ff9340"/><stop offset="1" stop-color="#ffce45"/></linearGradient><path fill="url(#SVGID_38_)" d="M115.9 277.1l-8.7 33.1H87.7l-8.8-33.1z"/><linearGradient id="SVGID_39_" gradientUnits="userSpaceOnUse" x1="78.933" y1="293.623" x2="115.908" y2="293.623"><stop offset="0" stop-color="#c97332"/><stop offset="1" stop-color="#ffce45"/></linearGradient><path d="M115.9 277.1s-19.2 3.6-19.2 33.1h-9L79 277.1h36.9z" fill="url(#SVGID_39_)"/></svg>