<svg xmlns="http://www.w3.org/2000/svg" version="1.1" id="Capa_1" x="0" y="0" viewBox="0 0 511.974 511.974" xml:space="preserve" width="512" height="512"><path d="M502.441 195.237V485.37c-.028 9.414-7.653 17.039-17.067 17.067h-460.8c-9.414-.028-17.039-7.653-17.067-17.067V195.237l3.584-2.731 2.133 2.731h483.499l2.133-2.731 3.585 2.731z" data-original="#C52828" data-old_color="#C52828" fill="#0b4879" transform="translate(1 1)"/><path d="M476.841 195.237V485.37c-.028 9.414-7.653 17.039-17.067 17.067h-435.2c-.57.016-1.141-.012-1.707-.085a5.025 5.025 0 01-1.195-.171 17.065 17.065 0 01-10.837-6.741 16.592 16.592 0 01-3.328-10.069V195.237h463.616l2.133-2.731 3.585 2.731z" data-original="#F44335" data-old_color="#F44335" fill="#0b4879" transform="translate(1 1)"/><path d="M498.857 192.506l-2.133 2.731-233.216 179.2h-17.067l-233.216-179.2-2.133-2.731 81.749-63.573L205.31 41.637l39.339-30.549a16.665 16.665 0 0120.651 0l39.339 30.549 112.469 87.296 81.749 63.573z" data-original="#FF5722" data-old_color="#FF5722" fill="#1a69a9" transform="translate(1 1)"/><path d="M417.108 58.704v197.717l-25.6 19.712-128 98.304h-17.067l-153.6-118.016V58.704c.028-9.414 7.653-17.039 17.067-17.067h290.133c9.414.028 17.039 7.653 17.067 17.067z" data-original="#CFD8DC" data-old_color="#CFD8DC" fill="#e3e9ed" transform="translate(1 1)"/><path d="M391.508 58.704v217.429l-128 98.304h-17.067l-153.6-118.016V58.704c.028-9.414 7.653-17.039 17.067-17.067h264.533c9.414.028 17.039 7.653 17.067 17.067z" data-original="#F5F5F5" class="active-path" data-old_color="#F5F5F5" fill="#f0f8ff" transform="translate(1 1)"/><path d="M499.113 495.44a16.883 16.883 0 01-13.739 6.997h-25.6c9.414-.028 17.039-7.653 17.067-17.067v-7.253l22.272 17.323z" data-original="#D84315" data-old_color="#D84315" fill="#0b4879" transform="translate(1 1)"/><path d="M476.841 478.117v7.253c-.028 9.414-7.653 17.039-17.067 17.067h-435.2c-.57.016-1.141-.012-1.707-.085a5.025 5.025 0 01-1.195-.171 17.065 17.065 0 01-10.837-6.741l195.499-151.808 38.315-29.781a16.665 16.665 0 0120.651 0l38.315 29.781 173.226 134.485z" data-original="#FF5722" data-old_color="#FF5722" fill="#1a69a9" transform="translate(1 1)"/><path d="M511.522 193.993a8.533 8.533 0 00-.486-1.468 7.655 7.655 0 00-.853-1.306 8.046 8.046 0 00-1.135-1.323c-.137-.119-.196-.282-.341-.401l-82.065-63.735V59.704c0-14.138-11.462-25.6-25.6-25.6h-92.476L271.539 5.355a25.302 25.302 0 00-31.121 0l-37.035 28.749h-92.476c-14.138 0-25.6 11.462-25.6 25.6v66.057L3.268 189.496c-.145.119-.205.282-.341.401a8.005 8.005 0 00-1.135 1.323 7.616 7.616 0 00-.853 1.306 8.42 8.42 0 00-.486 1.468 8.087 8.087 0 00-.35 1.707c0 .179-.102.333-.102.512V486.37a25.313 25.313 0 005.009 15.061c.051.077.06.171.119.239.06.068.188.145.273.239a25.475 25.475 0 0020.173 10.061h460.8a25.482 25.482 0 0020.241-10.103c.068-.085.171-.111.23-.196.06-.085.068-.162.119-.239a25.309 25.309 0 005.009-15.061V196.237c0-.179-.094-.333-.102-.512a8.065 8.065 0 00-.35-1.732zM250.854 18.82a8.182 8.182 0 0110.18 0l19.686 15.283h-49.493l19.627-15.283zM93.841 221.837a8.533 8.533 0 008.533-8.533v-153.6a8.533 8.533 0 018.533-8.533H401.04a8.533 8.533 0 018.533 8.533v153.6a8.533 8.533 0 0017.066 0v-65.937l60.032 46.652-142.31 110.507a8.533 8.533 0 1010.462 13.482l140.083-108.774V481.6L271.539 308.117a25.319 25.319 0 00-31.121 0L17.041 481.6V209.233L156.877 317.82c3.726 2.889 9.088 2.211 11.977-1.515s2.211-9.088-1.515-11.977L25.276 194.018l60.032-46.652v65.937a8.533 8.533 0 008.533 8.534zm390.383 273.067H27.725l223.13-173.321a8.193 8.193 0 0110.18 0l223.189 173.321z" data-original="#000000"/><path d="M255.974 273.037a8.533 8.533 0 000-17.066c-47.128 0-85.333-38.205-85.333-85.333s38.205-85.333 85.333-85.333 85.333 38.205 85.333 85.333v34.133c0 9.426-7.641 17.067-17.067 17.067s-17.067-7.641-17.067-17.067v-34.133c0-4.713-3.82-8.533-8.533-8.533s-8.533 3.82-8.533 8.533c0 18.851-15.282 34.133-34.133 34.133s-34.133-15.282-34.133-34.133 15.282-34.133 34.133-34.133a8.533 8.533 0 000-17.066c-22.915-.051-43.074 15.13-49.354 37.168-6.28 22.038 2.847 45.565 22.347 57.601 19.5 12.036 44.622 9.649 61.507-5.843 1.858 18.046 17.543 31.464 35.659 30.505 18.116-.959 32.297-15.956 32.241-34.098v-34.133c0-56.554-45.846-102.4-102.4-102.4s-102.4 45.846-102.4 102.4 45.846 102.398 102.4 102.398z" data-original="#000000"/></svg>