<svg version="1.1" id="Capa_1" xmlns="http://www.w3.org/2000/svg" x="0" y="0" viewBox="0 0 512 512" xml:space="preserve"><path d="M363.355 445.935H82.581c-9.122 0-16.516-7.395-16.516-16.516V66.065c0-9.122 7.395-16.516 16.516-16.516h280.774c9.122 0 16.516 7.395 16.516 16.516V429.42c0 9.121-7.395 16.515-16.516 16.515z" fill="#edebed"/><path d="M322.065 363.355H214.71c-4.565 0-8.258-3.698-8.258-8.258s3.694-8.258 8.258-8.258h107.355c4.565 0 8.258 3.698 8.258 8.258s-3.694 8.258-8.258 8.258z" fill="#867e88"/><path d="M148.645 371.613a8.231 8.231 0 01-5.839-2.419l-20.645-20.645c-3.226-3.226-3.226-8.452 0-11.677s8.452-3.226 11.677 0l14.806 14.806 27.194-27.194a8.254 8.254 0 0111.677 0 8.254 8.254 0 010 11.677l-33.032 33.032a8.228 8.228 0 01-5.838 2.42z" fill="#b4e6a0"/><path d="M322.065 264.258H214.71c-4.565 0-8.258-3.698-8.258-8.258s3.694-8.258 8.258-8.258h107.355c4.565 0 8.258 3.698 8.258 8.258s-3.694 8.258-8.258 8.258z" fill="#867e88"/><path d="M148.645 272.516a8.231 8.231 0 01-5.839-2.419l-20.645-20.645a8.254 8.254 0 010-11.677 8.254 8.254 0 0111.677 0l14.806 14.806 27.194-27.194a8.254 8.254 0 0111.677 0 8.254 8.254 0 010 11.677l-33.032 33.032a8.224 8.224 0 01-5.838 2.42z" fill="#b4e6a0"/><path d="M297.29 33.032h-33.899c-4.013 0-7.274-2.922-8.102-6.849C252.136 11.227 238.863 0 222.968 0S193.8 11.227 190.646 26.183c-.828 3.926-4.089 6.849-8.102 6.849h-33.899a8.258 8.258 0 00-8.258 8.258v16.516a8.258 8.258 0 008.258 8.258H297.29a8.258 8.258 0 008.258-8.258V41.29a8.258 8.258 0 00-8.258-8.258zm-74.322 8.258a8.258 8.258 0 110-16.517 8.258 8.258 0 010 16.517z" fill="#c9c6ca"/><path d="M322.065 165.161H214.71c-4.565 0-8.258-3.698-8.258-8.258s3.694-8.258 8.258-8.258h107.355c4.565 0 8.258 3.698 8.258 8.258s-3.694 8.258-8.258 8.258z" fill="#867e88"/><path d="M148.645 173.419a8.231 8.231 0 01-5.839-2.419l-20.645-20.645a8.254 8.254 0 010-11.677 8.254 8.254 0 0111.677 0l14.806 14.806 27.194-27.194a8.254 8.254 0 0111.677 0 8.254 8.254 0 010 11.677L154.484 171a8.231 8.231 0 01-5.839 2.419z" fill="#b4e6a0"/><path d="M82.581 379.871V49.548c-9.121 0-16.516 7.394-16.516 16.516v363.355c0 9.122 7.395 16.516 16.516 16.516h280.774c9.121 0 16.516-7.395 16.516-16.516H132.129c-27.365 0-49.548-22.183-49.548-49.548z" fill="#dbd9dc"/><path d="M297.29 66.065H148.645a8.258 8.258 0 01-8.258-8.258v-8.258h165.161v8.258a8.258 8.258 0 01-8.258 8.258z" fill="#b7b2b8"/><path d="M355.097 512c-50.169 0-90.839-40.67-90.839-90.839v-49.548c0-13.682 11.092-24.774 24.774-24.774h132.129c13.682 0 24.774 11.092 24.774 24.774v49.548c0 50.169-40.669 90.839-90.838 90.839z" fill="#ffe17d"/><path d="M355.097 239.484c-36.486 0-66.065 29.578-66.065 66.065v41.29h33.032v-41.29c0-18.243 14.789-33.032 33.032-33.032 18.243 0 33.032 14.789 33.032 33.032v41.29h33.032v-41.29c.001-36.487-29.577-66.065-66.063-66.065z" fill="#6f6571"/><path d="M404.645 317.935v-10.31c0-27.13-20.906-50.789-48.025-51.603-28.06-.842-51.072 21.654-51.072 49.525v12.387c0 6.841-5.546 12.387-12.387 12.387h-4.129v16.516h33.032v-39.871c0-17.252 12.613-32.659 29.788-34.296 19.702-1.879 36.277 13.563 36.277 32.877v41.29h33.032v-16.516h-4.129c-6.841.002-12.387-5.544-12.387-12.386z" fill="#5d5360"/><path d="M371.613 503.742c-50.169 0-90.839-40.67-90.839-90.839v-64.547c-9.6 3.413-16.516 12.486-16.516 23.257v49.548c0 50.169 40.67 90.839 90.839 90.839 17.922 0 34.642-5.201 48.719-14.16a90.74 90.74 0 01-32.203 5.902z" fill="#ffd164"/><path d="M371.613 412.903c0-10.289-9.407-18.379-20.089-16.141-5.988 1.254-10.982 6.055-12.435 11.997-1.624 6.641.786 12.758 5.242 16.585 1.689 1.45 2.508 3.669 2.508 5.895v14.695a8.258 8.258 0 0016.516 0V431.23c0-2.312.97-4.52 2.701-6.053 3.399-3.01 5.557-7.374 5.557-12.274z" fill="#5d5360"/><path d="M351.524 413.278c7.524-1.577 14.404 2.086 17.821 7.918a16.28 16.28 0 002.267-8.293c0-10.289-9.407-18.38-20.089-16.142-5.988 1.255-10.982 6.055-12.435 11.997-1.107 4.528-.327 8.841 1.687 12.322 2.306-3.871 6.292-6.868 10.749-7.802z" fill="#4b3f4e"/></svg>