<svg xmlns="http://www.w3.org/2000/svg" height="512" viewBox="0 0 128 128" width="512"><path d="M1.75 35.373h124.5v71.653a4.476 4.476 0 01-4.476 4.476H6.226a4.476 4.476 0 01-4.476-4.476V35.373z" fill="#ded197" data-original="#F4D844" data-old_color="#f4d844"/><path d="M6.75 16.5h114.5a5 5 0 015 5v13.873H1.75V21.5a5 5 0 015-5z" fill="#fff" data-original="#607880" data-old_color="#607880"/><path d="M118.25 27.686H49.687a1.75 1.75 0 010-3.5h68.563a1.75 1.75 0 010 3.5zm-103.873 0H9.75a1.75 1.75 0 010-3.5h4.627a1.75 1.75 0 010 3.5zm13.313 0h-4.628a1.75 1.75 0 010-3.5h4.628a1.75 1.75 0 110 3.5zm13.31 0h-4.625a1.75 1.75 0 010-3.5H41a1.75 1.75 0 010 3.5z" data-original="#94E0DA" class="active-path" data-old_color="#94E0DA" fill="#5baff3"/><circle cx="64" cy="62.68" fill="#fff" r="17.306" data-original="#607880" data-old_color="#607880"/><rect fill="#eaeaf0" height="12.127" rx="4" width="55.25" x="36.375" y="89.375" data-original="#EAEAF0"/><path d="M64 79.986a17.24 17.24 0 0012.094-4.939l-.588-1.947a8 8 0 00-7.658-5.686h-.383a5.875 5.875 0 10-6.93 0h-.383a8 8 0 00-7.658 5.686l-.588 1.944A17.24 17.24 0 0064 79.986z" fill="#5baff3" data-original="#94E0DA" class="active-path" data-old_color="#94e0da"/><path d="M77.5 89.375h10.125a4 4 0 014 4V97.5a4 4 0 01-4 4H77.5V89.375z" fill="#fff" data-original="#607880" data-old_color="#607880"/><path d="M36.375 109.752h-4.313a1.75 1.75 0 100 3.5h4.313a1.75 1.75 0 100-3.5z" data-original="#000000"/><path d="M121.25 14.748H6.75A6.758 6.758 0 000 21.5v85.528a6.233 6.233 0 006.226 6.226H20.5a1.75 1.75 0 100-3.5H6.226a2.729 2.729 0 01-2.726-2.728v-69.9h121v69.9a2.729 2.729 0 01-2.726 2.726H47.937a1.75 1.75 0 000 3.5h73.837a6.233 6.233 0 006.226-6.226V21.5a6.758 6.758 0 00-6.75-6.752zM3.5 33.623V21.5a3.254 3.254 0 013.25-3.25h114.5a3.254 3.254 0 013.25 3.25v12.123z" data-original="#000000"/><path d="M118.25 24.186H49.687a1.75 1.75 0 000 3.5h68.563a1.75 1.75 0 000-3.5zm-103.873 0H9.75a1.75 1.75 0 000 3.5h4.627a1.75 1.75 0 000-3.5zm13.313 0h-4.628a1.75 1.75 0 000 3.5h4.628a1.75 1.75 0 100-3.5zm13.31 0h-4.625a1.75 1.75 0 000 3.5H41a1.75 1.75 0 000-3.5zm23 22.937a1.75 1.75 0 000-3.5 19.055 19.055 0 1012.243 4.452 1.75 1.75 0 10-2.25 2.682 15.527 15.527 0 012.791 20.765 9.665 9.665 0 00-5.984-5.406 7.625 7.625 0 10-13.6 0 9.665 9.665 0 00-5.985 5.406A15.539 15.539 0 0164 47.123zm-3.848 22.044h.383a1.75 1.75 0 001.035-3.161 4.125 4.125 0 114.861 0 1.75 1.75 0 001.034 3.161h.384a6.214 6.214 0 015.982 4.44l.266.884a15.485 15.485 0 01-20.195 0l.267-.883a6.214 6.214 0 015.983-4.441zm27.473 34.085a5.756 5.756 0 005.75-5.75v-4.127a5.756 5.756 0 00-5.75-5.75h-47.25a5.757 5.757 0 00-5.75 5.75V97.5a5.757 5.757 0 005.75 5.75h47.25zm0-12.127a2.253 2.253 0 012.25 2.25V97.5a2.253 2.253 0 01-2.25 2.25H79.25v-8.625zm-49.5 6.375v-4.125a2.253 2.253 0 012.25-2.25H75.75v8.627H40.375a2.253 2.253 0 01-2.25-2.252z" data-original="#000000"/></svg>