<svg height="512pt" viewBox="-1 0 511 512" width="512pt" xmlns="http://www.w3.org/2000/svg"><path d="M254.547 75.563h91.812c2.844 0 4.176-3.524 2.04-5.403L324.55 49.156a3.084 3.084 0 010-4.629l23.847-21.004c2.137-1.878.805-5.402-2.039-5.402h-91.812zm0 0" fill="#fdb659"/><path d="M324.55 49.156a3.088 3.088 0 010-4.633l23.852-21c2.133-1.882.805-5.402-2.039-5.402h-26.195c2.848 0 4.176 3.524 2.039 5.402l-23.848 21a3.088 3.088 0 000 4.633l23.848 21.004c2.137 1.88.805 5.403-2.039 5.403h26.195c2.844 0 4.172-3.524 2.04-5.403zm0 0" fill="#fd9e28"/><path d="M254.547 146.254a7.784 7.784 0 01-7.785-7.785V7.785c0-4.3 3.484-7.785 7.785-7.785s7.785 3.484 7.785 7.785V138.47c0 4.3-3.484 7.785-7.785 7.785zm0 0" fill="#a7c7d3"/><path d="M508.598 386.207c0-2.5-.993-4.898-2.762-6.668L271.262 144.965c-8.668-8.656-22.703-8.656-31.371 0l-85.653 85.66h-.008L3.262 381.605A9.415 9.415 0 00.5 388.273v73.27C.5 489.41 23.09 512 50.957 512h407.184c27.867 0 50.457-22.59 50.457-50.457zm0 0" fill="#ffae85"/><path d="M505.836 379.54L271.262 144.964c-4.586-4.582-10.672-6.715-16.676-6.445l140.539 180.55A236.038 236.038 0 01444.77 456.12l.183 5.422c0 27.867-22.59 50.457-50.457 50.457h63.645c27.867 0 50.457-22.59 50.457-50.457l.004-75.336a9.442 9.442 0 00-2.766-6.668zm0 0" fill="#ea9e7d"/><path d="M333.215 206.918l-31.809 20.977a7.294 7.294 0 01-8.203-.114l-24.293-16.996a7.294 7.294 0 00-8.574.149l-22.027 16.578a7.3 7.3 0 01-8.442.242l-22.043-14.719a7.307 7.307 0 00-6.707-.726l-46.875 18.32 85.653-85.664c8.668-8.656 22.703-8.656 31.37 0zm0 0" fill="#e9edf1"/><path d="M254.586 138.52l61.851 79.46 16.778-11.062v-.004l-61.953-61.95c-4.586-4.581-10.672-6.714-16.676-6.444zm0 0" fill="#dae2e8"/><path d="M97.95 442.375a18.813 18.813 0 006.831-4.055 18.97 18.97 0 006.028-13.867v-16.02h31.546v16.02c0 4.992 1.946 9.64 5.243 13.082a18.664 18.664 0 007.617 4.84zm0 0" fill="#fedfc5"/><path d="M142.355 407.691v10.059l-7.183 4.379a16.514 16.514 0 01-17.184 0l-7.18-4.379v-10.059zm0 0" fill="#fecbaa"/><path d="M157.402 351.527v38.29a16.556 16.556 0 01-7.93 14.136l-14.3 8.715a16.496 16.496 0 01-17.184 0l-14.3-8.715c-4.926-3-7.93-8.36-7.93-14.137v-38.289c0-10.53 8.523-19.066 19.043-19.066h23.562c10.516 0 19.04 8.535 19.04 19.066zm0 0" fill="#fedfc5"/><path d="M138.363 332.46h-11.945c10.516 0 19.043 8.536 19.043 19.067v38.29a16.56 16.56 0 01-7.934 14.136l-14.297 8.715a16.85 16.85 0 01-2.62 1.285 16.503 16.503 0 0014.562-1.285l14.3-8.715c4.923-3 7.93-8.36 7.93-14.137v-38.289c0-10.53-8.523-19.066-19.039-19.066zm0 0" fill="#fecbaa"/><path d="M157.402 351.527v17.79l-38.644-12.446a5.605 5.605 0 00-4.317.367l-18.68 9.754v-15.465c0-10.535 8.524-19.066 19.04-19.066h23.562c10.516 0 19.04 8.535 19.04 19.066zm0 0" fill="#c97f4c"/><path d="M138.363 332.46h-11.937c10.515 0 19.039 8.536 19.039 19.067v13.946l11.937 3.843v-17.785c0-10.535-8.523-19.07-19.039-19.07zm0 0" fill="#aa6344"/><path d="M67.586 512a5.322 5.322 0 01-5.324-5.32v-26.735c0-15.265 9.726-28.828 24.18-33.695l11.507-3.875a18.74 18.74 0 006.828-4.059 59.513 59.513 0 0021.676 3.579c8.098-.176 15.18-1.954 21.145-4.356a18.685 18.685 0 007.617 4.836l11.508 3.875c14.445 4.867 24.18 18.43 24.18 33.691V512zm0 0" fill="#43a3f9"/><path d="M125.836 441.996L112.3 489.844a3.736 3.736 0 00.812 3.515l10.075 11.23a3.742 3.742 0 005.44.138l11.212-11.301a3.757 3.757 0 00.914-3.75zm0 0" fill="#83d9ff"/><path d="M355.234 442.375a18.797 18.797 0 006.829-4.055 18.973 18.973 0 006.03-13.867v-16.02h31.548v16.02c0 4.992 1.945 9.64 5.242 13.082a18.65 18.65 0 007.613 4.84zm0 0" fill="#fedfc5"/><path d="M399.64 407.691v10.059l-7.183 4.379a16.514 16.514 0 01-17.184 0l-7.18-4.379v-10.059zm0 0" fill="#fecbaa"/><path d="M414.688 351.527v38.29a16.556 16.556 0 01-7.93 14.136l-14.301 8.715a16.496 16.496 0 01-17.184 0l-14.3-8.715c-4.926-3-7.93-8.36-7.93-14.137v-38.289c0-10.53 8.523-19.066 19.043-19.066h23.562c10.516 0 19.04 8.535 19.04 19.066zm0 0" fill="#fedfc5"/><path d="M395.648 332.46h-11.945c10.516 0 19.04 8.536 19.04 19.067v38.29a16.556 16.556 0 01-7.93 14.136l-14.297 8.715c-.844.512-1.723.934-2.621 1.285a16.503 16.503 0 0014.562-1.285l14.3-8.715c4.923-3 7.93-8.36 7.93-14.137v-38.289c0-10.53-8.523-19.066-19.039-19.066zm0 0" fill="#fecbaa"/><path d="M414.688 351.527v17.79l-38.649-12.446a5.597 5.597 0 00-4.312.367l-18.68 9.754v-15.465c0-10.535 8.523-19.066 19.039-19.066h23.562c10.516 0 19.04 8.535 19.04 19.066zm0 0" fill="#c97f4c"/><path d="M395.648 332.46h-11.937c10.516 0 19.039 8.536 19.039 19.067v13.946l11.938 3.843v-17.785c0-10.535-8.524-19.07-19.04-19.07zm0 0" fill="#aa6344"/><path d="M324.867 512a5.321 5.321 0 01-5.32-5.32v-26.735c0-15.265 9.726-28.828 24.18-33.695l11.507-3.875a18.773 18.773 0 006.829-4.059 59.484 59.484 0 0021.675 3.579c8.098-.176 15.18-1.954 21.145-4.356a18.697 18.697 0 007.613 4.836l11.512 3.875c14.445 4.867 24.18 18.43 24.18 33.691v26.079c0 3.3-2.68 5.98-5.985 5.98zm0 0" fill="#43a3f9"/><path d="M383.121 441.996l-13.535 47.848a3.736 3.736 0 00.812 3.515l10.075 11.23a3.742 3.742 0 005.441.138l11.207-11.301a3.74 3.74 0 00.914-3.75zm0 0" fill="#83d9ff"/><path d="M219.977 426.285a23.255 23.255 0 008.406-4.992 23.353 23.353 0 007.422-17.074v-19.723h38.84v19.723a23.262 23.262 0 006.453 16.11 23.106 23.106 0 009.375 5.956zm0 0" fill="#fedfc5"/><path d="M274.645 383.582v12.383l-8.844 5.39a20.312 20.312 0 01-21.153 0l-8.843-5.39v-12.383zm0 0" fill="#fecbaa"/><path d="M293.168 314.441v47.133a20.388 20.388 0 01-9.762 17.406l-17.605 10.73a20.329 20.329 0 01-21.153 0l-17.605-10.73c-6.07-3.69-9.762-10.293-9.762-17.406v-47.133c0-12.968 10.492-23.476 23.438-23.476h29.011c12.946.004 23.438 10.508 23.438 23.476zm0 0" fill="#fedfc5"/><path d="M269.727 290.969h-14.704c12.946 0 23.442 10.504 23.442 23.472v47.137a20.4 20.4 0 01-9.762 17.406l-17.605 10.727a20.365 20.365 0 01-3.227 1.578 20.303 20.303 0 0017.93-1.578l17.605-10.727a20.394 20.394 0 009.762-17.406v-47.137c0-12.968-10.492-23.472-23.441-23.472zm0 0" fill="#fecbaa"/><path d="M293.168 314.441v21.899l-47.578-15.324a6.906 6.906 0 00-5.313.453l-23 12.008V314.44c0-12.968 10.496-23.476 23.442-23.476h29.008c12.949.004 23.441 10.508 23.441 23.476zm0 0" fill="#c97f4c"/><path d="M269.727 290.969H255.03c12.946 0 23.438 10.504 23.438 23.472v17.164l14.699 4.735v-21.9c0-12.968-10.492-23.472-23.441-23.472zm0 0" fill="#aa6344"/><path d="M176.04 512v-39.465c0-18.793 11.976-35.488 29.765-41.48l14.172-4.77a23.065 23.065 0 008.402-5 73.199 73.199 0 0026.687 4.406c9.97-.214 18.688-2.406 26.032-5.359a23.072 23.072 0 009.375 5.953l14.172 4.77c17.78 5.992 29.765 22.687 29.765 41.48V512zm0 0" fill="#83d9ff"/><path d="M254.305 425.82l-16.664 58.903a4.604 4.604 0 001.004 4.328l12.402 13.828a4.603 4.603 0 006.695.168l13.801-13.914a4.596 4.596 0 001.125-4.617zm0 0" fill="#43a3f9"/></svg>