<svg height="511pt" viewBox="-23 0 511 512" width="511pt" xmlns="http://www.w3.org/2000/svg"><path d="M172.242 456.3l-30.93 19.036-58.14 35.781c-4.738 2.914-10.453-1.906-8.367-7.07l20.914-51.856 10.629-26.367zm212.672 54.817l-57.703-35.52-31.352-19.296 65.891-30.477 10.86 26.93 20.683 51.293c2.074 5.164-3.64 9.984-8.379 7.07zm0 0" fill="#38627c"/><path d="M464.832 234.625c0 127.148-103.074 230.223-230.223 230.223S4.387 361.773 4.387 234.625 107.46 4.402 234.609 4.402s230.223 103.075 230.223 230.223zm0 0" fill="#fdb659"/><path d="M106.348 425.824l65.894 30.477-30.93 19.035a257.127 257.127 0 01-45.593-23.14zm266.262 26.93a255.663 255.663 0 01-45.4 22.84L295.86 456.3l65.89-30.477zm0 0" fill="#2f5066"/><path d="M464.836 234.625c0 127.152-103.074 230.219-230.227 230.219-85.168 0-159.523-46.246-199.351-115 18.324 10.605 38.23 18.765 59.289 24.011 35.773 35.993 85.316 58.262 140.062 58.262 109.07 0 197.496-88.422 197.496-197.492 0-54.738-22.273-104.277-58.253-140.04a228.277 228.277 0 00-24.024-59.312c68.754 39.817 115.008 114.184 115.008 199.352zm0 0" fill="#ff8812"/><path d="M432.105 234.625c0 109.07-88.425 197.492-197.496 197.492-54.746 0-104.289-22.27-140.062-58.262 17.906 4.48 36.644 6.856 55.93 6.856 20.996 0 41.34-2.809 60.668-8.078a140.802 140.802 0 0026.98 2.594c77.652 0 140.602-62.95 140.602-140.602 0-11.23-1.317-22.156-3.805-32.633 3.785-16.558 5.785-33.789 5.785-51.5 0-19.277-2.375-38.012-6.855-55.91 35.98 35.766 58.253 85.305 58.253 140.043zm0 0" fill="#e9edf1"/><path d="M380.703 150.492c0 127.153-103.074 230.219-230.226 230.219-19.286 0-38.024-2.375-55.93-6.856-35.492-35.707-57.434-84.898-57.434-139.23 0-109.07 88.426-197.492 197.496-197.492 54.332 0 103.532 21.937 139.243 57.453 4.48 17.894 6.851 36.633 6.851 55.906zm0 0" fill="#fff"/><path d="M378.727 234.625c0 77.652-62.95 140.602-140.602 140.602-9.23 0-18.25-.891-26.98-2.594 81.414-22.18 144.87-87.914 163.773-170.637a141.014 141.014 0 013.809 32.629zm0 0" fill="#ff8812"/><path d="M374.918 201.992c-18.898 82.723-82.355 148.461-163.773 170.64-64.743-12.577-113.622-69.585-113.622-138.007 0-77.652 62.95-140.602 140.602-140.602 66.422 0 122.082 46.047 136.793 107.97zm0 0" fill="#fdb659"/><path d="M318.742 234.625c0 46.465-37.668 84.133-84.133 84.133s-84.132-37.668-84.132-84.133 37.668-84.133 84.132-84.133 84.133 37.668 84.133 84.133zm0 0" fill="#fff"/><path d="M258.95 234.625c0 13.441-10.9 24.34-24.34 24.34s-24.337-10.899-24.337-24.34 10.895-24.34 24.336-24.34 24.34 10.899 24.34 24.34zm0 0" fill="#fdb659"/><g fill="#2f5066"><path d="M234.61 242.402a7.765 7.765 0 01-5.5-2.277L2.776 13.789a7.778 7.778 0 010-10.996 7.783 7.783 0 0111 0L240.11 229.125a7.783 7.783 0 010 11 7.771 7.771 0 01-5.5 2.277zm0 0"/><path d="M37.027 44.188H8.395A7.775 7.775 0 01.617 36.41a7.775 7.775 0 017.778-7.773h20.859V7.777A7.775 7.775 0 0137.027 0a7.775 7.775 0 017.778 7.777v28.637a7.775 7.775 0 01-7.778 7.773zm0 0"/><path d="M61.266 68.43H29.133a7.78 7.78 0 01-7.778-7.778 7.775 7.775 0 017.778-7.777h24.36V28.52a7.775 7.775 0 017.777-7.778 7.775 7.775 0 017.773 7.778v32.132a7.778 7.778 0 01-7.777 7.778zm0 0"/></g></svg>