<svg height="512pt" viewBox="-35 0 512 512" width="512pt" xmlns="http://www.w3.org/2000/svg"><path d="M376.723 0H64.348C49.953 0 38.28 11.668 38.28 26.063V164.34c0 14.394 11.672 26.062 26.067 26.062h103.836c4.53 0 8.66 2.657 10.464 6.809 6.047 13.902 18.817 24.2 34.2 26.812-.02.215-.036.43-.036.653v10.984a7.722 7.722 0 007.723 7.723 7.723 7.723 0 007.727-7.723v-10.984a7.35 7.35 0 00-.035-.653c15.382-2.613 28.152-12.91 34.199-26.812 1.804-4.152 5.933-6.809 10.465-6.809h103.832c14.394 0 26.062-11.668 26.062-26.062V26.062C402.785 11.668 391.117 0 376.723 0zm0 0" fill="#e9edf1"/><path d="M376.723 0h-9.172c.004.105.008.21.008.316-5.989 26.704-20.114 73.196-56.051 120.004-42.797 55.739-93.98 82.57-119.871 94.02 5.992 4.906 13.246 8.332 21.21 9.683a7.22 7.22 0 00-.035.653v10.984a7.725 7.725 0 1015.45 0v-10.984a7.22 7.22 0 00-.035-.653c15.382-2.613 28.152-12.91 34.199-26.808 1.804-4.156 5.933-6.813 10.465-6.813h103.832c14.394 0 26.062-11.668 26.062-26.062V26.062C402.785 11.668 391.117 0 376.723 0zm0 0" fill="#dae2e8"/><path d="M338.418 60.762H102.652a7.725 7.725 0 010-15.45h235.766a7.726 7.726 0 010 15.45zm0 42.91H102.652a7.725 7.725 0 010-15.45h235.766a7.725 7.725 0 010 15.45zm-55.449 42.906H158.102c-4.266 0-7.723-3.457-7.723-7.723s3.457-7.722 7.723-7.722h124.867c4.265 0 7.726 3.457 7.726 7.722s-3.46 7.723-7.726 7.723zm0 0" fill="#a7c7d3"/><path d="M40.79 432.371c2.964-1 5.612-2.598 7.804-4.637a21.714 21.714 0 006.89-15.859v-18.324H91.54v18.324a21.61 21.61 0 005.992 14.965 21.389 21.389 0 008.703 5.531zm0 0" fill="#fedfc5"/><path d="M91.54 392.703v11.504l-8.208 5.008a18.852 18.852 0 01-19.64 0l-8.208-5.008v-11.504zm0 0" fill="#fecbaa"/><path d="M108.738 328.473v43.789a18.952 18.952 0 01-9.062 16.168l-16.344 9.965a18.852 18.852 0 01-19.64 0l-16.344-9.965a18.926 18.926 0 01-9.063-16.168v-43.79c0-12.046 9.742-21.808 21.762-21.808h26.93c12.02 0 21.761 9.762 21.761 21.809zm0 0" fill="#fedfc5"/><path d="M86.977 306.664H73.324c12.02 0 21.762 9.762 21.762 21.809v43.789a18.952 18.952 0 01-9.063 16.168l-16.343 9.965a18.78 18.78 0 01-2.993 1.468 18.854 18.854 0 0016.645-1.468l16.344-9.965a18.952 18.952 0 009.062-16.168v-43.79c0-12.046-9.742-21.808-21.761-21.808zm0 0" fill="#fecbaa"/><path d="M108.738 328.473v20.343l-44.172-14.234a6.389 6.389 0 00-4.93.422l-21.35 11.152v-17.683c0-12.047 9.741-21.805 21.76-21.805h26.93c12.02-.004 21.762 9.758 21.762 21.805zm0 0" fill="#c97f4c"/><path d="M86.977 306.664H73.332c12.02 0 21.762 9.762 21.762 21.809v15.945l13.644 4.398v-20.343c0-12.047-9.742-21.809-21.761-21.809zm0 0" fill="#aa6344"/><path d="M6.082 512A6.085 6.085 0 010 505.914V475.34c0-17.461 11.117-32.969 27.633-38.535l13.156-4.434a21.412 21.412 0 007.8-4.64 68.057 68.057 0 0024.778 4.093c9.254-.203 17.348-2.234 24.16-4.98a21.395 21.395 0 008.707 5.527l13.157 4.434c16.507 5.566 27.632 21.074 27.632 38.535V512zm0 0" fill="#69d998"/><path d="M72.66 431.941l-15.472 54.72a4.275 4.275 0 00.933 4.019l11.512 12.843a4.272 4.272 0 006.219.157l12.808-12.922a4.285 4.285 0 001.047-4.293zm0 0" fill="#3dc5a1"/><path d="M334.836 432.371c2.965-1 5.613-2.598 7.805-4.637a21.7 21.7 0 006.89-15.859v-18.324h36.055v18.324a21.61 21.61 0 005.996 14.965 21.35 21.35 0 008.7 5.531zm0 0" fill="#fedfc5"/><path d="M385.586 392.703v11.504l-8.207 5.008a18.852 18.852 0 01-19.64 0l-8.208-5.008v-11.504zm0 0" fill="#fecbaa"/><path d="M402.785 328.473v43.789a18.952 18.952 0 01-9.062 16.168l-16.344 9.965a18.852 18.852 0 01-19.64 0l-16.344-9.965a18.926 18.926 0 01-9.063-16.168v-43.79c0-12.046 9.742-21.808 21.762-21.808h26.93c12.019 0 21.761 9.762 21.761 21.809zm0 0" fill="#fedfc5"/><path d="M381.023 306.664h-13.652c12.02 0 21.762 9.762 21.762 21.809v43.789a18.952 18.952 0 01-9.063 16.168l-16.343 9.965a18.676 18.676 0 01-2.997 1.468 18.863 18.863 0 0016.649-1.468l16.344-9.965a18.952 18.952 0 009.062-16.168v-43.79c0-12.046-9.742-21.808-21.762-21.808zm0 0" fill="#fecbaa"/><path d="M402.785 328.473v20.343l-44.168-14.234a6.397 6.397 0 00-4.933.422l-21.348 11.152v-17.683c0-12.047 9.738-21.805 21.758-21.805h26.93c12.019-.004 21.761 9.758 21.761 21.805zm0 0" fill="#c97f4c"/><path d="M381.023 306.664H367.38c12.02 0 21.762 9.762 21.762 21.809v15.945l13.644 4.398v-20.343c0-12.047-9.742-21.809-21.762-21.809zm0 0" fill="#aa6344"/><path d="M300.133 512a6.086 6.086 0 01-6.086-6.086V475.34c0-17.461 11.117-32.969 27.637-38.535l13.152-4.434a21.46 21.46 0 007.805-4.64 68.035 68.035 0 0024.773 4.093c9.254-.203 17.348-2.234 24.164-4.98a21.355 21.355 0 008.703 5.527l13.156 4.434c16.508 5.566 27.633 21.074 27.633 38.535v29.82a6.837 6.837 0 01-6.836 6.84zm0 0" fill="#69d998"/><path d="M366.707 431.941l-15.469 54.72a4.273 4.273 0 00.93 4.019l11.512 12.843a4.272 4.272 0 006.218.157l12.813-12.922a4.291 4.291 0 001.043-4.293zm0 0" fill="#3dc5a1"/><path d="M180.25 413.969a26.542 26.542 0 009.61-5.707 26.738 26.738 0 008.48-19.528v-22.558h44.39v22.558a26.604 26.604 0 007.38 18.422 26.305 26.305 0 0010.71 6.813zm0 0" fill="#fedfc5"/><path d="M242.73 365.133v14.16l-10.105 6.168a23.22 23.22 0 01-24.18 0l-10.105-6.168v-14.16zm0 0" fill="#fecbaa"/><path d="M263.902 286.055v53.91c0 8.133-4.234 15.68-11.156 19.902l-20.121 12.27a23.204 23.204 0 01-24.18 0l-20.12-12.27c-6.934-4.222-11.157-11.773-11.157-19.902v-53.91c0-14.832 11.992-26.844 26.789-26.844h33.156c14.793 0 26.79 12.012 26.79 26.844zm0 0" fill="#fedfc5"/><path d="M237.113 259.21h-16.808c14.797 0 26.793 12.013 26.793 26.845v53.91c0 8.133-4.239 15.68-11.16 19.902l-20.122 12.27a23.142 23.142 0 01-3.683 1.808 23.193 23.193 0 0020.492-1.808l20.121-12.27a23.322 23.322 0 0011.156-19.902v-53.91c0-14.832-11.996-26.844-26.789-26.844zm0 0" fill="#fecbaa"/><path d="M263.902 286.055v25.047l-54.379-17.524a7.885 7.885 0 00-6.074.516l-26.281 13.734v-21.773c0-14.828 11.992-26.844 26.789-26.844h33.156c14.793 0 26.79 12.012 26.79 26.844zm0 0" fill="#c97f4c"/><path d="M237.113 259.21h-16.8c14.796 0 26.789 12.013 26.789 26.845v19.632l16.8 5.41v-25.042c0-14.832-11.996-26.844-26.789-26.844zm0 0" fill="#aa6344"/><path d="M130.035 512v-45.137c0-21.492 13.688-40.586 34.02-47.441l16.195-5.453a26.477 26.477 0 009.605-5.715 83.722 83.722 0 0030.5 5.039c11.395-.25 21.36-2.75 29.747-6.133a26.365 26.365 0 0010.718 6.809l16.196 5.453c20.324 6.855 34.02 25.945 34.02 47.441V512zm0 0" fill="#83d9ff"/><path d="M219.484 413.438l-19.043 67.367a5.27 5.27 0 001.145 4.949l14.176 15.812a5.258 5.258 0 007.652.196l15.774-15.914a5.275 5.275 0 001.285-5.282zm0 0" fill="#43a3f9"/></svg>