<svg version="1.1" id="Layer_1" xmlns="http://www.w3.org/2000/svg" x="0" y="0" viewBox="0 0 512 327.1" xml:space="preserve"><style>.st0{fill:#fecbaa}.st1{fill:#ffae85}.st2{fill:#fedfc5}.st6{fill:#38627c}.st7{fill:#4f7693}.st8{fill:#2f5066}</style><path class="st0" d="M380.4 119.2h-93.3c-7.2 0-13-5.8-13-13V12.9c0-7.2 5.8-13 13-13h93.3c7.2 0 13 5.8 13 13v93.3c0 7.2-5.8 13-13 13z"/><path class="st1" d="M380.4-.1h-24.9c7.2 0 13 5.8 13 13v93.3c0 7.2-5.8 13-13 13h24.9c7.2 0 13-5.8 13-13V12.9c0-7.2-5.8-13-13-13z"/><path class="st2" d="M216 139.1h-90c-6.9 0-12.6-5.6-12.6-12.6v-90c0-6.9 5.6-12.6 12.6-12.6h90c6.9 0 12.6 5.6 12.6 12.6v89.9c-.1 7-5.7 12.7-12.6 12.7z"/><path class="st0" d="M216 24h-27.6c6.9 0 12.6 5.6 12.6 12.6v89.9c0 6.9-5.6 12.6-12.6 12.6H216c6.9 0 12.6-5.6 12.6-12.6v-90c-.1-6.9-5.7-12.5-12.6-12.5z"/><path class="st1" d="M328.9 319.6H206c-9.5 0-17.2-7.7-17.2-17.2v-123c0-9.5 7.7-17.2 17.2-17.2h123c9.5 0 17.2 7.7 17.2 17.2v123c-.1 9.5-7.8 17.2-17.3 17.2z"/><path d="M328.9 162.3h-46.2c9.5 0 17.2 7.7 17.2 17.2v123c0 9.5-7.7 17.2-17.2 17.2h46.2c9.5 0 17.2-7.7 17.2-17.2v-123c0-9.5-7.7-17.2-17.2-17.2z" fill="#ea9e7d"/><path d="M504.5 146.1l-.6-70.6c-.6-13.8-12.4-24.4-26.2-23.5l-122.6 8c.1 12.8 10.5 23 23.3 22.9l72-.5 2.7 63 26.8 12.4 24.6-11.7z" fill="#ff84a7"/><path d="M433.5 82.5c-.4-8.8-7.7-15.8-16.5-15.7l-56.2.4c-1.6 0-3.2-.1-4.7-.4 3 9.4 11.8 16.2 22.2 16.1l55.2-.4zm70.4-7c-.5-11.3-8.5-20.5-19-22.9.8 2.3 1.3 4.7 1.4 7.2l.3 36.2c.2 18.9-15.3 34.2-34.1 34l.7 15.5 51.4.7-.7-70.7z" fill="#ef6085"/><path class="st6" d="M453.1 145.4L400.7 200c-4.8 4.9-5.7 12.5-2.2 18.4l31.2 76h18l-15.1-67.2c-.7-1.8-.5-3.8.7-5.4l71.1-75.5-51.3-.9z"/><path class="st7" d="M504.5 146.1l-51.4-.7-17.1 57.8c-1.1 3.7-.2 7.7 2.2 10.7l42.5 80.4h18l-22.2-77.7c-.7-2.5-.5-5.2.5-7.6l27.5-62.9z"/><path class="st2" d="M501.6 21.6L496.1 38c-2.6 7.7-10.9 11.8-18.6 9.2L471 45c-7.7-2.6-11.8-10.9-9.2-18.6l5.5-16.4c2.6-7.7 10.9-11.8 18.6-9.2l6.5 2.2c7.7 2.6 11.8 10.9 9.2 18.6z"/><path class="st8" d="M504.5 327.1h-29.9c-4.2 0-7.5-3.4-7.5-7.5s3.4-7.5 7.5-7.5h29.9c4.2 0 7.5 3.4 7.5 7.5s-3.4 7.5-7.5 7.5zm-54 0h-29.9c-4.2 0-7.5-3.4-7.5-7.5s3.4-7.5 7.5-7.5h29.9c4.2 0 7.5 3.4 7.5 7.5s-3.3 7.5-7.5 7.5z"/><path d="M117.5 89.5c-2.2.2-4.4-.3-6.2-1.4l-45-28.9c-8-5.1-18.5-3.6-24.8 3.5l-3.4 3.9c-5.1 5.8-7.9 13.2-8 20.8l-.5 58.7 27.5 11.6L81 145.4l.6-45.3 25.8 14.3c1.8 1 3.9 1.4 6 1.2L151 111c13.9-1.7 24.4-13.6 24.4-27.6l-57.9 6.1z" fill="#69d998"/><path d="M126.7 104.7c-26.5.9-45.1-13.3-52.8-20.5-1.4-1.3-3.8-.3-3.8 1.6v.5c-.3 22-18 39.8-40 40h-.3l-.2 19.8 51.4-.7.6-45.3 25.8 14.3c1.8 1 3.9 1.4 6 1.2L151 111c13.9-1.7 24.4-13.6 24.4-27.6-3.9 3.9-21.3 20.3-48.7 21.3z" fill="#3dc5a1"/><path class="st6" d="M81 145.4l52.4 54.5c4.8 4.9 5.7 12.5 2.2 18.4l-31.2 76h-18l15.1-67.2c.7-1.8.5-3.8-.7-5.4l-71.1-75.5 51.3-.8z"/><path class="st7" d="M29.6 146.1l51.4-.7-51.4 148.9H10.5l19.1-148.2z"/><path class="st2" d="M43.7 23.5L42 40.7c-.8 8.1 5.2 15.2 13.2 16l6.8.6c8.1.8 15.2-5.2 16-13.2l1.6-17.2c.8-8.1-5.2-15.2-13.2-16l-6.8-.6c-8-.8-15.2 5.1-15.9 13.2z"/><path class="st8" d="M37.4 327.1H7.5c-4.2 0-7.5-3.4-7.5-7.5s3.4-7.5 7.5-7.5h29.9c4.2 0 7.5 3.4 7.5 7.5s-3.3 7.5-7.5 7.5zm76.1 0H83.6c-4.2 0-7.5-3.4-7.5-7.5s3.4-7.5 7.5-7.5h29.9c4.2 0 7.5 3.4 7.5 7.5s-3.4 7.5-7.5 7.5zm255 0H163.6c-4.2 0-7.5-3.4-7.5-7.5s3.4-7.5 7.5-7.5h204.9c4.2 0 7.5 3.4 7.5 7.5s-3.3 7.5-7.5 7.5z"/></svg>