<svg version="1.1" id="Слой_1" xmlns="http://www.w3.org/2000/svg" x="0" y="0" viewBox="0 0 2684.9 2000" xml:space="preserve" enable-background="new 0 0 2684.9 2000"><style>.st1{fill:#e0e0e0}.st11{fill:#007fe6}.st17{fill:#eea886}.st18{fill:#d9d3c8}.st19{fill:#222538}.st20{fill:#ffc955}.st21{fill:#a77860}.st23{fill:#fff}.st41{fill:#616587}.st42{fill:#152b3d}.st43{fill:#ffc05c}.st44{fill:#254380}.st45{fill:#353a3d}.st47{fill:#eea987}.st48{fill:#2f4563}.st49{fill:#202338}.st50{fill:#2f6b8c}.st54{fill:#eddad3}.st55{fill:#c9bab3}.st66{fill:#81807e}.st67{fill:#292c47}.st68{fill:#cac7d1}.st70{fill:#323657}.st72{fill:#a09ea6}.st73{fill:#eae6f2}.st75{fill:#f2dfd8}.st76{fill:#d6c5be}.st80{fill:#ffa855}.st83{fill:#e2d2ca}.st84{fill:#1c1e30}.st86{fill:#282b45}.st87{fill:#1f2136}.st91{fill:#6e6760}.st93{fill:#706865}</style><path class="st1" d="M1124.1 1030.3h5.5V1611h-5.5zm393.5 0h5.5V1611h-5.5zm393.6 0h5.5V1611h-5.5z"/><path d="M733.4 958.7h94.3v15.1h-94.3zm0 28h133.7v15.1H733.4zm389.2-28h110.7v15.1h-110.7zm0 28h70.8v15.1h-70.8zm400.6-28h68.6v15.1h-68.6zm0 28h79.9v15.1h-79.9zm393.5-28h99.9v15.1h-99.9zm0 28h79.9v15.1h-79.9z" fill="#d9d9d9"/><path d="M1126.9 1645.3h62.6v20.2h-62.6zm396.3 0h62.6v20.2h-62.6zm393.5 0h62.6v20.2h-62.6z" fill="#b8b8b8"/><g opacity=".43"><linearGradient id="SVGID_1_" gradientUnits="userSpaceOnUse" x1="733.359" y1="1309.596" x2="2307.448" y2="1309.596"><stop offset="0" stop-color="#ffc05c"/><stop offset="1" stop-color="#ff3857"/></linearGradient><path d="M2171.1 1438.4c-122.7 0-229.4-53.1-340.7-108.4-137.3-68.3-279.3-138.9-468.5-119.6-120.8 12.3-196.6 61.5-263.5 105-60.6 39.3-117.8 73.9-195.4 76.8-125.4 4.8-168.8-48.7-169.6-52V1306c.2.6 27.5 60.6 169.4 59.9 69.9-.4 121.5-33.8 181.2-72.6 69.4-45 148.1-96.1 275.2-109.1 196.8-20.1 342.3 52.2 482.9 122.2 147.2 73.2 287.7 141.8 465.3 82.3v28.2c-50.6 17-91.1 21.5-136.3 21.5z" fill="url(#SVGID_1_)"/></g><g opacity=".22"><linearGradient id="SVGID_2_" gradientUnits="userSpaceOnUse" x1="733.359" y1="1267.002" x2="2308.279" y2="1267.002"><stop offset="0" stop-color="#40d5e6"/><stop offset="1" stop-color="#57f"/></linearGradient><path d="M1434.3 1431.8c-90.6 0-162.5-60.9-232.8-120.6-53.3-45.2-108.7-91.5-172.6-114.3-195-69.6-294.7 57.5-295.6 58.6v-38.7c1.1-1.3 18.8-24.4 70.3-46.5 46.9-20.1 125.5-36.1 233.9 1.6 68.7 23.9 125.8 72.3 181 119.1 111.9 94.9 208.6 176.9 376.5 48.5 127.2-97.2 247-189.9 365-223.8 115.4-33.1 235.6-8.9 348.2 103.7l-.8 35.1c-239.1-240.2-442.8-88-696.3 105.9-67.2 51.5-125 71.4-176.8 71.4z" fill="url(#SVGID_2_)"/></g><linearGradient id="SVGID_3_" gradientUnits="userSpaceOnUse" x1="1496.916" y1="767.972" x2="2058.319" y2="767.972"><stop offset="0" stop-color="#8fd6ff"/><stop offset="1" stop-color="#bfebfe"/></linearGradient><path fill="url(#SVGID_3_)" d="M1500.9 891.5l-4-4.6 66.3-56.5h40.3l91.3-77.8 57.1 48.6h42.2l21.3 18.2 66.1-56.4h33.6l139.2-118.6 4 4.7-140.9 120.1h-33.6l-68.4 58.3-23.6-20.1h-42.1l-54.9-46.8-89.1 75.9h-40.2z"/><linearGradient id="SVGID_4_" gradientUnits="userSpaceOnUse" x1="1487.578" y1="695.889" x2="2047.164" y2="695.889"><stop offset="0" stop-color="#8fd6ff"/><stop offset="1" stop-color="#bfebfe"/></linearGradient><path fill="url(#SVGID_4_)" d="M1510.5 813.5h-22.9v-6.1h20.3l34.4-34.4 25.1 25 59.7-59.8 18.4 18.4 60.6-60.6 36.3 36.3h41.4l63.8-63.9h55.1l40.8-40.7h49.8l49.5-49.5 4.4 4.4-51.3 51.3H1946l-40.7 40.7h-55.1l-63.9 63.9h-46.5l-33.7-33.8-60.6 60.6-18.4-18.4-59.7 59.8-25.1-25z"/><linearGradient id="SVGID_5_" gradientUnits="userSpaceOnUse" x1="1591.624" y1="518.187" x2="1275.209" y2="1419.672"><stop offset="0" stop-color="#c6cbcf"/><stop offset="1" stop-color="#f8f1fe"/></linearGradient><path d="M2122.3 827.5c0-.1-.1-.3-.1-.4-58.9-205.5-206-381.1-409.1-471.5-34.8-15.6-71.3-28.6-109.2-38.8-94.9-25.5-190.4-31.3-282.3-19.9h-.3c-61.8 7.7-122 23.2-179.2 45.8-.1 0-.2.1-.3.1-210.3 82.7-379.8 260.5-443 495.3-106 394 127.3 799.2 521.2 905.1 202.2 54.4 407.4 19.4 573.6-80.9l31 43.1 146.2-105.3-35.3-49c88.1-88.3 154.9-200.1 189.6-329.2 36.2-134.2 32.9-269.8-2.8-394.4zm-540.7 674.8c-261.1 93.6-548.7-42.2-642.2-303.3-91.8-256.3 37.3-538 288.9-636.8 4.8-1.9 9.6-3.7 14.4-5.4 35.6-12.8 71.7-21.3 107.8-25.8 92.4-11.5 184.4 3.3 266.5 40 120.6 53.9 219.9 155 268 289.1 3.8 10.6 7.2 21.2 10.2 31.8 72.1 252.2-63.1 520.6-313.6 610.4z" fill="url(#SVGID_5_)"/><path class="st11" d="M2267.8 785.7l-145.6 41.5-227.1 64.7c-3-10.6-6.5-21.2-10.2-31.8-48.1-134.2-147.4-235.3-268-289.1l96.1-215.3 10.1-22.7 51.7-115.7c244.9 108.9 422.1 320.7 493 568.4z"/><path d="M1723.2 333l-10.1 22.7-96.2 215.3c-82.1-36.7-174-51.5-266.5-40l-29-234-3-24.5c95-11.8 193.8-5.8 291.9 20.6 39.2 10.4 76.9 23.8 112.9 39.9z" fill="#0064b5"/><path d="M1350.4 531c-36 4.5-72.2 13-107.8 25.8-4.9 1.7-9.7 3.6-14.4 5.4l-86.3-219.4-26.1-66.4c62.8-24.9 128.9-41.9 196.8-50.3h.1l5.7 46.4 3 24.5 29 234z" fill="#004e8c"/><linearGradient id="SVGID_6_" gradientUnits="userSpaceOnUse" x1="1838.485" y1="1558.636" x2="2315.643" y2="2248.58"><stop offset="0" stop-color="#57c1ff"/><stop offset="1" stop-color="#bfebfe"/></linearGradient><path fill="url(#SVGID_6_)" d="M2293.3 2000h-291.1l-202.3-281 191.7-138z"/><path d="M1254.6 175.1s-10.5-19.3-16.5-26.2c-6-6.9-25.8-12.1-23.1-21 2.7-8.9 29.3-5 36.6 3.7 7.3 8.7 29.6 11.7 30.4 15.4.8 3.7-7.8 23.7-12.5 26.9-4.8 3.3-14.9 1.2-14.9 1.2z" fill="#6a75ba"/><path d="M1210 191.4s-17.1-13.5-25.3-17.5-28.5-.9-29.5-10.1 24.9-16.2 35-11.2c10.2 5 31.9-1 34 2.1 2.2 3.1 2.3 24.8-.8 29.7-3.1 4.9-13.4 7-13.4 7z" fill="#545d94"/><path class="st17" d="M1247.9 226.7s7.5-51 7.1-59.9c-.1-2.5 15.4-1.6 14.6 3.3-1.6 10.6 5.6 51.6 4.3 59.1-1.1 7.5-26.6 2.2-26-2.5z"/><path class="st17" d="M1224.6 241.3s-14-49.5-17.2-57.8c-1.4-3.7 12.8-9.3 14.7-2.8 3 10.3 25.6 45.1 27.4 52.5 1.8 7.4-23.7 12.7-24.9 8.1z"/><path class="st18" d="M1234.3 275.7s-15-50.6-17.3-56l23.7-14.6s11 32.3 12.5 40.4c1.5 8.1-18.9 30.2-18.9 30.2z"/><path class="st19" d="M1653.3 142s-22.9 5.8-33.7 23.1c-10.9 17.3-20.3 37.2-40.7 46.2-20.4 9-20.6 32.3-19 35.9 1.6 3.6 64.4 74.2 78.1 76.9 13.7 2.7 39.4.8 36.6-17.3-2.7-18.1-29.6-57.2-14.5-76.8 15.1-19.7 18.9-37.8 18.9-37.8l-25.7-50.2z"/><path class="st17" d="M1649.4 226.4s-.7-.2-1.8-.3c-1.3-.1-3.2-.1-5.3.6-.5.2-1.3.5-2.1 1-5.4 3.2-18.3 11.9-20 12.1-2 .2-.3-29.8-.3-29.8s6.8-12.1 7.7-20.1c.8-7.9 21.8 36.5 21.8 36.5z"/><path class="st18" d="M1488.5 257.7s-25.1-17.6-54.6-12.1c-29.4 5.5-32.6 19.3-42.7 19.9-10.1.6-43.9-2.3-71.6 5.8-27.7 8.1-51.1 9-54.3 6.6-3.2-2.3 17.3-48.5 17.3-54.9l-34.4-9s-9.8 41-13.7 50.2c-4.1 9.9-12 28.5-.8 44.7 11.3 16.2 42.7 8.9 61.8 12.1 19.1 3.3 104.3 1.2 119.2.4 16.2-.9 65-3.2 65-3.2l8.8-60.5z"/><path class="st17" d="M1694.8 166.5s1.6 24.8-3.9 32.3c-2.2 3-3.7 4.6-4.7 5.5-1.4 1.2-2.5 2.8-3.1 4.5-1.7 4.8-2.8 11.5-4.1 12.9-1.5 1.6-5.8-2.4-7.3-2.4-1.6 0-16.7 13-20.3 10.4-3.6-2.7-25.7-25-23.8-40.4 1.9-15.3 8.6-38.2 33.4-38.1 24.8 0 31.9 9.1 33.8 15.3z"/><path class="st20" d="M1619.8 284.9c-.5 1-9.6 15.6-19.6 24.1-4.2 3.5-8.5 6-12.3 6h-3.5c-11.5.3-20.3 2.1-35.8 2.8-16.1.8-55.1-1.4-56.3-1.4-1.2 0-12.4 2-12.4 2-4-4.9 6.6-60.3 8.7-60.6 2-.3 15 4.6 27.4 2.6 12.4-2 17.3-3.2 35.8-24.8 18.5-21.7 37-27.1 44.8-25.4 7.8 1.7 23.3 0 23.3 0s.6 73.2-.1 74.7z"/><path class="st19" d="M1684.4 184.2s4.6 12 7.1 13.6c0 0 8.9-9.4 3.2-32.7-5.7-23.3-27.4-25.5-41.3-23.1-17.4 2.9-34.9 61.8-34 67.5.9 5.7 20.4-30.4 37.4-27.5 17.1 2.9 17.2 3.8 27.6 2.2z"/><path class="st21" d="M1647.6 226.1c-1.3-.1-3.2 0-5.3.7-.5.2-1.3.4-2.1.9-4-6.2-7.7-21-7.8-21.5 2.6 5.7 15.2 19.9 15.2 19.9z"/><path d="M1600.2 308.9c-4.2 3.5-8.5 6-12.3 6h-3.5l5.7-46 10.1 40z" fill="#c29941"/><path class="st17" d="M1690 388.1l-11.1 10.1c-9.6-5.1-33.5-22.4-38.1-26.3-4.8-4.1-37.1-31.1-41.5-37.2-4.5-6.1-10.1-69.7-9.5-72.6.6-2.9 28-4.3 31.1 2.4 0 0 1.4 36.2 2.2 42.3.7 6.1 3 11.5 7.2 16.6 5.8 7.1 18 23.5 29.9 36.7 2.8 3.1 26.2 24.8 29.8 28z"/><path class="st20" d="M1623.2 265.2s1.7-48.2-14-47.6c-19.8.8-22.8 25-20.1 51.4 0 0 29.6.3 34.1-3.8z"/><path class="st17" d="M1684.7 383.3s1.5 2.3 3.6 3c3.7 1.2 9.2-1.2 11.8 3.7 2.7 4.8-10.3 16.9-13.8 17.7-3.5.7-9.1-4.7-13.5-15.4-4.3-10.7 11.9-9 11.9-9z"/><path class="st17" d="M1699 388.6s6.6 5 13.3 11.5c5.9 5.7 11.9 13.2 10.4 14.6-2.1 1.9-6.1-4.5-12.3-9.8-5.7-4.8-5.4-3-5.4-3s-.1-.5 5.2 5.9c5.6 6.9 11.4 15.2 9.7 16.3-1.1.7-1.1.9-3.6-1.3 1.1 1.6.9 2.1.3 2.6-3.1 2.6-13-6.3-16.9-9.9 3 2.8 4.9 5.1 1.8 5.4-3.5.4-16.8-12.9-22-17.2-5.7-4.6 19.5-15.1 19.5-15.1z"/><path class="st1" d="M1499.8 259.9s-5.3 38-2.7 56.6c0 0 2.8 2.1 8.3.4 0 0 1.4-41.4 4.4-56.1 0 0-1.7-1.3-10-.9z"/><path class="st1" d="M1501.1 0h4.1v288.7h-4.1z"/><path transform="rotate(-180 2181.635 1497.894)" class="st23" d="M2141.9 1495.1h79.5v5.6h-79.5z"/><path transform="rotate(-180 2181.635 1517.317)" class="st23" d="M2141.9 1505.6h79.5v23.4h-79.5z"/><path transform="rotate(-180 2128.013 1538.65)" class="st23" d="M2104.6 1536.9h46.9v3.5h-46.9z"/><path transform="rotate(-180 2128.013 1546.67)" class="st23" d="M2104.6 1541.9h46.9v9.5h-46.9z"/><path transform="rotate(-180 2236.167 1497.895)" class="st23" d="M2234.4 1465.1h3.5v65.6h-3.5z"/><defs><filter id="Adobe_OpacityMaskFilter" filterUnits="userSpaceOnUse" x="54.5" y="1021.4" width="99.8" height="48.5"><feFlood result="back" flood-color="#fff" flood-opacity="1"/><feBlend in="SourceGraphic" in2="back"/></filter></defs><mask maskUnits="userSpaceOnUse" x="54.5" y="1021.4" width="99.8" height="48.5" id="SVGID_7_"><g filter="url(#Adobe_OpacityMaskFilter)"><defs><filter id="Adobe_OpacityMaskFilter_1_" filterUnits="userSpaceOnUse" x="54.5" y="1021.4" width="99.8" height="48.5"><feFlood result="back" flood-color="#fff" flood-opacity="1"/><feBlend in="SourceGraphic" in2="back"/></filter></defs><linearGradient id="SVGID_8_" gradientUnits="userSpaceOnUse" x1="99.435" y1="808.319" x2="107.839" y2="1214.518"><stop offset="0" stop-color="#fff"/><stop offset="1"/></linearGradient><path mask="url(#SVGID_7_)" fill="url(#SVGID_8_)" d="M77.8 1069.9h76.4l-23.3-48.5H54.5z"/></g></mask><linearGradient id="SVGID_9_" gradientUnits="userSpaceOnUse" x1="99.435" y1="808.319" x2="107.839" y2="1214.518"><stop offset="0" stop-color="#40d5e6"/><stop offset="1" stop-color="#57f"/></linearGradient><path fill="url(#SVGID_9_)" d="M77.8 1069.9h76.4l-23.3-48.5H54.5z"/><defs><filter id="Adobe_OpacityMaskFilter_2_" filterUnits="userSpaceOnUse" x="18.7" y="1021.4" width="41.6" height="48.5"><feFlood result="back" flood-color="#fff" flood-opacity="1"/><feBlend in="SourceGraphic" in2="back"/></filter></defs><mask maskUnits="userSpaceOnUse" x="18.7" y="1021.4" width="41.6" height="48.5" id="SVGID_10_"><g filter="url(#Adobe_OpacityMaskFilter_2_)"><defs><filter id="Adobe_OpacityMaskFilter_3_" filterUnits="userSpaceOnUse" x="18.7" y="1021.4" width="41.6" height="48.5"><feFlood result="back" flood-color="#fff" flood-opacity="1"/><feBlend in="SourceGraphic" in2="back"/></filter></defs><linearGradient id="SVGID_11_" gradientUnits="userSpaceOnUse" x1="34.615" y1="809.661" x2="43.019" y2="1215.858"><stop offset="0" stop-color="#fff"/><stop offset="1"/></linearGradient><path mask="url(#SVGID_10_)" fill="url(#SVGID_11_)" d="M42.1 1069.9h18.2l-23.4-48.5H18.7z"/></g></mask><linearGradient id="SVGID_12_" gradientUnits="userSpaceOnUse" x1="34.615" y1="809.661" x2="43.019" y2="1215.858"><stop offset="0" stop-color="#40d5e6"/><stop offset="1" stop-color="#57f"/></linearGradient><path fill="url(#SVGID_12_)" d="M42.1 1069.9h18.2l-23.4-48.5H18.7z"/><defs><filter id="Adobe_OpacityMaskFilter_4_" filterUnits="userSpaceOnUse" x="2095.5" y="164.9" width="84.7" height="32.7"><feFlood result="back" flood-color="#fff" flood-opacity="1"/><feBlend in="SourceGraphic" in2="back"/></filter></defs><mask maskUnits="userSpaceOnUse" x="2095.5" y="164.9" width="84.7" height="32.7" id="SVGID_13_"><g filter="url(#Adobe_OpacityMaskFilter_4_)"><defs><filter id="Adobe_OpacityMaskFilter_5_" filterUnits="userSpaceOnUse" x="2095.5" y="164.9" width="84.7" height="32.7"><feFlood result="back" flood-color="#fff" flood-opacity="1"/><feBlend in="SourceGraphic" in2="back"/></filter></defs><linearGradient id="SVGID_14_" gradientUnits="userSpaceOnUse" x1="2184.522" y1="6.808" x2="2087.06" y2="371.388"><stop offset="0" stop-color="#fff"/><stop offset="1"/></linearGradient><path mask="url(#SVGID_13_)" fill="url(#SVGID_14_)" d="M2095.5 197.6h84.7v-32.7h-84.7z"/></g></mask><linearGradient id="SVGID_15_" gradientUnits="userSpaceOnUse" x1="2184.522" y1="6.808" x2="2087.06" y2="371.388"><stop offset="0" stop-color="#40d5e6"/><stop offset="1" stop-color="#57f"/></linearGradient><path fill="url(#SVGID_15_)" d="M2095.5 197.6h84.7v-32.7h-84.7z"/><defs><filter id="Adobe_OpacityMaskFilter_6_" filterUnits="userSpaceOnUse" x="2095.5" y="149.7" width="84.7" height="6.1"><feFlood result="back" flood-color="#fff" flood-opacity="1"/><feBlend in="SourceGraphic" in2="back"/></filter></defs><mask maskUnits="userSpaceOnUse" x="2095.5" y="149.7" width="84.7" height="6.1" id="SVGID_16_"><g filter="url(#Adobe_OpacityMaskFilter_6_)"><defs><filter id="Adobe_OpacityMaskFilter_7_" filterUnits="userSpaceOnUse" x="2095.5" y="149.7" width="84.7" height="6.1"><feFlood result="back" flood-color="#fff" flood-opacity="1"/><feBlend in="SourceGraphic" in2="back"/></filter></defs><linearGradient id="SVGID_17_" gradientUnits="userSpaceOnUse" x1="2170.236" y1="31.735" x2="2094.751" y2="314.105"><stop offset="0" stop-color="#fff"/><stop offset="1"/></linearGradient><path mask="url(#SVGID_16_)" fill="url(#SVGID_17_)" d="M2095.5 155.8h84.7v-6.1h-84.7z"/></g></mask><linearGradient id="SVGID_18_" gradientUnits="userSpaceOnUse" x1="2170.236" y1="31.735" x2="2094.751" y2="314.105"><stop offset="0" stop-color="#40d5e6"/><stop offset="1" stop-color="#57f"/></linearGradient><path fill="url(#SVGID_18_)" d="M2095.5 155.8h84.7v-6.1h-84.7z"/><linearGradient id="SVGID_19_" gradientUnits="userSpaceOnUse" x1="553.61" y1="973.821" x2="553.61" y2="1506.171"><stop offset="0" stop-color="#626e7a"/><stop offset="1" stop-color="#f5f5f5"/></linearGradient><path d="M829.7 906.7H277.5c-12.9 0-23.3-10.4-23.3-23.3v-5.9c0-12.9 10.4-23.3 23.3-23.3h552.1c12.9 0 23.3 10.4 23.3 23.3v5.9c.1 12.9-10.4 23.3-23.2 23.3z" fill="url(#SVGID_19_)"/><path class="st41" d="M1170.6 1626.9h304l-95.8 294.3 8.9 2.9 99.9-306.6h-323.9l-98.8 303.7 8.9 2.9z"/><path class="st41" d="M1274.1 1921.2l-95.9-294.3h304.1l96.7 297.2 9-2.9-98.9-303.7h-323.8l99.8 306.6z"/><path class="st41" d="M1142.3 1710.2h372.1v9.4h-372.1zm-38.3 102.3h445.2v9.4H1104z"/><path class="st17" d="M1322.9 955.4s7.6-13.3-4.4-48.8c-11.6-34.4-51.9-31.3-64.7-9.2-12.8 22-8.5 35.7 10.4 60.6 18.8 24.8 50.9 8.7 58.7-2.6zm-93.4 611.5s-2 14.6-2.2 16.8c-.2 2.2-22.1-1.3-22.1-1.3l-1.8-17.4c-.1 0 23.3-.2 26.1 1.9z"/><path class="st42" d="M1227.5 1581.8s6.9 8.8 13.7 12.6c6.7 3.8 17.3 5.4 21.2 9.3 2.9 2.9 10.4 15.2-17.4 14.9-27.9-.3-41.3 1.7-44.3-3s4.3-34.9 4.3-34.9 6.7 2.1 22.5 1.1z"/><path class="st17" d="M1381.1 1566.9s-2 14.6-2.2 16.8c-.3 2.2-22.2-1.3-22.2-1.3l-1.8-17.4s23.5-.2 26.2 1.9z"/><path class="st42" d="M1379.1 1581.8s6.9 8.8 13.7 12.6c6.7 3.8 31.4 7 35.4 11 2.9 2.9 7.6 14.4-31.6 13.3-27.9-.8-41.3 1.7-44.3-3s4.3-34.9 4.3-34.9 8.6 1.6 22.5 1z"/><path class="st43" d="M1236.8 1203.4s-11.2 34.9-9.8 65c1.5 30.1-5.8 63-8.8 94.4-3.3 35-16.9 117.9-17.4 136.7-.5 18.7 2.1 78.6 2.1 78.6l27.2.7s22.8-144.9 28.8-159.7c5.9-14.8 35.3-120.2 36.2-132.1 1.1-12-58.3-83.6-58.3-83.6z"/><path class="st43" d="M1349.6 1199.8s16.5 92.3 18.5 110.7c2 18.4 3.3 89.1 4.3 100.6s6.6 150.5 11.8 167.6h-30.3s-31.1-101.1-31.1-148.9c0-47.8-20.6-104-33.9-135.5-13.3-31.6-43.8-32.3-52-90.8-.1-.1 101.6-22.3 112.7-3.7z"/><path class="st17" d="M1311.9 964.7s-3.4 10 0 17.1c3.4 7.1-43.7 2.8-43.7 2.8s2.1-14.7-4-26.8c-6.2-12 47.7 6.9 47.7 6.9z"/><path class="st43" d="M1234.7 1211s16.9 17.4 116.5-2.7l-1.5-8.5-113.1 4.3-1.9 6.9z"/><path class="st17" d="M1319.1 984.1s17.4 1.8 22.4 2.7c5 .9 38.4-6 45.3-6.7 6.9-.7 36.2-20.8 37.1-23.1.9-2.4 17.8-45.1 18.8-54.3.9-9.2 16.4-4.5 15.1 1.9-2.5 11.9-5.7 40.8-7.4 49.2-1.9 9-6.9 29.5-9.8 32.1s-29.2 22.6-55 31.1-45.2 21.1-45.2 21.1H1213s-49.5-70.7-50.5-81.4c-1.1-10.7 34.6-81.5 41.7-90.4 7.1-8.9 17.4 2.9 17.4 2.9s-21.3 62.5-24.1 71.3c-2.8 8.9 24.8 47.9 32.3 48 7.6.1 27-2.4 35.7-2.7 8.6-.4 17.8-4.1 17.8-4.1l35.8 2.4z"/><path class="st44" d="M1373.9 1031.4s-15.6 10.4-17 28.1-7.1 45.8-9.9 55.4c-2.8 9.6 2.5 79.2 3.2 84.2.7 5-98.4 16.8-113.7 5 0 0-4.3-65-6-83.5-1.8-18.5-10.3-63.2-13.1-69.3s-37.3-54.4-38.7-60.7c0 0 17.8-28.4 30.6-28.8 0 0 20.3 23.8 26.9 24.9 6.6 1.1 47.2-6.4 47.2-6.4s4.4 6 28-1.1c0 0 28 3.2 32.6 3.7 5.5.7 43.9-4.8 43.9-4.8s15.4 26 12.7 39.2l-26.7 14.1z"/><path class="st17" d="M1441.7 908.2s3.5-16.5-.7-21.2c-2.4-2.7-8.1-9.8-8.6-10.9-.5-1-6.7-4.6-6.7-6.3s6-3.8 11.3 1c5.2 4.8 8.5 5.9 10.6 5.4 2.1-.5 5.1-17.9 5.4-22.2s1.9-15.7 4.6-14.9c2.7.8 2.6 5.8 2.6 5.8s3.1-8.6 5.2-6.9c2.1 1.7 1.8 5.9 1.8 5.9s3.9-4.8 5-1.3c1 3.5 0 6.7 0 6.7s4.1-2.2 4.3 3.3c.3 5.5-1.2 21.6-4.1 27.3-2.9 5.8-13.7 20.8-14.9 26.7-1.3 5.8-15.8 1.6-15.8 1.6zm-223.6-28.9s11.8-19.9 15.9-21.7c4-1.8 9.7-2.8 14.7-6.3 5-3.6 11.5-6.5 11.2-7.7-.4-1.2-6.2-.7-12.5 2s-9 1.4-9.6 0c-.6-1.4 3.3-11.5 5.2-13.8 1.9-2.4 15.4-15.9 13.1-18-2.3-2-11 5.4-12.4 7 0 0 7-14.7 4.3-15.4-2.7-.7-7.8 4.5-7.8 4.5s.6-12.6-12.9 7.8c0 0 2.8-6.7-1.3-4.5-4.1 2.3-8.2 14.9-9.5 21.3-1.3 6.4-7.2 26.8-12.3 31.7s13.9 13.1 13.9 13.1z"/><path class="st45" d="M1264.2 957.9s6.2.6 19.5-4 14.3-27.8 17.1-25c5.9 5.6 11.4 1.7 13.6-1.6 0 0-6.5-8.5-3.5-12.6s7.9-7.1 7.9-7.1-9.3-45-51.8-24.5c-49.7 23.9-2.8 74.8-2.8 74.8z"/><path class="st44" d="M1311.9 981.8l-1.5-6.5s-27.1-.5-41.9 1.6l-1.6 7.8c.1 0 19 8.6 45-2.9z"/><path class="st17" d="M1305.2 923.2c-2.5-4.1-11.6-6.8-12.6 4.7-.8 9 16.3 18.8 16.4 10.4.2-8.4-2.1-12.4-3.8-15.1z"/><path d="M1442.4 904.5s9.8.2 14.5 4.5c0 0 .3 2.7-.8 4.9 0 0-8.5-4-15-4.7 0 0 .1-3.6 1.3-4.7z" fill="#e55353"/><path class="st45" d="M1453.9 906.9c.9 2.1-.1 4.6-2.2 5.5-2.1.9-4.6-.1-5.5-2.2-.9-2.1.1-4.6 2.2-5.5 2.1-.9 4.6.1 5.5 2.2z"/><path class="st47" d="M2226.1 1134.9s-8.7 1.2-8.6-2.5c.1-3.7.7-8.5.7-8.5l7.9 11z"/><path class="st47" d="M2274.9 1095.1l-28.5 22c3.6-.7 9.7-1.6 9.8.3.2 2.7-10.8 6-14.3 8.4-3.2 2.3-6.6 6.3-7.5 6.5l-6.2 5.3-10.1-13.8s16.6-18.8 20.6-22.8c6.5-6.5 32.9-10.4 34.3-9.4 2.7 1.8 1.9 3.5 1.9 3.5z"/><path class="st48" d="M2239.8 1138.7l-23-19.5-78.8 79.6c-12.3 8.5 24.1 37.7 34.3 44.1 26.4 16.4 57.6 54.3 89.9 31.2 35-25.1-16-42.9-33-42.4-14.7.4-46.8-28.6-46.8-28.6l57.4-64.4z"/><path class="st49" d="M2198.2 1853.1s-13.1 13.7-26.4 16.6-22.6 6.6-22.7 14.4c-.1 7.9 38.2 13.1 53.5 5.1 22.7-11.9 25-8.3 27.5-14.2 2.5-5.9-3-21.8-2.9-23.7.2-2.2-29 1.8-29 1.8z"/><path class="st50" d="M2199.6 1846.5s-1.7 6.4-1.5 6.6c.3.1 29.9 3.5 29-1.7-.7-4.2-1.8-8.7-1.8-8.7l-25.7 3.8z"/><path class="st49" d="M2346 1856.7s-9.6 13.4-22.5 16.5c-12.7 3-20.9 8.8-21.6 16.5-.6 7.7 29.9 17.7 51.4 4.2 14.1-8.8 19.4-8.3 22.2-14 2.8-5.6-1.5-21.4-1.2-23.2.5-2.2-28.3 0-28.3 0z"/><path class="st50" d="M2346.4 1850.1s-.6 6.5-.4 6.6c.2.1 28.5 5.2 28.4.1-.1-4.1-1.8-9.1-1.8-9.1l-26.2 2.4z"/><path d="M2229.6 1459.8s-13.7 99.9-19.4 133.6c-6.6 39.5-8.8 72.1-10.6 92.5-2.3 25.7-5.4 157.2-7 164.7s40 3.6 40 3.6 21.8-171.4 28.7-198.8c6.4-25.5 25-135.6 30.8-128.6 5.8 7 23.7 131.7 28 151.7s15.9 178.3 15.9 178.3 39.3 6.3 47.2 0c0 0-6.2-141.1-8.9-178.8-1-14.4 9.1-171.9-15.2-235.4-12.8-33.5-129.5 17.2-129.5 17.2z" fill="#877d78"/><path class="st43" d="M2269.9 1220.3s-36.4 7.5-40.7 11.3c-4.7 4.1-13 43.9-13.4 55s4.4 57.5 9.1 74.7c4.7 17.3 4.7 92 1.8 115.9 0 0 70.1 14.3 142.1 5 0 0-9.8-72.7-6.9-96.3 3.7-30.3 12.6-100.1 12.6-100.1s.1-39.3-5.5-45.6c-11.9-13.5-57.9-19.9-57.9-19.9h-41.2z"/><path class="st48" d="M2324.6 1293.2c1.7 36 13.2 44.7 24.4 41.9 3.5-.9 7-2.9 10.1-5.5 4.8-4.2 8.6-9.9 9.9-15.4 4.9-20 5-75.3-20.3-82.4 0-.1-27.5-9-24.1 61.4z"/><path d="M2215.7 1309.5s20.3-3.4 21.5 26.1 14 84.1 34.7 105.9l-81.7 3.1c-20.8-21.8-31-74-32.5-103.4-1.4-27.1-21.5-26.1-21.5-26.1l79.5-5.6z" fill="#f5e1d9"/><path class="st48" d="M2263.4 1242.1l1.5.9c1.9.9 4.2 1.6 7.1 1.9 1.1.1 2.2.2 3.2.1.7 0 1.3-.1 2-.1 19.3-1.9 38.4-23.9 38.4-23.9-38.7-5.9-55.2 1.3-55.2 1.3s-6.2 13.6 3 19.8z"/><path class="st17" d="M2271.7 1108.8s-45.8-9.2-34 47.8c11.8 57 22.8 61.3 50 48.8s23.8-49.1 24.8-67.2-26.3-29.1-40.8-29.4z"/><path class="st17" d="M2264.2 1228.1s9 6 43.2-9.1c0 0-3.4-20.3 1.9-42.5 5.1-21.4-42 26.4-42 26.4.5.4.7 2.6.3 5.6-.1.8-.2 1.7-.3 2.6-.2 1.6-.6 3.3-1 5-.1.5-.2.9-.4 1.4-1.9 7.4-1.7 4.3-1.7 10.6z"/><path class="st45" d="M2310.9 1167.7s-2.3-15.4-8.9-15.8c-6.6-.4-8.5 9-8.5 9l-5.2.5s2.1-16.3-4.5-18.9c-6.6-2.6-42.5 6.3-47.9 1.7-5.4-4.5-2.7-34.5 6.7-39.2 9.4-4.6 34.7-17.2 54.3-4.6 0 0 15-2.1 17.6 10 2.5 12.3.3 48.2-3.6 57.3z"/><path class="st17" d="M2293.8 1146.6c1.1-5.4 12-6.4 12.2 1.8.2 8.2-6.8 22-10.7 20.2-4.1-1.8-3.1-14.6-1.5-22z"/><path d="M2307.3 1212.6s-17.9 10.8-35.5 13.2l9.4 15 29.8-20.5-3.7-7.7zm-41.4 5s1.9 6.2 5.9 8.2l-8.8 12.3.3-16.3 2.6-4.2z" fill="#4b6f9e"/><path class="st23" d="M2271.8 1225.8l-7 9.7s4.4 5.6 13.9 1.4l-6.9-11.1z"/><path class="st23" d="M2264.9 1243c1.9.9 4.2 1.6 7.1 1.9 1.1.1 2.2.2 3.2.1l-1.1-9.1h-6.5c.2.1-1.5 2.7-2.7 7.1z"/><path class="st21" d="M2266.1 1217c20.2 1.1 33.2-19.9 33.6-20.5-12.7 13.9-32.4 14.7-32.4 14.7-.3 1.6-.8 4.1-1.2 5.8z"/><path class="st54" d="M2215.7 1309.5s-24.3 2.3-19.2 36.2l-72.2 3.9s-10-23.1 11.9-34.5l79.5-5.6z"/><path transform="matrix(-.9986 .05373 -.05373 -.9986 4387.56 2550.913)" class="st55" d="M2131.3 1333h56.4v2.9h-56.4z"/><path transform="matrix(-.9986 .05371 -.05371 -.9986 4396.51 2524.64)" class="st55" d="M2136.1 1319.9h56.4v2.9h-56.4z"/><path transform="matrix(.9986 -.05371 .05371 .9986 -69.366 119.83)" class="st55" d="M2166.3 1348.9h56.4v2.9h-56.4z"/><path transform="matrix(.9986 -.05373 .05373 .9986 -70.435 120.274)" class="st55" d="M2173.4 1368.6h56.4v2.9h-56.4z"/><path transform="matrix(.9986 -.05372 .05372 .9986 -71.465 120.646)" class="st55" d="M2180.5 1388.3h56.4v2.9h-56.4z"/><path transform="matrix(.9986 -.05373 .05373 .9986 -72.535 121.09)" class="st55" d="M2187.5 1408.1h56.4v2.9h-56.4z"/><path transform="matrix(.9986 -.05371 .05371 .9986 -73.564 121.462)" class="st55" d="M2194.6 1427.8h56.4v2.9h-56.4z"/><path class="st17" d="M2278.3 1372.9s-3.1 1.5-5.8.7c-4.7-1.3-8.7-7.8-14.8-4.4-6.1 3.3-1 25.8 2.1 29.1s12.7 1.4 24.6-7.2c11.9-8.6-6.1-18.2-6.1-18.2z"/><path class="st17" d="M2259.9 1368.4s-10.4.8-21.8 3c-10 2-22.2 5.9-21.7 8.4.7 3.8 10.3-.5 20.4-1.8 9.3-1.2 7.6.6 7.6.6s.4-.5-9.4 2.8c-10.6 3.5-21.8 7.8-21.5 9.9.4 2.6.7 2.9 4.8 2.2-2.3.9-2.3 1.6-2.1 2.6 1.4 5.1 17.8 2.3 24.3 1.2-5 .9-8.6 2.1-5.7 4.6 3.3 2.9 26.3-2 34.7-3 9.2-1-9.6-30.5-9.6-30.5z"/><path class="st48" d="M2340.6 1232.4c-7.4 2.4-11.4 12.9-6.9 34.7 5 24.1 10.6 35.8 13.8 41.5 3.2 5.7 20.6 34.8 17.5 39.4-3.2 4.6-45.3 15.6-48.1 16.4-5.7 1.6-43.9 9.2-43.9 9.2l9.3 32.7s116.3-19.8 121.9-25.5 8.6-13.3 2.4-33.1c-6.4-20.1-17.8-67.1-19.8-70.8-2.1-3.6-12.7-55.5-46.2-44.5z"/><path d="M2334.7 1271.9s2.6 36.9 14.3 63.2c3.5-.9 7-2.9 10.1-5.5 0 0-13.5-24.3-14.7-27-1.2-2.8-8.3-24.2-9.7-30.7z" fill="#1e2c40"/><linearGradient id="SVGID_20_" gradientUnits="userSpaceOnUse" x1="552.028" y1="1166.855" x2="552.028" y2="2306.574"><stop offset="0" stop-color="#44607d"/><stop offset="1" stop-color="#f5f5f5"/></linearGradient><path d="M814.2 1362.8H289.8c-18.7 0-33.9-15.2-33.9-33.9V974.5c0-18.7 15.2-33.9 33.9-33.9h524.4c18.7 0 33.9 15.2 33.9 33.9V1329c0 18.7-15.2 33.8-33.9 33.8z" fill="url(#SVGID_20_)"/><linearGradient id="SVGID_21_" gradientUnits="userSpaceOnUse" x1="676.361" y1="1071.247" x2="694.873" y2="1071.247"><stop offset="0" stop-color="#d5e4ff"/><stop offset="1" stop-color="#edfffe"/></linearGradient><path fill="url(#SVGID_21_)" d="M676.4 1019.8h18.5v102.9h-18.5z"/><linearGradient id="SVGID_22_" gradientUnits="userSpaceOnUse" x1="708.862" y1="1057.531" x2="727.373" y2="1057.531"><stop offset="0" stop-color="#d5e4ff"/><stop offset="1" stop-color="#edfffe"/></linearGradient><path fill="url(#SVGID_22_)" d="M708.9 992.4h18.5v130.3h-18.5z"/><linearGradient id="SVGID_23_" gradientUnits="userSpaceOnUse" x1="742.968" y1="1064.706" x2="761.479" y2="1064.706"><stop offset="0" stop-color="#d5e4ff"/><stop offset="1" stop-color="#edfffe"/></linearGradient><path fill="url(#SVGID_23_)" d="M743 1006.7h18.5v116H743z"/><linearGradient id="SVGID_24_" gradientUnits="userSpaceOnUse" x1="778.01" y1="1081.367" x2="796.521" y2="1081.367"><stop offset="0" stop-color="#d5e4ff"/><stop offset="1" stop-color="#edfffe"/></linearGradient><path fill="url(#SVGID_24_)" d="M778 1040h18.5v82.7H778z"/><path d="M676.4 1057.4h18.5v65.3h-18.5zm32.5-17.4h18.5v82.7h-18.5zm34.1 9.1h18.5v73.6H743zm35 22.1h18.5v51.4H778z" fill="#007bde"/><path class="st23" d="M784.1 1187.3h-95.4c-4 0-7.3-3.3-7.3-7.3v-14.7c0-4 3.3-7.3 7.3-7.3h95.4c4 0 7.3 3.3 7.3 7.3v14.7c0 4-3.2 7.3-7.3 7.3zm0 54.9h-95.4c-4 0-7.3-3.3-7.3-7.3v-14.7c0-4 3.3-7.3 7.3-7.3h95.4c4 0 7.3 3.3 7.3 7.3v14.7c0 4-3.2 7.3-7.3 7.3zm0 54.9h-95.4c-4 0-7.3-3.3-7.3-7.3v-14.7c0-4 3.3-7.3 7.3-7.3h95.4c4 0 7.3 3.3 7.3 7.3v14.7c0 4-3.2 7.3-7.3 7.3zm-155.8-204.6c-24.5-68.4-89.9-110.4-158.8-108.4-16.7.5-33.6 3.6-50.1 9.5-50.2 18-86.2 57.9-101 105.2-10.2 32.7-10.3 69 2.1 103.7 1.2 3.5 2.6 6.9 4 10.2 6.5 15.1 15.1 28.7 25.3 40.7 42.8 50.3 113.7 71.5 179.6 48 85-30.4 129.3-123.9 98.9-208.9zm-112.7 170.4c-49.4 17.7-102.6 1.7-134.6-36-7.6-9-14.1-19.2-19-30.5-1.1-2.5-2.1-5-3-7.6-9.3-26.1-9.3-53.2-1.6-77.8 11.1-35.4 38.1-65.4 75.7-78.9 12.4-4.4 25.1-6.8 37.6-7.1 51.7-1.6 100.7 30 119 81.2 22.8 63.8-10.3 133.9-74.1 156.7z"/><path d="M357.4 1111l-39-12.2c14.8-47.2 50.8-87.2 101-105.2 16.6-5.9 33.5-9 50.1-9.5l1.2 40.9c-12.5.4-25.2 2.7-37.6 7.1-37.6 13.5-64.6 43.5-75.7 78.9z" fill="#1a598c"/><path d="M362 1196.4l-37.5 16.3c-1.4-3.3-2.8-6.7-4-10.2-12.4-34.8-12.4-71-2.1-103.7l39 12.2c-7.7 24.5-7.7 51.7 1.6 77.8.9 2.6 1.9 5.1 3 7.6z" fill="#2273b5"/><path d="M349.8 1253.4c-10.2-12-18.8-25.6-25.3-40.7l37.5-16.3c4.9 11.3 11.3 21.5 19 30.5l-31.2 26.5z" fill="#3788cc"/><path class="st49" d="M795 1840.9s-6 11.2-9.9 15.6c-3.9 4.4-18.9 12.4-19 25.5-.1 14.3 25.3 10.3 35.2 9.8 9.9-.5 10.7-8.2 14.8-16.2 4.2-8.1 8.4-6.7 9.2-13.2.8-6.5-4-21.5-4-21.5H795z"/><path class="st66" d="M820.9 1836.6s1.2 6.1.9 6.2c-.2.1-28.1 5.1-27.9.1.1-4 2.6-8.7 2.6-8.7l24.4 2.4z"/><path class="st17" d="M1076.2 1311.4s29.2-6.2 31.4-4.9c2.2 1.3 2.3 2.9-.4 3.6-2.7.7-28.1 6.8-28.1 6.8s35.5-1.3 37.5-.7c1.2.4 1.6 3.5.2 4-1.4.5-36.6 3.9-36.6 3.9s33.1-1.1 34.6-.1c1.3.9 1 4-1.4 4.2-2.5.3-33.2 3.1-33.2 3.1s24.1.7 24.8 2.5c.5 1 1 3.8-5.2 3.4-6.2-.4-21 .3-21 .3l-2.6-26.1z"/><path class="st49" d="M946 1838.8s12.2 13.6 24.6 16.5c12.4 2.9 21.1 6.5 21.2 14.3.1 7.8-35.7 13-49.9 5.1-21.2-11.8-23.3-8.2-25.7-14.1-2.3-5.9 2.8-21.6 2.7-23.5-.2-2.3 27.1 1.7 27.1 1.7z"/><path class="st66" d="M944.6 1832.3s1.6 6.4 1.4 6.5c-.2.1-27.9 3.4-27.1-1.7.7-4.2 1.6-8.7 1.6-8.7l24.1 3.9z"/><path class="st67" d="M919.4 1449.8s10.1 97.9 15.3 131.4c6.1 39.2 8.2 71.5 9.9 91.8 2.1 25.5 2.6 150.9 4.1 158.4 1.5 7.5-33.4 2.1-33.4 2.1s-17.2-163.9-23.6-191c-6-25.3-28.1-134.2-33.5-127.2-5.4 6.9-12.2 127-16.2 147-4 19.9-16.3 176.1-16.3 176.1s-27.8 5.5-35.1-.7c0 0-3.4-134.6-.8-171.9 1-14.2-16.7-170.8 6-233.9 12-33.6 123.6 17.9 123.6 17.9z"/><path class="st68" d="M746.7 1463.7s17 5.2 24.1 3.9c7.1-1.3 3.5-88.6 3.8-106.8.2-14.7 8.3-53.6 8.3-53.6v.2c.8 2.9 11.7 43.3 12.1 62.7.4 20.1-2.6 97.1-2.6 97.1l30 2.9 86.2 2.1 18-2.1s-2.1-32.9-2.9-48.6c-.5-9.9-2.4-27.7-1.9-45.1 0 0-.3-18.3 1.5-26.1.2-34.7 2.3-69.1 2.3-69.1 1.2-15.7 2-30.5 2.4-44.2-3.8-2-8.4-4.4-12-6.1-11.3-5.4-27.1-12.6-37.2-17.3-5.9-2.7-11.7-4.7-11.7-4.7s-40.4-3.9-43.7-3.7c-1 .1-6.1 1.8-12.7 4.4-14.3 5.4-42 16.5-46.4 19.7-6.5 4.6-20.1 114.4-20.7 122.1-1.2 13.7 3.1 112.3 3.1 112.3z"/><path d="M924 1456.2s-59.2 5-111 0v17s77.8 11.2 113.6-3.2l-2.6-13.8z" fill="#1d2033"/><path class="st70" d="M873.5 1211.2s9.6 22.6 16.8 73.1c2.8 19.4 7.9 52.1 11.7 85.4 2.9 26.3 9.7 53.3 11.8 73.4 2.2 20.8 8.9 82.3 8.9 82.3l16.2-10.2c2.3-2.1 5.5-4.9 4.6-7.9-4.4-14.4-13-61.9-18-103.3v-.1c-.2-2-.5-4-.7-5.9v-.3c-1-8.3-1.7-16.2-2.3-23.5-.4-5.6 0-11 .7-16.3 2.3-37.2 3.4-76.3 3.4-76.3 1.2-16 1.9-31 2.3-45-2.6-2-8.4-5.1-12.5-7 0 0-36.1-16.4-42.9-18.4z"/><path class="st68" d="M870.5 1223s1.1 15.5-12 15.8c-13.1.4-23.5-12.2-23.5-12.2l21.7 5.6 13.2-11.2.6 2z"/><path class="st17" d="M1043.3 1323.9s9.5-2.7 10.8-8.4c1.1-4.8 5.8-10.5 7.3-12.2 1.9-2.3 5.5-11.6 8.2-9.3 2.7 2.4-5.1 15.6-6.2 18.7-1.1 3.1 12.1-2.3 15.1-1.4 3.1.9 9.2 23.7-.2 26.4-9.4 2.7-20.8-.9-22.4-.1-1.6.8-6.8 2.2-6.8 2.2l-5.8-15.9z"/><path class="st47" d="M852.8 1104.5s30 5.1 24.9 52.1c-5.1 47-31.6 42.8-33.4 42.8-1.8-.1-26.7.6-28-56.9.1 0-.3-42.5 36.5-38z"/><path class="st47" d="M866 1185.7s0 19.4.8 23.5c.9 4.5-24.1 17.5-40.2 2.4 0 0 3.3-21.1 2.2-28.6-1-7.4 37.2 2.7 37.2 2.7zm11.8-40.1s3.3-3.5 4.5.1c1.2 3.6-4.2 18.7-4.9 20.1 0 0-.6 1.4-1.4.6-.8-.7 1.8-20.8 1.8-20.8zm-61.1-3.6s-3.2-3.6-4.5-.1c-1.3 3.5 3.5 19.3 4.1 20.3 0 0 1 1.6 1.8.9.9-.7-1.4-21.1-1.4-21.1z"/><path class="st45" d="M880.3 1139.3c-1 6.4-2 11.2-2 11.2l-4.4 5.7s.3-12.6-.4-14.6c-.3-.8-.5-2.1-.9-3.5-.5-2.4-1-5.1-1.4-6-.6-1.4-25.7-8.8-48.1 1.5 0 0 .2 1.9.2 4.1 0 2.5-.3 5.3-1.4 5.8-2.1.8-1.3 14.8-1.3 14.8l-3.5-4s-1-7.3-2-15.7v-.1c-.2-2-.5-4-.7-6-.5-8.4.3-23.8 11.3-32.8 7.4-3.2 19.3-5.9 39 .2 0 0 4.9 1.4 6.2 2.6 12.3 13.6 9.4 36.8 9.4 36.8z"/><path d="M830.8 1193.1s4.8 6.7 15.9 6.4c11.1-.3 16-6.1 16-6.1s-5.3 11-16 10.9-15.9-11.2-15.9-11.2z" fill="#c78d71"/><path class="st72" d="M867.9 1224l-11.2 8.3s9.4-19.9 9.6-27.9l1.6 19.6z"/><path class="st73" d="M866.3 1204.3l7.6 7.1 8 23.9-14-11.3z"/><path class="st70" d="M1055.9 1346s-66.1 17.4-82.3 13.4c-7.5-1.8-17.3-12.1-26.7-24.3-3.1-4-6.1-8.2-9-12.3-11.5-16.6-20.5-32.4-20.5-32.4s-33.9-39.7-6.7-57.4c0 0 11.5-1.2 18 3.7 6 4.4 20.7 32.4 23.1 37.6 2.4 5.2 28.1 53.3 29.9 54.4 1.7 1.1 23.8-2.9 35.5-3.8 19-1.6 34.8-6.4 34.8-6.4l3.9 27.5z"/><path class="st47" d="M864.9 1211.4s-3.1 10.9-8.2 20.8c0 0-11.8-10.3-15.5-14-3.6-3.6 23.7-6.8 23.7-6.8z"/><path class="st72" d="M844.4 1220.7l12.3 11.5s-14.5-1-17.3-3.4l5-8.1z"/><path class="st73" d="M828.1 1199.5s9.8 16 16.3 21.2l-10.9 18.1L816 1207l12.1-7.5z"/><path class="st70" d="M775.9 1361.6c-1.3 16.9 5.9 110.1-1.2 111.5-7.1 1.3-33.3-4.4-33.3-4.4s-3.3-100.6-2.2-111.1c.8-7.7 13-122.8 19.4-127.4 3.7-2.7 31.3-12.5 44.9-17.8 2.5-1 10.3-4.3 12.5-5.1 2.9 3.2 27.9 62 30.3 107.8.7 14-2.5 43.4-5 67.5-2.7 25.7-5.6 45.7-7.7 67.2-4.2 42.3-7.2 76-7.2 76l-42.1-18.7c-6.8-3.4-16.2-17.4-13.7-24.6 9.7-27.3 22-73.8 22-97.7 0 0-4.7-58.6-8.4-71.4-.1-.4-6.7 26.7-8.3 48.2z"/><path fill="#3a4066" d="M854 1457.3h27.9v20.7H854z"/><path class="st54" d="M791.5 1566.8h-91.8l21.6-61.1H813z"/><path class="st75" d="M791.5 1566.8h-91.8l21.6-61.1H813z"/><path class="st76" d="M721.3 1627.9H813l-21.5-61.1h-91.8z"/><path class="st75" d="M791.5 1688.9h-91.8l21.6-61H813z"/><path class="st76" d="M721.3 1750H813l-21.5-61.1h-91.8z"/><path class="st55" d="M726.6 1515.9h52.3v2.3h-52.3zm-3.1 8.2h52.3v2.3h-52.3zm-3.4 8.2h42.3v2.3h-42.3zm6.5 105.3h52.3v2.3h-52.3zm-3.1 8.2h26.2v2.3h-26.2z"/><path class="st17" d="M769.4 1474.2s.5 1.6 1.4 4.2c1.5 4.5 6.3 9.7 3.3 15.8-3 6.2-25.2 2.3-28.5-.6-3.4-2.9-2-12.3 5.8-24.4s18 5 18 5z"/><path class="st17" d="M774.8 1492s-.2 10.2-1.9 21.4c-1.4 9.9-4.6 22-7.1 21.7-3.8-.5-.1-10.1.7-20 .7-9.1-1-7.4-1-7.4s.5-.5-2.2 9.3c-2.9 10.5-6.5 21.7-8.5 21.5-2.5-.3-2.8-.5-2.4-4.5-.7 2.2-1.5 2.4-2.4 2.1-5-1.1-3.2-17.3-2.5-23.7-.6 4.9-1.6 8.5-4.2 5.8-3-3.1.6-25.8 1.2-34 .5-9.1 30.3 7.8 30.3 7.8z"/><path class="st70" d="M777 1408.7l-.4 74.1s-14.8-.7-35.2-8.2l-1.4-104.5 37 38.6z"/><linearGradient id="SVGID_25_" gradientUnits="userSpaceOnUse" x1="612.49" y1="1459.523" x2="612.49" y2="1369.854"><stop offset="0" stop-color="#ff9f55"/><stop offset="1" stop-color="#ffd255"/></linearGradient><path d="M658.4 1374.7l-51.5 116-1.4 3.1c-2.7.3-4.9-.3-5.7-.6l1.1-2.6 51-114.8-74.3-79.9-11.2-2.4 1.2-5.4 12.8 2.8 78 83.8z" fill="url(#SVGID_25_)"/><linearGradient id="SVGID_26_" gradientUnits="userSpaceOnUse" x1="-9053.835" y1="1502.782" x2="-9006.124" y2="1502.782" gradientTransform="matrix(-1 0 0 1 -8427.019 0)"><stop offset="0" stop-color="#ff9f55"/><stop offset="1" stop-color="#ffd255"/></linearGradient><path d="M579.2 1513h47.6s-.1-1.1-.5-2.9c-1.4-5.7-6.7-17.6-25.2-17.6s-21.6 12-21.9 17.6c-.2 1.8 0 2.9 0 2.9z" fill="url(#SVGID_26_)"/><linearGradient id="SVGID_27_" gradientUnits="userSpaceOnUse" x1="-9003.179" y1="1301.398" x2="-8957.66" y2="1301.398" gradientTransform="matrix(-1 0 0 1 -8427.019 0)"><stop offset="0" stop-color="#ff9f55"/><stop offset="1" stop-color="#ffd255"/></linearGradient><path d="M530.6 1270.2l3.2 9.1 19.5 55.3c7.9-2.8 14.2-8.2 18.1-15 4.9-8.4 6.2-18.7 2.7-28.6-6.2-17.8-25.7-27.1-43.5-20.8z" fill="url(#SVGID_27_)"/><path class="st80" d="M608.2 1490.6v2.5c-.9.3-1.8.5-2.6.6-2.7.3-4.9-.3-5.7-.6-.2-.1-.3-.1-.3-.1v-2.4h8.6z"/><path d="M579.2 1513h47.6s-.1-1.1-.5-2.9h-47.1c-.2 1.8 0 2.9 0 2.9z" fill="#ffa555"/><path class="st80" d="M530.6 1270.2l3.2 9.1c11.4 9 29.1 24.5 37.6 40.3 4.9-8.4 6.2-18.7 2.7-28.6-6.2-17.8-25.7-27.1-43.5-20.8z"/><path class="st17" d="M369.9 1368s8.3-10.5 9.6-12.1c1.3-1.6 6.5-3 12.5-4.2 6-1.1 14.5.3 15.2 1.1.7.8 1.7 1.3 2 4.3.3 2.9-1 5.6-1 5.6s1.9 3.4.1 6.6c0 0 1.6 3.3-.9 6.6 0 0 1.5 3.2-.5 5.5 0 0-5.2 1.5-7 2.6-1.8 1.2-12.7 3.4-23.4 3.9.1.1-9.9-3.2-6.6-19.9z"/><path d="M130.3 1692L83 1889.2H72.6l40.1-197.6zm51.6 0l-47.3 197.2h-10.4l40.1-197.6zm83.5 0l47.3 197.2h10.4L283 1691.6z" fill="#858585"/><path class="st83" d="M310.2 1693.9H106.4s-14.2-.3-23.7-42.4c-10.7-47.3-32.3-205.3-32.3-205.3s5.7-14.7 95.3-12.8l160.4 208.2s5.5 32.8 4.1 52.3z"/><path class="st17" d="M316.4 1496.7s10.4-4.5 18.2-2.7c7.8 1.8 26 8.6 35 9.8 9 1.1 17.6 6.4 17.4 9.4-.2 3-69.6 5.4-69.9-1.4-.3-6.8-.7-15.1-.7-15.1zm53.5-128.7s-13.6 8.9-13.9 11.6c-.5 4.5 2.3 18.6 2.6 18.4.3-.2 20.4-10.1 20.4-10.1l-9.1-19.9z"/><path class="st67" d="M369.6 1855.6s17.5 10.4 25.4 14.2c7.9 3.9 38.7 5 41.7 7.9 3 2.9 1.9 12.1-3.2 13-5.1.9-42.5 4.2-55 1.3-12.5-2.9-35.8 1.9-41 .1-5.2-1.8-1.8-29.6.3-35.9s31.8-.6 31.8-.6z"/><path class="st84" d="M369.3 1843.9l.3 11.8s-23.4 4.3-31.8.7l.6-12.9 30.9.4z"/><path class="st70" d="M410.5 1855.6s17.5 10.4 25.4 14.2c7.9 3.9 38.7 5 41.7 7.9 3 2.9 1.9 12.1-3.2 13-5.1.9-42.5 4.2-55 1.3-12.5-2.9-35.8 1.9-41 .1-5.2-1.8-1.8-29.6.3-35.9 2-6.1 31.8-.6 31.8-.6z"/><path class="st84" d="M410.2 1843.9l.3 11.8s-23.4 4.3-31.8.7l.6-12.9 30.9.4z"/><path fill="#24263d" d="M272.8 1569.4l-26.6-4.6 17.7-44.6z"/><path class="st86" d="M193.2 1578.6s133.5 28.3 154.4 37.2c20.8 8.9 33.3 12.5 34.9 16.9 1.6 4.4 34.1 216.2 34.1 216.2h-44.3s-34.4-159.9-38.5-169.8c-4.2-9.9-169.3-10.4-181.3-22.4-12-12-22.4-44.8-9.4-74.2 13-29.5 50.1-3.9 50.1-3.9z"/><path class="st86" d="M260.8 1563.7s153.1 43.1 165.7 62.8c12.8 20.1-51.1 222.4-51.1 222.4h-43.8s42.2-189.6 37-198c-5.2-8.3-236-.3-193-68.5s85.2-18.7 85.2-18.7z"/><path class="st70" d="M244.9 1350.9c5.8-3 25 3.6 30.7 12.4 13.2 20.5 38.1 45.9 38.1 45.9l55.6-46.7 11.1 27.9-66 55.6c-5.6 4.7-13.9 4.5-19.2-.7-17.3-16.8-53-52.2-55.8-61.1-3.6-11.7-5.5-27.6 5.5-33.3z"/><path class="st47" d="M226.1 1231.9s26.6 4.4 26.8 49.5c.3 45.1-16.8 49.3-42.7 42.7-15.6-4-30.2-26-24.5-64.9 5.7-38.8 40.4-27.3 40.4-27.3z"/><path class="st54" d="M229.6 1339.4s36.6 13.3 42.1 21.6 1.9 83.3-1.2 110.2c-3.1 26.8-11.7 84.7-9.6 92.5l-85.2 18.8s-27.3-99.5-28.1-115.4c-.8-15.9-20.8-89.9-11.2-95.9 9.6-6 51.6-29.4 51.6-29.4l41.6-2.4z"/><path class="st87" d="M175.6 1582.4l-4.1-15.3 89.5-17.5-.2 14.1z"/><path fill="#4f558a" d="M220.2 1556.8l21.2-4.4v16.8l-21.2 4.9z"/><path class="st70" d="M210.7 1513.1c-.2 4.4-.5 8.8-.7 13.4l-.1.1c-3 49.4-7.5 101.1-7.5 101.1-6.2 5.2-85.1-13.1-85.1-13.1s9.7-13.2 19.1-49.7c9.4-36.5 2.1-71.5-7.7-130.9-9.7-59.4-1.7-59-1.7-59l61-33.1c4 15.2 20.1 70.3 24 101.8 1.2 11.4.4 39-1.3 69.4zm19.4-173.6s17.8 45.8 25.3 92.6c7.7 47.7 7.3 134 15.6 136.1 8.3 2.1 5.8.7 5.8.7s-1.6-52.2-2.3-69.4c-1.7-38.6 5.5-125.6 2.2-134.4-3.4-8.7-27.3-22.1-46.6-25.6z"/><path class="st47" d="M228.7 1332.3c0 2.8.2 5.4.9 7.1 0 0-4.7 18.3-41.7 2.3 0 0 7.3-27.2 0-50.1l41.7 25.9s-.5 4.1-.7 8.9c-.2 2-.3 4.1-.2 5.9z"/><path d="M189.4 1334.5s14.5 7 29.2 8.4l-7.1 15.2-23.6-16.3 1.5-7.3zm29.2 8.4s10.2-3.4 10.2-8.4l1.4 5-4.2 16-7.4-12.6z" fill="#d6c5bf"/><path d="M249.7 1257.9s7.4-15.9 2.1-27.7c-5.4-11.7-19.4-6.8-25.9-5.5-6.4 1.4-18.6-12.8-40.1 4.5-21.5 17.4-15.1 35.6-5.6 57.3 9.6 21.7 10.7 23.4 10.7 23.4s.1-22 2.7-25.9c3.1-4.6 14.2-7 14.2-7s-8.5-11.6-.2-16c8.4-4.2 25.7 3.8 42.1-3.1z" fill="#16202e"/><path class="st47" d="M196.9 1272.6c-1.1-3.3-6.7-7.1-9.5-.9-2.8 6.2 4.5 17.2 8.5 17.2s3.6-8.7 1-16.3z"/><path class="st11" d="M218.6 1342.9l5.3 9.2s-2.5 2.8-10.4 1.6l5.1-10.8z"/><path class="st11" d="M222.8 1352.9s21.9 64.3 22 110c.2 45.7-3.4 72.9-3.4 72.9l-4.8 9-7-8.2s5-132.6-14.5-182.7c0 0 6.9-3.3 7.7-1z"/><path class="st70" d="M133.7 1371.2c16-6.5 32.6 15.6 41.4 37.8 8.9 22.1 25.8 62.4 25.8 62.4l118.3 19.2 1.7 22.5h-138s-52.6-94.2-56.2-105.9c-3.7-11.8-4.5-31.3 7-36z"/><path class="st83" d="M278.9 1513h390v13.4h-390z"/><path class="st91" d="M507.5 1277.9h9.4v208.2h-9.4z"/><path d="M530.5 1513h70.3v-4.3h-70.3c-3.7 0-6.3-.9-7.8-2.6-1.9-2.1-1.6-4.9-1.6-4.9v-91h-4.3v90.7c-.1.9-.2 4.8 2.6 8 2.4 2.8 6.1 4.1 11.1 4.1z" fill="#918880"/><path class="st91" d="M436.6 1505.6h72.3v7.5h-79.1v-.6c0-3.8 3.1-6.9 6.8-6.9z"/><path transform="rotate(-180 633.919 1708.979)" class="st93" d="M628.4 1526.5h11.1v365h-11.1z"/><path transform="rotate(-180 313.941 1708.979)" class="st93" d="M308.4 1526.5h11.1v365h-11.1z"/><path class="st87" d="M210.7 1513.1c-.2 4.4-.5 8.8-.7 13.4l-.1.1s-15.4 2-28.3-3.8c-12.9-5.9-21.9-50.4-22.5-52.8 1.3 2.6 22 43.2 27.1 43.2 5.2-.1 24.5-.1 24.5-.1z"/><path class="st21" d="M228.8 1326.5c-.1 1.9-.2 4-.1 5.9-29.4.5-29.9-16.3-29.9-16.3 4.6 12.1 30 10.4 30 10.4z"/><path transform="rotate(-43.987 404.603 1351.12)" fill="#eb4747" d="M382.3 1349.3H427v3.8h-44.7z"/><path class="st17" d="M419.4 1334.3l6-3.2-3.4 5.9z"/><path d="M405.6 1353.2s-15.2 3.3-15.2 6c.1 2.7 1.6 3.6 1.6 3.6l-5.8 4.5s-2.5 5.3 3.4 6.4c0 0-2.7 4.7 3 5.1 0 0-.6 3.9 2 4.6 2.6.7 12.4-1.9 12.4-1.9s2.3-1.5.9-5.5c0 0 2.5-3 .8-6.6 0 0 1.8-2.8-.1-6.6 0 0 3-6.5-1.5-9.9.1 0-.9.1-1.5.3z" fill="#d69779"/><path class="st17" d="M380 1355.8s10 3.2 14.7 7.6c1.1 1 1.9 2.2 1.4 3.7s-3.1 2.7-7.5 1.6-10.7-.4-10.7-.4-4.2-2.6 2.1-12.5z"/><path d="M392.8 1695.9s-9.4-58.4-9.9-60.8c-.5-2.4-10-10.9-55.5-25.8 0 0 50.6 9.8 63.9 18.5 10.2 6.6 1.5 68.1 1.5 68.1z" fill="#12131f"/><path d="M583.3 1513c5-2.1 13.1-25.7 17-37.9 1.4-4.3 2.2-7.2 2.2-7.2h-45.7c3.9 28.2 13.5 45.1 13.5 45.1h13z" fill="#9e633a"/><path d="M587 1453.9c0-1.6 7.3-8.5 11-13s-1.4-13-1.4-13c-16.4 6.8-13.5 26-13.5 26s3.9 1.6 3.9 0zm-9.3.7h2s1.4-33.2-10.7-37.7-12.1-13.5-12.1-13.5-3.7 12.4 2.3 18.9c5.9 6.5 12.7 14.1 11.6 20.3-1.3 6.1 6.9 12 6.9 12z" fill="#97a43c"/><path d="M600.3 1475.2c1.4-4.3 2.2-7.2 2.2-7.2h-45.7c3.9 28.2 13.5 45.1 13.5 45.1h3c-.5-26.5 16.9-35.1 27-37.9z" fill="#82522f"/><path fill="#c67b47" d="M602.5 1453.9h-46l-2.7 14h50.6z"/></svg>