<svg version="1.1" id="Layer_1" xmlns="http://www.w3.org/2000/svg" x="0" y="0" viewBox="0 0 432 288" xml:space="preserve"><radialGradient id="SVGID_1_" cx="216" cy="144" r="183.565" gradientUnits="userSpaceOnUse"><stop offset=".389" stop-color="#e6e6e6"/><stop offset=".663" stop-color="#dbdbdb"/><stop offset="1" stop-color="#c7c7c7"/></radialGradient><path fill="url(#SVGID_1_)" d="M0 0h432v288H0z"/><path d="M49.4 81c.8 0 .9.3 1.6 0 .7-.3 2.7-1.6 3.4-1.8.7-.2 1.1.1.1.6-1 .6-3.1 1.8-2.7 1.7.4-.1 1.4-.5 2.9-1.2s1.3-.4 1.7-1.1L57 78s2.3 2.4 2.5 2.5c.2.1.3 0 .4-.3.1-.3.4-.7.7-.6.3.1 0 .7.2.8.2.1.5 0 1.1-.2.6-.2.3-.6.3-.6s-.1 0 .6-.1 2.9.8 3.6 1c.7.3 2.7.5 3.2.7.6.2.8-.3 1.5.1.8.4 1.4 1 .8 1.3-.6.3-2 .5-1.3.7.7.2 1.9.4 2.9.4 1.1 0 3-.4 3.6-.4.6 0 1 .4 1.5 1.3.6.9 1 1.3 1.2 1.4.2.1-.2-.4-.1-.9s-.1-1.4-.2-1.7c-.1-.3 0-.5-.3-.9s-.7-.4.1-.8c.8-.4 1.3-1 2.3-.8 1 .1 1.2 1.3 2 1.4.8.1 1 .4 2.4.5 1.4.1.8 0 2.4.1 1.6.1 1-.2 1.3-1 .3-.8.7-1 1.1-.9.4 0 1.7.2 1.7.4s-.6 1-.3 1.5c.3.4 1.4 1.1 1.4 1.1s-.2-1-.2-1.1c0-.1-.1-.9.1-1 .2-.1 1.1.1 1.7-1.1.6-1.2-.4-1.1-.4-1.1s-.4 0-.2-.5 1.2-.8 1.2-.8l-.1-.2c-.1-.4-.8-.3-1.6-.4-.7 0-1.3-.2-1.4-.8-.1-.6-.2-1.9-.2-2.9 0-.9.7-.6.9-1.1.1-.5 0-3-.2-3.5s.3-1.6.4-2.3c.1-.7.8-.4.8-.4.2-.1.6-.8 1.6-1.1 1-.3 2.9 0 2.9 0s-.2 0-.6.6c-.5.6-.2 1.7-.9 2.4-.7.8-2.5.5-2.5.5s.5 1.2.3 1.6c-.2.4-.4 1.2-.4 1.2s1.5.4 1.6 1.4c.1 1 .9 1.2 1 2.1.2.9-.8 1.7-.6 1.8.2.1.3.2.8.2.6 0 1.3.1 1.3.1s-.3.5 0 1 .1.8.1 1.3.3 1 .5.9c.1-.1.7-1.4.9-2 .1-.6.2-.9.5-.9s1.2.8 1.3 1.1c.1.3.2.7-.3 1.5s-.4 1.2 0 1.5c.4.3.4.2 1.2.6.8.4.6.3 1.1.2.5-.1-.2-1.4-.2-1.4.1 0 1.1-.2.9-.8-.2-.6-.5-.9 0-1.2.5-.3.9-.6.9-.6-.2-.4-.3-.4-.6-1.4-.4-1 .3-.8 1.7-.6 1.4.1 1.5.6 2.2 1 .8.4.3.5.5 1.1.2.6-.6.7-.6.7s-.6.1-.4.6c.1.5.4 1 .8 1.8.4.7-.1 1.2-.8 1.8-.6.6-1.4.8-2.2.8-.8 0-1.1.3-1.1.1-.1-.2-.4-.4-.8-.3-.4.1-1.4.5-1 .6.3.1 1.2.1.8.8-.4.7-.7.7-1.4.6s-1.4-.1-1.9-.1-2.7-.2-2.7-.2 1.5.9 2.8 1.3c1.2.4 2.5.2 2.5.2s-.5.9-1.1 1.9c-.6 1-1.2.6-1.6.6-.5.1-.8.5-1.7.6-.9.1-2.9-.3-2.6-.1.3.1.4.4 1 .5.5.1.9.2 1.3.6.5.4-.3.5-.9.6-.6.1-.8.2-1.1.6-.3.4-1.3 1.9-1.6 2.3-.3.5-.6 1.2-.8 2.1-.1.9-.9 2-.6 2.2.3.2 1.6.3 2.2.6.5.3 1.2 2 1.6 2.6.4.6.7 1.1 1.2.6.5-.5 1.4-.4 2.2-.1.9.3 2.6 1.5 3.1 2.1.5.5 1.5.4 2.6.6 1.1.2 1.2.6 1.2.6s1.1.1.7.5c-.5.5-.6 0-.1.8s.4 1.9.3 2.4c-.1.5 1.5.3 2.2.7.7.4.7 2 1.1 1.8.3-.2.9-.6 1-1 .1-.4 0-1-.1-1.7s-.2-2.1-.6-2.6c-.4-.5.7-.8.5-1-.2-.2-.1-.7.6-.9.7-.2.7 0 1.1-.3.4-.3.4-1.7.5-2.1.1-.5-.1-1.6-.3-1.9-.2-.4-.8-1.7-1.1-2-.2-.3-.6-.4.1-1.2.7-.9.3-.7.2-.9-.1-.3-.2-.9-.4-1.5-.1-.6.3-1.2 0-2.1-.2-.8-.5-.6-.5-.8 0-.2 1.6-.1 2.8 0 1.2.1 1.6-.1 1.9-.1.3 0 .9.3 1.6.7.6.4.9.3 1.2.8.3.5.5.8 1.2.8s1.4.3 1.4.3-.5.3-.4 1.2c.1.9-.1 1.6-.1 1.9 0 .4.2.4.5.4s1.2.8 2 1.1c.9.3 1.1.2 1.4-.5.3-.7.3-.6.7-.7.3 0 .5.1.6-.1.2-.2-.3-.5-.2-1 .1-.5.6-1.1 1-1.5.4-.4.7.4 1 1 .3.7 1.5 2.9 1.9 3.6.3.7.8.8.4 1.4-.4.7-.6 1 0 1.3.6.3 1.2.8 1.2 1.4-.1.5-.2.5 0 .7.2.1 1-.3 1.6 0 .6.2 1.2.5 1.6.9.4.4.4.5-.2.7-.6.2-1.1.4-1.4.6-.3.2-.7.5-.7.8 0 .3-.1.7.3.4.4-.3 1.2-.7 1.7-.8.5-.2.1 0 .6-.1s.9.2 1.6.4c.7.2.5.6.3 1s-.3.8 0 1.2c.3.4-.1.8-.7 1.3s-1 .6-1.9.7c-.9.1-1.4.7-2 1.3-.7.6-1 .5-1.9.5-1 0-.6-.5-.9-.4-.3.1-.7.4-1.3.5-.6.1-2.7.1-3.5.3-.8.2-.5.8-.7 1.2-.2.4-.5.3-1.1.5-.6.2-1.3 1.1-2 2.3-.7 1.2-1.6 1.9-1.6 1.9.2 0 1.2-.6 1.6-1.2.5-.6 2.5-2 3.1-2.4.6-.4 1.9-1.1 2.2-1 .3.1 1.1.7 1.1 1 0 .3-.2.6-.8 1.1-.6.5-1.3 0-1.3.2s.4.7.9.8c.4.1.4.6.4.9 0 .3-.2.6.7 1.4 1 .8 1.7.9 2.4.8.7 0 .3.2.6.2s.4-.6.5-1.1c.1-.5.3-.9.5-1.1.3-.2.5-.6.5.1.1.7-.3 1.7-.7 1.9-.4.2-.3.5-.3.7 0 .2-.4.2-1.5.8-1 .6-1.4.7-1.5.6-.2-.1-.6.1-1.1.5-.5.4-1 1-1.4 1-.4 0-.7-.2-.2-.7.5-.5.7-1.2 1.2-1.5.5-.2.7-.2 1.1-.2.4 0 .2-.2.5-.5.3-.2-.2-.2-.8-.3-.6-.1-.1-.6-.1-.6l-.6.3s-.9.5-1.1.5c-.2 0-.2.2-.2.3-.1.1-.9.2-.9.2s-.4.9-1.1 1c-.6.1-.2.1-.7.3-.5.2-.4-.2-.5-.1-.1.1-.2.2-.7.6-.5.4-.8.5-1.2 1.9-.4 1.4.1 1.9 0 2.1 0 .2-.6-.1-.8 0-.2.2-.6.7-1.1.8-.5.2-1.6.4-1.9.7-.2.3-.3.6-.4 1.2-.1.5-.8 1.8-.8 1.8s.1-.5-.3-.9-.4-.7-.4-.7-.1.5.1 1 .5 1 .3 1.6c-.2.6-.4 1.3-.8 1.5-.3.2.1-.4.1-.8 0-.5-.2-.5-.4-.7-.1-.2-.1-.8.1-1.6.3-.8-.2-.3-.5.2s-.5 1.5 0 2.1c.5.6-.3.6 0 1.5s-.4 1.4-.2 1.5c.1.1.5-.1.7.4.2.4-.3.2-.5.4-.2.1-.1.3 0 .5s.3.1.2.2c-.1.1-.3.4-.7.5-.4.1-.5-.1-.7.2-.3.3-.5.6-.7.9-.3.4-.5.2-.8.5-.3.2-.4.4-.8.8-.4.3-1.2.8-1.6 1.4-.4.6-.3.8-.5 1.7-.2 1 .5 2.7 1 4.3.5 1.6.7 1.2.6 1.7-.1.5-.3 1.1-.6 1.5-.3.4-.5-.2-1-.6-.5-.4-.1-.6-.6-1.3-.5-.7-.4-1-.5-1.5 0-.5-.1-1.3-.4-1.9-.2-.6-.8-1.3-1.6-1-.8.3-.6.2-1 0-.4-.1-1.6-.6-2.1-.3-.6.3-2.4-.1-2.8 0-.4.1-.7.1-.7.4 0 .3-.2.3.5.5s.6.4.5.7c-.1.3-.5-.2-.8-.3-.3-.1-.5.2-1 .2s-.5-.4-1-.5c-.4-.1-.6 0-1-.2s-.9-.4-1.4-.4c-.5 0-2.2 1.2-3.1 1.8-.8.6-1.5 1.2-1.7 1.7-.2.5-.2.6.5 1.3.7.8.4.6.2 1.1-.1.4-.5 1-1 2.1s-.2 1.6.4 2.7c.6 1.1 1.1 1.8 1.6 2.3.5.4.8.9 1.2 1.1.4.2.5.2.7.4.2.2.1.3.8.1.6-.2 1.1-.4 1.5-.4.4 0 .9 0 1.1.2.2.2.3.1.3 0s.2-.6.3-.7c.1-.1.7-1 .8-1.4.1-.5.1-1.4.7-1.4.6-.1 1.8-.4 2.9-.3 1.1.1.6.6.3 1.2s-.4.6-.4 1.1c0 .4.1.4-.2.7-.4.3-.1-.2-.3.1-.1.3-.7.6-.6.6.1-.1.2.4.2.7v1c0 .6-1.2 1.2-1.2 1.2s.4.2 1.1.2c.6 0 1.4 0 2 .3.7.3 1.9-.2 2.8.2.9.5.6.7.7 1.2.1.4.2 1.9.1 2.2-.1.3-.5 1.3-.7 2-.2.7.7 1.2 1.5 1.7.8.6 1.5.8 2 .9.4.1 1.2-.6 2.7-.6 1.4.1 1.9 1.3 1.9 1.3s.2-.8.8-1.8c.7-1 .7-1.4 1.6-1.7.9-.3 1.2-.4 2.6-.9 1.4-.5 1.2-.1 1.9-.1.8.1 2.5.2 4.3.7 1.7.5 4.4.7 5.4 1.1 1 .4 1.5 1.6 2.5 2.6 1.1 1 2.4 1.9 2.9 2.3.6.5 3.7.9 4.4 1.2.7.3 1.6 1.4 1.7 2.1.1.7.8 1 1.7 1.4 1 .4 1.3.9 1.9 2.1.6 1.2.4 1.6 1.3 1.9.9.3 6.8 1.9 8.3 2.5 1.5.6 3.4 2.1 3.9 2.3.5.2 1.4-.2 1.8.1.4.2-.2 1.4.3 2.2.5.8.5.9.2 1.5s-1.5 2.1-1.9 2.8c-.5.7-1.5 1.2-2 1.5-.6.3-1.1 0-.6.6.5.6 0 1.1-.4 1.7-.4.6 0 .5-.1 2.3-.1 1.8 0 3.7-.2 4.5-.2.8-1.3-.7-2.7 1-1.3 1.7-1.7 2.9-2.5 3.1-.8.2-2.6 1.1-3.3 1.7-.6.6-.8.8-1.2 1.7-.4.9-.8 2.6-1.2 3.7-.4 1.1-1.1 1.7-2.7 3.1-1.6 1.4-2.3 2.9-3.3 4.1-1 1.1-.8.9-1 1.1-.5.5-2.8-.9-2.2-.1.4.6-.2 0 .1.6.4.6.6.8-.2 1.8s-1.7.8-2.3.9c-.6.2-1.6-.6-1.6-.2-.1.4-.4 1.4-.9 1.6-.5.2-1.8.6-1.8.8.6 2.9 1.9 3.2.5 3.1-3.7-.4-1.1-1.2-3.7 4.2-.4.8-.8.4-.7 1.4.1 1 0 1.7.5 2.3.5.6.2.6-.7 1.4-.9.8-1 .7-1.8 2s-1.6 1.2-1.3 2.1c.3 1 .4 2.4.9 3.8s1.5 1.2 3.1 2.1c1.6 1 1.8.5 2.6.7.8.2-.6.3-2 .6-1.4.2-2.3.5-3.3.3s-3.3-1.6-4.1-2.1c-.8-.6-2.1-1.6-2.5-2.6-.5-1-.8-2-1.4-3.4-.6-1.4-.2-2.2.1-5.3.3-3 .5-5.4.9-7 .4-1.6 1.7-8.9 2.1-10.7.4-1.9 2-9.5 2.2-10.7.1-1.2.2-2.1.5-3.3.3-1.2.1-3.6.1-3.7 0-.1-.1-.2-.5-1.4-.4-1.1-1-1.6-1.8-2.1s-1.7-1.1-2.3-1.6c-.7-.5-1.5-1.1-2.1-1.9-.7-.8-1.3-2.5-1.6-3.2-.3-.7-1.6-3.1-2.7-4.8-1.1-1.7-1.2-1.7-1.7-3.4-.6-1.8.5-1.8.7-2.8.2-1 .9-2 1.6-3.3.7-1.4 1.7-1.8 2.2-3 .6-1.2.1-1.2-.1-2.4s.1-1-.3-1.7c-.4-.6-.6-1.4-.9-1.7-.3-.2-.8-.4-1.1 0-.3.3-.8 1.3-1.2 1.4-.3.1-.5-.3-.7-.5-.2-.2-1.2-.2-1.4-.4-.2-.2-.7-.2-1-.4-.3-.2-1.6-.8-2-1.1-.4-.3-.8-1-.8-1.8s-.7-1.1-2.2-2.2c-1.6-1.1-2.2-1.3-4.1-1.7-1.9-.5-2.6-1.8-3.3-2.1-.6-.4-.6-.8-1.9-.6-1.4.2-3.1-.6-4.1-1-1.1-.4-2.9-.7-3.7-1.3-.8-.5-2.2-.7-2.8-2-.6-1.3-.5-.8-.3-1.9.2-1.1-1.4-2-2.3-3.1-1-1-1.7-1.2-2.2-2.5-.5-1.3-1.2-1.2-2.2-2.1-1-.9-1-2.1-1.4-3.1-.4-1-3-2.5-3-2.5s.7 1.8 1 2.5c.3.7 1 2.4 1.8 3.7.8 1.3 1.5 1.6 2.2 2.8.7 1.3 0 2-.2 1.5-.3-.5-1.3-.7-1.3-1.3 0-.6-.3-1-.5-1.4-.2-.5-1.3-1-2.2-1.8-1-.8-1.7-1.2-1.1-1.2.6 0 1.5.6 1.4.2-.2-.4-1.3-1.5-1.8-2.3-.5-.8-.7-1.7-1.2-3-.5-1.4-2.5-2.6-3.4-2.7-1-.1-1.2-.6-1.5-1.5-.3-1-.4-2-.8-2.8-.4-.8-2.3-3.3-2.3-4.3s-.6-3.8.1-5.4c.7-1.6.5-5.2.4-5.9-.1-.7-1.3-2.1-1.3-2.6s.7-.2 1.2-.1c.5.2 1.6.6 1.6.6s-.9-1.6-1.4-2.1c-.5-.6-2.1-1.3-2.8-1.4-.7-.2-1.6-.4-1.9-1-.4-.6-.8-1.4-1-1.8-.3-.5-1.4-1.1-1.6-1.6-.3-.5-.2-1.5-.6-2.1-.4-.5-.9-.8-1.5-.6-.6.2-.8-.3-1.2-1.1-.5-.8-1.5-1.1-1.8-1.2-.3-.1-1.3-1.4-1.4-1.8-.1-.3-1.7-2.1-2.2-2.5-.5-.4-5.6-2-5.8-2-.1 0-1.6.2-2 .1-.4-.1-1.7-1.3-2.4-1.5-.7-.2-1.2.3-1.5 1-.3.8-1.9 2.1-2.8 2.7-.9.6-1.6.6-1.6.3.1-.3 0-.8.3-1.5s.5-1 1.4-1.4c.9-.5.9-.5.5-.5s-.6-.1.1-.5 1-.5 1-.9-1.6.5-2.6 1.3-1.6 1.4-2.4 2.8c-.9 1.4.1.9-.6 1.8s-3.2 2.8-3.9 3.5c-.7.7-3.7 2.3-4.9 2.6-1.2.4-1.7.5-2.3 1-.6.5-2.1.6-1.6.3s1.4-1.1 2-1.5c.6-.4 2.3-1 2.8-1.2.5-.2 1.9-1 2.6-1.8.7-.8 1.2-1.7 1.6-2.4.5-.7.6-1.1-.4-.8-1 .3-1.9.2-2.4 0s-1.8.6-2.2.2c-.5-.3 0-1-.3-1.4-.3-.3-1.3-.1-2-.2s-1.6-.6-1.6-1.6c0-.9-.7-1.7-.3-2.4.4-.7.9-.9 1.5-1.3s2.2-.9 2.6-.9c.3 0 .8-.3 1.1-.6.3-.3-.7-1.4-.7-1.4s.2-.1.6-.4c.4-.2.1-.8-.6-.7-.7.1-2.2.8-3.1 1-.9.2-2.2.1-2.1-.3 0-.4.2-.6-.1-1-.3-.3-.6-.6-.3-.8.3-.2 2.4-1.3 2.4-1.3s.7.8 1.5.9c.8.1 2.5-1.4 2.5-1.4-1.1-.6-.8-.8-.8-.8s-1.7 0-2.1-.3c-.4-.2-.5-.7-.6-1.2 0-.8-1.6-1.1-1.2-1.8.5-.7 1.3-1 1.9-1.7.6-.7 1.1-2 2.7-2.8 1.6-.7 3.6-1.4 4.4-2 .9-.6 1.3 0 1.6.1.3.1 2.4-.1 3.2-.1.8 0 .9.9 1.2 1.1.3.2 7.2.4 7.2.4s5.9.1 7.1.4c1.2.3 3.3 1.2 3.3 1.2 1.3-.1 1.2-1.6 2-1.6zm79.2-35.7s-.6 2.5-3 3.1c-2.4.7-6.7 2.6-6.9 2.7-.2.1.3 1.5.9 2.2.6.7 1.2 1.1 1.7 1.8s1.5.6 2.2 1.3c.7.7 1.3.5 3.2.5 2 0 1.4.2 3.7.3 2.2.1 4.5.3 5.3 1 .8.7 1.8 3.3 2.5 4.9.7 1.6 1.9 4.2 1.9 4.5 0 .2-.8 2.2-.8 2.5 0 .3.4.8.8 1.3.4.4.2.8.1 1.2-.1.4.4 1.4.5 1.5.1.1 1.1-1 1.7-1.2.6-.2 2.2 1.1 2.2 2 0 2 .5 1.3-2.7 3.7-.4.3-.9 2.7-.5 3.9.3 1.2 1.1 2.5 1.7 4.2.6 1.7 2.5 4 3.1 5.1.6 1.1.8 2.5 2.1 2.9 1.3.3 2.6.8 3.5 1 1 .2 1.6.5 2-.4.5-.9 1.4-4.3 2.1-6.7.8-2.5-.1-3.2 1.7-3.7 1.8-.6 4.6-1.7 5.4-2 .8-.3.6-2.8 2.3-3.6 1.7-.8 1.9-.7 3.6-1.3 1.6-.5 4-1.6 5.6-2.7 1.6-1.2 2.1-.6 2.7-1.6.6-1.1-.6-2.6-.7-4.2-.1-1.6.5-1.7.9-3.1.3-1.4.5-2.4 1.8-3.4s2-1.5 1.7-2.5c-.2-.9-.9-2.3-.9-3.3s.2-.4-.3-1.8-.5-1.6 0-2.9c.5-1.3 1.8-1 1.7-1.6-.1-.6-2.1-1.5-2.1-3.1s.4-2.1.7-2.5c.3-.4 3.7-3.1 3.9-3.3.2-.2-.1-.9 1.6-1.7 1.6-.8 2.2-1.3 2.8-1.6.6-.2 1.6-.2-.3-.8-1.9-.6-2.3-.8-3.6-.6-1.3.2-1.7.9-3.9 1.1-2.2.2-4.8 1.3-4.8 1.3s.8-.7.1-1.3c-.7-.6 1.7-2.8 2.1-3 .4-.2-3.1-1.1-4.9-1.4-1.8-.3-5.4-1.4-7.4-1.3-2 .2-5 .1-6.1.5-1 .3-.9 1.7-2 1.7-1.2.1-3.3-.7-4.9-.4-1.7.2-4.3 1.4-4.6 1.4-.3.1 1 .9 1.9 1 .9.2 2 2 2 2s-2.3-.8-4.6-1.4c-2.3-.6-5.1 0-6 .3-1 .3-2.2.8-4.1.9-1.9.1-4.1 1.7-5.2 2.4-1.1.7-4.5 2.7-5.3 3.2-.9.5-.5.7.4.9.6 0 1.5.1 1.5.1zM79.8 70.7c.3 1.1.3 2.7-.4 2-.6-.7-1.1-2.1-2.1-1.5-1 .6-2.1.4-1.9.3.2-.1 0-.7-.5-.9-.5-.2-.8.1-1.3.4-.5.3-2.2.7-1.5.2.7-.5.5-.8.2-1.4-.2-.6-2 .4-2.9 1.1-.9.7-1.5 1.7-2 2.3-.6.7-.2 1.1.7 1.4.8.2 2.2.4 1.1.8s-2 .7-1.4 1c.6.3 1.6.4 2.5.3 1-.1 1.8-.4 3.4 0 1.6.4 2.5.4 2.5.4s-.6.4-1.6.6c-1.1.2-3 0-4 .2s-2.5.4-2.2.8c.4.4.7.9 2.1 1.4 1.4.4 1.6 0 2.4.2.8.2.4 1.1.6 1.3.2.1 1.8-.1 3.3-.4 1.5-.3 1-.5 2.2-.8 1.2-.3 1.3-1.2 2-1.4.7-.2.2.5 1 .7.8.2.4.3 1.3.4.9.1.7.5 1.6.4.9-.1 1.9-.7 1.8-.8-.1-.1-.3-.4-.2-.8.1-.4-.9.1-1.2.3-.4.2-.3-.6.4-.9.7-.4 1.4 0 1.8 0 .4 0 0-1.3-.7-1.5-.8-.2-1.1-.7-2.3-1.4-1.2-.7-.6-.9-.9-1.8-.4-.9-1.1-3.4-1.8-3.9-.7-.4-1.4-.3-2-.8-.2.1-.3.7 0 1.8zM61.5 69c.3.8.3.3-.2 1.2-.6.9-.2 1.2-.6 1.9-.4.7-1.4 1.6-1.1 2 .3.5 1.4.7 1.8 1.1.4.3.9 1.1 1.7.8.8-.3 1.1-.5 1.6-.7.6-.3 1-.6 1-1.3 0-.7 0-1.1.2-1 .2.1.6.4.7-.1.2-.5.5-1.1.9-1.5.4-.4 1.4-.7 2-1.2.5-.4 1.4-.9 1.6-1.3.2-.4-.4-.7-.9-.8-.4-.2-.9-.8-1.9-.8s-1.5.7-1.5.4c0-.3-.7-.5-1.1-.6-.4-.1-.8-.4-2-.2-1.3.1-1.8.2-2.8.5-.8.2.3.8.6 1.6zm28.7 9.8c-.1.2-.7.4-1.1.8-.4.4.7.2 1.1.3.4.1.6.5.9.6.3.1 1.8.2 2.5-.1.6-.3.7-.4.6-.6-.1-.1-1.3-1.4-2.2-1.9-.9-.5-.9-.5-1.1-.4-.3.1-.6 1.1-.7 1.3zM86 69.2c-.6.3-1 .7 0 1.2s1.3.9 2 1.4c.7.4 1 1.7 2.4 1.1 1.4-.6 2-1.2 2.2-1.8.2-.6-.2-.7-.6-1.2-.4-.5-.4-.8-1.2-.7-.7.1-1 .1-1 .1s.5-.6 1.3-1 .1-.7.5-1c.4-.4-.9-.6-1.5-.4-.6.1-.6 0-1.5-.1-.9 0-2.4.8-2.4 1.1.1.3.8.2 1.4.6.7.4.9.3.2 1.4-.7 1-1-.2-1.2-.4-.2-.3 0-.6-.6-.3zm-4.2-1.9c-1 .1-1.3.8-.9.9.4.1.6-.1 1.2.5s1.1 1 1.4-.1c.1-1-.2-1.4-1.7-1.3zm-15.9-7.9c-1.1.9-1.3 1.6-2.2 2.1-.9.6-.7 1-.4 1.3.3.3 1.1 0 1.5-.2.4-.2.7-.7 1-.4.2.3 1.3-1 1.6-1.5.4-.5 1-.9 1.1-.9.1 0-.4.5-.2 1 .2.4 1 .5 1.7-.3.7-.7.1-1.4.6-2 .5-.6 1-.5-.1-1s-1.8.1-2 .3c0 .3-.4-.1-2.6 1.6zm6.7 1.4c-.6 0-.9.1-1.9.6-1 .5-1.5 1.6-1.7 2.3-.2.6.1.6 1.1 1 .9.4 2.3-.1 2.6-1 .3-.9.7.2.5.7-.2.5.7 0 1.1-.2.4-.2 1.6-.3 1.7-.3.1 0-1 .8-2 1.1-1 .3-1.9.5-2.2.6-.3 0 .3.5 1.5.7 1.2.2 1.9-.7 3.7-1.4 1.7-.7 1.6-.8 2.2-.6.6.2 1.2-.3 1.9-.5s1 .1 1.3-.9c.3-1 .9-2-.1-2.1-1-.1-1.1-.1-1.2 1.1-.1 1.1-.2.4-.2.4s-.7-1-1.1-1.5c-.4-.5-.7-1.3-1.1-1.7-.4-.4-.6.2-1.3.9-.7.8-.1 1 .5 1.4.7.3 1.2 1.2.8 1.4-.3.2-.7 0-2 .1s-1.2-.4-1.6-.6c-.4-.2.6-.5-.7-1.1-1.4-.5-1.3-.4-1.8-.4zm-4.1 1.1c.1-.2-1.7 1.1-1.9 1.5-.3.4.3.3.8.3.6 0 .7-1 1.1-1.8zm3.5-2.7c-.5.2-.5.4.3.4.7.1 1.2-.2 1-.6-.1-.3-.9 0-1.3.2zm3.8-3.9c-.5.1-1.9.6-2 .8-.1.2 0 .8.2 1.2.2.4.3.5 1.5.2s2.1-1 1.7-1.1c-.4-.1-.7-.3-1-.3-.4-.1.3-.2 1.1-.5s1.1-.8-1.5-.3zm-4.2.6c-.3.2-.5.2.3.4.7.3 1.5.3 1.4 0-.1-.1-.7-.8-1.7-.4zm2.8-2c-.7.3-.8.8-1 1-.2.2.8-.1 1.2-.2.4-.1.5.2.9-.2s1.2 0 2-.2c.7-.2.9-.7.7-1.1-.1-.5-1.8-.1-3.8.7zm7.5 1.8c-.2.1-.1.4 0 .8.2.4.2.3.6.4.4.1.7.4.8.5.1.1.1.1.3-.2.2-.4-.1-.3-.5-.8-.4-.4-.7-.9-1.2-.7zm2.5 3.3c-.6-.2-.9.2-1.1.3-.2.1.1.3.3.8.1.4 0 .6.9.6.8.1 1.1-.1 1.2-.6 0-.6-.7-1-1.3-1.1zm3.3.9c-.5-.4-.8-.7-1.3-.5-.5.2-.1.5-.1.6 0 .1.6 0 .6.3s.2.5-.6.5-1 0-1.3.2c-.3.2.6 0 .8.3.3.3.7.4 1.4.3.7-.1 1.7-.3 1.7-.3s-.5.5-.8.9c-.2.4-.3.9.1 1.1.4.3.4-.3 1.5-.3s1.4-.6 1.4-.6-.2-.2-.2-.8v-.7s.4.3.5.4c0 0-.1-.3-.2-.9-.2-.6 0-.6-.2-1.4-.2-.8-.1-.9-.9-.9s-1.4.3-2 .3c-.7 0-.9.1-.5.4.5.2.6.5.8.8.2.3.2.9.2.9.2.3-.9-.6-.9-.6zm-4 2.9c-.1 0-.1 0 0 0-.4.2-.5.5-.5.8 0 .3.4.1 1.2-.1.7-.3.3-1-.7-.7zM94 61.4c-.6.3-1.1.8-1.5 1.2-.4.4 0 .5.9.9.9.5 1.9.6 2.3.1.5-.5-.1-3-1.7-2.2zm4.3-3.5c-1.2.1-.8.3-2.2-.2-1.4-.4-3-.5-3.5-.5s-.2.2.2 1c.5.8.6 1.1 1.6.8 1-.2 1.8-.4 2.5.6s1.1 1.4.5 1.7c-.6.4-.3 1 0 1.8s1.1.8 2.2.8 8.1-.1 9.2-.3c1.1-.2 2.1-1.1 2.6-1.5.6-.4.9-1.1.1-1.5-.8-.5-1.9-.9-2.8-.9-.9 0-1.6.5-3 .6-1.4.1-1.1.8-2.3.8-1.2 0-.6.6-2.1 0s-2.6-1.4-1.9-1.5c.7-.1 1.3-.2.9-.5-.2-.4-.9-1.3-2-1.2zm-14-5.7c.7.2.9.4.1.6-.8.2-1.4.8-.6.7.8-.1 1.5.1 2.5.2 1 .2 1 .1 1.4.6.5.6 1 .6 1.7.4.7-.2.8-.2.3-.7-.5-.5-.9-1.4-1.6-1.8-.6-.4-1.2-.9-1.8-.8-.6.1-.8.1-1.3-.7-.5-.7-1-.4-1.8-.2s-1 .8-1.4 1c-.5.6 1.8.4 2.5.7zm9.5-7.6c-.9 1.1-1.6 2-.6 2.1 1 .1 1.4-.1 1.5.2.1.3-.2.5-1.6.5-1.4 0-1 .3-.2 1.3s.9.6 2.1.6c1.2 0 1.7-.5 2.7-.2 1 .3 1.3.5.4.8-.9.3-3.1.8-2.6 1.3s2 1.6 2.7 1.7c.7.1.8-.5 2.3-.3 1.5.2 1.1.3 1.3-.1.2-.4 1-1.5 1.2-1.9.2-.4.6-.6 1.4-.8.8-.2 1.1-.4.3-.7-.8-.3-1.6-.4-1.6-.6.1-.2.6-.8.2-1.2-.3-.3-.9-.3-1.3-.5s-.9-1-1.4-1.3c-.5-.3-1-.4-1.7-.9s-1.7-1.7-3-1.7c-.9.1-1.2.7-2.1 1.7zm-1.7 9c-.3.2-1.2.2-.5.7.6.5.4.5 1.2.2.8-.3 1.9-1 2-1.2.1-.2-.8-.6-1.4-.8-.6-.2-1-.7-2.2-1-1.8-.5 1.2 1.9.9 2.1zm40.3-16c-1.4-.4-6.2-1.3-7.8-.9-1.6.4-1.5-.8-3.7-.5-2.2.3-5.6.1-6.6.3-1.1.2.5.6 1.1 1 .6.4-2.7-.4-5.2.3s-4.1 1.1-1.4 2.1c2.7 1 3 1.3 3 1.3s-3.4-.6-4.9-1.2c-1.5-.6-.7-.5-3.4.2-2.7.8-5.4 1.2-5.2 2 .1.8 2.2 1.9 3.6 2.2 1.4.3 4.2-.4 4.4-.5.2-.1-1.1 1.1-1.1 1.1s1.4-.3 3-.7c1.6-.4 2.8-.9 4.3-1.4 1.5-.5 1.8-.7 1.8-.7s-2.6 2-4.4 2.7c-1.8.7-4.1 1.1-5.2 1.2-1.1 0-.9.7.2 1.3 1.1.6 1.9 1.8 2.5 2.2.6.4.7 1.1.7 1.1s-1.7-1.4-3.6 0c-1.9 1.4-1.6 2-1.1 2.2.5.2 2.2.3 2.5.9.3.6 2.5-.5 2.5-.5s-1.1 1.4-2.2 1.4-1-.9-2.5-.7c-1.5.2-1.5.5-.8 1.1.7.5 1.2.7 0 1.2-1.1.5-1.7.7-1.7 1.4s1.5.7 2.5.7 1.9-.1 3.7-.1c1.8 0 1.5-.6 2.2-.6.7 0 1.3.2 1.1.9-.3.7.3.2 2.2-.5 1.9-.7 1.1-1.8.9-2.1-.1-.4-.8-.5-1.3-.7-.4-.2 1.3-2 1.1-2.6-.3-.6 2.2-.1 3.3-1.6 1.1-1.4.7-2.5-.1-2.7-.8-.2 1.5-.1 2.2-.5.7-.4 2.2-.9 2.9-1.7.6-.8.8-1.1-.7-.9-1.5.2 2.2-.7 3.9-1.8 1.8-1.1 3.8-2.5 4.2-2.8.4-.3.8-.2-1.2 0-2.1.1-4.5-.2-3.2-.3 1.4-.2 5.4-.7 6.5-1.4.6-1.1 1-1.4 1-1.4zm-24.6 28.5c-2.2-.2-5.4-.7-6.1 1.1-.7 1.9-1.7 6.1-1.8 6.8-.1.8 2.6 1.9 4.5 2 1.9.1 5 .2 4.4-.2-.6-.5-.1-.7 1.7-.6 1.8.1 1.9-.4 1.9-.7 0-.4.3.4 1.5 1.1 1.2.7 2.3 2.5 3.4 3.6s3.6 2.5 3.1 3.3c-.5.8.5 3.7-3.3 4.3-3.8.7-4 .2-4 1.1 0 .9.2 1.2 1.7 1.2s3.6-1.2 4.3-.3c.7.9 1.7 1.2 2.3 1.4.6.2-.7.6-1.1.7-.4.1.7.2 2.9 1.3 2.2 1 4.7 1.1 3.5.4-1.3-.7-1.9-2.1-2.5-2.5-.6-.5 0-.1 1 .2 1 .2 1.9 1.1 2.4 1.4.4.4.7-.1 1-1.6.3-1.4-.1-1.4-1.8-2.6-1.7-1.1-2.2-2-2.4-2.9-.2-.8.9-1 1.3-1.6.4-.6 1.7 1 2.5 2 .8.9 1.5 2.6 2.2 1.4.7-1.2 1.3-3.8 1.3-4.5 0-.6-.7 0-3.5-1.4s-4.3-1.9-4.5-1.9c-.3 0 .7-.5 2-1.1 1.2-.6 1.8-.5-.9-3-2.6-2.5-3.4-3-5.1-3.2-1.7-.2-2.2-2-3.4-2.6-1.2-.6-4.1.7-4.9.9-.8.2-.6.5-1.6-1-1.1-1.4-2-2.5-2-2.5zm2 0c-1.1.1.7 2.1 2.1 2.2 1.4.1 2.6-.6 2.9-.7.3-.1-3.3-1.7-5-1.5zm-4.9 20.3c-.2.4-.6 1.7-.7 2.5-.1.8-.2 1-.4 1.5s.5-.1 1 .7c.5.8.3 1 1.1.1s1.7-1.2 2.9-.8c1.2.4 2 .5 1.6-.2-.4-.7-.9-.6-1.7-1.6-.8-1-1.4-1.2-2.4-1.6-.9-.4-1-1.6-1.4-.6zm8.3 71.7c-.3-.7-.9-1.9-3-2.3-2.1-.4-2.9.4-3.7.7-.8.3.7.4 1.8 0 1-.4 1.8-.1 1.9.1.1.2-.3.3-.5.1-.2-.2-.2.5.9.9 1.2.4 1.4.6 1.5 1.1.1.5.1.8.4 1.2.3.4.4.6-.1.8-.5.2-.3.2 0 .4.4.2 1.1.6 2.1.7 1 .1 1.3.3.6-.6-.6-1.1-1.8-2.9-1.9-3.1zm3.2 4.5c.6.6.4 1.2.4 1.5 0 .3-.6.1-1.7-.2-1.1-.3-.9-.1 0 .4 1 .5 1.6.4 1.5 1.1 0 .7.9.1 1.3-.3s.4 0 2.1.2c1.7.3 2.1.6 1.8-.2-.3-.7.8-.7-.7-1.4-1.7-.8-5.4-1.7-4.7-1.1zm-4.9.4c-.6-.7-1.4-.8-1.4-.2 0 .6.2.6.8.7.6.2 1 0 .6-.5zm12.4 3.1c-.7-.2-.8.3-.4.7.5.4 1.2.3 1.9.3s-.3-.6-1.5-1zm-8-85.7c-.9.4-1.5.7-.7 1.7.8 1.1 1.3 1.7 1.6 1 .3-.8.6-3.3-.9-2.7zm-7.4 11.4c-1.4.2-1.8.3-1.6 1 .2.8.6.7 1.5.2.9-.5 1.6-1.5.1-1.2zm2.9 1.2c-.2.1-.3.6 0 1.1.3.5.9-.2 1.2-.8.2-.6-.4-.6-1.2-.3zM96.2 55.2c-1.3 0-3.3.5-2.2.5 1.1 0 2 .2 3.8.1 1.8-.1 2-.2 2-1.1 0-.8-1.2.4-3.6.5zM87.9 48c-1.3.4-1 .7.6 1.4s1.6.4 1.5-.9c-.2-1.4-1.3-.8-2.1-.5zm94 34.2c-1.7.5-2.2.2-2.5 1-.3.8-1 .4-1.3.5-.4.1-.9 2.5-1.2 2.1-.3-.4-.4-.5-.7-1.4-.4-.8.1-.7-.6-1.5-.7-.9-2.2-.8-2.3-.4-.1.4 1 .6.6 1s-1.3.9-1.6 1.2c-.3.3.7.2 1.3 0 .6-.1 1 .5 1.3.9.3.4-.3.9-.6 1.1-.3.2.9.2 1.4.2.5.1.7.5.4 1-.3.5 1.4.1 2.4 0 .9-.1 1.2.7 2.6.2 1.4-.5 2.1-.4 3.4-1.4 1.3-1 1.2-.7 2.1-1.4.9-.6.7-.8.7-1.5s.6.2.4-.9c-.2-1-1.3-.8-2-.8-.8-.1-.7-.7-1.1-.9-.5.1-1 .6-2.7 1zm111.3 90.2c-.1.2-.2.5-.2 1.1 0 .6-.1 1.1 0 1.7 0 .6.1.9.4 1.1.3.1.5.2 1 0s1-.7.7-1.3c-.3-.6-.7-1.5-1-2-.3-.5-.8-1.1-.9-.6zm-.4-.7c.1.2.1.2.2.3.1.2.2 0 .1-.2-.2-.2-.1-.2-.1-.2s-.2-.1-.2.1m47.4 32.6c0 .1 0 .1 0 0-1 1-1.8.7-3.3 1.2-1.6.5-4.3 2.1-4.5 2.8-.2.7 0 .8-.2.7-.2-.1-.5-.5-.5-.5s-.4.9-.3 1.6c.1.8.5 1.2.4 2.2 0 1-.4 1.6-.4 2.2 0 .7 1.2 2 1.4 2.8.3.8.5.6.7 2 .2 1.4.9 2.2.2 3-.8.8-1.3.6-.4 1.4.9.8 1.7 1.3 3.2.8 1.5-.5 1.1-1 2.2-1.2 1.2-.2 1.4-.5 2.4-.6 1-.1 1.7 0 2-.7.4-.7.1-.7 1.1-1.2s.9-.6 1.6-.7c.7-.1 1.1.3 2-.4.9-.7.2-.8 2.2-.8s2.8.3 3.5.5c.7.2 1.9.9 2.2 1.4.3.5.7 1 .8 1 .1 0 .3 0 .8-.4.5-.5 1.8-1.4 1.8-1.4s-.1 1-.4 1.4c-.3.4-.3.9-.3 1.1 0 .2.8-.6.9-.6.1 0 .2 1.4.3 1.5.1.1.4.1.7.5.3.4.7.7 1 1.5.3.8 1.6 1.5 2.3 1.7.8.1 1.5.1 2.1 0 .6-.1.6-.8 1.3-.5.6.3 0 .9 1.5.7 1.5-.1 1.9-.6 2.5-1 .6-.4.7.6 1.4-.5.8-1 .9-.8 1-2.1.1-1.3.1-1.5.8-2.7.7-1.2.9-.6 1.4-2.4.5-1.8 1.1-3.4 1.1-4.9-.1-1.4 0-.5-.3-2.1s-.1-1.4-1.2-2.1c-1.1-.7-1.3-.5-1.6-1.4-.3-1 .1-1.2-.4-1.2s-.9.2-1.2-.4c-.3-.6-.3-.9-.8-1.5-.6-.6-1.1-.5-2.1-1s-.5-.6-.5-1.4c0-.8.1-1.6-.8-2-.8-.4-.3.2-.3-1.1s0-1.1-.7-1.4c-.7-.2-.9-.2-1.3-1s-1-2.1-1.2-2.6c-.2-.5-.4.1-.7.4-.3.4-.6 1.2-.6 2s.4 1.2.4 2.3c0 1.1-.7 2.1-1.2 2.7-.5.6-.8.1-1.2-.1-.4-.2-.5-.8-1.3-1.2-.8-.4-2.4-.8-3.1-1.4-.7-.6-.2-.7 0-1.3.2-.7.5-1.2 1.1-1.6.5-.4.4-.6-.3-1s-1.6-.4-2.7-.4-1.8-.1-1.7.6c.1.6.7.9-.2.7-.9-.2-1.8-.3-2.2.2-.4.5-.5.7-.7 1.7-.2 1 .1 1-.3 1s-2-.8-2.5-1c-.5-.2-.8-.2-1.4.4-.6.6-2.7 2.4-3.5 2.9-1.2.5-1.2.4-2 2.9zm-29.3-27.6c-.5-.1-.7-.2-.2.6.6.7.7.9 1.3 1.4.5.5.7-.4 1.2.6.4 1 .3 1 .7 1.4.4.4.8.5.9.8.1.4.2.9.7 1.4.5.4.5.3.8 1.1.3.8.7 1.4.9 2 .2.7 1.5 1.3 2.1 2.1.6.8 1.7 2 1.9 1.7.2-.3.6 0 1-.1.3-.1.4-.6.7-1.7.2-1.1-.2-1.7-.5-1.9-.3-.3-.9-.3-1-.6-.2-.2-.4-1.1-.8-1.4-.4-.3-.5 0-.5-.6 0-.7.4-.6-.1-1-.6-.4-.6-.6-.8-.8-.2-.2-1.4-.5-1.7-.8-.3-.3-1.6-.9-2.2-1.5-.6-.6-1.3-1.1-1.5-1.6-.3-.5-.9-.9-2.9-1.1zm12.8 13.2c-.5 0-.8-.3-1.1.3-.4.6-.3.6.2.6.6 0 .4.3.4.4 0 .1-.3-.1.9.4 1.1.5 1.9.3 2.2.1.3-.2.4.4 2 .7 1.5.2 2.4-.1 3.3.1 1 .2.7-.1 0-.7-.7-.5-.6-.2-1.3-.8-.7-.5-1.7-.5-2.2-.6-.5-.1.4.5-1 .3s-.9.1-1.6-.3c-.7-.5-.7-.6-1.2-.6-.5-.1-.6.1-.6.1zm11.2 2.2c-.4.1-1.2.3-.8.5.4.2.1.3 1.3.2 1.2-.1 2.2-.2 2.3-.5.2-.2-.2-.1-.7-.2-.5-.1-.4.1-1.1.2-.7 0-1-.2-1-.2zm4-.1c-.8.1-.7.3-.1.5s1.2.3 1.6.1c.5-.1.5-.2 1.4-.4.9-.1 1.1-.1 1.8-.2l.7-.1s-.1-.1-.5-.1h-1.3c-.5 0-1.3.4-1.6.4-.3 0-1-.2-1.1-.1 0 .1 0-.2-.9-.1zm4.4 1s0 .1 0 0c-.6.4-.6.5-.5.8 0 .3-.1.4-.1.4s.8 0 1.4-.7c.6-.6.6-.6 1.3-.8.6-.2 1.3-.9 1.3-.9s-.5.1-1 .1-1.1.3-1.3.4c-.1.2.2.2-1.1.7zm-4.6.4c-.6-.4-1.1-.4-1.2-.1 0 .3-.5.2.3.5s1.6.7 1.5.3c0-.4-.3-.6-.6-.7zm-5.2-17.1c-.3.5.3.3-.2.8-.5.4-.9.2-1.3.8-.5.6-1.2 1-1.5 1.3-.3.2-1.3.5-1.7 1.1-.4.6.2.9.2.9s-.3.1-1-.1c-.7-.3-.7-.6-.7-.6s-.5 0-.8.7c-.3.8-.4.8.1 1.3s-.3.5-.2.8c.1.3.1.9.4.9.3.1.4-.3.8.2s.1 1.8.5 1.9c.5.1.8-.1 1.3 0 .4.2.7.3 1.3.2.5-.2 1.1 0 1.4.2.3.2 1.3.5 1.8.5s.6.1.7-.6c.1-.7 0-1.4.6-1.9.6-.6.6-.6.7-1.1 0-.5 0-1 .4-1.6.4-.5.6.3.8-.1.2-.4.4-.4.3-.6-.1-.2-.7-.2-.9-.6-.2-.4.1-.6-.2-1.4-.3-.8-.4-.5 0-.9.4-.5.7-.5.7-.9 0-.3.2-.4.7-.7.5-.3-.1-.2-.5-.5s-1.3-1.6-1.8-1.5c-.5-.2-1.6 1-1.9 1.5zm64.9 43.5c-.2-.2-.4 0 .1.5.5.6.5.4.8.4.3 0 .6 1.1.7 1.4.2.3.5.6.5.6s.2 1.2 0 1.8c-.2.6-.5.8-.6 1.3-.1.5.5.4.9.5.4.2.3.2.2.6-.2.5-.6.7-.6.7 0 .1.9.6 1.4 0 .5-.6 1.2-1.4 1.4-2 .2-.6-.4-.3.3-.8.6-.4.6-.2.9-.8.3-.5.7-1.1.3-1.4-.4-.3-.8.3-1.1.5-.3.1-.6.1-1.1-.1-.5-.2-.6-.2-.7-.6-.2-.4-.4-.6-.4-.6s-.1.7-.5.5c-.3-.2-.2-.5-.5-.9-.2-.4-.2-.5-.4-.8-.2-.3 0-.8-.8-.9-.7.2-.6.2-.8.1zm.2 7.4s-.6.5-1.2 1.3-.6 1-.8 1.5c-.2.4-.8.9-1.9 1.5-1.1.6-1.5.8-1.8 1.3-.4.5-1.6 2.1-1.8 2.3-.2.2.6.4 1.4.4.8 0 2 .7 2.6 0 .7-.7 1.3-2.4 1.7-3 .4-.6.8-.8 1.5-1.4.7-.6 1.8-1.7 1.8-2.1 0-.4-.3-1.1-.3-1.1s-.2.5-.8.4c-.5-.4-.4-1.1-.4-1.1zm-5.2 7.8c-.8-.4-.9.4-1 1.1-.1.8.3.1 1-.2.6-.3.3-.7 0-.9zm-26.1-5.3c-.9-.3-.7.5-.6 1.1.1.6.3 1.1.6 1.6s1.6.7 2 .5c.5-.2.8-1 1.3-1.7s.7-1.5.6-2c-.1-.4-.7.4-1.1.6-.4.2-.9.7-1.7.5-.6-.2-.8-.5-1.1-.6zm-11-44c-.7.2-1.1-.5-1.6-1.6-.6-1.2-1-1.4-2.5-.8-1.5.5-1.2.4-.3.8 1 .4 1.1.5 1.2.5.1 0 1.5.2 1.2.4-.3.2-1.6.4-.8 1s.5.2 2.7 1.3 2.6.3 3.3 1.7c.7 1.4.7 1.2.1 1.6-.6.4-1.3.7-1 .8.3 0 .9.2 2.4.2 1.5.1.1.9 1.8.9s2.1-.5 2.8-1.3c.7-.8.8-.4 2.2 0 1.4.3 1.9 1.6 3.7 2 1.8.5 2.5 1.1 1.4.1s-1.5-1.8-3-2.9c-1.5-1.2-1.6-1.3-2-2.2-.4-.9-2-2-3.7-2.7-1.7-.7-2.7-.8-4.7-1.4-2.1-.6-2.5 1.5-3.2 1.6zm-11.6-4.1c-.7.5-.7.2-1.2-.1-.5-.3-.4.6-1.5.1s-1.5-.8-2.7.1c-1.2.9-.4 1.2-.5 1.8 0 .6-1 2.3-1.3 3-.4.6-.4.9-.1 1.3.3.4.7.3.8.5.2.2 0 1.8-.2 2.3-.2.5.5.6 1.2.5.7-.2.1-.2.1-.8 0-.6.3-.8.3-1.9v-1.5s.2-.1.4.3.6 1.4.9 1.9c.3.5.6.9 1.1.5.5-.4.9-.8.9-.8s-.9-.3-.9-.6.4-.6-.2-1.6c-.6-1-1-1.1-.2-1.1.8-.1.8-.8 1.2-1.1.5-.2 1.1-.2 1.1-.2s-.5-.5-1.2-.3-1.3.3-1.9.6c-.6.3-1.1.5-1.2-.1-.1-.6-.2-.8-.1-1.6s1-.2 1.8-.4c.7-.2.7-.2 2.3-.1 1.6.1 1.7-.3 2.1-.9.5-.6.7-1.4.7-1.4s-1 1.2-1.7 1.6zm3.7-2.2c.1-.3-1.1.9-1.4 1.1-.2.2 0 .6.2.9.2.3.1 1.5.2 1.7.1.2.7.5.7.5s0-.8.2-1.1c.2-.3 0-.8 0-1.4.1-.7-.3-.9.1-1.7zm-2.5 6.7c-1-.4-1.4-.1-1.4.4s-.1.8 1 .8 2.3-.5.4-1.2zm2-.3c-.2.1-.5.9-.4 1.3.1.5.3.2.9.1.6-.1.5-.6 1.2-.6.7-.1 2.2.5 2.2.5s.3-.4-.8-1.1c-1.2-.7-1.7-.7-3.1-.2zm-20.1-26.1h-1.2c-.2 0-.5.4-.8.5-.3.2-.3.4-.1.8.2.4.5.4 1 .6.5.1.3-.2.7-.3.4-.1.5-.5.5-.8.1-.3.3-.4.4-.5.1-.1-.3-.5-.3-.5.1 0-.2.2-.2.2zm11.9 1.5c-.4-.3-.6.7-.7 1.3-.1.5-.2.9 0 1.3s.1.5.1.5l-.6-.4s-.2.5-.2.9-.2.6.5.9c.7.3.9.1 1 .6.1.5.1.7.5.8.4.1.9.3 1.1.6.2.3.1-.8.4-.7.3.1.7.5.9.8.2.3.5.4.5.4s-.5-.8-.3-.9c.2-.1.3-.2-.3-.5s-1-.3-1.5-.3c-.4-.1-.4.3-.8-.6-.3-.9-.1-1.4-.1-1.6 0-.2.2.3.5-.3s.3-1.1.3-1.6c0-.6.4-.8.1-.8-.2-.3-1.2-.3-1.4-.4zm5.2 11c.1.4-.4-.1-.6.1-.2.2-.3.2-.5.3-.3.1-1 .7-1 .7v-.5c0-.1-.2-.6-.4-.2-.2.3-.4.5-.9.8-.5.2-.7.6-.8 1-.1.4.3.4.3.4s.2-.1.5-.6.4-.5.9-.5c.6-.1.5-.1.7.2.2.3 0 .8.1 1.1 0 .3 0 .7.6.9.6.2.3 0 .8 0s.5 0 .4-.3c-.1-.3-.2-.5-.3-.8 0-.3.3-.4.4-.5.1-.1.2.3.3.7.2.4.2.4.3.1.1-.3.2-1 .2-1.4-.1-.4-.1-.7-.1-1 0-.3-.3-.7-.4-.8-.1-.1-.7-.6-.7-.6s.2.5.2.9zm-2.5-2.5s0-.3-.5-.7c-.5-.5-.5-.6-1.2-.7-.7-.1-1.5.1-1.1.8.3.8.4.9 1 1 .6.1 1-.2 1-.2s0 .1-.5.5c-.6.4-.6 1.1-.2 1.3.5.3.4.7.7.5.3-.2.5-.9 1-1.4.5-.5.6-.6.6-1.1.1-.5 0-1 0-1l-.8 1zm1.3-1.5c-.1.1-.4 0-.1.3.4.4.8.5.7.8 0 .3 0 .3-.2.3s-.3-.1-.4-.1c-.1 0-.1.2 0 .4s0 0 .2.3.1.4.2.7c.1.3.2.2.2.2v-1c0-.2-.1-.6.2-.4.3.1.2.6.4.2.2-.5.1-.9 0-1.2-.1-.4-.4-.4-.7-.4-.4-.2-.5-.1-.5-.1zm-5.7 1.4c-.2 0-.3.2-.4.8-.1.6-.4.9-.8 1.2-.3.3-1.3 1.2-1.3 1.4-.1.2-.1.1.6-.3.7-.3 1.2-.8 1.3-1.2.1-.4-.1-.2.5-.5s.3-.4.3-.8c.2-.5.1-.7-.2-.6zm36.4 16.7c-.1.6.2.7-.4 1.2-.5.4-1.1.4-1.7.5-.6.1-.2-.1-.8-.1-.7 0-.9 0-.6.4.3.3.2.7 1.3.6 1 0 1.9-.6 2.5-.8.7-.2.6-.7.7-1 0-.2-1-1.4-1-.8zm2.8 1.3c.3.4.2.3.5.9.4.5.9.6 1.4.8.4.1 0-.2-.3-.6-.3-.4-.3-.7-.8-1.1-.5-.5-1.3-.7-.8 0zm-37.1-34.4c-1.4.9-2 .8-1.5 2 .6 1.1.9 1.6 1 1.8.1.2.4-.1.7-1 .4-.9.4-2.1.6-2.4.2-.5-.3-.8-.8-.4zm24.1-44.2c.2.6.3 1.5 0 1.6-.4.1-.6.8-.7 1.4-.1.7-.3 1.5.1 2.1.4.5.1.6.1 1 0 .5.1 1.6-.1 2.3-.2.7-.4.8-.3 1.6.1.7 0 .9 0 1.9 0 1-.1 1.8 0 2.3 0 .4.3-.2.4-.3.2-.1.7-.2 1.1.1l.3.3s.5.2-.2-1.3c-.7-1.6-.9-1.2-.7-2.6.2-1.4.3-1.4 1.1-1.6.7-.1 1.1.9 1.2 1 .1.1-.1-.3-.3-1.1-.3-.8-.5-1.1-.6-2.1-.1-1-.4-1.8-.8-2.1-.4-.3-.2-.8 0-1.1.2-.4.2-1 .2-1.7-.1-.7-.3-1.6-.4-2-.1-.4-.6.2-.6.2l.2.1zm-.6 15.7c0 .4.1.9-.2 1.4-.3.5-.1.6-.3 1.4-.2.7-1 0-1 .1s-.1.7-.4.8c-.2.2-1 .2-.7.9.2.7.6 1.5.6 1.5s.4-.4.6-.5c.1 0 .5-.1.5-.1s-.1-.2-.5-.4c-.5-.2-.4-.7-.4-.8.1-.1.7 0 1.1 0 .4 0 .7-.2 1.2.1.5.4 1.2.5 1.2.5s.1-.6.3-1c.2-.4.9-.2 1.5-.4s1.1-.3.9-.6c-.2-.3-.2-.9-.3-1.3-.1-.5-.5 0-.9.1-.3.2-.7 0-1.2-.2-.4-.3-1.2-1.4-1.5-1.8-.1 0-.6-.2-.5.3zm-2 6.7c-.2.1-.5.6-.4 1.2 0 .6.6 0-.1 1.8s-1 2.3-1.6 2.7c-.6.5-1.2.5-1.5.4-.2-.1.1-.5.2-.7.2-.1-.6-.2-.9-.1-.3 0 0 .4-.1.7 0 .3-.6 1.1-.6 1.4.1.4.1.5-.3.6-.4.1-.7-.3-.8-.4-.1-.1-.7.1-1.5.2s-1 .4-1.3.9c-.3.6-1.1.7-1.7.9-.6.2-.3 1-1 1.3-.6.3-.6.8-.7 1.2 0 .4.4.1.4.1.1 0 .1-.6.4-.5.4.1.4.1.2.5l-.5 1c-.2.4.1.5.4.9.3.4.6-.1 1.2-.8.6-.7.7-.8.6-1.6-.1-.8-.3-.8-.8-1-.5-.2-.6 0 0-.6.5-.6.7 0 1.1-.3.3-.3 1.2-.2 2-.4s1.6-.5 1.6-.2.3 1.1.3 1.3c0 .2.6-.3 1.1-.5.5-.2 0-.3 0-.6 0-.4.2-.6.2-.6s.3.6 1.2.2c.9-.4.9-.6 1.2-.5.2.1.4.3.7.1.4-.2.4 0 .4.2-.1.2 1.1-.4 1.3-.5.2-.2.1 0 0-.7-.1-.6-.4-.7-.2-1.5s.1-.9.2-1.4c0-.5.2-.6.4-.6.1 0 .1-.7.4-1.1.3-.4.2-.5.2-1.4 0-.8-.5-.7-.5-1.3 0-.6.1-1.2.1-1.2s-.9.4-1 .6l-.1.2s.1-.1-.2.1zm-6.2 9.2c-1 .2-1.7.3-2.2.5-.6.2-.7.4-.6 1 .1.6.3 1.2.4 1.5.1.3.4 0 .9-.3s.5-1.1 1-1.1.3.6 1-.2.2-.9.2-1.3c.1-.6-.7-.1-.7-.1zm61.7-45.5c-1-.2-1.3-.4-1.4-.1-.1.4-.2.5.4.7.7.2 1-.2 1.6.3.6.5.8.4 1.3.4.5-.1.7-.3.7-.3s-1.9-.8-2.6-1zm-12-16.4c-.4.1-.7-.3-.6.7.1.9.3 1 1.5.9 1.2-.2.3 0 1.9-.2 1.6-.1 2-.4 2-.4s-.2-.5-.8-.9c-.6-.4-1.3.3-2.6.1-1.1-.2-1.4-.2-1.4-.2zM368 64.9c0 .4 1.6 1.4 2.2 1.7.6.3 1.1.2 2.3 0 1.3-.1 1.4-.7 1.5-1 .1-.3-.6-.2-1.4-.4-.8-.2-1.5.2-1.8 0-.3-.2.4-.3-.3-.6s-.9.1-1.1 0c-.2-.1-.2-.4-.6-.4-.3 0-.8.4-.8.7zm-6.5 2.1c-.6.2-.5.4.1 1 .6.5.4.4.2.8-.3.4 0 0 .9.4s1.3 1.2 1.9 1.3c.6.2 1 0 1 0s-.2-.6-.7-1.4c-.5-.7-1.7-1-1.9-1.6-.3-.6-.7-.8-1.5-.5zm5.9-3s-.8-.5-2.1-1.3-1.7-1-2.2-1.1c-.4-.1-.4.4-.5.8-.2.4-.3.3-.9 0-.7-.3-1.3-.8-2-1-.7-.2-1.1.4-1.9 1.2-.8.8-.3 1 .6 2.1.9 1.1 1.4 1.2 2.1.8.8-.4.5-.7 1.1-.5.5.2 2.4-.2 2.5-.2.1 0-.1 1 .7.8.8-.3 1.6-.4 2-.8.4-.5.6-.8.6-.8zm-57.1-21.9c-.2.2-1.7.1-2.4 1.2-.7 1.1-1.2.3-1.6 1-.4.7-.7 1.5-.7 1.5s.7.8 1.4.7c.7-.1 1.9.2 2.6 1.2.7.9 1.2.9 2.8 1.2 1.6.3.9.5 1.8.4.9-.1 2 .1 1.8-.3-.3-.4-.5-.7-.4-1.5.1-.8.9-.8 0-1.4-.9-.6-1.5-.1-1.5-.2s.8-.4.5-.4c-.3 0-1.8-.1-2-1-.2-.9.4-.9.7-1 .3-.1.2-.2-.7-.8-.9-.6-2.1-1.3-2.1-1.3-.4.4.1.5-.2.7zm8.3 6.2c-.6.1-1.2.8-1.5 1.3-.4.6-1.1 1.4-1.6 1.8-.5.4-.3.5.4.7.7.3 2.1-.5 2.4-.5.4 0 .7.6 1.8.4 1.2-.1 3-.4 2.1-1-.9-.6-.6-.3-1.5-1.1-1-.8-2.2-.8-2.2-.8s2-.7 1.5-.7c-.4-.1-1.4-.1-1.4-.1zm-50.8-10.1c-1.2.4-.7.6-1.5 1.2-.7.6-.2.8 1.4.4 1.6-.4 1.7-.6 2.7-1 1-.5-.9-1.2-2.6-.6zm2.5 2.9c-1.1.5-.8 1-.5 1.4.3.4 1.1-.2 1.3.2.2.5.3.3 1.3-.4s.6-.5.2-1.2c-.3-.8-.4-.9-2.3 0zm-6-.3c-.7.3-.7.3 0 .6s2.3.6 3.1 0c.8-.5.8-.4-.3-.6-1.1-.2-2-.4-2.8 0zM254.1 42c1.1-.1 2.1-.1 2.9 0 .9.1.5.8-1 1-1.6.2.2.4 1.3.4s.4-1 1.3-1.3c.9-.3 1.5-.1 2.7-.5 1.1-.4-.6-.8-1.9-.8-1.3 0-1.7.1-2.8 0-1.1-.1-2 .4-3.1.6-2.5.4-.4.7.6.6zm8.4.3c-.9 0-3.2.5-1.3.7 1.9.2 1.8.3 2.6 0s-.3-.7-1.3-.7zm6.7.4c-1.3-.4-1.4-.3-2.4-.2-1 0-1.4.7-.8 1 .7.3 1.1.2 1.7.1.6-.1.5-.3.2-.4-.4-.2 2.1-.2 1.3-.5zm5.6-1.7c-1 .1-1.1.3-1.2.6-.1.3.1.3 1.2.1 1.1-.1 1.6-.3 2.3-.7.7-.4-.1-1.3-.1-1.5 0-.2-1 .5-1.3.8-.2.3.4.6-.9.7zm-80.7 58.9c-.5 1.4-1.4 2.1-.4 1.7 1-.4 2-1.6 2-.6-.1 1.1-1 .9-.7 1.9.3 1 .1.9 1.8 1.3s.3.2.7 1.2c.4 1 .7 1.3.3 1.6-.4.3-1.7-.9-1.8-.4-.1.5.2.9.5 1.6.3.7-.2 1.1-1.2 1.6s-.1.7.6.7c.8 0 2.6-.4 2.3.3-.3.7-1.2-.1-1.9 1s-3 2-1.8 2c1.2-.1 1.1-.4 4.8-.9 3.7-.5 1.1 0 3.6-.8 2.4-.7 1.7-.9.3-.7-1.3.2.9-1.3.6-2.8-.3-1.4-1.2-.1-1.8-1-.6-.9-.5-1.2.6-.8 1.1.3 1-.2-1.1-1.6-2.1-1.3-.8-1.1-1.8-2.2s-2.6-1-2.6-1 .7-.4 1.1-1.2c.4-.8.5-.7.9-1.7s-.4-.9-1.6-.7c-1.1.2-1.5.4-1.2-.1.2-.4.4-.6.9-1.2s.6-.8-.3-.6c-1 .2-1.1.2-1.9.6-1.2.6-.4 1.4-.9 2.8zm-2.6 3.4c-1.7.7-1.2 1.1-.9 1.3.3.2.8-.2-.8.7-1.6.9-1.6 1.9-.8 2.1.8.2.7-.5-.2 1.2-.9 1.7-1.5 2.8.3 2.4 1.8-.4 2.3-1.3 3.1-1.5.9-.1 1-.8 1-1.8s-.6-1.1.1-1.9c.7-.9.7-1.8-.6-2.2-1.2-.4-.2-.7-1.2-.3zm21.3 23.1c-.1.2.1.9-.6 1.3s.3.8.5 1.2c.2.4.5-1.4.4-2.3 0-.8 0-.9-.3-.2zm-.4 3.4c-1.1.5-1.2.9-1.3 1.8-.1.8.9.2.6.9-.3.7 0 1.1 1.1.4 1.2-.7.5-1.3.7-2.2.3-.9.4-1.6-1.1-.9zm17.3 9.1c-1-.1-1.4.5.3.7 1.7.2 2.4.2 3.1.1.6-.2.1 0-.7-.6-.9-.6-1.5-.1-2.7-.2zm9.3.5c-1.4-.3-1 1.4.4 1.1 1.4-.2.9.1 1.5-.9s-.4.1-1.9-.2zm-33.6-7.6c-1.1.1-1.2.5-.3.7.9.2.7 0 1.2-.4.4-.3-.5-.4-.9-.3zm-66.6-20.1c-.7.5-1.4 1.3-2.4 3s-.9 1.5-1.8 2.5-.5.7 2.4 1.3c2.9.6 2.6 1 3.3.8.7-.2.8.4.8 1s.6.2.9-.7c.3-.9-.3-2.6-.9-3.5-.6-1-.7-1-1.6-.7-.9.2-.6-.2-1-1-.3-.7-.9-.2-.1-1.3.8-1 1-1.9.4-1.4zM51 109.8c0 .9 1 2.5 1.7 3s.6.2.2-.9c-.3-1.1-.1-1.1-.2-1.8s-1.7-.7-1.7-.3zm4.8 5c.2.2.8 1 1.8 1.7s1.3.8 2.3 1.1c1.1.3 1.5-.1.8-.7s-.1-.6-1.3-.8c-1.2-.3-1.5-.2-2.1-.6-.6-.5-1.9-1.2-1.5-.7zM29 104.6c-.8-.2-1.1-.2-1.6.2s-.7.8-.4 1.3c.3.5.1.2.8-.3.7-.5.4-.5 1.2-.8.9-.2.7-.5.7-.5s-.2.2-.7.1zm-.3-1.1c-.5.3-.7.6-.1.5.6-.1.5-.5.9-.4.4.1.5-.1.5-.1s-.7-.3-1.3 0zm-15.2-2.4c-.7.4-1.4-.1-1 .2.4.3 1.1.5 1.5.5.5-.1.8-.1.6-.3-.2-.2-.2-.3-.2-.5.1-.4-.2-.3-.9.1zm243.4 100c-.8 1.8-2.6.9-4 2.3s-1.2.9-.1 2.8c1.1 1.9-.9 1.7-1.4 3.9-.5 2.2.6 1.8 1.1 3.7.6 1.9.8 1.3 1.9 1.1 1.1-.2 1.8-.7 1.8-.7s.2-1.6.9-4.1c.7-2.4 1.2-4.2 1.3-5.8.1-1.6.3-2.7.6-2.3.4.5.4.5.4-.3s-.4-3-1.1-3.5c-1.2-.8-.6 1.1-1.4 2.9zm1.2-125.9c-1.2.3-1.7 1-.9 1.2.8.3.8.1 2.1-.4 1.5-.4-.1-1.1-1.2-.8zm21.5-20.9c-.4-.6-.7.2-4.8 2-4 1.8-4 .2-7.8 3.2s-2.9 2.6-3.2 4.4c-.2 1.8-1.1 1-1.4 2.7-.4 1.6-2.3 1.7-1.3 3.1 1 1.4 2.2 2.1 4.3 2.7 2 .6 2.6 0 2.2-.2-.4-.2-2-2.6-1.7-5.4.3-2.7 1.3-2.3 2.2-3.4.9-1 3.2-3.7 4.7-4.6 1.5-.9 5.3-2.1 7.3-2.8.1 0 .1 0 .2-.1 1.4-1.7-.3-1-.7-1.6zm-10.9 18.4c-.5.1-.7.1.2.9.9.9 1.6 1.5 1.4.4-.3-1.2-1.1-1.4-1.6-1.3zm14.5-8.4c-.6-.3-1-.6-1.1-.1-.2.5.7 1.1 1.6 1.3.8.2.1-.9-.5-1.2zm-151.4 51.6c-1-.5-1.9-.9-2.6-.9-.6 0 .1.7 1.1 1.2 1.1.6 2.1 0 1.5-.3zm-2.3 4.1c.1-.8-.5.9.2 1.3s1.1.5 1.6 0 .1-.2-.6-.3c-.6-.1-1.2-.3-1.2-1zm288-28.2c-1.2.1-2.1-.2-2.1-.2s-.1 1-.4 1.4c-.4.5-.1 1-.1 1s-1.2-.5-1.9-.8c-.7-.2-1.3 0-1.7-1.1-.4-1-1.6-.9-2.5-.9-.9 0-.7-1.2-.7-1.2h-.6c-.6 0-.5 1.4-1.2 1.8-.7.4-3 .7-3 .7s1.4 1 1.7 1.9c.3.9.9 1.7.9 1.7s-.1.4-1.9.1c-1.7-.3-1.6.3-3.5 1.1s-4 1.9-4.5 2.4c-.5.4-.6.2-2.2-.2s-2 .5-2.4.7c-.4.2-.3-1-.3-1s-.6 0-1.3.4c-7.5 3.8-2.3 3.6-2.6 4.4l-.8 3c-1.1 3.3-1.9 1.6-2.8 4.2-3 8.3-4.7-1.3-4.7-3.5 0-1.4-.3-3.1.6-3.5 7.4-3.4.7-.5 7.6-5.2 2.2-1.5 1-2.5 1.5-2.9.5-.4 1.3-.6 1.3-.6l-1.2-.1c-1.2-.1-1.3.2-2.2 1.2-1 1-1.7 1.2-1.5.4.2-.8.2-1.6-.5-1.2-.7.4-1 .4-2.4.6-1.4.3-2.8.9-4 2.5-1.2 1.5-.5 1.4-.1 1.7.4.4-1.9.3-3.1.2-1.1-.1-.5-.3.1-.5.7-.2-1-.4-2.4-.7-1.4-.3-.9.2-1.7.6-.9.3-.8-.3-1.3-.4-.4-.1-2.3-.2-3.7-.4-1.4-.2-1.3.1-1.6.6-.4.5-2.9 2.7-4 3.9-1.1 1.3-2.4 1.5-3.7 2.7-1.2 1.2-1.4 1.1-.4 1.3 1 .2 1.1.1 1.3 1 .2.9.6 1.2 1.7 1.2s.8.3 1-.5c.2-.8-.3-1.7.6-1 .9.7 1.6 1.2 1.9 2.2.3 1-.1 1.7-.5 3.4-.5 1.7-.6 4.1-1.3 5.3-.6 1.2-1.1 2.1-1.8 3.5s-4.1 4.8-4.8 5.1c-.8.3-1.3.3-1.6-.3-.4-.7-.6-.6-1.5.2s-1.3 1.2-1.6 2.5c-.3 1.2-1.1 1.2-1.8 2.1-.8.9-1 .7-.4 1.8.6 1 1.5 2.1 1.6 3.2.1 1-.5 2.5-.8 3.1-.4.6-2.1 1-2 .6 0-.3.1-1.8 0-2.7-.1-.9-.7-.9-.5-1.2.2-.3 1.2-.7.5-1.4-.7-.6-1.2-.1-1.5-.9-.3-.8.1-1.4 0-1.7-.2-.3-.7-.6-1.7-.7-1-.1-1.3.9-1.5 0-.2-.9.1-1-.4-1.4-.5-.4-.9-.1-2 .9-1.2 1-1.4.8-2.4 1.2-1 .4-1 .7-.8 1 .2.3 1.1 1.8 1.7 2 .7.2 1.2-.3 2.2-.3 1.1 0 1.3.2 1 .6-.3.4-1 .8-2.3 2.1-1.3 1.3-.9 1-.5 1.6.4.5 1.1 1.2 1.5 2.2.5 1 0 1.4-.1 2-.1.6-.2 1.5.7 2.4.9.9.3.6.2 1-.1.3-1.6 3-2.2 4.3-.7 1.3-.7 1.4-2.8 2.9-2.1 1.5-3.1 1.7-4.3 1.9-1.2.2-2.1.6-2.7.8-.6.2-.4.7-.4 1-.1.3-.6 0-.5-.4.1-.5 0-.8-.3-.9-.3-.1-1.2-.5-2.2.4-1 .9-2.1 1-2.5 2.1-.4 1.2-.3.8.1 1.3s2.5 2.5 3 3.6.6 1.9.6 3c0 1.2-2.4 3.3-3.4 4-1.1.7-1.3 1.4-1.1.3.2-1.1-.5-1.7-1.2-2.6-.8-.8-3.1-1.5-3.5-1.6-.4-.1.2-.8-.1-.7-.3 0-1-.2-.9.9.1 1.1-.7.7-.9 1.8-.2 1.1-.4 2.2.3 2.1.7-.1.6 1 1.1 2.1.5 1.2.3.5 1.6 1.6s1 .9 1.3 2c.3 1.1.2 1.7.9 2.7.7 1 .7 1.2-.4.6s-2-1.2-2.4-1.9c-.4-.7-.7-2.4-1-3.3-.3-.9-2-1.9-2.6-2.5-.6-.6-.2-1.1.1-2.5.3-1.4-.1-2.8-.2-3.6-.1-.9-.8-3.3-1.1-4.1-.3-.8-.2-.7-.7 0-.5.7-.9 1.1-1.4 1.1-.5 0-1.2-.1-1.2-.4.1-.3.6-1.6.4-2-.2-.5-.6-1.9-1.3-2.5-.7-.5-1.5-1.2-1.9-2.5-.4-1.2-.6-.9-1.4-.2-.9.6-2.8.7-3.8.8-.9.1-.2.5-.4 1s-1.3 1.1-3.6 3.4c-2.2 2.3-2.6 2.4-3.1 2.6-.6.2-.9.2-.9 1.1 0 1 .1 1.5 0 2.3-.1.8-.4 1.2-.6 1.7-.2.5-.5 1.5-.6 2-.1.5-.6 1.1-1.3 1.6-.7.5-.7.4-1.1-.3-.3-.8-2-3.7-3.4-6.5s-1.1-3.3-1.2-4.1c-.1-.8-.2-5.6-.1-6 0-.2-.7.6-.9 1-.2.4-.2.9-1 .9-.8.1-1 .1-1.7-.7-.7-.7-1.1-1.2-1-1.1.1 0 1-.1 1.5-.3.5-.2.3-.5.3-.5s-.5.1-1.2.1c-.6 0-.4-.1-1.2-.5-.8-.3-1-.4-1.2-.7-.1-.4-.4-.9-.5-1.2-.1-.3-.2-.3-.4-.7-.1-.4-.5.1-1.5.1-.9 0-.7.1-1.8.5s-1.3.3-2.5.2c-1.2 0-2.1-.6-2.7-.8-.6-.2-.7-.1-1.6-.3-.9-.1-.7-.6-1-1-.2-.4-.6-.5-1.8-.4-1.2.1-1.3 0-1.9-.2-.7-.2-.7-.4-1.3-1-.6-.6-.4-.1-.8-.4-.4-.3-.7-.7-1-1.5-.3-.8-.2-1-.6-1.3-.3-.4-.3-.3-1.4-.3-1.1 0-.6.1-.7.1-.1.1-.5.5-.8.9-.3.4.2.9.7 1.4.4.5.1.5.7 1.2.7.8.4.7.9 1.7s.8 1.3.9 1.6c.1.3.2-.1.3-.4.1-.3 0-1.3 0-1.3s.2.4.4 1.2c.2.8.1.8.2 1.2.1.5 0 .4.8.4s1.3 0 2.2-.2c.9-.2 1.3-1 1.7-1.3.4-.2.4-1.1.7-1 .3.1 0 1 .3 1.6.3.6.3.4 1 .7.6.3.8.4 1.5.7.6.2.2.3.6.9.4.6.3.3.7.5.3.2.2.1 0 .8-.2.8-.3.8-.9 1.4-.6.6-.6.4-.7.4-.1 0-.3-.5-.3-.5s-.4.7-.4 1.6c-.1.9.3.6-.8 1-1 .4-1.7.6-2.1.9-.4.3-.4.8-.6 1-.2.2-.6 0-1.3.3-.7.2-.5.2-1.1.6-.6.4-.1.4-.8.7-.8.3-2.1 1-2.8 1-.7.1-.6.3-.7.5-.2.3-.2.4-1.1.5-.9.1-2 .3-2.5.5-.5.3-1.3.9-1.9.7-.6-.1-.4-.1-.6-.6-.2-.5-.3-.9-.4-1.7-.1-.8-.4-2.1-.9-2.9-.5-.8-.5-.9-1-1.7-.5-.8-.9-1.6-1.3-1.9-.5-.3-.7-.3-.9-.6-.2-.2-.1-1.1-.3-1.8-.2-.7-.4-1.4-.7-1.8-.3-.4-.9-.9-1.3-1.7-.5-.9-.5-.9-1.2-2.3-.7-1.3-.9-1.5-1.4-2.4-.5-.9-.2-.7-.3-1.2-.2-.5-.6.9-.9 1.1-.3.3-.5.1-.8-.6-.3-.8-.5-1.5-.7-1.2-.2.3-.4.6-.1 1.4.3.8.4.7.8 1.4l1.8 3.6c.4.8.3.4.6 1.7.4 1.2.6 1.4 1.1 1.9.5.5.4.2.7 1.1.2.8.1 1.8.2 2.3 0 .5.3.8.9 1.3.6.5.3.3.6.9.3.5.6 1.3.7 1.8.2.5.4.9.8 1.1.5.2.6.3 1.1.4.5.2.3.3.6.7.3.4 1 .7 1.4 1.4.4.7.1.5.1 1.1 0 .6-.2.3.1.7.3.3.8.6 1.6 1.2s.2.2.9.1c.8 0 .9-.2 1.7-.4.8-.2 1.8-.5 2.8-.7 1-.2 2-.4 2.5-.6.5-.2.5.4.1 1.2-.4.9-.6 1.6-.9 2.3-.3.7-.5.8-.7 1.3-.2.6-1.9 2.9-2.2 3.6-.3.7-.7 1.3-1.2 1.9-.5.6-2 1.7-2.8 2.3-.7.6-.5.6-1.1 1.3-.5.7-2.2 2.6-2.6 3.3-.4.7-.7.9-1 1.6-.3.7-1.3 1.6-1.3 2.1-.1.5-.6.5-.2 1 .4.4.6.5.7 1 .1.5-.4 1.1-.1 2.1.4 1 .1.3.7 1.1s.5 1.3.6 2.4c.1 1.1.1 2.3-.1 3-.2.7-.4 1.2-.7 1.9-.3.7-1.6 1.1-2.5 1.5-.8.4-.8.2-1.2.7-.4.5-1.4 1.4-1.8 2.1-.4.7-.6.6-.5 1.1.1.4.4 1 .8 1.8s.1.8 0 1.5-.1.6-.2 1.5-1.1.9-2.3 1.3c-1.2.5-.7.2-.9.8-.1.6-.1 1.9-.1 2.6 0 .7-.4.4-1 1.4-.6.9-.9 1.3-1.5 2.4-.7 1.1-.6.9-1.5 1.6-.8.7-1.5.9-1.9 1.6-.4.8-.8.3-2.6.8-1.8.6-.5.3-2.2.5-1.7.2-2.3.3-3.3.5-.9.2-.8-.1-1.4-.7-.6-.6-.6-.6-.9-1.1-.3-.5-.1-.6-.1-1.6-.1-.9-.2-1-.5-1.5-.3-.6-.3-.7-.7-1.6-.4-.9-.5-1.2-1-1.8-.4-.6-.5-.4-.9-.8s-.4-.7-.5-1.3c-.1-.6-.2-1.9-.4-3.3s0-.7-.2-1.2c-.2-.6-.5-1.3-.9-2.1s-.2-.6-.8-1.6c-.6-1-.5-.8-.9-1.7-.4-.9-.4-.5-.4-.8 0-.3.2-.9.2-1.5s.2-1.2.3-2.1c.1-.9-.2-.9.2-1.5s.8-1.2 1-1.8c.2-.7.2-.7.2-1.6 0-.9-.1-.8-.4-1.5-.3-.7-.4-1.6-.7-2.7-.3-1.2-.3-1.1-.4-1.6 0-.5-.3-1.5-.5-2.1-.2-.6-.3-.4-.8-.8s-.2-.2-.6-.7c-.4-.4-.3-.6-.7-1.1-.4-.5-.5-.5-.8-1-.3-.5-.2-.2-.1-1.1 0-.9.3-2.7.5-3.7s.2-1-.2-1.4c-.4-.4-.7-1-1-1.1-.3-.1-1 .1-2.1.1-1 0-1-.3-1.4-.8-.5-.5-1-1.2-1.3-1.4-.2-.2-.6-.2-2.4-.1-1.8.1-.7.2-1.9.3-1.2.2-1.6.8-2.6 1.1-.9.3-1.2.2-2.8-.1-1.6-.3-2.4.4-3.2.7-.8.3-1.2.2-1.8-.2-.6-.4-.9-.7-1.9-1.2-.9-.5-.7-.7-1.6-1.1-.9-.4-.6-.5-1.4-1.2-.7-.7-.8-1.4-1.3-2.2-.5-.7-1-1.8-1.6-2.5-.7-.8-1.4-2.3-1.7-2.8-.3-.5-.6-.5-.6-.7 0-.2.7-1.5.9-2.2.3-.7.4-.6.5-1 .1-.4-.2-1.7-.4-2.3-.3-.7-.6-2.1-.8-2.8-.2-.7.1-.7.4-1.1.3-.4.9-1.2 1.5-2.3.6-1.2 1-1.7 1.3-2.3.3-.5 1.1-2.2 1.6-2.7s1.8-1.4 2.3-1.6c.5-.3 1-.4 1.1-.7.1-.2.3-2.3.5-3.1.2-.9-.1-1.3.6-1.6.6-.3 1.6-.9 2.1-1.2.5-.3.6-.7.9-1.3.3-.6.4-1.4.8-1.7.4-.3.3.1.8.5.5.3.6.4.8.4.2.1.5-.2 1.1-.2.6 0 .7.1 1 .3.4.2.2.2 1.2-.4 1-.6 1.9-1 3.2-1.5 1.4-.5 2.3-.8 2.9-.8.6-.1.3 0 1 .3s.7.4.9.2c.1-.2.6-.8.9-.8.3 0 .6.1 1.4.3.8.1 1.1.1 1.4-.1.3-.2.7-.5.8-.5.1 0 .7.2 1.3.4.5.2.5.2.4.4-.1.1-.3.3-.5.8-.3.6-.1.3.1.9.2.6.4.6.3 1-.1.4-.6.8-1 1.3-.4.4-.3.5.6 1 .9.5.7.4 1.7.9s1 .3 2.2.6c1.2.3 1 .4 1.4.9.4.5.4.9 1.1 1.2.7.2 1.5.2 1.9.5.4.3.7.6 1.3.7.5.1.5.2.8-.2.3-.4.5-.8.4-1-.1-.2-.4-.5-.3-.7.1-.2.5-1 .7-1.2.1-.2.5-.3 1.4-.3.9 0 1.5-.2 1.6.3.1.5.1.3.8.6.7.3.7.3 1.3.5.6.2.3.5.6.5s.7-.1 1.3.1c.5.2 1.5.6 2.5.7 1 0 1.4-.3 1.6-.3.2-.1.9-1 1.3-.3.4.6 1 .6 2.1.6 1.1-.1 1.1-.2 1.3-.5.2-.3.9-1.3 1.1-2 .2-.7.8-2.3.9-3 .2-.7 0-1.3-.1-1.7-.1-.4 0-.7.2-1.2s-.5-.2-.8-.1c-.3.1-.4-.1-.6-.2-.3-.1-.5-.1-.7.3-.2.5-.1.7-1.1.7-1-.1-.8-.1-1.2-.5-.3-.4-.9-.5-1.3-.6-.4-.1-.5-.1-.5.2 0 .3 0 .5-.4.6-.3.1-1.1 0-1.7-.3-.6-.3-.8-.4-1.4-1-.6-.6-.5-.6-.8-1.5-.3-.9-.3-1.7-.1-2 .1-.3.3-.4-.2-.2-.5.1-.8.2-.5-.5.3-.7.6-.7.9-.8.3-.1.8-.1 1.5-.1.6 0 1.1-.4 1.3-.5.2-.1.7-.2.4-.3-.2-.1-.9-.1-.8-.3.1-.2.2-.2.6-.2.4 0 1-.1 1.5-.1s.8.1 1-.2c.2-.3.4-.7.8-1 .4-.2.8-.1 1.8-.2 1 0 .9.2 1.2.4.3.2.5.1 1 .2.4.1.2.3.5.5.3.1.9.3 1.7.5.7.2.3.1 1.2.1.9 0 .9 0 1.6-.1.7-.1 1-.4 1.5-.7.5-.4.2-1.1 0-1.7-.2-.6-1-1-1.3-1.3-.4-.3-1.1-1.2-1.6-1.5-.4-.4-.9-.5-1.4-.7-.5-.3-1.3-.7-1.4-1-.1-.3.2-.3.9-.5s.5-.3.6-.7c.1-.4.2-.3.7-.6.6-.2-.6-.6-.8-.9-.2-.2.4-.2.9-.3.6-.1.6-.4.7-.6.1-.2.1-.3-.6-.3s-1.5.3-2.6.6-.6.3-1.3.8c-.7.5-.7.3-.6.6.1.3.1.6.8.9.7.4.4.4.6.4.2.1.6.1.4.2-.2.1-.4.4-.7.4-.3 0-.4.3-1 .6-.5.3-.8.3-1.1.4-.4.1-.7-.1-.6-.7.1-.7-.2-.2-.6-.4l-.6-.3s.4-.1.8-.4c.4-.3.6-.4.8-.9.2-.5-.4-.2-.9-.3-.5-.1-.3-.1-.8-.2-.4-.1-.6-.4-.6-.4s.2.1.6 0c.4 0 .3-.1.4-.2.1-.1.3-.2.1-.2-.1 0-.6.1-.9 0-.3 0-.5-.1-1 0s-.3.2-.6.5c-.3.2-.3.3-.5.6s-.2.3-.4.5c-.1.2-.1.7-.1 1.1 0 .3-.1.5-.3.7-.2.3-.2.2-.6.3-.4.2-.1.3-.2.6 0 .3-.2.5-.2.9s-.2.5-.5.8c-.3.3-.4.3-.4.6s-.1.5 0 1.1c.1.6.3.5.7 1.1.5.6.8.4.6.7-.2.3-.1.2-.7.1s-.7 0-1.1.4c-.4.4-.5.7-.8.8-.2.2-.2-.3-.2-.5-.1-.2-1.1-.3-1.8-.5s-.9-.3-1.1-.3c-.2 0-.4 0-1.2.4-.7.4-.6.6-.5 1.2.1.5.6.6.5 1.9-.2 1.2.6.7.9 1.4.3.8 0 .7-.2.8-.2.1-.4.7-.5 1.4-.1.6 0 .7-.2.7s-.4.1-.7-.4c-.3-.5-.6 0-.7-.3 0-.3-.5-.8-.3-1.5s.4-.7-.2-1.1c-.6-.4-.4-.4-.7-1.1-.3-.7-.3-.9-.9-1.5-.5-.7-.5-.5-.3-1.1.1-.7.3-1.5-.1-2-.3-.5-1.7-1.7-2.8-2.3-1.1-.6-1.4-.1-1.8-1.1-.5-1-.7-2-1.5-2.5-.8-.6-.4-.6-1.2-.3-.8.3-.8.4-.7.6.1.2.2.5.1 1.2-.1.6-.3.4.5.9s.5.4.9 1.3.5 1.1.8 1.4c.3.4.4.7 1.3.9.8.2.7 0 .9.2.2.2-.6.3-.4.4.1.1.3.4 1 .8s1.4.9 1.6 1.2c.2.3.8 1.6-.1.7-.9-.9-.9-.5-1.2.1-.2.6.2 1.1.2 1.6s-.4.3-.7.7c-.3.4-.4.8-.8 1.1-.3.2-.2-.3-.4-.3s-.2.2-.5.7c-.2.4 0 .6.1 1.2s.3.6-.4.6c-.6 0-.5-.6-1.1-1-.6-.4-.9-.3-1.4-.6-.5-.3.2-.4 1.4-.5 1.2-.2 1.4-.3 1.8-.6.4-.3.2-.4.7-1 .4-.6 0-.8-.3-1.5s-.8-1-1-1.2c-.2-.1-.6-.6-1-1s-.7-.5-1.4-.6c-.6-.2-.5-.7-.9-.9-.3-.2-.7-.7-1.5-1.4s-.5-1.3-.9-1.9c-.4-.6-.7-1.1-1.5-1.1s-1.4.6-2.2 1.3c-.8.8-.6 1.1-1.5.6-.9-.6-1.3-.5-1.9 0-.7.6-.8 1.1-.8 2.2s-.8.6-1.4 1c-.6.3-1.2 1.1-2.1 2.9-1 1.8.1 1-.1 1.6-.2.6.1 1.1-.8 1.9-.9.8-.5-.1-1 .6-.5.6-1.3 1.2-2.5 1-1.3-.2-.9.3-1.7.5-.8.2-1.2.5-1-.4.2-.9 0-.8-1.5-.7-1.5.1-2 .5-1.9.2.1-.2.2-.6.4-1.4.2-.9.4-1.1.2-1.1s-.7.1-.4-1.4c.4-1.5.5-1.8.3-2.7-.2-.9.1-2.1-.1-2.6s.4-1 .1-1.3c-.3-.3-.6-.6-.4-.6.2 0 1 0 2.1.2s2.1-.2 2.8-.1c.6.1 1.9.3 3.3.6 1.3.2 1.3-.2 1.2-2.1-.1-1.9.1-2.8-.3-3.2-.4-.4-.8-.4-1.3-.9-.4-.5-.1-1.3-1-1.6-.9-.3-1.9-.1-1.5-.2.5-.2.7-.2.2-.6-.5-.4-.7-.8-.3-.9.4-.1 1.5-.1 1.5-.1s.1.6.7.3c.6-.2 1.4-.5 1.2-.9-.2-.4-.5-.9-.4-.9.1 0 .3.6 1.6.6s1.2-.2 1.1-.7c-.1-.5.8-.5 1.5-.9.6-.4-.2-.9-.1-1.3s.9-.6 2.1-.7c1.3-.1 1.1-.3.9-.5-.1-.2 0-.8.1-1.6s-.1-1.1.6-1.5c.7-.4.5-.2 1.8-.4 1.4-.1.5-.4.8-.5.2-.1 1.8-.5 2.1-.6.3-.1.3-.1 0-.7s-.6-.9-.9-3.6c-.3-2.7-.2-2.7 1.4-3.2 1.6-.5 1.3-.3 1.2 1.2-.1 1.5-.9 1.5-1 2.6-.2 1.1 0 1.8.7 2.9.7 1.2.6.6 2.1.6s1.2.4 2.1.7c1 .3.7-.6 1.6-1 1-.3.8.2 3-.1.9-.1 1.1-.2 1.2-.2-.1 0-.3 0-.1-.1.5-.3.7-.9 1.4-1 .8-.1 1.3.2 1.2-1 0-1.2-.5-1-.3-1.9.1-.9.2-.5.2-1.2.1-.7-.1-.8.9-1.1 1-.2.3.9 1.4 1.1 1.2.2 1 .4 1.2-.5.2-.9.8-2.1.3-2-.6.1-.7 0-1.3-.9-.6-.8-.9-1-.5-1s1.6-.3 3.3-.3c1.7.1 2.2.2 2.3 0 .1-.2-.3-.4.3-.7.6-.4 2.5.2 2.2-.2-.3-.3-2-.8-3.2-.6-1.2.2-4 .5-4.4.5-.4 0-1.2-.3-1.4-.6-.2-.2-.8-.4-.8-1.4 0-1 .4-1.4-.2-2.4-.6-1 1.1-1.8 2.2-2.9 1.2-1 .9-1.9 1.5-2 .7-.1 1-.4.6-.8-.3-.3-1.5-1.5-2.1-1.6-.6-.1-1.5-.8-2.4.8-.9 1.6.1 1.7.2 2.6.2.8-1.3 1.4-2.4 2.2-1.1.8-1.5.6-1.8 2.5-.3 2-.7 2 .6 2.7 1.2.7 1.5 1 .9 1.6-.6.6-1.7.6-2.5 1.9-.7 1.4-.4 2.1-.7 2.7-.3.6-1.2.9-1.5 1.5-.3.6-.3 1.8-1.4 1.6-1.1-.2-.5-1.7-1-2.5s-.9-1.4-1.5-2.4-.1-1.9-.7-2.4-.7-1.5-.7-1.5l-.2.5c-.2.5-.1.7-1.2 2.1-1.1 1.4-2.8 1.5-3.6 1.1-.8-.3-.7-1.1-.7-2.1s-.2-2.4 0-4 .6-1.5 2.4-2.5c1.7-1 1.8-1 2.2-1.7.4-.7 1.7-1.6 2.4-2.2.7-.6 2-2.9 2.6-4.6.7-1.7 1.9-2.7 3.1-4.5 1.2-1.8 3.3-3.3 6-4.5 2.7-1.1 2.2-1.3 2.9-2.1.6-.9.9-.4 1.9-.6 1.1-.2.9 0-.2 1s-1.5 2.1-.6 1.3 1.6-1.8 3-1.8c1.4.1.8 0 2.2.6 1.4.6 1.6.7.8 1.2s-2 .4-2 .4.4 1 1.7 1.2c1.3.2 1.9-1 2.8-.6.8.4 1.1.7-.1.6-1.1-.1-1.4.6-.1 1.1 1.4.5 1.5.6 3.3.8 1.8.2 2.6 1.6 4 2.2 1.4.6 3 .1 2.5 1.4-.5 1.3.4 2.5-2 3.1-2.4.6-2.3-.2-4.4-.8-2-.6-3.4-1.2-3.4-1.2s.5.7 1.4 1.6c.9.9 1 1.7.9 3.2-.1 1.6-.5 2 1.1 2.8 1.6.8 1.4.6 1.8.4.5-.1 1.3-.3 1.1-.5-.2-.2-.4-.7-.9-1-.5-.2-.6-.8 0-1.1.5-.3 1 .2 2.2.2 1.2-.1 0-.4.6-1s.6-1.6 1.9-2.1c1.4-.5 2.8.2 3.2-.3.4-.6.8-1.3 0-2.1-.8-.9-1.4-1.2-.9-1.6.5-.4 1.4-1.6 1.8-.9.4.6 1.5 1.4.1 1.2-1.4-.1-.4 2.1.8 1.9 1.3-.1 1.2-.5 2.2-1 1-.5 3-2.1 4.4-2.6 1.4-.5 1.7-.4 2.3-.1.6.2.6.7 2.1.4 1.5-.3 2-.7 3.5-.9 1.4-.2-.1.5.6.7.7.2.7.4 1.2.1.5-.3 2.1-.9 1.4-1.4-.7-.6-1.3-.9-1.3-.9s.5-1.2 1.9-1.1c1.4.1 3.5 1.4 4.8 2.3 1.4.9 3 2.9 3 2.9s.6-1 .1-2.7c-.5-1.7-1.7-1.3-1.7-2.9 0-1.6-1.2-1.2-.8-2.3.4-1.1 1.5-1.6 1.8-3 .3-1.4.6-2.6 1.6-2.6s3.2.3 3.2.3 0 1.3-.8 3.3c-.8 2 .4 2.2.2 4.6-.2 2.4-.2 2.7.3 3.3.6.6 1.6 1.2 1.2 2.3-.4 1-.6 1.7-2.1 2.3-1.5.6-3.4.2-2.7.7.7.5 1.6.9 2.6 1 1 .2.5-.1 1.3-.7s2.6-1.9 2.5-2.5c-.1-.6-1-1.6-.4-2 .7-.5.9-1.2 1.9-.6 1 .6 2 2.8 2 2.7 0-.1-.2-2.1-1.4-3.4-1.2-1.2-3.2-.1-3.2-1.1 0-1.1.6-2.5.4-3.7-.1-1.2-.6-2.3.2-3.3s.8-1.8.8-1.8.3 1 .1 2.2c-.3 1.2.1 1.9.7 1.9s3.1 0 1.7-.4c-1.4-.4-1.7-.8-.4-1.5 1.4-.7 1.3-.2 3.3.2 2 .5 2.4.8 3.1.8.7 0 .6-.1.3-.7-.2-.6-.5-1-1.2-1.4-.6-.4-1.1.1-1.3-.5-.2-.6-.6-2.1-.7-2.7-.2-.6.5-.1 1.5-.1 1.1 0 3.9-.2 6.1-.2 2.2-.1 0-2.4-.1-4-.2-1.6 4.1-1.7 6.2-2 2.1-.3 4.5-.2 8.4-1.1 3.9-.9 1.4-.8 1.9-1.9.6-1.1 1.5-1.3 2.7-1.3 1.2 0 2.2.2 1.8.4-.4.2-1.7.8.3 1.2 2 .4 1.5.4.4.8s-.2 1 1.9 1c2 0 .8-.2.5-.9-.3-.7.3-.4 2-.2 1.7.3 2.3.6 3.3 1.4.9.9 1.1.6 1.4 1.8.3 1.2 0 1-1.4 2.1s-2.3 1.1-4.3 2.4c-2 1.3-1.6 2-2.7 2.8-1.1.9-.8.6 1.5 0 2.4-.6 3.7-1 4.9-.9 1.2.1 1.8.6 2.7.6.9 0-.1.2 2.8.2s2.5 0 1.4.8.2 1.1 1.5 1.1 2.9.1 4.1-.1c1.2-.2.2-1.1 1.6-1.1 1.4-.1 1.9-.2 3.4-.2s1.1.6 1.6 1.2 1.3.9.8 2-.8 1.1-.5 2.6c.3 1.5 1.1 1.7 2 2 .9.3.9-1.4 1.8-1.9.9-.6 1.1 1.1 2.1.9 1-.2 2.2-.1 3.1.2.9.3 1.6.4 2.9.2 1.3-.3.9-.8.4-1.5-.4-.8-.5-.7.3-1.5s1.3-.4 3.9.3c2.6.7 1.7.7 3.2 1.1 1.5.4 1 .3 3.2 1.3s1.8 2.2 2.8 2.9c1 .6 1.1 0 3.1-.2s2 .2 4.3.8c2.2.6 1.6 1.3 1.6 2 0 .6-.6 1.1.8 1.4 1.4.3 1.9.6 3.1.3 1.2-.3.1.3 2.8.3 2.6 0 1.7-.3 2.5.2.8.6 1 1.7 2.3 1.5 1.3-.1 1.2-.1.7-1.2-.5-1.1-.9-1.3-.1-1.3s2.3.4 5.2.8c2.9.5 3 1 5.3 2.5s3 1.6 4.7 2.9c.7.5.8.6.8.7 0 0 .2.1.9.4 1.8.9 1.5.6 3.1 1.4 1.6.8 2.9 1.8 2.9 1.8s1.2 0 0 .2zM263.7 123s-.2.2.7-.5c.9-.7-.4 0-1-.2-.5-.2-.7-.4-.5-1.1.2-.7-.1-.7-.6-1.6 0 0-.3-.2-.9.2-.6.4-1-.4-1.7-.1-.8.3-1.6.2-2 1.3-.5 1.1-1 .4-1.2 1.3-.2.9-1.6 1.4-1.6 1.4s.6.6 1 1.1c.4.5.1.2.6 1.9.4 1.7.7 1.6 1.3 1.8.6.2 1.5.8 1.5.8s-.6-.3-.6.6c0 .9-.9 1.6-.8 2.9.1 1.4-1.2 2.6-.2 2.7 1.1.1.7.6 1.9.9 1.2.3 1.8.5 3.5.5s.8-.6.5-1.6c-.2-1-.4-1.6-.4-2.6-.1-1-.5-.8-.7-1.4-.3-.6.1-1 .9-1s.9 0 .5-.7-.2-1-.7-1.3c-.5-.3-.8 1-.8 1s-.3-.3-.2-1.6c.1-1.3.2-.7-.2-.9-.4-.2-.6.1-1.2-.8-.5-.9-.1-.7-.7-1.7s-.3-.5.4-.5.3-.2 0-.5-.6-.9.3-.8c.9.1 2 .2 2.5.3.5.1.4.2.4.2zm-123-47.3c-.3.5.5 1.2 1.1 1 .6-.2.8 0 1.1-.2.3-.3.4-.7 0-1.1-.4-.4-.2-.6-.3-.7-.8-.5-1.6.4-1.9 1zm163-33.9c-.9 0-1.9.1-1.1.3.8.3.5 1.7 2.1.9 1.6-.8 1.3-.8 2.3-1.3 1.1-.5.5-.2-.9-.6-.8-.1-1.5.7-2.4.7z" opacity=".5" fill="#fff"/></svg>