<svg width="1920" height="998" viewBox="0 0 1920 998" fill="none" xmlns="http://www.w3.org/2000/svg">
    <rect width="1920" height="998" fill="#FAFFF4"/>
    <path d="M1293.33 982.8H1295.92V991.888H1301.54V994H1293.33V982.8ZM1302.81 985.392H1305.3V994H1302.81V985.392ZM1304.06 984.192C1303.6 984.192 1303.22 984.059 1302.94 983.792C1302.65 983.525 1302.5 983.195 1302.5 982.8C1302.5 982.405 1302.65 982.075 1302.94 981.808C1303.22 981.541 1303.6 981.408 1304.06 981.408C1304.51 981.408 1304.89 981.536 1305.18 981.792C1305.46 982.048 1305.61 982.368 1305.61 982.752C1305.61 983.168 1305.46 983.515 1305.18 983.792C1304.89 984.059 1304.51 984.192 1304.06 984.192ZM1316.16 985.392L1312.53 994H1309.96L1306.34 985.392H1308.92L1311.3 991.248L1313.76 985.392H1316.16ZM1325.38 989.728C1325.38 989.76 1325.36 989.984 1325.33 990.4H1318.82C1318.94 990.933 1319.22 991.355 1319.65 991.664C1320.09 991.973 1320.63 992.128 1321.28 992.128C1321.73 992.128 1322.13 992.064 1322.47 991.936C1322.82 991.797 1323.15 991.584 1323.44 991.296L1324.77 992.736C1323.96 993.664 1322.78 994.128 1321.22 994.128C1320.25 994.128 1319.39 993.941 1318.64 993.568C1317.9 993.184 1317.32 992.656 1316.92 991.984C1316.51 991.312 1316.31 990.549 1316.31 989.696C1316.31 988.853 1316.51 988.096 1316.9 987.424C1317.31 986.741 1317.86 986.213 1318.55 985.84C1319.25 985.456 1320.04 985.264 1320.9 985.264C1321.74 985.264 1322.51 985.445 1323.19 985.808C1323.87 986.171 1324.4 986.693 1324.79 987.376C1325.18 988.048 1325.38 988.832 1325.38 989.728ZM1320.92 987.152C1320.35 987.152 1319.88 987.312 1319.49 987.632C1319.11 987.952 1318.87 988.389 1318.79 988.944H1323.03C1322.94 988.4 1322.71 987.968 1322.32 987.648C1321.94 987.317 1321.47 987.152 1320.92 987.152ZM1337.11 994.192C1335.97 994.192 1334.93 993.947 1334.01 993.456C1333.09 992.955 1332.36 992.267 1331.83 991.392C1331.31 990.507 1331.05 989.509 1331.05 988.4C1331.05 987.291 1331.31 986.299 1331.83 985.424C1332.36 984.539 1333.09 983.851 1334.01 983.36C1334.93 982.859 1335.97 982.608 1337.13 982.608C1338.1 982.608 1338.97 982.779 1339.75 983.12C1340.54 983.461 1341.2 983.952 1341.73 984.592L1340.07 986.128C1339.31 985.253 1338.37 984.816 1337.25 984.816C1336.56 984.816 1335.94 984.971 1335.4 985.28C1334.85 985.579 1334.43 986 1334.12 986.544C1333.82 987.088 1333.67 987.707 1333.67 988.4C1333.67 989.093 1333.82 989.712 1334.12 990.256C1334.43 990.8 1334.85 991.227 1335.4 991.536C1335.94 991.835 1336.56 991.984 1337.25 991.984C1338.37 991.984 1339.31 991.541 1340.07 990.656L1341.73 992.192C1341.2 992.843 1340.54 993.339 1339.75 993.68C1338.96 994.021 1338.08 994.192 1337.11 994.192ZM1348.54 985.264C1349.61 985.264 1350.47 985.584 1351.12 986.224C1351.78 986.864 1352.11 987.813 1352.11 989.072V994H1349.61V989.456C1349.61 988.773 1349.46 988.267 1349.16 987.936C1348.87 987.595 1348.43 987.424 1347.87 987.424C1347.24 987.424 1346.74 987.621 1346.36 988.016C1345.99 988.4 1345.8 988.976 1345.8 989.744V994H1343.31V982.128H1345.8V986.288C1346.13 985.957 1346.53 985.707 1347 985.536C1347.47 985.355 1347.99 985.264 1348.54 985.264ZM1357.84 985.264C1359.18 985.264 1360.2 985.584 1360.91 986.224C1361.63 986.853 1361.99 987.808 1361.99 989.088V994H1359.65V992.928C1359.18 993.728 1358.31 994.128 1357.03 994.128C1356.37 994.128 1355.79 994.016 1355.3 993.792C1354.82 993.568 1354.45 993.259 1354.19 992.864C1353.94 992.469 1353.81 992.021 1353.81 991.52C1353.81 990.72 1354.11 990.091 1354.71 989.632C1355.31 989.173 1356.25 988.944 1357.51 988.944H1359.49C1359.49 988.4 1359.33 987.984 1358.99 987.696C1358.66 987.397 1358.17 987.248 1357.51 987.248C1357.05 987.248 1356.59 987.323 1356.15 987.472C1355.71 987.611 1355.34 987.803 1355.03 988.048L1354.13 986.304C1354.6 985.973 1355.16 985.717 1355.81 985.536C1356.47 985.355 1357.15 985.264 1357.84 985.264ZM1357.65 992.448C1358.08 992.448 1358.46 992.352 1358.79 992.16C1359.12 991.957 1359.35 991.664 1359.49 991.28V990.4H1357.78C1356.75 990.4 1356.24 990.736 1356.24 991.408C1356.24 991.728 1356.37 991.984 1356.61 992.176C1356.87 992.357 1357.21 992.448 1357.65 992.448ZM1369.8 993.584C1369.55 993.765 1369.25 993.904 1368.89 994C1368.53 994.085 1368.16 994.128 1367.77 994.128C1366.74 994.128 1365.95 993.867 1365.38 993.344C1364.83 992.821 1364.55 992.053 1364.55 991.04V987.504H1363.22V985.584H1364.55V983.488H1367.05V985.584H1369.19V987.504H1367.05V991.008C1367.05 991.371 1367.14 991.653 1367.32 991.856C1367.51 992.048 1367.78 992.144 1368.12 992.144C1368.51 992.144 1368.85 992.037 1369.13 991.824L1369.8 993.584ZM1386.18 982.8V994H1384.05L1378.47 987.2V994H1375.91V982.8H1378.05L1383.62 989.6V982.8H1386.18ZM1392.75 994.128C1391.84 994.128 1391.03 993.941 1390.3 993.568C1389.59 993.184 1389.03 992.656 1388.62 991.984C1388.21 991.312 1388.01 990.549 1388.01 989.696C1388.01 988.843 1388.21 988.08 1388.62 987.408C1389.03 986.736 1389.59 986.213 1390.3 985.84C1391.03 985.456 1391.84 985.264 1392.75 985.264C1393.65 985.264 1394.47 985.456 1395.18 985.84C1395.89 986.213 1396.45 986.736 1396.86 987.408C1397.27 988.08 1397.47 988.843 1397.47 989.696C1397.47 990.549 1397.27 991.312 1396.86 991.984C1396.45 992.656 1395.89 993.184 1395.18 993.568C1394.47 993.941 1393.65 994.128 1392.75 994.128ZM1392.75 992.08C1393.39 992.08 1393.91 991.867 1394.32 991.44C1394.73 991.003 1394.94 990.421 1394.94 989.696C1394.94 988.971 1394.73 988.395 1394.32 987.968C1393.91 987.531 1393.39 987.312 1392.75 987.312C1392.11 987.312 1391.58 987.531 1391.16 987.968C1390.75 988.395 1390.54 988.971 1390.54 989.696C1390.54 990.421 1390.75 991.003 1391.16 991.44C1391.58 991.867 1392.11 992.08 1392.75 992.08ZM1412.73 985.392L1409.61 994H1407.21L1405.27 988.656L1403.27 994H1400.87L1397.77 985.392H1400.12L1402.15 991.216L1404.26 985.392H1406.37L1408.42 991.216L1410.52 985.392H1412.73Z" fill="white"/>
    <path d="M1258 996L1261.16 991.659C1260.57 990.615 1260.25 989.462 1260.25 988.28C1260.25 984.269 1263.89 981 1268.37 981C1272.84 981 1276.52 984.269 1276.52 988.308C1276.52 992.346 1272.87 995.588 1268.37 995.588C1266.63 995.588 1264.99 995.121 1263.63 994.214L1258 996ZM1263.84 992.703L1264.11 992.896C1265.34 993.747 1266.82 994.214 1268.37 994.214C1272.12 994.214 1275.18 991.549 1275.18 988.28C1275.18 985.011 1272.12 982.374 1268.37 982.374C1264.62 982.374 1261.56 985.038 1261.56 988.308C1261.56 989.379 1261.89 990.396 1262.5 991.302L1262.77 991.714L1261.51 993.445L1263.84 992.703Z" fill="white"/>
    <path d="M1283 994.104L1281.2 991.385C1281.23 991.302 1281.23 991.247 1281.26 991.165C1281.71 988.5 1279.87 985.918 1277.05 985.011C1277.13 985.121 1277.24 985.231 1277.32 985.368C1279.25 988.143 1278.26 992.264 1275.1 994.544C1274.67 994.874 1274.18 995.121 1273.73 995.341C1273.92 995.396 1274.13 995.451 1274.35 995.478C1276.84 995.918 1279.22 994.956 1280.45 993.17L1283 994.104Z" fill="white"/>
    <path d="M1268.32 989.324C1268.76 989.324 1269.12 988.955 1269.12 988.5C1269.12 988.045 1268.76 987.676 1268.32 987.676C1267.87 987.676 1267.51 988.045 1267.51 988.5C1267.51 988.955 1267.87 989.324 1268.32 989.324Z" fill="white"/>
    <path d="M1265.64 989.324C1266.08 989.324 1266.44 988.955 1266.44 988.5C1266.44 988.045 1266.08 987.676 1265.64 987.676C1265.19 987.676 1264.83 988.045 1264.83 988.5C1264.83 988.955 1265.19 989.324 1265.64 989.324Z" fill="white"/>
    <path d="M1271 989.324C1271.44 989.324 1271.8 988.955 1271.8 988.5C1271.8 988.045 1271.44 987.676 1271 987.676C1270.55 987.676 1270.19 988.045 1270.19 988.5C1270.19 988.955 1270.55 989.324 1271 989.324Z" fill="white"/>
    <path opacity="0.2" d="M1169.17 651.535C1169.17 651.535 1097.88 568.443 1178.2 477.946C1242.96 404.982 1222.28 376.886 1219.23 327.663C1216.73 286.062 1263.86 224.533 1334.49 221.484C1450.19 216.365 1478.92 253.61 1540.42 250.996C1601.91 248.382 1629.67 226.82 1700.96 235.314C1833.3 250.996 1815.46 376.559 1796.19 470.432C1776.93 564.305 1834.83 596.322 1793.14 651.644" fill="#82B440"/>
    <path d="M1530.62 637.813H1418.85L1431.04 590.006L1433.76 579.224L1439.09 558.207H1510.38L1515.82 579.224L1518.54 590.006L1530.62 637.813Z" fill="#6C9629"/>
    <path d="M1518.54 590.006H1431.04L1433.76 579.224H1515.82L1518.54 590.006Z" fill="#82B440"/>
    <path d="M1573.61 650.99H1375.96C1371.17 650.99 1367.36 647.179 1367.36 642.387C1367.36 637.596 1371.17 633.784 1375.96 633.784H1573.61C1578.4 633.784 1582.21 637.596 1582.21 642.387C1582.21 647.179 1578.29 650.99 1573.61 650.99Z" fill="#82B440"/>
    <path d="M1657.2 355.215V565.503C1657.2 570.512 1653.18 574.542 1648.17 574.542H1301.41C1296.4 574.542 1292.37 570.512 1292.37 565.503V355.215C1292.37 350.205 1296.4 346.176 1301.41 346.176H1648.17C1653.18 346.176 1657.2 350.205 1657.2 355.215Z" fill="#82B440"/>
    <path d="M1649.8 352.819H1299.01V538.169H1649.8V352.819Z" fill="#BDD692"/>
    <g opacity="0.3">
        <path opacity="0.3" d="M1615.08 352.819H1605.29V510.508H1615.08V352.819Z" fill="#EEFAFF"/>
        <path opacity="0.3" d="M1640.01 352.819H1630.21V510.508H1640.01V352.819Z" fill="#EEFAFF"/>
        <path opacity="0.3" d="M1316.1 352.819H1306.31V510.508H1316.1V352.819Z" fill="#EEFAFF"/>
        <path opacity="0.3" d="M1341.03 352.819H1331.23V510.508H1341.03V352.819Z" fill="#EEFAFF"/>
        <path opacity="0.3" d="M1365.95 352.819H1356.15V510.508H1365.95V352.819Z" fill="#EEFAFF"/>
        <path opacity="0.3" d="M1390.76 352.819H1380.97V510.508H1390.76V352.819Z" fill="#EEFAFF"/>
        <path opacity="0.3" d="M1415.69 352.819H1405.89V510.508H1415.69V352.819Z" fill="#EEFAFF"/>
        <path opacity="0.3" d="M1440.61 352.819H1430.82V510.508H1440.61V352.819Z" fill="#EEFAFF"/>
        <path opacity="0.3" d="M1465.54 352.819H1455.74V510.508H1465.54V352.819Z" fill="#EEFAFF"/>
        <path opacity="0.3" d="M1490.46 352.819H1480.67V510.508H1490.46V352.819Z" fill="#EEFAFF"/>
        <path opacity="0.3" d="M1515.39 352.819H1505.59V510.508H1515.39V352.819Z" fill="#EEFAFF"/>
        <path opacity="0.3" d="M1540.31 352.819H1530.51V510.508H1540.31V352.819Z" fill="#EEFAFF"/>
        <path opacity="0.3" d="M1565.23 352.819H1555.44V510.508H1565.23V352.819Z" fill="#EEFAFF"/>
        <path opacity="0.3" d="M1590.16 352.819H1580.36V510.508H1590.16V352.819Z" fill="#EEFAFF"/>
    </g>
    <path d="M1649.8 510.508H1299.01V538.278H1649.8V510.508Z" fill="#0A2342"/>
    <path d="M1474.79 564.196C1470.11 564.196 1466.41 560.385 1466.41 555.811C1466.41 551.128 1470.22 547.425 1474.79 547.425C1479.47 547.425 1483.17 551.237 1483.17 555.811C1483.17 560.493 1479.36 564.196 1474.79 564.196Z" fill="#6C9629"/>
    <path opacity="0.2" d="M1500.58 574.433H1475.88L1540.75 346.176H1565.34L1500.58 574.433Z" fill="url(#paint0_linear)"/>
    <path opacity="0.2" d="M1562.51 574.433H1510.16L1575.03 346.176H1627.27L1562.51 574.433Z" fill="url(#paint1_linear)"/>
    <path d="M1636.41 527.061H1348.53C1347.01 527.061 1345.81 525.863 1345.81 524.338C1345.81 522.814 1347.01 521.616 1348.53 521.616H1636.41C1637.94 521.616 1639.14 522.814 1639.14 524.338C1639.14 525.863 1637.94 527.061 1636.41 527.061Z" fill="#9494ED"/>
    <path d="M1492.42 521.616V527.061H1348.53C1347.01 527.061 1345.81 525.863 1345.81 524.338C1345.81 522.814 1347.01 521.616 1348.53 521.616H1492.42Z" fill="#FC7A57"/>
    <path d="M1492.53 529.239C1495.23 529.239 1497.43 527.045 1497.43 524.338C1497.43 521.632 1495.23 519.438 1492.53 519.438C1489.82 519.438 1487.63 521.632 1487.63 524.338C1487.63 527.045 1489.82 529.239 1492.53 529.239Z" fill="white"/>
    <path d="M1333.07 526.829C1334.45 520.976 1330.82 515.111 1324.97 513.728C1319.12 512.346 1313.26 515.971 1311.88 521.824C1310.5 527.677 1314.12 533.543 1319.97 534.925C1325.82 536.307 1331.68 532.683 1333.07 526.829Z" fill="white"/>
    <path d="M1320.78 519.438L1326.77 524.012C1326.98 524.12 1326.98 524.447 1326.77 524.556L1320.78 529.13C1320.56 529.348 1320.24 529.13 1320.24 528.803V519.547C1320.24 519.438 1320.56 519.22 1320.78 519.438Z" fill="#82B440"/>
    <path d="M1218.15 490.143V512.468C1218.15 512.795 1218.04 513.121 1217.82 513.339C1217.49 513.775 1217.06 513.993 1216.51 513.993H1183.75C1183.32 513.993 1182.99 513.775 1182.66 513.557V492.866C1182.66 492.103 1183.32 491.45 1184.08 491.45H1207.04C1207.81 491.45 1208.46 490.797 1208.46 490.034C1208.46 489.272 1209.11 488.619 1209.87 488.619H1216.84C1217.49 488.836 1218.15 489.49 1218.15 490.143Z" fill="#6C9629"/>
    <path d="M1217.82 513.448C1217.49 513.884 1217.06 514.102 1216.51 514.102H1183.75C1183.32 514.102 1182.99 513.884 1182.66 513.666C1182.56 513.557 1182.45 513.339 1182.34 513.23V513.121L1175.05 496.46C1174.72 495.588 1175.26 494.608 1176.24 494.608H1208.68C1209.22 494.608 1209.66 494.935 1209.87 495.37L1216.73 510.943L1217.82 513.448Z" fill="#82B440"/>
    <path d="M1146.09 652.079H1803.37" stroke="#82B440" stroke-width="2" stroke-miterlimit="10"/>
    <path d="M1372.91 378.411H1213.36C1212.49 378.411 1211.83 377.757 1211.83 376.886V258.075C1211.83 255.352 1214.01 253.174 1216.73 253.174H1367.36C1371.39 253.174 1374.55 256.441 1374.55 260.362V376.777C1374.44 377.757 1373.79 378.411 1372.91 378.411Z" fill="#CCED98"/>
    <path d="M1365.19 372.312H1221.3C1219.56 372.312 1218.25 370.896 1218.25 369.263V348.463C1218.25 346.72 1219.67 345.413 1221.3 345.413H1365.19C1366.93 345.413 1368.23 346.829 1368.23 348.463V369.263C1368.23 371.005 1366.93 372.312 1365.19 372.312Z" fill="white"/>
    <path d="M1366.28 340.948H1220.1C1219.02 340.948 1218.15 340.077 1218.15 338.988V332.019C1218.15 330.93 1219.02 330.058 1220.1 330.058H1366.28C1367.36 330.058 1368.23 330.93 1368.23 332.019V338.988C1368.23 340.077 1367.36 340.948 1366.28 340.948Z" fill="white"/>
    <path opacity="0.31" d="M1305.54 274.301H1219.89C1218.58 274.301 1217.49 273.212 1217.49 271.905C1217.49 270.598 1218.58 269.509 1219.89 269.509H1305.54C1306.85 269.509 1307.94 270.598 1307.94 271.905C1307.94 273.321 1306.85 274.301 1305.54 274.301Z" fill="white"/>
    <path opacity="0.31" d="M1305.54 284.32H1219.89C1218.58 284.32 1217.49 283.231 1217.49 281.924C1217.49 280.617 1218.58 279.528 1219.89 279.528H1305.54C1306.85 279.528 1307.94 280.617 1307.94 281.924C1307.94 283.231 1306.85 284.32 1305.54 284.32Z" fill="white"/>
    <path opacity="0.31" d="M1305.54 294.339H1219.89C1218.58 294.339 1217.49 293.25 1217.49 291.943C1217.49 290.636 1218.58 289.547 1219.89 289.547H1305.54C1306.85 289.547 1307.94 290.636 1307.94 291.943C1307.94 293.25 1306.85 294.339 1305.54 294.339Z" fill="white"/>
    <path opacity="0.31" d="M1305.54 304.249H1219.89C1218.58 304.249 1217.49 303.16 1217.49 301.853C1217.49 300.546 1218.58 299.457 1219.89 299.457H1305.54C1306.85 299.457 1307.94 300.546 1307.94 301.853C1307.94 303.16 1306.85 304.249 1305.54 304.249Z" fill="white"/>
    <path opacity="0.31" d="M1305.54 314.268H1219.89C1218.58 314.268 1217.49 313.179 1217.49 311.872C1217.49 310.565 1218.58 309.476 1219.89 309.476H1305.54C1306.85 309.476 1307.94 310.565 1307.94 311.872C1307.94 313.179 1306.85 314.268 1305.54 314.268Z" fill="white"/>
    <path opacity="0.31" d="M1285.41 324.178H1219.89C1218.58 324.178 1217.49 323.089 1217.49 321.782C1217.49 320.475 1218.58 319.386 1219.89 319.386H1285.41C1286.71 319.386 1287.8 320.475 1287.8 321.782C1287.8 323.198 1286.82 324.178 1285.41 324.178Z" fill="white"/>
    <path d="M1372.81 249.036H1213.47C1212.59 249.036 1211.83 249.798 1211.83 250.669V262.866H1374.55V250.778C1374.44 249.798 1373.79 249.036 1372.81 249.036Z" fill="#82B440"/>
    <path d="M1350.39 256.005C1350.39 256.877 1349.73 257.53 1348.86 257.53C1347.99 257.53 1347.34 256.877 1347.34 256.005C1347.34 255.134 1347.99 254.481 1348.86 254.481C1349.62 254.481 1350.39 255.134 1350.39 256.005Z" fill="white"/>
    <path d="M1357.79 256.005C1357.79 256.877 1357.13 257.53 1356.26 257.53C1355.39 257.53 1354.74 256.877 1354.74 256.005C1354.74 255.134 1355.39 254.481 1356.26 254.481C1357.13 254.481 1357.79 255.134 1357.79 256.005Z" fill="white"/>
    <path d="M1365.3 256.005C1365.3 256.877 1364.64 257.53 1363.77 257.53C1362.9 257.53 1362.25 256.877 1362.25 256.005C1362.25 255.134 1362.9 254.481 1363.77 254.481C1364.64 254.481 1365.3 255.134 1365.3 256.005Z" fill="white"/>
    <path d="M1368.23 271.143V322.762C1368.23 323.633 1367.58 324.287 1366.71 324.287H1315.77C1314.9 324.287 1314.25 323.633 1314.25 322.762V271.143C1314.25 270.272 1314.9 269.618 1315.77 269.618H1366.71C1367.58 269.509 1368.23 270.272 1368.23 271.143Z" fill="white"/>
    <path d="M1368.23 313.941V322.653C1368.23 323.524 1367.58 324.178 1366.71 324.178H1341.35L1342.44 312.961L1352.89 301.417C1353.76 300.546 1355.07 300.437 1356.04 301.308L1367.58 312.307C1368.02 312.743 1368.23 313.288 1368.23 313.941Z" fill="#6C9629"/>
    <path d="M1361.16 324.178H1315.67C1314.79 324.178 1314.14 323.524 1314.14 322.653V313.832C1314.14 313.288 1314.36 312.743 1314.79 312.307L1330.47 295.863C1331.34 294.992 1332.75 294.992 1333.62 295.863L1361.16 324.178Z" fill="#82B440"/>
    <path d="M1361.05 284.32C1361.05 287.805 1358.22 290.636 1354.74 290.636C1351.26 290.636 1348.43 287.805 1348.43 284.32C1348.43 280.835 1351.26 278.004 1354.74 278.004C1358.22 278.004 1361.05 280.835 1361.05 284.32Z" fill="#6C9629"/>
    <path d="M1295.31 546.227C1295.31 546.227 1298.58 557.553 1286.39 557.553C1284.65 557.553 1283.23 557.118 1281.93 556.464C1277.46 554.286 1276.37 546.663 1276.37 546.663C1280.18 545.683 1278.88 540.129 1278.88 540.129L1292.48 540.456C1292.48 540.456 1291.83 544.049 1292.81 545.029C1294.44 546.881 1295.31 546.227 1295.31 546.227Z" fill="#F7B59C"/>
    <path d="M1277.14 545.901C1277.14 545.901 1276.37 556.029 1285.84 556.029C1294.44 556.029 1294.55 549.386 1293.9 545.683C1303.69 546.554 1314.47 550.475 1319.91 555.048C1326.44 563.434 1330.9 576.284 1330.9 576.284C1330.9 576.284 1327.86 577.7 1324.81 578.68C1321.65 579.66 1319.26 581.076 1319.26 581.076L1315.45 633.022H1255.37L1254.39 581.076C1254.39 581.076 1250.47 580.096 1247.21 579.116C1242.53 577.591 1240.78 576.066 1240.78 576.066C1240.78 576.066 1244.38 565.394 1249.82 556.682C1255.37 551.455 1265.71 547.207 1277.14 545.901Z" fill="#FC7A57"/>
    <path d="M1241.87 576.502C1241.87 576.502 1236.1 596.758 1236.65 606.45C1237.19 616.142 1260.05 629.646 1260.05 629.646L1262.99 619.409C1262.99 619.409 1253.52 615.38 1252.1 607.974C1250.69 600.569 1258.63 582.056 1258.63 582.056C1258.63 582.056 1255.15 581.076 1250.25 579.66C1245.68 578.462 1241.87 576.502 1241.87 576.502Z" fill="#F7B59C"/>
    <path d="M1330.25 576.502C1330.25 576.502 1336.02 596.758 1335.47 606.45C1334.93 616.142 1312.07 629.646 1312.07 629.646L1309.14 619.409C1309.14 619.409 1318.6 615.38 1320.02 607.974C1321.43 600.569 1313.16 581.62 1313.16 581.62C1313.16 581.62 1316.97 580.749 1321.76 579.442C1326.44 578.244 1330.25 576.502 1330.25 576.502Z" fill="#F7B59C"/>
    <path d="M1322.74 633.784H1248.51L1246.88 587.283C1246.88 586.085 1247.75 585.105 1249.06 585.105H1322.41C1323.61 585.105 1324.59 586.085 1324.59 587.283L1322.74 633.784Z" fill="#BDD692"/>
    <path d="M1316.86 644.456C1316.86 644.456 1318.5 642.605 1322.09 642.496C1324.48 642.387 1331.23 643.912 1334.39 643.912C1337.65 643.912 1340.92 643.15 1342.77 645.872C1345.92 650.555 1344.51 654.693 1339.28 655.346C1336.45 655.673 1334.06 653.822 1329.49 654.257C1325.03 654.693 1318.17 653.168 1316.21 650.01" fill="#16324F"/>
    <path d="M1310.55 642.278C1310.55 642.278 1314.14 643.258 1316.43 643.476C1318.82 643.585 1324.05 643.041 1326.44 644.565C1329.05 646.199 1328.07 650.664 1326.44 651.644C1323.83 653.277 1321.65 652.406 1316.75 650.882C1311.86 649.357 1306.2 649.901 1306.2 649.901" fill="#F7B59C"/>
    <path d="M1317.84 652.842C1317.84 652.842 1262.77 651.862 1248.19 649.901C1241.98 649.03 1236.21 647.723 1231.42 645.763C1224.78 641.843 1222.39 632.477 1226.85 623.874C1228.92 619.845 1235.34 620.607 1236.32 620.607C1236.54 620.607 1236.65 620.607 1236.65 620.607C1254.5 621.26 1270.72 625.834 1289.11 633.24C1306.2 640.1 1319.26 642.932 1319.26 642.932C1320.24 649.901 1317.84 652.842 1317.84 652.842Z" fill="#051528"/>
    <path d="M1331.12 646.852C1331.12 646.852 1329.71 646.09 1329.16 646.961C1328.73 647.832 1328.4 651.535 1328.62 652.079C1329.05 653.06 1331.23 652.733 1331.23 652.733L1332.97 648.05L1331.12 646.852Z" fill="#4C4051"/>
    <path d="M1255.59 644.456C1255.59 644.456 1253.95 642.496 1250.14 642.387C1247.64 642.278 1240.68 643.912 1237.3 643.803C1233.93 643.694 1230.66 643.041 1228.49 645.219C1224.46 649.466 1228.16 654.802 1233.71 655.455C1236.65 655.782 1237.52 654.149 1242.31 654.584C1246.88 655.02 1254.06 653.495 1256.13 650.228" fill="#16324F"/>
    <path d="M1262.01 642.278C1262.01 642.278 1258.31 643.367 1255.8 643.476C1253.3 643.585 1247.86 642.932 1245.36 644.565C1242.63 646.199 1243.61 650.882 1245.36 651.971C1248.08 653.713 1250.36 652.842 1255.37 651.317C1260.38 649.793 1266.36 650.337 1266.36 650.337" fill="#F7B59C"/>
    <path d="M1341.35 645.654C1336.35 647.832 1330.14 649.248 1323.61 650.119C1308.92 651.971 1253.85 652.842 1253.85 652.842C1253.85 652.842 1251.45 649.901 1252.43 642.823C1252.43 642.823 1265.49 639.991 1282.69 633.24C1300.65 626.161 1316.65 621.696 1333.95 620.825C1337.32 621.152 1341.24 622.676 1344.07 628.448C1347.77 636.18 1344.94 644.239 1341.35 645.654Z" fill="#0A2342"/>
    <path d="M1243.83 645.11C1243.83 645.11 1245.68 644.13 1246.34 645.219C1246.99 646.308 1247.31 651.099 1246.99 651.862C1246.44 653.168 1243.72 652.733 1243.72 652.733L1241.55 646.743L1243.83 645.11Z" fill="#594A5F"/>
    <path d="M1301.63 513.775C1301.63 513.775 1306.74 513.23 1300.97 526.516C1298.8 531.526 1298.03 531.199 1298.03 531.417C1298.03 531.635 1296.07 529.783 1296.07 528.912C1296.07 528.041 1296.18 521.507 1296.29 521.18C1296.18 520.853 1301.63 513.775 1301.63 513.775Z" fill="#2C1E56"/>
    <path d="M1271.59 516.824C1271.59 516.824 1267.67 515.735 1269.19 523.576C1270.28 528.912 1273.11 531.09 1273.11 531.308C1273.11 531.526 1275.07 529.674 1275.07 528.803C1275.07 527.932 1274.96 521.398 1274.85 521.071C1274.85 520.853 1271.59 516.824 1271.59 516.824Z" fill="#2C1E56"/>
    <path d="M1272.67 526.734C1272.67 526.734 1271.04 525.101 1270.5 527.279C1270.06 529.457 1271.8 535.011 1273.98 532.833" fill="#E5A18C"/>
    <path d="M1298.47 526.734C1298.47 526.734 1300.1 525.101 1300.65 527.279C1301.08 529.457 1299.34 535.011 1297.16 532.833" fill="#E5A18C"/>
    <path d="M1286.06 543.832C1286.06 543.832 1286.06 543.832 1285.95 543.832C1284.43 543.94 1270.61 544.049 1272.35 518.893H1298.69C1298.69 519.002 1301.84 542.307 1286.06 543.832Z" fill="#F7B59C"/>
    <path d="M1295.1 504.845C1300.1 506.261 1303.26 512.577 1300.75 517.586C1298.36 522.596 1290.42 525.427 1281.6 523.576C1276.37 522.487 1274.74 520.418 1271.59 520.527C1269.19 520.636 1267.01 519.22 1266.14 516.933C1265.06 513.884 1264.29 509.745 1267.56 507.35C1276.16 509.745 1287.59 502.667 1295.1 504.845Z" fill="#2C1E56"/>
    <path d="M1289.87 607.974C1289.87 610.588 1287.69 612.766 1285.08 612.766C1282.47 612.766 1280.29 610.588 1280.29 607.974C1280.29 605.361 1282.47 603.183 1285.08 603.183C1287.8 603.183 1289.87 605.252 1289.87 607.974Z" fill="white"/>
    <path d="M1279.1 541.762C1279.1 541.762 1279.86 542.307 1281.05 542.743C1282.25 543.178 1283.99 543.614 1285.63 543.505C1286.5 543.505 1287.37 543.287 1288.13 543.178C1288.89 542.96 1289.65 542.743 1290.31 542.525C1291.5 542.089 1292.27 541.654 1292.27 541.654C1292.27 541.654 1291.61 542.307 1290.41 542.851C1289.87 543.178 1289.11 543.505 1288.24 543.723C1287.48 543.94 1286.5 544.158 1285.63 544.158C1284.76 544.158 1283.78 544.158 1283.01 543.94C1282.14 543.723 1281.49 543.396 1280.84 543.069C1279.64 542.525 1279.1 541.762 1279.1 541.762Z" fill="#EAA18B"/>
    <path d="M1279.97 529.566C1280.08 530.437 1280.18 531.526 1279.2 531.635C1278.77 531.744 1278.33 531.308 1278.22 531.09C1278.01 530.546 1278.12 530.328 1278.12 529.783C1278.01 528.694 1279.86 528.477 1279.97 529.566Z" fill="#452E17"/>
    <path d="M1279.53 530.328C1279.53 530.546 1279.53 530.763 1279.31 530.872C1279.2 530.872 1279.1 530.872 1279.1 530.763C1278.99 530.655 1279.1 530.546 1279.1 530.437C1279.1 530.11 1279.53 530.001 1279.53 530.328Z" fill="white"/>
    <path d="M1292.05 529.566C1292.16 530.437 1292.27 531.526 1291.29 531.635C1290.85 531.744 1290.41 531.308 1290.31 531.09C1290.09 530.546 1290.2 530.328 1290.2 529.783C1290.09 528.694 1291.94 528.477 1292.05 529.566Z" fill="#452E17"/>
    <path d="M1291.61 530.328C1291.61 530.546 1291.61 530.763 1291.39 530.872C1291.29 530.872 1291.18 530.872 1291.18 530.763C1291.07 530.655 1291.18 530.546 1291.18 530.437C1291.18 530.11 1291.61 530.001 1291.61 530.328Z" fill="white"/>
    <path d="M1293.57 526.298C1293.68 526.516 1293.57 526.298 1293.68 526.625C1293.68 526.952 1293.46 527.17 1293.03 527.17C1292.05 527.17 1289 527.279 1289 527.279C1288.67 527.279 1288.67 527.061 1288.89 526.952C1289.44 526.516 1289.98 525.863 1292.81 525.863C1293.03 525.863 1293.46 525.972 1293.57 526.298Z" fill="#003051"/>
    <path d="M1276.7 526.298C1276.59 526.516 1276.7 526.298 1276.59 526.625C1276.59 526.952 1276.81 527.17 1277.25 527.17C1278.22 527.17 1281.27 527.279 1281.27 527.279C1281.6 527.279 1281.6 527.061 1281.38 526.952C1280.84 526.516 1280.29 525.863 1277.46 525.863C1277.14 525.863 1276.81 525.972 1276.7 526.298Z" fill="#003051"/>
    <path d="M1285.08 531.199C1285.08 531.199 1283.88 533.704 1284.32 534.248C1284.65 534.793 1286.06 534.793 1286.06 534.793" stroke="#EAA18B" stroke-width="0.5" stroke-miterlimit="10" stroke-linecap="round"/>
    <path d="M1282.03 538.495C1282.03 538.495 1285.63 540.673 1288.89 538.278" stroke="#C9806F" stroke-width="0.5" stroke-miterlimit="10" stroke-linecap="round"/>
    <path d="M1565.45 648.268V550.148C1565.45 549.93 1565.23 549.712 1565.02 549.712H1562.62C1562.4 549.712 1562.19 549.93 1562.19 550.148V648.268C1561.53 648.377 1561.1 648.921 1561.1 649.575C1561.1 650.337 1561.75 650.99 1562.51 650.99H1565.02C1565.78 650.99 1566.43 650.337 1566.43 649.575C1566.54 648.921 1566.1 648.377 1565.45 648.268Z" fill="white"/>
    <path d="M1760.06 648.159L1759.95 549.712H1756.79V648.159H1756.68C1756.14 648.159 1755.7 648.595 1755.7 649.139V649.901C1755.7 650.446 1756.14 650.882 1756.68 650.882H1760.06C1760.6 650.882 1761.04 650.446 1761.04 649.901V649.139C1761.04 648.595 1760.6 648.159 1760.06 648.159Z" fill="white"/>
    <path d="M1784.65 550.692H1534.65C1533.02 550.692 1531.71 549.386 1531.71 547.752C1531.71 546.119 1533.02 544.812 1534.65 544.812H1784.76C1786.4 544.812 1787.7 546.119 1787.7 547.752C1787.7 549.386 1786.29 550.692 1784.65 550.692Z" fill="#CCED98"/>
    <path d="M1667.98 541.545H1595.82L1581.56 496.568C1580.8 494.281 1582.54 491.995 1584.93 491.995H1649.8C1651.33 491.995 1652.63 492.975 1653.18 494.39L1667.98 541.545Z" fill="#0A2342"/>
    <path d="M1666.45 541.545H1598.1L1583.74 495.915C1583.52 495.044 1584.06 494.173 1584.93 494.173H1650.45C1651.11 494.173 1651.65 494.608 1651.87 495.262L1666.45 541.545Z" fill="white"/>
    <path d="M1623.46 501.251H1592.01C1591.57 501.251 1591.14 500.924 1591.14 500.38C1591.14 499.944 1591.46 499.509 1592.01 499.509H1623.46C1623.9 499.509 1624.33 499.835 1624.33 500.38C1624.22 500.924 1623.9 501.251 1623.46 501.251Z" fill="#D8E8B8"/>
    <path d="M1628.25 505.172H1593.1C1592.66 505.172 1592.23 504.845 1592.23 504.3C1592.23 503.865 1592.55 503.429 1593.1 503.429H1628.25C1628.69 503.429 1629.12 503.756 1629.12 504.3C1629.12 504.845 1628.8 505.172 1628.25 505.172Z" fill="#D8E8B8"/>
    <path d="M1625.1 509.201H1594.51C1594.08 509.201 1593.64 508.874 1593.64 508.33C1593.64 507.894 1593.97 507.459 1594.51 507.459H1625.1C1625.53 507.459 1625.97 507.785 1625.97 508.33C1625.86 508.765 1625.53 509.201 1625.1 509.201Z" fill="#D8E8B8"/>
    <path d="M1619.98 513.121H1595.71C1595.27 513.121 1594.84 512.795 1594.84 512.25C1594.84 511.815 1595.16 511.379 1595.71 511.379H1619.98C1620.42 511.379 1620.85 511.706 1620.85 512.25C1620.85 512.686 1620.42 513.121 1619.98 513.121Z" fill="#D8E8B8"/>
    <path d="M1632.06 517.042H1596.91C1596.47 517.042 1596.04 516.715 1596.04 516.171C1596.04 515.735 1596.36 515.299 1596.91 515.299H1632.06C1632.5 515.299 1632.93 515.626 1632.93 516.171C1632.93 516.606 1632.61 517.042 1632.06 517.042Z" fill="#D8E8B8"/>
    <path d="M1628.8 520.962H1598.21C1597.78 520.962 1597.34 520.636 1597.34 520.091C1597.34 519.655 1597.67 519.22 1598.21 519.22H1628.8C1629.23 519.22 1629.67 519.547 1629.67 520.091C1629.67 520.527 1629.34 520.962 1628.8 520.962Z" fill="#D8E8B8"/>
    <path d="M1635.87 528.803H1600.72C1600.28 528.803 1599.84 528.476 1599.84 527.932C1599.84 527.496 1600.17 527.061 1600.72 527.061H1635.87C1636.31 527.061 1636.74 527.387 1636.74 527.932C1636.74 528.368 1636.31 528.803 1635.87 528.803Z" fill="#D8E8B8"/>
    <path d="M1637.18 532.724H1602.02C1601.59 532.724 1601.15 532.397 1601.15 531.852C1601.15 531.417 1601.48 530.981 1602.02 530.981H1637.18C1637.61 530.981 1638.05 531.308 1638.05 531.852C1638.05 532.288 1637.61 532.724 1637.18 532.724Z" fill="#D8E8B8"/>
    <path d="M1655.79 532.724H1644.47C1643.38 532.724 1642.51 532.07 1642.18 530.981L1632.71 501.033C1632.17 499.509 1633.37 497.875 1635 497.875H1646.32C1647.41 497.875 1648.28 498.529 1648.6 499.618L1658.07 529.565C1658.62 531.09 1657.42 532.724 1655.79 532.724Z" fill="#D8E8B8"/>
    <path d="M1673.96 544.812H1595.49C1594.19 544.812 1593.21 543.723 1593.21 542.525C1593.21 541.218 1594.29 540.238 1595.49 540.238H1673.96C1675.27 540.238 1676.25 541.327 1676.25 542.525C1676.36 543.832 1675.27 544.812 1673.96 544.812Z" fill="#0A2342"/>
    <path d="M1681.8 484.807C1681.26 484.807 1680.6 484.48 1680.28 483.936L1677.99 479.907C1677.77 479.471 1677.66 479.035 1677.88 478.6C1677.99 478.164 1678.32 477.728 1678.75 477.511L1685.07 474.135C1685.94 473.699 1686.92 474.026 1687.35 474.788L1689.53 478.709C1689.75 479.144 1689.75 479.58 1689.64 480.015C1689.53 480.451 1689.2 480.778 1688.77 480.996L1682.56 484.371C1682.34 484.698 1682.13 484.807 1681.8 484.807ZM1685.83 474.788C1685.72 474.788 1685.5 474.788 1685.39 474.897L1679.08 478.273C1678.86 478.382 1678.64 478.6 1678.64 478.817C1678.54 479.035 1678.64 479.362 1678.75 479.58L1681.04 483.609C1681.26 484.045 1681.8 484.154 1682.24 483.936L1688.44 480.56C1688.66 480.451 1688.77 480.233 1688.88 480.015C1688.98 479.798 1688.88 479.58 1688.77 479.362L1686.59 475.442C1686.48 475.006 1686.15 474.788 1685.83 474.788Z" fill="#1A1A47"/>
    <path d="M1669.83 519.655C1669.28 520.309 1668.96 520.745 1668.96 520.745C1668.96 520.745 1665.15 517.913 1664.06 517.586C1662.97 517.369 1660.69 518.022 1659.49 518.24C1657.42 518.675 1658.29 516.933 1658.29 516.933C1658.29 516.933 1656.88 517.369 1655.68 517.913C1654.26 518.458 1652.85 519.655 1652.41 519.764C1651.65 519.982 1650.78 519.547 1651.54 518.458C1652.63 516.824 1657.64 512.25 1658.84 511.706C1660.47 510.943 1662.54 509.854 1664.28 510.508C1666.02 511.161 1671.68 515.408 1671.68 515.408C1671.9 516.824 1670.7 518.566 1669.83 519.655Z" fill="#F7B59C"/>
    <path d="M1668.41 520.744C1668.41 520.744 1687.13 537.08 1701.07 538.713C1715 540.347 1738.61 513.884 1738.61 513.884C1738.61 513.884 1737.09 499.727 1728.38 501.469C1719.68 503.211 1708.03 524.12 1702.92 525.101C1697.91 526.081 1671.57 514.973 1671.57 514.973C1671.57 514.973 1670.81 515.517 1669.94 516.933C1668.96 518.566 1668.41 520.744 1668.41 520.744Z" fill="#CC5337"/>
    <path d="M1709.88 456.928C1705.42 451.81 1698.89 451.265 1693.77 451.81C1687.13 452.572 1681.26 457.037 1679.41 463.462C1678.54 466.294 1678.43 469.452 1679.73 473.046C1683.87 484.48 1688.33 490.797 1691.7 493.955C1693.23 495.371 1696.38 493.41 1699.54 492.321C1699.98 492.212 1700.41 492.321 1700.63 492.757L1702.48 496.133L1715.54 493.519C1715.54 493.519 1713.58 489.381 1712.82 486.005C1714.23 483.827 1718.04 466.294 1709.88 456.928Z" fill="#F7B59C"/>
    <path d="M1686.26 473.264C1687.68 473.155 1689.09 473.917 1689.64 475.224C1690.62 477.511 1692.14 480.778 1693.23 481.758C1693.45 481.976 1693.99 482.085 1694.53 481.758C1695.08 481.54 1695.19 480.996 1695.08 480.778C1694.97 479.798 1694.21 477.62 1693.77 476.204C1693.12 474.353 1693.88 472.392 1696.06 471.957C1696.49 471.848 1697.47 471.957 1697.91 472.066C1701.39 473.155 1699 478.6 1698.89 481.431C1698.89 483.391 1701.28 488.074 1702.26 488.51C1705.75 489.925 1710.97 488.619 1713.8 485.134C1716.63 481.649 1717.17 470.105 1715.65 463.245C1714.13 456.384 1708.58 452.463 1706.72 452.028C1705.85 451.81 1705.09 451.81 1704.55 451.81C1704 451.919 1703.46 451.701 1703.02 451.265C1701.17 449.632 1695.73 446.038 1687.02 449.741C1676.14 454.424 1674.29 464.443 1674.51 469.016C1674.62 471.957 1676.9 471.739 1678.54 471.194C1679.41 470.868 1680.39 471.194 1681.04 471.739C1682.24 472.61 1683.76 473.481 1686.26 473.264Z" fill="#0B0B3A"/>
    <path d="M1700.09 497.984C1700.09 497.984 1698.89 496.677 1699.32 495.915C1699.87 494.935 1705.75 490.252 1712.6 490.47C1713.69 490.47 1715 490.47 1716.3 493.301C1717.61 496.133 1717.94 497.984 1717.94 497.984H1700.09Z" fill="#CC5337"/>
    <path d="M1730.78 581.294C1730.34 581.402 1729.91 581.511 1729.47 581.62C1723.59 582.709 1714.13 582.818 1714.13 582.818C1695.41 582.491 1687.02 572.364 1683.98 567.136C1682.89 565.285 1682.45 564.087 1682.45 564.087C1683.54 563.543 1687.24 560.167 1688.66 555.484C1690.07 550.801 1688.55 539.693 1686.15 535.555C1684.85 533.268 1680.93 528.476 1678.43 523.576C1676.36 519.547 1675.38 515.191 1677.56 512.032C1683.11 503.974 1691.7 499.618 1691.7 499.618C1691.7 499.618 1707.7 493.192 1721.2 494.717C1729.8 495.588 1737.53 499.727 1739.59 510.508C1744.93 538.386 1730.78 581.294 1730.78 581.294Z" fill="#FC7A57"/>
    <path d="M1691.49 636.615C1691.49 636.615 1690.18 638.14 1688.11 638.467C1685.83 638.793 1684.19 637.704 1684.19 637.704L1683.11 634.655L1690.29 633.131L1691.49 636.615Z" fill="#F7B59C"/>
    <path d="M1653.83 640.318C1653.83 640.318 1652.31 641.625 1650.24 641.625C1647.95 641.625 1646.54 640.318 1646.54 640.318L1645.99 637.16H1653.39L1653.83 640.318Z" fill="#F7B59C"/>
    <path d="M1691.49 633.24C1691.05 633.457 1689.53 634.002 1689.09 634.22C1686.37 635.091 1682.56 635.962 1682.56 635.962C1676.36 622.567 1666.35 588.917 1666.35 588.917C1664.93 582.927 1669.18 580.531 1672.88 580.314C1674.18 580.205 1675.38 580.422 1676.25 580.858C1679.84 582.383 1685.07 592.402 1685.07 592.402C1685.07 592.402 1686.7 595.886 1688.33 603.074C1689.85 610.152 1691.49 633.24 1691.49 633.24Z" fill="#051528"/>
    <path d="M1705.53 581.838C1705.53 585.214 1704.55 590.659 1699.54 592.184C1692.03 594.471 1686.37 593.164 1677.66 591.639C1670.37 590.332 1658.73 586.085 1655.14 584.778C1654.7 584.561 1654.81 584.887 1654.81 585.323C1656.44 593.491 1653.72 637.813 1653.72 637.813C1653.72 637.813 1652.52 638.14 1651.22 638.358C1650.78 638.467 1650.24 638.467 1649.8 638.467C1647.95 638.467 1644.36 638.14 1644.36 638.14C1644.36 638.14 1637.61 606.994 1636.52 589.461C1635.44 572.037 1636.52 569.314 1644.8 566.483C1654.05 563.325 1682.34 564.087 1682.34 564.087C1682.45 564.414 1684.41 569.859 1690.29 574.76C1693.88 577.7 1698.78 580.422 1705.53 581.838Z" fill="#0A2342"/>
    <path d="M1714.02 599.589V644.456C1714.02 646.09 1712.71 647.397 1711.08 647.397C1710.43 647.397 1709.88 647.179 1709.34 646.852C1708.57 646.308 1708.14 645.436 1708.14 644.565V599.698H1714.02V599.589Z" fill="#A3C16F"/>
    <path d="M1714.02 601.549V644.239C1714.02 645.654 1712.93 647.07 1711.51 647.179C1710.86 647.288 1710.21 647.179 1709.66 646.852C1709.55 646.634 1709.45 646.525 1709.34 646.308V602.638C1709.34 601.985 1709.88 601.44 1710.53 601.44H1714.02V601.549Z" fill="#CCED98"/>
    <path d="M1717.72 598.064C1717.72 598.282 1717.72 598.5 1717.61 598.718C1717.5 599.153 1717.28 599.589 1716.96 599.807C1716.52 600.242 1715.87 600.569 1715.21 600.569H1706.62C1705.2 600.569 1704.11 599.48 1704.11 598.064C1704.11 597.411 1704.44 596.758 1704.87 596.322C1705.31 595.886 1705.96 595.56 1706.62 595.56H1715.21C1716.63 595.56 1717.72 596.758 1717.72 598.064Z" fill="#A3C16F"/>
    <path d="M1717.61 598.718C1717.5 599.153 1717.28 599.589 1716.96 599.807C1716.52 600.242 1715.87 600.569 1715.21 600.569H1706.94C1707.05 600.134 1707.27 599.698 1707.6 599.371C1708.03 598.936 1708.68 598.609 1709.34 598.609H1717.61V598.718Z" fill="#CCED98"/>
    <path d="M1748.41 519.873C1748.41 519.873 1748.41 519.982 1748.41 519.873C1748.41 520.2 1748.3 520.527 1748.19 520.744C1747.54 523.685 1745.04 529.348 1744.71 537.951C1744.49 543.178 1744.71 557.226 1744.49 565.721C1744.49 567.028 1744.38 568.117 1744.38 569.097C1743.95 576.611 1741.34 587.719 1733.61 593.273C1725.66 599.262 1709.66 598.173 1699.98 597.956C1690.29 597.738 1666.24 593.382 1664.39 589.788C1663.95 589.026 1663.84 588.263 1663.95 587.719C1664.06 587.174 1664.28 586.739 1664.71 586.303C1665.58 585.432 1667 585.105 1668.3 585.432C1672.22 586.412 1683.87 588.699 1689.09 582.056C1695.41 573.997 1694.64 564.741 1697.36 545.138C1699.98 526.625 1705.75 520.962 1715.32 517.26C1725.55 513.339 1741.99 514.973 1746.12 516.28C1747.43 516.715 1748.52 518.24 1748.41 519.873Z" fill="#A3C16F"/>
    <path d="M1744.71 649.901C1744.71 650.446 1744.27 650.99 1743.62 650.99H1678.64C1678.1 650.99 1677.56 650.555 1677.56 649.901C1677.56 649.357 1677.88 648.921 1678.43 648.812L1711.08 643.476L1719.24 644.783L1743.62 648.703C1744.27 648.921 1744.71 649.466 1744.71 649.901Z" fill="#CCED98"/>
    <path d="M1646.43 640.318C1646.43 640.318 1648.39 641.08 1650.13 641.08C1652.31 641.08 1653.83 640.318 1653.83 640.318C1653.83 640.318 1657.64 645.11 1655.57 650.555C1655.46 650.882 1655.14 650.99 1654.92 650.99H1629.56C1629.23 650.99 1629.01 650.773 1629.01 650.446C1629.01 649.793 1629.23 648.812 1630.76 648.377C1633.15 647.614 1635.54 647.288 1637.29 646.634C1639.14 645.981 1641.75 643.367 1643.16 642.823C1645.12 642.169 1646.43 640.318 1646.43 640.318Z" fill="#1A1A47"/>
    <path d="M1684.19 637.813C1684.19 637.813 1686.26 638.249 1688 638.031C1690.07 637.704 1691.49 636.724 1691.49 636.724C1691.49 636.724 1695.95 640.863 1694.86 646.525C1694.75 646.852 1694.53 647.07 1694.21 647.07C1694.21 647.07 1680.82 650.119 1676.25 650.773C1673.53 651.208 1669.07 651.208 1669.07 651.208C1668.74 651.208 1668.41 650.99 1668.41 650.773C1668.3 650.119 1668.41 649.139 1669.83 648.377C1672 647.288 1674.4 646.525 1676.03 645.545C1677.77 644.674 1679.84 641.625 1681.26 640.863C1683.11 639.774 1684.19 637.813 1684.19 637.813Z" fill="#1A1A47"/>
    <path d="M1633.26 542.416C1633.26 542.416 1630.65 541.327 1629.34 540.891C1628.8 540.673 1628.25 540.565 1627.93 540.456C1627.38 540.347 1626.73 540.238 1626.18 540.238H1611.27C1610.84 540.238 1610.51 539.911 1610.51 539.476C1610.51 538.931 1610.84 538.387 1611.27 538.06L1612.91 537.08L1617.69 534.03C1620.09 532.506 1621.72 532.397 1624.55 532.615C1625.1 532.615 1627.05 533.486 1627.49 533.595C1630.21 534.466 1630.86 534.902 1632.71 535.555C1633.48 535.773 1633.91 535.991 1634.24 535.991C1634.78 536.1 1634.89 536.1 1634.89 536.1C1635.33 539.911 1633.26 542.416 1633.26 542.416Z" fill="#F7B59C"/>
    <path d="M1691.16 507.023C1689.2 505.825 1683.32 502.558 1675.81 514.319C1668.3 526.081 1665.91 531.09 1663.73 534.793C1661.12 536.426 1634.46 535.664 1634.46 535.664C1634.46 535.664 1632.82 539.258 1632.5 542.307C1632.5 542.307 1646.65 549.386 1665.37 550.692C1679.84 550.692 1694.86 522.269 1695.51 518.784C1696.39 515.191 1695.84 509.854 1691.16 507.023Z" fill="#FC7A57"/>
    <path d="M1678.97 482.085C1678.86 482.085 1678.64 481.976 1678.64 481.867C1678.54 481.649 1678.64 481.431 1678.86 481.322L1693.56 473.808C1695.19 472.937 1698.67 471.194 1701.17 474.897C1701.28 475.115 1701.28 475.333 1701.07 475.442C1700.85 475.55 1700.63 475.55 1700.52 475.333C1698.56 472.392 1696.17 473.264 1693.99 474.461L1679.3 481.976C1679.08 482.085 1678.97 482.085 1678.97 482.085Z" fill="#1A1A47"/>
    <path d="M1693.45 474.57L1695.41 480.778C1695.41 480.778 1696.93 482.193 1698.34 480.56C1699.76 478.926 1701.07 473.046 1698.34 472.066C1695.73 471.086 1694.1 472.501 1693.45 474.57Z" fill="#F7B59C"/>
    <path d="M1747.76 517.695C1747.32 517.042 1746.67 516.497 1745.8 516.28C1741.66 515.082 1725.23 513.339 1715 517.26C1705.42 520.962 1699.65 526.625 1697.04 545.138C1694.32 564.741 1695.08 573.997 1688.77 582.056C1683.54 588.699 1671.9 586.412 1667.98 585.432C1666.78 585.105 1665.37 585.432 1664.39 586.303C1664.06 586.63 1663.73 587.174 1663.62 587.719C1663.52 588.263 1663.62 589.026 1664.06 589.788C1666.02 593.382 1689.96 597.738 1699.65 597.956C1709.34 598.173 1725.34 599.153 1733.28 593.273C1741.12 587.61 1743.62 576.611 1744.06 569.097C1744.17 568.117 1744.17 567.028 1744.17 565.721C1743.95 566.374 1738.61 581.511 1719.79 578.027C1701.61 574.651 1699.98 554.722 1700.63 547.97C1700.74 547.207 1700.85 546.554 1700.85 545.901C1701.06 544.703 1702.04 539.367 1703.24 534.793C1704.11 531.744 1706.18 527.061 1710.43 523.685C1710.97 523.249 1711.51 522.923 1712.17 522.596C1712.38 522.487 1712.6 522.378 1712.71 522.269C1713.04 522.16 1713.25 521.942 1713.58 521.833C1713.91 521.725 1714.23 521.507 1714.56 521.398C1714.78 521.289 1715 521.18 1715.32 521.071C1730.12 515.191 1746.02 519.002 1747 519.22C1748.19 519.547 1747.87 518.022 1747.76 517.695Z" fill="#CCED98"/>
    <path d="M1344.94 661.445L1346.58 657.089C1346.58 657.089 1372.26 658.287 1384.45 665.91L1361.27 666.346L1344.94 661.445Z" fill="#E1EFFF"/>
    <path d="M1424.07 661.445L1422.44 657.089C1422.44 657.089 1396.75 658.287 1384.56 665.91L1407.74 666.346L1424.07 661.445Z" fill="#E1EFFF"/>
    <path d="M1384.56 666.019C1370.63 660.574 1343.64 660.247 1343.64 660.247V669.395H1378.57H1390.55H1425.48V660.247C1425.38 660.138 1398.49 660.574 1384.56 666.019Z" fill="#9EBAD8"/>
    <path d="M1428.53 666.781H1340.48V669.939H1428.53V666.781Z" fill="#0A2342"/>
    <path d="M1607.46 333.761L1615.19 328.643C1616.82 329.623 1618.67 330.276 1620.74 330.276H1658.07C1663.84 330.276 1668.41 325.593 1668.41 319.931V308.169C1668.41 302.397 1663.73 297.824 1658.07 297.824H1620.74C1614.97 297.824 1610.4 302.506 1610.4 308.169V319.931C1610.4 322.109 1611.06 324.069 1612.14 325.702L1607.46 333.761ZM1620.74 323.633C1620.74 323.089 1621.18 322.653 1621.72 322.653H1657.64C1658.18 322.653 1658.62 323.089 1658.62 323.633C1658.62 324.178 1658.18 324.613 1657.64 324.613H1621.72C1621.18 324.613 1620.74 324.178 1620.74 323.633ZM1657.64 319.713H1638.7C1638.16 319.713 1637.72 319.277 1637.72 318.733C1637.72 318.188 1638.16 317.752 1638.7 317.752H1657.64C1658.18 317.752 1658.62 318.188 1658.62 318.733C1658.51 319.277 1658.18 319.713 1657.64 319.713ZM1620.74 313.941C1620.74 313.396 1621.18 312.961 1621.72 312.961H1657.64C1658.18 312.961 1658.62 313.396 1658.62 313.941C1658.62 314.485 1658.18 314.921 1657.64 314.921H1621.72C1621.18 314.812 1620.74 314.485 1620.74 313.941ZM1657.64 310.02H1631.08C1630.54 310.02 1630.1 309.585 1630.1 309.04C1630.1 308.496 1630.54 308.06 1631.08 308.06H1657.64C1658.18 308.06 1658.62 308.496 1658.62 309.04C1658.51 309.585 1658.18 310.02 1657.64 310.02ZM1620.74 304.249C1620.74 303.704 1621.18 303.269 1621.72 303.269H1657.64C1658.18 303.269 1658.62 303.704 1658.62 304.249C1658.62 304.793 1658.18 305.229 1657.64 305.229H1621.72C1621.18 305.12 1620.74 304.684 1620.74 304.249Z" fill="#CCED98"/>
    <path d="M1285.08 428.07H1278.55" stroke="#82B440" stroke-miterlimit="10" stroke-linecap="round"/>
    <path d="M1273.22 428.07H1231.21C1228.81 428.07 1226.85 430.03 1226.85 432.426V598.718C1226.85 599.262 1226.96 599.807 1227.18 600.242" stroke="#82B440" stroke-miterlimit="10" stroke-linecap="round" stroke-dasharray="11.86 11.86"/>
    <path d="M1228.7 602.42C1229.36 602.856 1230.23 603.183 1231.21 603.183H1235.12" stroke="#82B440" stroke-miterlimit="10" stroke-linecap="round"/>
    <path d="M1664.28 372.312H1670.81" stroke="#82B440" stroke-miterlimit="10" stroke-linecap="round"/>
    <path d="M1676.14 372.312H1767.46C1771.7 372.312 1775.18 375.797 1775.18 380.044V514.864C1775.18 519.111 1771.7 522.596 1767.46 522.596H1764.84" stroke="#82B440" stroke-miterlimit="10" stroke-linecap="round" stroke-dasharray="11.84 11.84"/>
    <path d="M1762.23 522.596H1755.7" stroke="#82B440" stroke-miterlimit="10" stroke-linecap="round"/>
    <path d="M1380.97 269.509H1443.12C1450.08 269.509 1455.74 275.172 1455.74 282.142V341.602" stroke="#82B440" stroke-miterlimit="10" stroke-linecap="round" stroke-dasharray="12 12"/>
    <path d="M1571.11 533.377C1571.11 533.377 1563.93 529.13 1562.3 520.853C1562.3 520.853 1569.04 522.269 1572.53 533.377" fill="white"/>
    <path d="M1573.94 533.377C1573.94 533.377 1581.12 529.13 1582.76 520.853C1582.76 520.853 1576.01 522.269 1572.53 533.377" fill="white"/>
    <path d="M1571.76 532.724C1571.76 532.724 1566.54 526.19 1568.06 517.913C1568.06 517.913 1573.94 521.725 1573.07 533.268" fill="white"/>
    <path d="M1573.51 532.724C1573.51 532.724 1578.51 526.081 1576.77 517.804C1576.77 517.804 1571 521.725 1572.09 533.268" fill="white"/>
    <path d="M1580.25 531.635H1564.47V544.812H1580.25V531.635Z" fill="#CFE3FF"/>
    <path opacity="0.5" d="M1569.15 531.635H1564.47V544.812H1569.15V531.635Z" fill="#94C1F7"/>
    <g opacity="0.5">
        <g opacity="0.5">
            <g opacity="0.5">
                <path opacity="0.5" d="M1725.23 452.79L1718.04 456.602L1721.64 447.345" fill="#0F7173"/>
            </g>
            <path opacity="0.5" d="M1747.21 441.029C1747.21 449.305 1740.46 456.057 1732.19 456.057C1723.92 456.057 1717.17 449.305 1717.17 441.029C1717.17 432.752 1723.92 426 1732.19 426C1740.57 425.891 1747.21 432.643 1747.21 441.029Z" fill="#0F7173"/>
        </g>
    </g>
    <path d="M1725.88 439.504L1730.45 445.276L1738.51 436.782" stroke="white" stroke-width="1.3801" stroke-miterlimit="10" stroke-linecap="round" stroke-linejoin="round"/>
    <path d="M1258.52 502.231L1265.71 506.043L1262.12 496.786" fill="#0A2342"/>
    <path d="M1236.54 490.47C1236.54 498.746 1243.29 505.498 1251.56 505.498C1259.83 505.498 1266.58 498.746 1266.58 490.47C1266.58 482.193 1259.83 475.442 1251.56 475.442C1243.18 475.442 1236.54 482.085 1236.54 490.47Z" fill="#0A2342"/>
    <path d="M1245.25 489.054L1249.82 494.717L1257.87 486.223" stroke="white" stroke-width="1.3801" stroke-miterlimit="10" stroke-linecap="round" stroke-linejoin="round"/>
    <path d="M1737.74 361.531H1679.3C1678.21 361.531 1677.34 360.66 1677.34 359.571V300.437C1677.34 299.348 1678.21 298.477 1679.3 298.477H1737.74C1738.83 298.477 1739.7 299.348 1739.7 300.437V359.679C1739.7 360.768 1738.83 361.531 1737.74 361.531Z" fill="white"/>
    <g opacity="0.5">
        <path opacity="0.5" d="M1724.79 326.791C1724.79 329.405 1724.25 332.019 1723.16 334.305C1722.62 335.394 1722.07 336.484 1721.31 337.464C1720.77 338.117 1720.33 338.77 1719.68 339.315C1719.13 339.859 1718.7 340.295 1718.15 340.731C1717.39 341.384 1716.52 341.929 1715.54 342.473C1714.78 342.909 1714.13 343.235 1713.36 343.562C1711.62 344.215 1709.77 344.651 1707.92 344.76C1707.6 344.76 1707.16 344.76 1706.83 344.76C1702.48 344.76 1698.56 343.235 1695.51 340.731C1691.49 337.464 1688.88 332.345 1688.88 326.791C1688.88 324.178 1689.42 321.782 1690.4 319.604C1692.68 314.485 1697.15 310.565 1702.7 309.367C1702.7 309.367 1702.81 309.367 1702.92 309.367C1703.46 309.258 1704.11 309.149 1704.66 309.04C1705.42 308.931 1706.18 308.931 1706.83 308.931C1713.69 308.931 1719.57 312.743 1722.62 318.406C1722.83 318.733 1723.05 319.168 1723.16 319.604C1724.25 321.673 1724.79 324.178 1724.79 326.791Z" fill="#82B440"/>
        <g opacity="0.5">
            <g opacity="0.5">
                <path opacity="0.5" d="M1711.3 342.691C1711.41 343.562 1710.32 344.107 1709.45 344.324C1708.9 344.433 1708.36 344.542 1707.92 344.651C1707.6 344.651 1707.16 344.651 1706.83 344.651C1702.59 344.651 1698.56 343.126 1695.51 340.622C1695.51 340.513 1695.51 340.295 1695.51 340.186C1695.51 339.533 1695.73 338.879 1695.95 338.117C1696.06 337.573 1696.17 337.028 1696.17 336.375C1696.17 336.157 1696.17 335.939 1696.06 335.721C1695.95 335.612 1695.73 335.503 1695.62 335.503C1694.64 335.068 1693.88 333.761 1694.32 332.781C1695.19 330.603 1698.24 331.365 1696.28 325.92C1695.84 324.722 1696.71 324.504 1696.71 324.178C1696.49 323.415 1693.88 323.633 1693.12 323.524C1692.68 323.415 1692.14 323.415 1691.81 323.089C1691.6 322.871 1691.49 322.653 1691.38 322.326C1690.94 321.346 1690.73 320.366 1690.62 319.277C1692.9 314.159 1697.47 310.238 1703.13 308.931L1703.24 309.476C1703.02 311.545 1702.92 313.614 1702.81 315.574C1702.81 315.901 1702.81 316.337 1702.7 316.663C1702.37 317.426 1701.5 317.752 1700.74 317.644C1700.41 317.644 1700.09 317.535 1699.87 317.644C1699.43 317.861 1699.54 318.515 1699.54 318.95C1699.43 319.713 1698.67 320.366 1698.24 321.02C1697.69 321.673 1697.58 322.762 1698.24 323.198C1698.45 323.306 1698.67 323.306 1698.78 323.524C1698.89 323.742 1698.78 324.069 1698.45 324.287C1698.24 324.395 1697.91 324.504 1697.8 324.722C1697.47 325.158 1697.69 325.811 1698.13 326.247C1698.56 326.573 1699.11 326.9 1699.43 327.336C1699.87 327.88 1699.98 328.643 1700.41 329.187C1701.61 330.385 1704 329.078 1705.2 330.385C1705.85 331.038 1705.85 332.019 1706.4 332.672C1706.72 333.108 1707.27 333.325 1707.7 333.652C1708.68 334.414 1709.45 335.612 1709.45 336.81C1709.55 338.117 1709.01 339.751 1709.99 340.731C1710.1 341.602 1711.19 341.82 1711.3 342.691Z" fill="#81A8CC"/>
            </g>
            <g opacity="0.5">
                <path opacity="0.5" d="M1722.62 318.188C1722.29 318.188 1721.96 318.188 1721.74 318.297C1721.64 318.297 1721.53 318.406 1721.42 318.406C1721.31 318.515 1721.31 318.733 1721.31 318.95C1721.31 319.495 1721.09 320.148 1720.66 320.475C1720.55 320.584 1720.44 320.584 1720.33 320.693C1720 320.802 1719.79 320.366 1719.68 320.039C1719.35 319.168 1719.02 318.297 1718.7 317.426C1718.59 317.208 1718.48 316.881 1718.26 316.663C1717.83 316.337 1717.28 316.446 1716.85 316.228C1716.3 315.901 1716.08 315.03 1715.43 315.139C1715 315.248 1715 315.901 1715.11 316.446C1715.21 316.881 1715.43 317.535 1715.11 317.861C1714.67 318.188 1714.13 317.861 1713.8 317.426C1713.47 316.99 1713.26 316.446 1712.71 316.228C1712.06 316.01 1711.3 316.555 1710.86 317.208C1710.43 317.861 1710.1 318.624 1709.45 318.841C1709.12 318.95 1708.68 318.95 1708.36 319.168C1707.7 319.495 1707.7 320.475 1707.92 321.237C1708.14 322 1708.47 322.762 1708.14 323.415C1708.03 323.524 1708.03 323.633 1707.81 323.742C1707.49 323.851 1707.27 323.524 1707.05 323.306C1705.96 321.891 1704.98 320.475 1704.22 318.841C1704.11 318.515 1703.89 318.188 1704 317.861C1704 317.644 1704.11 317.426 1704.22 317.208C1704.44 316.446 1704.22 315.683 1704.33 314.921C1704.44 313.614 1705.53 312.416 1705.09 311.218C1704.98 310.783 1704.66 310.456 1704.44 310.02C1704.22 309.585 1704.22 309.04 1704.55 308.714C1705.31 308.605 1706.07 308.605 1706.72 308.605C1713.69 308.714 1719.57 312.634 1722.62 318.188Z" fill="#81A8CC"/>
            </g>
            <g opacity="0.5">
                <path opacity="0.5" d="M1724.79 326.791C1724.79 329.405 1724.25 332.019 1723.16 334.305C1722.62 335.394 1722.07 336.484 1721.31 337.464C1721.31 337.355 1721.31 337.246 1721.31 337.137C1721.31 336.701 1721.31 336.266 1721.53 335.83C1721.64 335.612 1721.85 335.395 1721.96 335.177C1722.29 334.523 1722.18 333.87 1722.18 333.108C1722.18 332.781 1722.07 332.345 1721.85 332.019C1721.64 331.801 1721.42 331.801 1721.31 331.583C1720.87 331.147 1721.09 330.494 1721.09 329.949C1721.2 329.405 1721.09 328.643 1720.66 328.425C1720 329.296 1719.35 330.167 1718.59 330.821C1718.7 330.167 1717.94 329.732 1717.39 329.841C1716.85 330.058 1716.52 330.712 1716.52 331.256C1715.98 331.256 1715.87 330.494 1715.98 330.058C1716.08 329.187 1716.19 328.316 1716.3 327.445C1715.76 327.227 1715.32 328.098 1714.67 328.207C1714.13 328.316 1713.69 327.771 1713.58 327.336C1713.47 326.791 1713.8 326.356 1714.02 325.811C1714.23 325.267 1714.56 324.722 1714.78 324.178C1715.11 323.415 1715.54 322.653 1716.19 322.326C1717.06 321.891 1718.04 322.217 1719.02 322.435C1720 322.653 1721.09 322.762 1721.74 322.109C1722.18 321.673 1722.29 321.128 1722.4 320.584C1722.51 320.148 1722.62 319.604 1723.05 319.386C1724.25 321.673 1724.79 324.178 1724.79 326.791Z" fill="#81A8CC"/>
            </g>
        </g>
        <path opacity="0.3" d="M1720.55 338.444C1720.33 338.77 1720 338.988 1719.79 339.315C1719.24 339.859 1718.81 340.295 1718.26 340.731C1717.5 341.384 1716.63 341.929 1715.65 342.473C1714.89 342.909 1714.24 343.235 1713.47 343.562C1711.73 344.215 1709.88 344.651 1708.03 344.76C1707.7 344.76 1707.27 344.76 1706.94 344.76C1702.59 344.76 1698.67 343.235 1695.62 340.731C1691.6 337.464 1688.98 332.345 1688.98 326.791C1688.98 324.178 1689.53 321.782 1690.51 319.604C1692.79 314.485 1697.26 310.565 1702.81 309.367C1702.81 309.367 1702.92 309.367 1703.02 309.367C1703.57 309.258 1704.22 309.149 1704.77 309.04H1704.87C1703.13 310.674 1701.72 312.634 1700.74 314.921C1699.76 317.099 1699.32 319.386 1699.32 321.891C1699.32 327.336 1701.83 332.127 1705.75 335.286C1708.68 337.681 1712.49 339.097 1716.63 339.097C1716.96 339.097 1717.28 339.097 1717.72 339.097C1718.48 338.879 1719.46 338.662 1720.55 338.444Z" fill="#9999F1"/>
        <path opacity="0.5" d="M1728.82 326.682C1728.82 320.039 1725.88 313.832 1720.77 309.585C1716.85 306.318 1711.84 304.575 1706.73 304.575C1706.07 304.575 1705.53 305.12 1705.53 305.773C1705.53 306.427 1706.07 306.971 1706.73 306.971C1711.3 306.971 1715.76 308.605 1719.35 311.436C1723.92 315.248 1726.53 320.802 1726.53 326.791C1726.53 337.681 1717.61 346.611 1706.73 346.611C1700.74 346.611 1695.19 343.998 1691.38 339.315C1690.94 338.77 1690.29 338.77 1689.75 339.206C1689.53 339.424 1689.31 339.642 1689.31 339.968C1689.31 340.295 1689.42 340.622 1689.53 340.84C1693.45 345.631 1699.11 348.572 1705.31 348.898V352.71H1698.67C1697.91 352.71 1697.26 353.363 1697.26 354.126C1697.26 354.888 1697.91 355.541 1698.67 355.541H1714.89C1715.65 355.541 1716.3 354.888 1716.3 354.126C1716.3 353.363 1715.65 352.71 1714.89 352.71H1708.25V348.789C1719.79 347.918 1728.82 338.335 1728.82 326.682Z" fill="#BDD692"/>
    </g>
    <path d="M1393.05 605.687C1393.49 608.954 1391.09 612.004 1387.83 612.439C1384.56 612.875 1381.51 610.479 1381.08 607.212C1380.64 603.945 1383.04 600.896 1386.3 600.46C1389.68 600.025 1392.61 602.312 1393.05 605.687Z" fill="#BDD692"/>
    <path d="M1384.45 607.103L1387.17 609.063L1389.79 604.381" fill="#BDD692"/>
    <path d="M1409.38 286.607C1410.46 289.765 1408.72 293.25 1405.46 294.23C1402.3 295.319 1398.82 293.576 1397.84 290.309C1396.75 287.151 1398.49 283.666 1401.76 282.686C1404.91 281.706 1408.4 283.449 1409.38 286.607Z" fill="#BDD692"/>
    <path d="M1401.21 289.656L1404.15 291.072L1405.89 285.953" fill="#BDD692"/>
    <path d="M1735.35 398.993C1735.02 404.111 1730.56 407.923 1725.44 407.596C1720.33 407.269 1716.52 402.804 1716.85 397.686C1717.17 392.568 1721.64 388.756 1726.75 389.083C1731.98 389.41 1735.78 393.874 1735.35 398.993Z" fill="#BDD692"/>
    <path d="M1722.07 398.448L1725.44 402.26L1730.78 396.053" fill="#BDD692"/>
    <path d="M1706.94 398.013C1706.94 399.211 1705.96 400.191 1704.77 400.191C1703.57 400.191 1702.59 399.211 1702.59 398.013C1702.59 396.815 1703.57 395.835 1704.77 395.835C1705.96 395.726 1706.94 396.815 1706.94 398.013Z" fill="#BDD692"/>
    <path d="M1631.95 244.571C1631.95 245.769 1630.97 246.749 1629.78 246.749C1628.58 246.749 1627.6 245.769 1627.6 244.571C1627.6 243.373 1628.58 242.393 1629.78 242.393C1630.86 242.393 1631.95 243.373 1631.95 244.571Z" fill="#BDD692"/>
    <path d="M1268.86 447.998C1268.86 449.959 1267.23 451.592 1265.27 451.592C1263.31 451.592 1261.68 449.959 1261.68 447.998C1261.68 446.038 1263.31 444.405 1265.27 444.405C1267.23 444.405 1268.86 446.038 1268.86 447.998Z" fill="#BDD692"/>
    <path d="M1809.58 484.045C1809.58 487.094 1807.07 489.49 1804.14 489.49C1801.09 489.49 1798.69 486.985 1798.69 484.045C1798.69 480.996 1801.2 478.6 1804.14 478.6C1807.07 478.491 1809.58 480.996 1809.58 484.045Z" fill="#BDD692"/>
    <path opacity="0.3" d="M1211.4 408.358C1211.4 411.408 1208.89 413.803 1205.96 413.803C1202.91 413.803 1200.51 411.299 1200.51 408.358C1200.51 405.309 1203.02 402.913 1205.96 402.913C1208.89 402.913 1211.4 405.418 1211.4 408.358Z" fill="#BDD692"/>
    <path opacity="0.3" d="M1764.63 533.377C1764.63 535.337 1762.99 536.971 1761.04 536.971C1759.08 536.971 1757.44 535.337 1757.44 533.377C1757.44 531.417 1759.08 529.783 1761.04 529.783C1762.99 529.783 1764.63 531.417 1764.63 533.377Z" fill="#BDD692"/>
    <path d="M1486.98 257.53C1486.98 259.49 1485.35 261.124 1483.39 261.124C1481.43 261.124 1479.79 259.49 1479.79 257.53C1479.79 255.57 1481.43 253.936 1483.39 253.936C1485.45 253.936 1486.98 255.57 1486.98 257.53Z" fill="#BDD692"/>
    <path opacity="0.2" d="M1553.26 239.67C1553.26 241.63 1551.63 243.264 1549.67 243.264C1547.71 243.264 1546.08 241.63 1546.08 239.67C1546.08 237.71 1547.71 236.077 1549.67 236.077C1551.63 236.077 1553.26 237.71 1553.26 239.67Z" fill="#BDD692"/>
    <path d="M1201.49 360.224C1201.06 360.224 1200.73 359.897 1200.73 359.462V354.452C1200.73 354.017 1201.06 353.69 1201.49 353.69C1201.93 353.69 1202.26 354.017 1202.26 354.452V359.462C1202.26 359.897 1201.93 360.224 1201.49 360.224Z" fill="#BDD692"/>
    <path d="M1204 357.719H1198.99C1198.55 357.719 1198.23 357.393 1198.23 356.957C1198.23 356.521 1198.55 356.195 1198.99 356.195H1204C1204.43 356.195 1204.76 356.521 1204.76 356.957C1204.76 357.393 1204.43 357.719 1204 357.719Z" fill="#BDD692"/>
    <g opacity="0.3">
        <g opacity="0.3">
            <g opacity="0.3">
                <path opacity="0.3" d="M1240.89 234.116C1240.46 234.116 1240.13 233.79 1240.13 233.354V228.453C1240.13 228.018 1240.46 227.691 1240.89 227.691C1241.33 227.691 1241.66 228.018 1241.66 228.453V233.463C1241.55 233.79 1241.33 234.116 1240.89 234.116Z" fill="#BDD692"/>
            </g>
            <g opacity="0.3">
                <path opacity="0.3" d="M1243.4 231.612H1238.39C1237.95 231.612 1237.63 231.285 1237.63 230.849C1237.63 230.414 1237.95 230.087 1238.39 230.087H1243.4C1243.83 230.087 1244.16 230.414 1244.16 230.849C1244.16 231.285 1243.83 231.612 1243.4 231.612Z" fill="#BDD692"/>
            </g>
        </g>
    </g>
    <path d="M1658.07 294.121C1657.64 294.121 1657.31 293.794 1657.31 293.359V288.458C1657.31 288.022 1657.64 287.696 1658.07 287.696C1658.51 287.696 1658.84 288.022 1658.84 288.458V293.467C1658.84 293.903 1658.51 294.121 1658.07 294.121Z" fill="#BDD692"/>
    <path d="M1660.58 291.616H1655.57C1655.13 291.616 1654.81 291.289 1654.81 290.854C1654.81 290.418 1655.13 290.092 1655.57 290.092H1660.58C1661.01 290.092 1661.34 290.418 1661.34 290.854C1661.34 291.398 1661.01 291.616 1660.58 291.616Z" fill="#BDD692"/>
    <path d="M1812.73 559.078C1812.3 559.078 1811.97 558.751 1811.97 558.315V553.306C1811.97 552.87 1812.3 552.544 1812.73 552.544C1813.17 552.544 1813.5 552.87 1813.5 553.306V558.315C1813.5 558.751 1813.17 559.078 1812.73 559.078Z" fill="#BDD692"/>
    <path d="M1815.24 556.573H1810.23C1809.8 556.573 1809.47 556.246 1809.47 555.811C1809.47 555.375 1809.8 555.048 1810.23 555.048H1815.24C1815.67 555.048 1816 555.375 1816 555.811C1816 556.246 1815.67 556.573 1815.24 556.573Z" fill="#BDD692"/>
    <path d="M1645.45 358.373V396.597C1645.45 397.25 1644.9 397.795 1644.25 397.795H1606.37C1605.72 397.795 1605.18 397.25 1605.18 396.597V358.373C1605.18 357.719 1605.72 357.175 1606.37 357.175H1644.25C1644.9 357.175 1645.45 357.719 1645.45 358.373Z" fill="white"/>
    <path d="M1645.45 390.39V396.597C1645.45 397.25 1644.9 397.795 1644.25 397.795H1625.53L1626.29 389.41L1633.58 381.242C1634.46 380.371 1635.76 380.262 1636.74 381.133L1644.8 388.756C1645.23 389.192 1645.45 389.845 1645.45 390.39Z" fill="#6C9629"/>
    <path d="M1640.22 397.795H1606.48C1605.83 397.795 1605.29 397.25 1605.29 396.597V389.41L1616.93 377.213C1617.8 376.341 1619.22 376.341 1620.09 377.213L1640.22 397.795Z" fill="#82B440"/>
    <path d="M1640.12 368.174C1640.12 370.787 1638.05 372.857 1635.43 372.857C1632.82 372.857 1630.75 370.787 1630.75 368.174C1630.75 365.56 1632.82 363.491 1635.43 363.491C1638.05 363.491 1640.12 365.669 1640.12 368.174Z" fill="#6C9629"/>
    <path d="M1644.58 404.329H1606.16C1605.72 404.329 1605.29 403.893 1605.29 403.458V401.715C1605.29 401.28 1605.72 400.844 1606.16 400.844H1644.58C1645.01 400.844 1645.45 401.28 1645.45 401.715V403.567C1645.45 404.002 1645.01 404.329 1644.58 404.329Z" fill="white"/>
    <path d="M1644.58 410.645H1606.16C1605.72 410.645 1605.29 410.21 1605.29 409.774V407.923C1605.29 407.487 1605.72 407.052 1606.16 407.052H1644.58C1645.01 407.052 1645.45 407.487 1645.45 407.923V409.774C1645.45 410.319 1645.01 410.645 1644.58 410.645Z" fill="white"/>
    <path d="M1468.58 452.354H1389.13C1388.26 452.354 1387.61 451.701 1387.61 450.83V393.766C1387.61 391.043 1389.79 388.865 1392.51 388.865H1462.93C1466.95 388.865 1470.11 392.132 1470.11 396.053V450.721C1470.11 451.592 1469.46 452.354 1468.58 452.354Z" fill="#CCED98"/>
    <path d="M1463.9 449.196H1393.92C1392.18 449.196 1390.87 447.781 1390.87 446.147V438.633C1390.87 436.89 1392.29 435.584 1393.92 435.584H1463.9C1465.65 435.584 1466.95 436.999 1466.95 438.633V446.147C1466.95 447.89 1465.65 449.196 1463.9 449.196Z" fill="white"/>
    <path d="M1464.99 433.297H1392.83C1391.74 433.297 1390.87 432.426 1390.87 431.337V429.703C1390.87 428.614 1391.74 427.743 1392.83 427.743H1464.99C1466.08 427.743 1466.95 428.614 1466.95 429.703V431.337C1466.95 432.426 1466.08 433.297 1464.99 433.297Z" fill="white"/>
    <path opacity="0.31" d="M1435.17 399.537H1391.74C1391.09 399.537 1390.55 398.993 1390.55 398.339C1390.55 397.686 1391.09 397.142 1391.74 397.142H1435.17C1435.82 397.142 1436.37 397.686 1436.37 398.339C1436.37 398.993 1435.82 399.537 1435.17 399.537Z" fill="white"/>
    <path opacity="0.31" d="M1435.17 404.547H1391.74C1391.09 404.547 1390.55 404.002 1390.55 403.349C1390.55 402.695 1391.09 402.151 1391.74 402.151H1435.17C1435.82 402.151 1436.37 402.695 1436.37 403.349C1436.37 404.002 1435.82 404.547 1435.17 404.547Z" fill="white"/>
    <path opacity="0.31" d="M1435.17 409.665H1391.74C1391.09 409.665 1390.55 409.121 1390.55 408.467C1390.55 407.814 1391.09 407.269 1391.74 407.269H1435.17C1435.82 407.269 1436.37 407.814 1436.37 408.467C1436.37 409.121 1435.82 409.665 1435.17 409.665Z" fill="white"/>
    <path opacity="0.31" d="M1435.17 414.675H1391.74C1391.09 414.675 1390.55 414.13 1390.55 413.477C1390.55 412.823 1391.09 412.279 1391.74 412.279H1435.17C1435.82 412.279 1436.37 412.823 1436.37 413.477C1436.37 414.13 1435.82 414.675 1435.17 414.675Z" fill="white"/>
    <path opacity="0.31" d="M1435.17 419.793H1391.74C1391.09 419.793 1390.55 419.249 1390.55 418.595C1390.55 417.942 1391.09 417.397 1391.74 417.397H1435.17C1435.82 417.397 1436.37 417.942 1436.37 418.595C1436.37 419.249 1435.82 419.793 1435.17 419.793Z" fill="white"/>
    <path opacity="0.31" d="M1424.94 424.802H1391.74C1391.09 424.802 1390.55 424.258 1390.55 423.605C1390.55 422.951 1391.09 422.407 1391.74 422.407H1424.94C1425.59 422.407 1426.14 422.951 1426.14 423.605C1426.25 424.258 1425.7 424.802 1424.94 424.802Z" fill="white"/>
    <path d="M1469.35 386.687H1388.48C1388.04 386.687 1387.61 387.014 1387.61 387.558V393.766H1470.11V387.558C1470.11 387.123 1469.78 386.687 1469.35 386.687Z" fill="#82B440"/>
    <path d="M1457.92 390.172C1457.92 390.607 1457.59 390.934 1457.16 390.934C1456.72 390.934 1456.39 390.607 1456.39 390.172C1456.39 389.736 1456.72 389.41 1457.16 389.41C1457.59 389.41 1457.92 389.845 1457.92 390.172Z" fill="white"/>
    <path d="M1461.73 390.172C1461.73 390.607 1461.4 390.934 1460.97 390.934C1460.53 390.934 1460.2 390.607 1460.2 390.172C1460.2 389.736 1460.53 389.41 1460.97 389.41C1461.4 389.41 1461.73 389.845 1461.73 390.172Z" fill="white"/>
    <path d="M1465.43 390.172C1465.43 390.607 1465.1 390.934 1464.67 390.934C1464.23 390.934 1463.9 390.607 1463.9 390.172C1463.9 389.736 1464.23 389.41 1464.67 389.41C1465.1 389.41 1465.43 389.845 1465.43 390.172Z" fill="white"/>
    <path d="M1466.95 397.904V424.04C1466.95 424.476 1466.63 424.802 1466.19 424.802H1440.29C1439.85 424.802 1439.52 424.476 1439.52 424.04V397.904C1439.52 397.468 1439.85 397.142 1440.29 397.142H1466.19C1466.63 397.033 1466.95 397.468 1466.95 397.904Z" fill="white"/>
    <path d="M1466.95 420.011V423.931C1466.95 424.367 1466.63 424.694 1466.19 424.694H1453.35L1453.89 419.031L1458.46 414.021C1459.33 413.15 1460.64 413.041 1461.62 413.912L1466.41 418.377C1466.73 418.922 1466.95 419.466 1466.95 420.011Z" fill="#6C9629"/>
    <path d="M1463.36 424.802H1440.29C1439.85 424.802 1439.52 424.476 1439.52 424.04V420.011C1439.52 419.466 1439.74 418.922 1440.18 418.486L1447.03 411.299C1447.91 410.427 1449.32 410.427 1450.19 411.299L1463.36 424.802Z" fill="#82B440"/>
    <path d="M1463.36 404.547C1463.36 406.289 1461.95 407.705 1460.2 407.705C1458.46 407.705 1457.05 406.289 1457.05 404.547C1457.05 402.804 1458.46 401.389 1460.2 401.389C1461.95 401.389 1463.36 402.804 1463.36 404.547Z" fill="#6C9629"/>
    <path d="M1434.63 465.749H1389.35C1388.37 465.749 1387.61 464.987 1387.61 464.007V461.611C1387.61 460.631 1388.37 459.869 1389.35 459.869H1434.63C1435.61 459.869 1436.37 460.631 1436.37 461.611V464.007C1436.37 464.987 1435.61 465.749 1434.63 465.749Z" fill="white"/>
    <path d="M1453.46 473.808H1389.13C1388.37 473.808 1387.61 473.155 1387.61 472.283C1387.61 471.521 1388.26 470.759 1389.13 470.759H1453.46C1454.22 470.759 1454.98 471.412 1454.98 472.283C1454.87 473.155 1454.22 473.808 1453.46 473.808Z" fill="white"/>
    <path d="M1441.37 480.451H1389.13C1388.37 480.451 1387.61 479.798 1387.61 478.926C1387.61 478.164 1388.26 477.402 1389.13 477.402H1441.37C1442.14 477.402 1442.9 478.055 1442.9 478.926C1442.9 479.798 1442.25 480.451 1441.37 480.451Z" fill="white"/>
    <path d="M1560.55 452.354H1481.1C1480.23 452.354 1479.58 451.701 1479.58 450.83V393.766C1479.58 391.043 1481.75 388.865 1484.48 388.865H1554.89C1558.92 388.865 1562.08 392.132 1562.08 396.053V450.721C1562.08 451.592 1561.42 452.354 1560.55 452.354Z" fill="#CCED98"/>
    <path d="M1555.87 449.196H1485.89C1484.15 449.196 1482.84 447.781 1482.84 446.147V438.633C1482.84 436.89 1484.26 435.584 1485.89 435.584H1555.87C1557.62 435.584 1558.92 436.999 1558.92 438.633V446.147C1558.92 447.89 1557.62 449.196 1555.87 449.196Z" fill="white"/>
    <path d="M1556.96 433.297H1484.8C1483.71 433.297 1482.84 432.426 1482.84 431.337V429.703C1482.84 428.614 1483.71 427.743 1484.8 427.743H1556.96C1558.05 427.743 1558.92 428.614 1558.92 429.703V431.337C1558.92 432.426 1558.05 433.297 1556.96 433.297Z" fill="white"/>
    <path opacity="0.31" d="M1527.14 399.537H1483.71C1483.06 399.537 1482.52 398.993 1482.52 398.339C1482.52 397.686 1483.06 397.142 1483.71 397.142H1527.14C1527.79 397.142 1528.34 397.686 1528.34 398.339C1528.34 398.993 1527.79 399.537 1527.14 399.537Z" fill="white"/>
    <path opacity="0.31" d="M1527.14 404.547H1483.71C1483.06 404.547 1482.52 404.002 1482.52 403.349C1482.52 402.695 1483.06 402.151 1483.71 402.151H1527.14C1527.79 402.151 1528.34 402.695 1528.34 403.349C1528.34 404.002 1527.79 404.547 1527.14 404.547Z" fill="white"/>
    <path opacity="0.31" d="M1527.14 409.665H1483.71C1483.06 409.665 1482.52 409.121 1482.52 408.467C1482.52 407.814 1483.06 407.269 1483.71 407.269H1527.14C1527.79 407.269 1528.34 407.814 1528.34 408.467C1528.34 409.121 1527.79 409.665 1527.14 409.665Z" fill="white"/>
    <path opacity="0.31" d="M1527.14 414.675H1483.71C1483.06 414.675 1482.52 414.13 1482.52 413.477C1482.52 412.823 1483.06 412.279 1483.71 412.279H1527.14C1527.79 412.279 1528.34 412.823 1528.34 413.477C1528.34 414.13 1527.79 414.675 1527.14 414.675Z" fill="white"/>
    <path opacity="0.31" d="M1527.14 419.793H1483.71C1483.06 419.793 1482.52 419.249 1482.52 418.595C1482.52 417.942 1483.06 417.397 1483.71 417.397H1527.14C1527.79 417.397 1528.34 417.942 1528.34 418.595C1528.34 419.249 1527.79 419.793 1527.14 419.793Z" fill="white"/>
    <path opacity="0.31" d="M1516.91 424.802H1483.71C1483.06 424.802 1482.52 424.258 1482.52 423.605C1482.52 422.951 1483.06 422.407 1483.71 422.407H1516.91C1517.56 422.407 1518.11 422.951 1518.11 423.605C1518.22 424.258 1517.56 424.802 1516.91 424.802Z" fill="white"/>
    <path d="M1561.32 386.687H1480.45C1480.01 386.687 1479.58 387.014 1479.58 387.558V393.766H1562.08V387.558C1562.08 387.123 1561.75 386.687 1561.32 386.687Z" fill="#82B440"/>
    <path d="M1549.89 390.172C1549.89 390.607 1549.56 390.934 1549.13 390.934C1548.69 390.934 1548.36 390.607 1548.36 390.172C1548.36 389.736 1548.69 389.41 1549.13 389.41C1549.56 389.41 1549.89 389.845 1549.89 390.172Z" fill="white"/>
    <path d="M1553.7 390.172C1553.7 390.607 1553.37 390.934 1552.94 390.934C1552.5 390.934 1552.17 390.607 1552.17 390.172C1552.17 389.736 1552.5 389.41 1552.94 389.41C1553.26 389.41 1553.7 389.845 1553.7 390.172Z" fill="white"/>
    <path d="M1557.4 390.172C1557.4 390.607 1557.07 390.934 1556.64 390.934C1556.2 390.934 1555.87 390.607 1555.87 390.172C1555.87 389.736 1556.2 389.41 1556.64 389.41C1557.07 389.41 1557.4 389.845 1557.4 390.172Z" fill="white"/>
    <path d="M1558.92 397.904V424.04C1558.92 424.476 1558.6 424.802 1558.16 424.802H1532.26C1531.82 424.802 1531.49 424.476 1531.49 424.04V397.904C1531.49 397.468 1531.82 397.142 1532.26 397.142H1558.16C1558.6 397.033 1558.92 397.468 1558.92 397.904Z" fill="white"/>
    <path d="M1558.92 420.011V423.931C1558.92 424.367 1558.6 424.694 1558.16 424.694H1545.32L1545.86 419.031L1550.43 414.021C1551.3 413.15 1552.61 413.041 1553.59 413.912L1558.38 418.377C1558.7 418.922 1558.92 419.466 1558.92 420.011Z" fill="#6C9629"/>
    <path d="M1555.33 424.802H1532.26C1531.82 424.802 1531.49 424.476 1531.49 424.04V420.011C1531.49 419.466 1531.71 418.922 1532.15 418.486L1539 411.299C1539.87 410.427 1541.29 410.427 1542.16 411.299L1555.33 424.802Z" fill="#82B440"/>
    <path d="M1555.33 404.547C1555.33 406.289 1553.91 407.705 1552.17 407.705C1550.43 407.705 1549.02 406.289 1549.02 404.547C1549.02 402.804 1550.43 401.389 1552.17 401.389C1553.91 401.389 1555.33 402.804 1555.33 404.547Z" fill="#6C9629"/>
    <path d="M1526.6 465.749H1481.32C1480.34 465.749 1479.58 464.987 1479.58 464.007V461.611C1479.58 460.631 1480.34 459.869 1481.32 459.869H1526.6C1527.58 459.869 1528.34 460.631 1528.34 461.611V464.007C1528.34 464.987 1527.58 465.749 1526.6 465.749Z" fill="white"/>
    <path d="M1545.43 473.808H1481.1C1480.34 473.808 1479.58 473.155 1479.58 472.283C1479.58 471.521 1480.23 470.759 1481.1 470.759H1545.43C1546.19 470.759 1546.95 471.412 1546.95 472.283C1546.84 473.155 1546.19 473.808 1545.43 473.808Z" fill="white"/>
    <path d="M1533.34 480.451H1481.1C1480.34 480.451 1479.58 479.798 1479.58 478.926C1479.58 478.164 1480.23 477.402 1481.1 477.402H1533.34C1534.11 477.402 1534.87 478.055 1534.87 478.926C1534.76 479.798 1534.11 480.451 1533.34 480.451Z" fill="white"/>
    <circle cx="596.5" cy="190.5" r="3.5" fill="#D48EFF"/>
    <rect width="40" height="5" rx="2.5" transform="matrix(0.707107 -0.707107 -0.707107 -0.707107 133.536 167)" fill="#DDF3BF"/>
    <rect x="133.536" y="135" width="40" height="5" rx="2.5" transform="rotate(45 133.536 135)" fill="#DDF3BF"/>
    <rect width="40" height="5" rx="2.5" transform="matrix(0.707107 -0.707107 -0.707107 -0.707107 149.536 167)" fill="#82B440"/>
    <rect x="149.536" y="135" width="40" height="5" rx="2.5" transform="rotate(45 149.536 135)" fill="#82B440"/>
    <rect width="40" height="5" rx="2.5" transform="matrix(0.707107 -0.707107 -0.707107 -0.707107 1082.54 429)" fill="#81F0FF"/>
    <rect x="1082.54" y="397" width="40" height="5" rx="2.5" transform="rotate(45 1082.54 397)" fill="#81F0FF"/>
    <path d="M156.656 476.935L150.525 518.049L117.984 492.182L156.656 476.935Z" fill="#F6BFFF"/>
    <circle cx="472.5" cy="454.5" r="7.5" fill="#FFDE9F"/>
    <circle cx="776.5" cy="468.5" r="6.5" fill="#82B440"/>
    <path d="M1722.79 472.96L1718.29 503.132L1694.41 484.149L1722.79 472.96Z" fill="#A0EEFF"/>
    <circle cx="1389.5" cy="454.5" r="7.5" fill="#F2BEFF"/>
    <path d="M1082.5 443L1090.73 457.25H1074.27L1082.5 443Z" fill="#82B440"/>
    <defs>
        <linearGradient id="paint0_linear" x1="1520.63" y1="343.724" x2="1520.63" y2="573.412" gradientUnits="userSpaceOnUse">
            <stop stop-color="white"/>
            <stop offset="1" stop-color="white" stop-opacity="0"/>
        </linearGradient>
        <linearGradient id="paint1_linear" x1="1568.72" y1="343.724" x2="1568.72" y2="573.412" gradientUnits="userSpaceOnUse">
            <stop stop-color="white"/>
            <stop offset="1" stop-color="white" stop-opacity="0"/>
        </linearGradient>
    </defs>
</svg>
