<svg xmlns="http://www.w3.org/2000/svg" xmlns:xlink="http://www.w3.org/1999/xlink" viewBox="0 0 676 598.2"><defs><style>.cls-1,.cls-3,.cls-44{fill:#82b440;}.cls-1,.cls-49,.cls-8,.cls-9{opacity:0.2;}.cls-1,.cls-15,.cls-40,.cls-42,.cls-44,.cls-45,.cls-46,.cls-47,.cls-48,.cls-49,.cls-6,.cls-8,.cls-9{isolation:isolate;}.cls-2{fill:#6c9629;}.cls-4,.cls-47,.cls-48,.cls-49{fill:#bdd692;}.cls-46,.cls-48,.cls-5,.cls-6{opacity:0.3;}.cls-6{fill:#eefaff;}.cls-7{fill:#0a2342;}.cls-8{fill:url(#linear-gradient);}.cls-9{fill:url(#linear-gradient-2);}.cls-10{fill:#9494ed;}.cls-11{fill:#fc7a57;}.cls-12,.cls-15{fill:#fff;}.cls-13,.cls-26,.cls-27,.cls-35,.cls-36,.cls-37,.cls-38,.cls-43{fill:none;}.cls-13,.cls-35,.cls-36,.cls-37,.cls-38{stroke:#82b440;}.cls-13,.cls-26,.cls-27,.cls-35,.cls-36,.cls-37,.cls-38{stroke-miterlimit:10;}.cls-13{stroke-width:2px;}.cls-14{fill:#cced98;}.cls-15{opacity:0.31;}.cls-16{fill:#f7b59c;}.cls-17{fill:#16324f;}.cls-18{fill:#051528;}.cls-19{fill:#4c4051;}.cls-20{fill:#594a5f;}.cls-21{fill:#2c1e56;}.cls-22{fill:#e5a18c;}.cls-23{fill:#eaa18b;}.cls-24{fill:#452e17;}.cls-25{fill:#003051;}.cls-26{stroke:#eaa18b;}.cls-26,.cls-27,.cls-35,.cls-36,.cls-37,.cls-38,.cls-43{stroke-linecap:round;}.cls-26,.cls-27{stroke-width:0.5px;}.cls-27{stroke:#c9806f;}.cls-28{fill:#d8e8b8;}.cls-29{fill:#1a1a47;}.cls-30{fill:#cc5337;}.cls-31{fill:#0b0b3a;}.cls-32{fill:#a3c16f;}.cls-33{fill:#e1efff;}.cls-34{fill:#9ebad8;}.cls-36{stroke-dasharray:11.86 11.86;}.cls-37{stroke-dasharray:11.84 11.84;}.cls-38{stroke-dasharray:12 12;}.cls-39{fill:#cfe3ff;}.cls-40{fill:#94c1f7;}.cls-40,.cls-41,.cls-42,.cls-44,.cls-45,.cls-47{opacity:0.5;}.cls-42{fill:#0f7173;}.cls-43{stroke:#fff;stroke-linejoin:round;stroke-width:1.38px;}.cls-45{fill:#81a8cc;}.cls-46{fill:#9999f1;}.cls-50{fill:#a0eeff;}.cls-51{fill:#f2beff;}</style><linearGradient id="linear-gradient" x1="380.61" y1="-1572.21" x2="380.61" y2="-1801.9" gradientTransform="matrix(1, 0, 0, -1, 0, -1300.21)" gradientUnits="userSpaceOnUse"><stop offset="0" stop-color="#fff"/><stop offset="1" stop-color="#fff" stop-opacity="0"/></linearGradient><linearGradient id="linear-gradient-2" x1="428.71" y1="-1572.21" x2="428.71" y2="-1801.9" xlink:href="#linear-gradient"/></defs><title>right-img</title><g id="Layer_2" data-name="Layer 2"><g id="Layer_1-2" data-name="Layer 1"><path class="cls-1" d="M29.2,579.8s-71.3-83.1,9-173.6c64.8-73,44.1-101.1,41-150.3-2.5-41.6,44.6-103.1,115.3-106.2,115.7-5.1,144.4,32.1,205.9,29.5s89.3-24.2,160.5-15.7c132.3,15.7,114.5,141.2,95.2,235.1s38.6,125.9-3,181.2"/><path class="cls-2" d="M390.6,566.1H278.8L291,518.3l2.7-10.8,5.3-21h71.3l5.4,21,2.7,10.8Z"/><path class="cls-3" d="M378.5,518.3H291l2.7-10.8h82.1Z"/><path class="cls-3" d="M433.6,579.3H236a8.6,8.6,0,0,1,0-17.2H433.6a8.6,8.6,0,0,1,0,17.2Z"/><path class="cls-3" d="M517.2,283.5V493.8a9,9,0,0,1-9,9H161.4a9,9,0,0,1-9-9V283.5a9,9,0,0,1,9-9H508.2A9,9,0,0,1,517.2,283.5Z"/><path class="cls-4" d="M509.8,281.1H159V466.4H509.8Z"/><g class="cls-5"><path class="cls-6" d="M475.1,281.1h-9.8V438.8h9.8Z"/><path class="cls-6" d="M500,281.1h-9.8V438.8H500Z"/><path class="cls-6" d="M176.1,281.1h-9.8V438.8h9.8Z"/><path class="cls-6" d="M201,281.1h-9.8V438.8H201Z"/><path class="cls-6" d="M225.9,281.1h-9.8V438.8h9.8Z"/><path class="cls-6" d="M250.8,281.1H241V438.8h9.8Z"/><path class="cls-6" d="M275.7,281.1h-9.8V438.8h9.8Z"/><path class="cls-6" d="M300.6,281.1h-9.8V438.8h9.8Z"/><path class="cls-6" d="M325.5,281.1h-9.8V438.8h9.8Z"/><path class="cls-6" d="M350.5,281.1h-9.8V438.8h9.8Z"/><path class="cls-6" d="M375.4,281.1h-9.8V438.8h9.8Z"/><path class="cls-6" d="M400.3,281.1h-9.8V438.8h9.8Z"/><path class="cls-6" d="M425.2,281.1h-9.8V438.8h9.8Z"/><path class="cls-6" d="M450.2,281.1h-9.8V438.8h9.8Z"/></g><path class="cls-7" d="M509.8,438.8H159v27.8H509.8Z"/><path class="cls-2" d="M334.8,492.5a8.4,8.4,0,1,1,8.4-8.4A8.4,8.4,0,0,1,334.8,492.5Z"/><path class="cls-8" d="M360.6,502.7H335.9l64.9-228.3h24.6Z"/><path class="cls-9" d="M422.5,502.7H370.2L435,274.5h52.2Z"/><path class="cls-10" d="M496.4,455.3H208.5a2.7,2.7,0,0,1,0-5.4H496.4a2.7,2.7,0,1,1,0,5.4Z"/><path class="cls-11" d="M352.4,449.9v5.4H208.5a2.7,2.7,0,0,1,0-5.4Z"/><path class="cls-12" d="M352.5,457.5a4.9,4.9,0,1,0-4.9-4.9A4.9,4.9,0,0,0,352.5,457.5Z"/><path class="cls-12" d="M193.1,455.1a10.9,10.9,0,1,0-13.1,8.1A10.9,10.9,0,0,0,193.1,455.1Z"/><path class="cls-3" d="M180.8,447.7l6,4.6a.3.3,0,0,1,0,.5l-6,4.6c-.2.2-.5,0-.5-.3v-9.3A.3.3,0,0,1,180.8,447.7Z"/><path class="cls-2" d="M78.1,418.4v22.3a1.2,1.2,0,0,1-.3.9,1.6,1.6,0,0,1-1.3.7H43.7a2,2,0,0,1-1.1-.4V421.1a1.4,1.4,0,0,1,1.4-1.4H67a1.4,1.4,0,0,0,1.4-1.4,1.4,1.4,0,0,1,1.4-1.4h7A1.9,1.9,0,0,1,78.1,418.4Z"/><path class="cls-3" d="M77.8,441.7a1.6,1.6,0,0,1-1.3.7H43.7a2,2,0,0,1-1.1-.4l-.3-.4h0L35,424.7a1.3,1.3,0,0,1,1.2-1.9H68.7a1.3,1.3,0,0,1,1.2.8l6.9,15.6Z"/><path class="cls-13" d="M6.1,580.4H663.4"/><path class="cls-14" d="M232.9,306.7H73.4a1.5,1.5,0,0,1-1.5-1.5V186.4a4.9,4.9,0,0,1,4.9-4.9H227.4a7.2,7.2,0,0,1,7.2,7.2V305.1A1.7,1.7,0,0,1,232.9,306.7Z"/><path class="cls-12" d="M225.2,300.6H81.3a3,3,0,0,1-3.1-3V276.7a3,3,0,0,1,3.1-3.1H225.2a3,3,0,0,1,3,3.1v20.8A3,3,0,0,1,225.2,300.6Z"/><path class="cls-12" d="M226.3,269.2H80.1a1.9,1.9,0,0,1-1.9-2v-7a1.9,1.9,0,0,1,1.9-2H226.3a1.9,1.9,0,0,1,1.9,2v7A1.9,1.9,0,0,1,226.3,269.2Z"/><path class="cls-15" d="M122.7,46.6H37a2.4,2.4,0,1,1,0-4.8h85.7a2.4,2.4,0,0,1,2.4,2.4A2.3,2.3,0,0,1,122.7,46.6Z"/><path class="cls-15" d="M122.7,56.6H37a2.4,2.4,0,1,1,0-4.8h85.7a2.4,2.4,0,1,1,0,4.8Z"/><path class="cls-15" d="M165.5,222.6H79.9a2.4,2.4,0,1,1,0-4.8h85.7a2.4,2.4,0,1,1,0,4.8Z"/><path class="cls-15" d="M165.5,232.5H79.9a2.4,2.4,0,1,1,0-4.8h85.7a2.4,2.4,0,1,1,0,4.8Z"/><path class="cls-15" d="M165.5,242.5H79.9a2.4,2.4,0,1,1,0-4.8h85.7a2.4,2.4,0,1,1,0,4.8Z"/><path class="cls-15" d="M145.4,252.5H79.9a2.4,2.4,0,1,1,0-4.8h65.5a2.4,2.4,0,0,1,2.4,2.4A2.3,2.3,0,0,1,145.4,252.5Z"/><path class="cls-3" d="M189.9,21.3H30.6A1.7,1.7,0,0,0,28.9,23V35.2H191.7V23.1A1.8,1.8,0,0,0,189.9,21.3Z"/><path class="cls-12" d="M167.5,28.3a1.5,1.5,0,1,1-1.5-1.5A1.6,1.6,0,0,1,167.5,28.3Z"/><path class="cls-12" d="M174.9,28.3a1.5,1.5,0,1,1-1.5-1.5A1.5,1.5,0,0,1,174.9,28.3Z"/><path class="cls-12" d="M182.4,28.3a1.5,1.5,0,1,1-1.5-1.5A1.5,1.5,0,0,1,182.4,28.3Z"/><path class="cls-12" d="M228.2,199.4V251a1.5,1.5,0,0,1-1.5,1.5H175.8a1.5,1.5,0,0,1-1.5-1.5V199.4a1.5,1.5,0,0,1,1.5-1.5h50.9A1.4,1.4,0,0,1,228.2,199.4Z"/><path class="cls-2" d="M228.2,242.2v8.7a1.5,1.5,0,0,1-1.5,1.5H201.3l1.1-11.2,10.5-11.5a2.2,2.2,0,0,1,3.2-.1l11.5,11A2.2,2.2,0,0,1,228.2,242.2Z"/><path class="cls-3" d="M221.2,252.5H175.7a1.5,1.5,0,0,1-1.5-1.5v-8.8a2.2,2.2,0,0,1,.7-1.5l15.7-16.4a2.2,2.2,0,0,1,3.2,0Z"/><path class="cls-2" d="M178.2,56.6a6.3,6.3,0,1,1-6.3-6.3A6.3,6.3,0,0,1,178.2,56.6Z"/><path class="cls-16" d="M155.3,474.5s3.3,11.3-8.9,11.3a9.6,9.6,0,0,1-4.5-1.1c-4.5-2.2-5.6-9.8-5.6-9.8,3.8-1,2.5-6.5,2.5-6.5l13.6.3s-.7,3.6.3,4.6S155.3,474.5,155.3,474.5Z"/><path class="cls-11" d="M137.1,474.2s-.8,10.1,8.7,10.1,8.7-6.6,8.1-10.3c9.8.9,20.6,4.8,26,9.4,6.5,8.4,11,21.2,11,21.2a60.4,60.4,0,0,1-6.1,2.4,28.9,28.9,0,0,0-5.6,2.4l-3.8,51.9H115.4l-1-51.9-7.2-2c-4.7-1.5-6.4-3.1-6.4-3.1a106.9,106.9,0,0,1,9-19.4C115.4,479.7,125.7,475.5,137.1,474.2Z"/><path class="cls-16" d="M101.9,504.8s-5.8,20.3-5.2,29.9S120,557.9,120,557.9l2.9-10.2s-9.5-4-10.9-11.4,6.5-25.9,6.5-25.9l-8.4-2.4A46.2,46.2,0,0,1,101.9,504.8Z"/><path class="cls-16" d="M190.2,504.8s5.8,20.3,5.2,29.9-23.4,23.2-23.4,23.2l-2.9-10.2s9.5-4,10.9-11.4-6.9-26.4-6.9-26.4l8.6-2.2A56.6,56.6,0,0,0,190.2,504.8Z"/><path class="cls-4" d="M182.7,562.1H108.5l-1.6-46.5a2.1,2.1,0,0,1,2.2-2.2h73.3a2.2,2.2,0,0,1,2.2,2.2Z"/><path class="cls-17" d="M176.9,572.7a7.4,7.4,0,0,1,5.2-2c2.4-.1,9.1,1.4,12.3,1.4s6.5-.8,8.4,2c3.2,4.7,1.7,8.8-3.5,9.5-2.8.3-5.2-1.5-9.8-1.1s-11.3-1.1-13.3-4.2"/><path class="cls-16" d="M170.5,570.6a45.3,45.3,0,0,0,5.9,1.2c2.4.1,7.6-.4,10,1.1s1.6,6.1,0,7.1-4.8.8-9.7-.8a31,31,0,0,0-10.6-1"/><path class="cls-18" d="M177.8,581.1s-55.1-1-69.7-2.9A71.3,71.3,0,0,1,91.4,574c-6.6-3.9-9-13.3-4.6-21.9,2.1-4,8.5-3.3,9.5-3.3h.3c17.8.7,34.1,5.2,52.5,12.6a208.7,208.7,0,0,0,30.2,9.7C180.2,578.2,177.8,581.1,177.8,581.1Z"/><path class="cls-19" d="M191.1,575.1s-1.4-.8-2,.1a14.5,14.5,0,0,0-.5,5.1c.4,1,2.6.7,2.6.7l1.7-4.7Z"/><path class="cls-17" d="M115.6,572.7s-1.6-2-5.4-2.1-9.5,1.5-12.8,1.4-6.6-.8-8.8,1.4c-4,4.2-.3,9.6,5.2,10.2,2.9.3,3.8-1.3,8.6-.9s11.8-1.1,13.8-4.4"/><path class="cls-16" d="M122,570.6a33.1,33.1,0,0,1-6.2,1.2c-2.5.1-7.9-.5-10.4,1.1s-1.7,6.3,0,7.4,5,.9,10-.7a33.5,33.5,0,0,1,11-1"/><path class="cls-7" d="M201.3,573.9a68.1,68.1,0,0,1-17.7,4.5c-14.7,1.9-69.8,2.7-69.8,2.7s-2.4-2.9-1.4-10a219.2,219.2,0,0,0,30.3-9.6c18-7.1,34-11.5,51.3-12.4,3.4.3,7.3,1.9,10.1,7.6C207.8,564.5,204.9,572.5,201.3,573.9Z"/><path class="cls-20" d="M103.8,573.4s1.9-1,2.5.1,1,5.9.7,6.6-3.3.9-3.3.9l-2.2-6Z"/><path class="cls-21" d="M161.6,442.1s5.1-.5-.7,12.7c-2.2,5-2.9,4.7-2.9,4.9s-2-1.6-2-2.5.1-7.4.2-7.7S161.6,442.1,161.6,442.1Z"/><path class="cls-21" d="M131.6,445.1s-3.9-1.1-2.4,6.8a15.5,15.5,0,0,0,3.9,7.7c0,.2,2-1.6,2-2.5s-.1-7.4-.2-7.7S131.6,445.1,131.6,445.1Z"/><path class="cls-22" d="M132.7,455s-1.6-1.6-2.2.5,1.3,7.7,3.5,5.6"/><path class="cls-22" d="M158.5,455s1.6-1.6,2.2.5-1.3,7.7-3.5,5.6"/><path class="cls-16" d="M146.1,472.1h-.1c-1.5.1-15.3.2-13.6-24.9h26.3C158.7,447.3,161.8,470.6,146.1,472.1Z"/><path class="cls-21" d="M155.1,433.1c5,1.4,8.2,7.7,5.7,12.7s-10.3,7.8-19.2,6c-5.2-1.1-6.9-3.2-10-3a5.5,5.5,0,0,1-5.4-3.6c-1.1-3-1.8-7.2,1.4-9.6C136.2,438,147.6,430.9,155.1,433.1Z"/><path class="cls-12" d="M149.9,536.3a4.8,4.8,0,1,1-4.8-4.8A4.7,4.7,0,0,1,149.9,536.3Z"/><path class="cls-23" d="M139.1,470a8.9,8.9,0,0,0,2,1,11.9,11.9,0,0,0,4.6.8,17.3,17.3,0,0,0,2.5-.3l2.2-.7,2-.9a6.9,6.9,0,0,1-1.9,1.2,8.1,8.1,0,0,1-2.2.9,10.1,10.1,0,0,1-2.6.4,10.3,10.3,0,0,1-2.6-.2,9.9,9.9,0,0,1-2.2-.9A4.5,4.5,0,0,1,139.1,470Z"/><path class="cls-24" d="M140,457.8c.1.9.2,2-.8,2.1s-.9-.3-1-.5a2.8,2.8,0,0,1-.1-1.3C138,457,139.9,456.8,140,457.8Z"/><path class="cls-12" d="M139.5,458.6c0,.2,0,.4-.2.5s-.2,0-.2-.1,0-.2,0-.3S139.5,458.3,139.5,458.6Z"/><path class="cls-24" d="M152,457.8c.1.9.2,2-.8,2.1a1,1,0,0,1-1-.5,2.7,2.7,0,0,1-.1-1.3C150.1,457,151.9,456.8,152,457.8Z"/><path class="cls-12" d="M151.6,458.6c0,.2,0,.4-.2.5s-.2,0-.2-.1,0-.2,0-.3S151.6,458.3,151.6,458.6Z"/><path class="cls-25" d="M153.6,454.6c.1.2,0,0,.1.3s-.2.5-.7.5h-4c-.3,0-.3-.2-.1-.3s1.1-1.1,3.9-1.1A.8.8,0,0,1,153.6,454.6Z"/><path class="cls-25" d="M136.7,454.6c-.1.2,0,0-.1.3s.2.5.7.5h4c.3,0,.3-.2.1-.3s-1.1-1.1-3.9-1.1A.7.7,0,0,0,136.7,454.6Z"/><path class="cls-26" d="M145.1,459.5s-1.2,2.5-.8,3,1.7.5,1.7.5"/><path class="cls-27" d="M142,466.8s3.6,2.2,6.9-.2"/><path class="cls-12" d="M425.4,576.5V478.4a.5.5,0,0,0-.4-.4h-2.4a.5.5,0,0,0-.4.4v98.1a1.3,1.3,0,0,0-1.1,1.3,1.4,1.4,0,0,0,1.4,1.4H425a1.4,1.4,0,0,0,1.4-1.4A1.1,1.1,0,0,0,425.4,576.5Z"/><path class="cls-12" d="M620.1,576.4V478h-3.2v98.4h-.1a1,1,0,0,0-1,1v.8a1,1,0,0,0,1,1h3.4a1,1,0,0,0,1-1v-.8A1,1,0,0,0,620.1,576.4Z"/><path class="cls-14" d="M644.6,479h-250a2.9,2.9,0,1,1,0-5.9H644.8a2.9,2.9,0,0,1,2.9,2.9A3,3,0,0,1,644.6,479Z"/><path class="cls-7" d="M528,469.8H455.8l-14.3-45a3.5,3.5,0,0,1,3.4-4.6h64.9a3.6,3.6,0,0,1,3.4,2.4Z"/><path class="cls-12" d="M526.4,469.8H458.1l-14.4-45.6a1.3,1.3,0,0,1,1.2-1.7h65.5a1.5,1.5,0,0,1,1.4,1.1Z"/><path class="cls-28" d="M483.5,429.5H452a.9.9,0,0,1,0-1.7h31.4a.9.9,0,0,1,.9.9C484.2,429.2,483.9,429.5,483.5,429.5Z"/><path class="cls-28" d="M488.2,433.5H453.1a.9.9,0,0,1,0-1.7h35.2a.9.9,0,0,1,.9.9A.8.8,0,0,1,488.2,433.5Z"/><path class="cls-28" d="M485.1,437.5H454.5a.9.9,0,0,1,0-1.7h30.6a.9.9,0,0,1,.9.9C485.9,437,485.5,437.5,485.1,437.5Z"/><path class="cls-28" d="M480,441.4H455.7a.9.9,0,0,1,0-1.7H480a.9.9,0,0,1,.9.9A.9.9,0,0,1,480,441.4Z"/><path class="cls-28" d="M492.1,445.3H456.9a.9.9,0,0,1,0-1.7h35.2a.9.9,0,0,1,0,1.7Z"/><path class="cls-28" d="M488.8,449.2H458.2a.9.9,0,0,1,0-1.7h30.6a.9.9,0,0,1,0,1.7Z"/><path class="cls-28" d="M495.9,457.1H460.7a.9.9,0,1,1,0-1.7h35.2a.9.9,0,0,1,.9.9A.9.9,0,0,1,495.9,457.1Z"/><path class="cls-28" d="M497.2,461H462a.9.9,0,0,1,0-1.7h35.2a.9.9,0,0,1,.9.9A.9.9,0,0,1,497.2,461Z"/><path class="cls-28" d="M515.8,461H504.5a2.3,2.3,0,0,1-2.3-1.7l-9.5-29.9a2.4,2.4,0,0,1,2.3-3.2h11.3a2.3,2.3,0,0,1,2.3,1.7l9.5,29.9A2.4,2.4,0,0,1,515.8,461Z"/><path class="cls-7" d="M534,473.1H455.5a2.3,2.3,0,0,1,0-4.6H534a2.3,2.3,0,0,1,2.3,2.3A2.2,2.2,0,0,1,534,473.1Z"/><path class="cls-29" d="M541.8,413.1a1.9,1.9,0,0,1-1.5-.9l-2.3-4a1.4,1.4,0,0,1-.1-1.3,1.7,1.7,0,0,1,.9-1.1l6.3-3.4a1.7,1.7,0,0,1,2.3.7l2.2,3.9a1.8,1.8,0,0,1,.1,1.3,1.6,1.6,0,0,1-.9,1l-6.2,3.4A.8.8,0,0,1,541.8,413.1Zm4-10h-.4l-6.3,3.4a.7.7,0,0,0-.4.5,1,1,0,0,0,.1.8l2.3,4a.9.9,0,0,0,1.2.3l6.2-3.4a1.1,1.1,0,0,0,.4-.5.7.7,0,0,0-.1-.7l-2.2-3.9A.8.8,0,0,0,545.8,403.1Z"/><path class="cls-16" d="M529.8,447.9,529,449s-3.8-2.8-4.9-3.2-3.4.4-4.6.7-1.2-1.3-1.2-1.3l-2.6,1c-1.4.5-2.8,1.7-3.3,1.9s-1.6-.2-.9-1.3,6.1-6.2,7.3-6.8,3.7-1.9,5.4-1.2,7.4,4.9,7.4,4.9S530.7,446.8,529.8,447.9Z"/><path class="cls-30" d="M528.4,449s18.7,16.3,32.7,18,37.5-24.8,37.5-24.8-1.5-14.2-10.2-12.4-20.3,22.7-25.5,23.6-31.4-10.1-31.4-10.1a7.1,7.1,0,0,0-1.6,2A16.5,16.5,0,0,0,528.4,449Z"/><path class="cls-16" d="M569.9,385.2c-4.5-5.1-11-5.7-16.1-5.1a16.8,16.8,0,0,0-14.4,11.7,14.6,14.6,0,0,0,.3,9.6c4.1,11.4,8.6,17.8,12,20.9,1.5,1.4,4.7-.5,7.8-1.6a.9.9,0,0,1,1.1.4l1.8,3.4,13.1-2.6a44,44,0,0,1-2.7-7.5C574.2,412.1,578,394.6,569.9,385.2Z"/><path class="cls-31" d="M546.3,401.5a3.4,3.4,0,0,1,3.4,2c1,2.3,2.5,5.6,3.6,6.5a1.1,1.1,0,0,0,1.3,0,.8.8,0,0,0,.5-1,38.1,38.1,0,0,0-1.3-4.6,3,3,0,0,1,2.3-4.2,5.3,5.3,0,0,1,1.8.1c3.5,1.1,1.1,6.5,1,9.4s2.4,6.6,3.4,7.1c3.5,1.4,8.7.1,11.5-3.4s3.4-15,1.8-21.9-7.1-10.8-8.9-11.2a8.5,8.5,0,0,0-2.2-.2,1.7,1.7,0,0,1-1.5-.5c-1.8-1.6-7.3-5.2-16-1.5a20.1,20.1,0,0,0-12.5,19.3c.1,2.9,2.4,2.7,4,2.2a2.6,2.6,0,0,1,2.5.5A7.2,7.2,0,0,0,546.3,401.5Z"/><path class="cls-30" d="M560.1,426.3s-1.2-1.3-.8-2.1,6.4-5.7,13.3-5.4c1.1,0,2.4,0,3.7,2.8a21.4,21.4,0,0,1,1.6,4.7Z"/><path class="cls-11" d="M590.8,509.6l-1.3.3a115.3,115.3,0,0,1-15.3,1.2c-18.7-.3-27.1-10.5-30.2-15.7a21,21,0,0,1-1.5-3,16.8,16.8,0,0,0,6.2-8.6c1.4-4.7-.1-15.8-2.5-19.9-1.3-2.3-5.2-7.1-7.7-12s-3.1-8.4-.9-11.5a42.8,42.8,0,0,1,14.1-12.4s16-6.4,29.5-4.9c8.6.9,16.3,5,18.4,15.8C604.9,466.7,590.8,509.6,590.8,509.6Z"/><path class="cls-16" d="M551.5,564.9a6.1,6.1,0,0,1-3.4,1.9,6.1,6.1,0,0,1-3.9-.8l-1.1-3,7.2-1.5Z"/><path class="cls-16" d="M513.8,568.6a6,6,0,0,1-3.6,1.3,5.8,5.8,0,0,1-3.7-1.3l-.6-3.2h7.4Z"/><path class="cls-18" d="M551.5,561.5l-2.4,1c-2.7.9-6.5,1.7-6.5,1.7-6.2-13.4-16.2-47-16.2-47-1.4-6,2.8-8.4,6.5-8.6a6.5,6.5,0,0,1,3.4.5c3.6,1.5,8.8,11.5,8.8,11.5a58.2,58.2,0,0,1,3.3,10.7C549.8,538.4,551.5,561.5,551.5,561.5Z"/><path class="cls-7" d="M565.5,510.1c0,3.4-1,8.8-6,10.3-7.5,2.3-13.2,1-21.9-.5s-18.9-5.6-22.5-6.9c-.4-.2-.3.1-.3.5,1.6,8.2-1.1,52.5-1.1,52.5l-2.5.5h-1.4c-1.9,0-5.4-.3-5.4-.3s-6.7-31.1-7.8-48.7,0-20.1,8.3-23,37.5-2.4,37.5-2.4a26.6,26.6,0,0,0,8,10.7A34.9,34.9,0,0,0,565.5,510.1Z"/><path class="cls-32" d="M574,527.9v44.9a2.9,2.9,0,0,1-2.9,2.9,3.3,3.3,0,0,1-1.7-.5,2.8,2.8,0,0,1-1.2-2.3V528H574Z"/><path class="cls-14" d="M574,529.8v42.7a2.9,2.9,0,0,1-2.5,2.9,2.7,2.7,0,0,1-1.8-.3l-.3-.5V530.9a1.2,1.2,0,0,1,1.2-1.2H574Z"/><path class="cls-32" d="M577.7,526.3a1.4,1.4,0,0,1-.1.7,1.9,1.9,0,0,1-.7,1.1,2.6,2.6,0,0,1-1.7.8h-8.6a2.5,2.5,0,0,1-2.5-2.5,2.6,2.6,0,0,1,2.5-2.5h8.6A2.5,2.5,0,0,1,577.7,526.3Z"/><path class="cls-14" d="M577.6,527a1.9,1.9,0,0,1-.7,1.1,2.6,2.6,0,0,1-1.7.8h-8.3a2.6,2.6,0,0,1,.7-1.2,2.5,2.5,0,0,1,1.7-.8h8.3Z"/><path class="cls-32" d="M608.4,448.2h0a2,2,0,0,1-.2.9c-.6,2.9-3.1,8.6-3.5,17.2-.2,5.2,0,19.3-.2,27.8,0,1.3-.1,2.4-.1,3.4-.4,7.5-3,18.6-10.8,24.2s-23.9,4.9-33.6,4.7-33.7-4.6-35.6-8.2a3.1,3.1,0,0,1-.4-2.1,2.6,2.6,0,0,1,.8-1.4,3.8,3.8,0,0,1,3.6-.9c3.9,1,15.6,3.3,20.8-3.4s5.6-17.3,8.3-36.9,8.4-24.2,18-27.9,26.7-2.3,30.8-1A3.6,3.6,0,0,1,608.4,448.2Z"/><path class="cls-14" d="M604.7,578.2a1.1,1.1,0,0,1-1.1,1.1h-65a1.1,1.1,0,0,1-1.1-1.1,1.1,1.1,0,0,1,.9-1.1l32.6-5.3,8.2,1.3,24.4,3.9A1.5,1.5,0,0,1,604.7,578.2Z"/><path class="cls-29" d="M506.4,568.6a12.1,12.1,0,0,0,3.7.8,9,9,0,0,0,3.7-.8s3.8,4.8,1.7,10.2a.7.7,0,0,1-.6.4H489.6a.5.5,0,0,1-.6-.5,2,2,0,0,1,1.8-2.1c2.4-.8,4.8-1.1,6.5-1.7s4.5-3.3,5.9-3.8A7.5,7.5,0,0,0,506.4,568.6Z"/><path class="cls-29" d="M544.2,566.1a13.6,13.6,0,0,0,3.8.2,9.3,9.3,0,0,0,3.5-1.3s4.5,4.1,3.4,9.8a.7.7,0,0,1-.7.5s-13.4,3-18,3.7a58.8,58.8,0,0,1-7.2.4c-.3,0-.7-.2-.7-.4a2.2,2.2,0,0,1,1.4-2.4c2.2-1.1,4.6-1.9,6.2-2.8s3.8-3.9,5.2-4.7A9,9,0,0,0,544.2,566.1Z"/><path class="cls-16" d="M493.3,470.7l-3.9-1.5-1.4-.4-1.7-.2H471.3a.7.7,0,0,1-.8-.8,1.9,1.9,0,0,1,.8-1.4l1.6-1,4.8-3c2.4-1.5,4-1.6,6.9-1.4a23.2,23.2,0,0,1,2.9,1c2.7.9,3.4,1.3,5.2,2l1.5.4h.7A8.9,8.9,0,0,1,493.3,470.7Z"/><path class="cls-11" d="M551.2,435.3c-2-1.2-7.8-4.5-15.3,7.3s-9.9,16.8-12.1,20.5c-2.6,1.6-29.3.9-29.3.9a25.8,25.8,0,0,0-2,6.6,96,96,0,0,0,32.9,8.4c14.5,0,29.5-28.4,30.1-31.9S555.8,438.1,551.2,435.3Z"/><path class="cls-29" d="M539,410.4c-.1,0-.3-.1-.3-.2a.4.4,0,0,1,.2-.5l14.7-7.5c1.6-.9,5.1-2.6,7.6,1.1.1.2.1.4-.1.5s-.4.1-.5-.1c-2-2.9-4.3-2.1-6.5-.9l-14.7,7.5Z"/><path class="cls-16" d="M553.4,402.8l2,6.2a2,2,0,0,0,2.9-.2c1.4-1.6,2.7-7.5,0-8.5S554.1,400.8,553.4,402.8Z"/><path class="cls-14" d="M607.8,446a3.3,3.3,0,0,0-2-1.4c-4.1-1.2-20.6-2.9-30.8,1s-15.3,9.4-18,27.9-2,28.9-8.3,36.9-16.9,4.4-20.8,3.4a4,4,0,0,0-3.6.9,3,3,0,0,0-.8,1.4,3.1,3.1,0,0,0,.4,2.1c2,3.6,25.9,7.9,35.6,8.2s25.7,1.2,33.6-4.7,10.3-16.7,10.8-24.2a31.4,31.4,0,0,0,.1-3.4c-.2.7-5.6,15.8-24.4,12.3S560,483,560.6,476.2a14.8,14.8,0,0,0,.2-2.1c.2-1.2,1.2-6.5,2.4-11.1a22.1,22.1,0,0,1,7.2-11.1l1.7-1.1.5-.3.9-.4,1-.4.8-.3c14.8-5.9,30.7-2.1,31.7-1.9S607.9,446.3,607.8,446Z"/><path class="cls-33" d="M204.9,589.7l1.6-4.4s25.7,1.2,37.9,8.8l-23.2.4Z"/><path class="cls-33" d="M284.1,589.7l-1.6-4.4s-25.7,1.2-37.9,8.8l23.2.4Z"/><path class="cls-34" d="M244.6,594.3c-13.9-5.4-40.9-5.8-40.9-5.8v9.1h81.8v-9.1C285.4,588.4,258.5,588.9,244.6,594.3Z"/><path class="cls-7" d="M288.5,595.1H200.5v3.2h88.1Z"/><path class="cls-14" d="M467.5,262l7.7-5.1a10.7,10.7,0,0,0,5.6,1.6h37.3a10.3,10.3,0,0,0,10.3-10.3V236.4a10.3,10.3,0,0,0-10.3-10.3H480.7a10.3,10.3,0,0,0-10.3,10.3v11.8a10.4,10.4,0,0,0,1.7,5.8Zm13.3-10.1a1,1,0,0,1,1-1h35.9a1,1,0,0,1,0,2H481.7A1,1,0,0,1,480.7,251.9Zm36.9-3.9H498.7a1,1,0,0,1,0-2h18.9a1,1,0,0,1,1,1C518.5,247.6,518.2,248,517.6,248Zm-36.9-5.8a1,1,0,0,1,1-1h35.9a1,1,0,0,1,0,2H481.7C481.2,243.1,480.7,242.8,480.7,242.2Zm36.9-3.9H491.1a1,1,0,0,1,0-2h26.6a1,1,0,0,1,1,1C518.5,237.9,518.2,238.3,517.6,238.3Zm-36.9-5.8a1,1,0,0,1,1-1h35.9a1,1,0,0,1,0,2H481.7A1.2,1.2,0,0,1,480.7,232.5Z"/><path class="cls-35" d="M145.1,356.3h-6.5"/><path class="cls-36" d="M133.2,356.3h-42a4.4,4.4,0,0,0-4.4,4.4V527a3.4,3.4,0,0,0,.3,1.5"/><path class="cls-35" d="M88.7,530.7a4.6,4.6,0,0,0,2.5.8h3.9"/><path class="cls-35" d="M524.3,300.6h6.5"/><path class="cls-37" d="M536.1,300.6h91.3a7.8,7.8,0,0,1,7.7,7.7V443.1a7.8,7.8,0,0,1-7.7,7.7h-2.6"/><path class="cls-35" d="M622.2,450.9h-6.5"/><path class="cls-38" d="M241,197.8h62.2a12.6,12.6,0,0,1,12.6,12.6v59.5"/><path class="cls-12" d="M431.1,461.7s-7.2-4.2-8.8-12.5c0,0,6.7,1.4,10.2,12.5"/><path class="cls-12" d="M433.9,461.7s7.2-4.2,8.8-12.5c0,0-6.7,1.4-10.2,12.5"/><path class="cls-12" d="M431.8,461s-5.2-6.5-3.7-14.8c0,0,5.9,3.8,5,15.4"/><path class="cls-12" d="M433.5,461s5-6.6,3.3-14.9c0,0-5.8,3.9-4.7,15.5"/><path class="cls-39" d="M440.2,459.9H424.5v13.2h15.8Z"/><path class="cls-40" d="M429.1,459.9h-4.7v13.2h4.7Z"/><g class="cls-41"><g class="cls-41"><g class="cls-41"><path class="cls-42" d="M585.2,381.1l-7.2,3.8,3.6-9.3"/></g><path class="cls-42" d="M607.2,369.3a15,15,0,1,1-15-15A14.8,14.8,0,0,1,607.2,369.3Z"/></g></g><path class="cls-43" d="M585.9,367.8l4.6,5.8,8.1-8.5"/><path class="cls-7" d="M118.5,430.5l7.2,3.8-3.6-9.3"/><path class="cls-7" d="M96.5,418.7a15,15,0,1,0,15-15A15.1,15.1,0,0,0,96.5,418.7Z"/><path class="cls-43" d="M105.2,417.3l4.6,5.7,8.1-8.5"/><path class="cls-12" d="M597.7,289.8H539.3a2,2,0,0,1-2-2V228.7a2,2,0,0,1,2-2h58.4a2,2,0,0,1,2,2V288A1.9,1.9,0,0,1,597.7,289.8Z"/><g class="cls-41"><path class="cls-44" d="M584.8,255.1a17.6,17.6,0,0,1-1.6,7.5,18.3,18.3,0,0,1-1.8,3.2,13.2,13.2,0,0,1-1.6,1.9l-1.5,1.4a15.5,15.5,0,0,1-2.6,1.7l-2.2,1.1a18.7,18.7,0,0,1-5.4,1.2h-1.1a17.7,17.7,0,0,1-11.3-4,18.1,18.1,0,0,1-6.6-13.9,17.3,17.3,0,0,1,1.5-7.2,17.7,17.7,0,0,1,12.3-10.2h.2l1.7-.3h2.2a17.9,17.9,0,0,1,15.8,9.5,4.3,4.3,0,0,1,.5,1.2A15.5,15.5,0,0,1,584.8,255.1Z"/><g class="cls-41"><g class="cls-41"><path class="cls-45" d="M571.3,271c.1.9-1,1.4-1.9,1.6l-1.5.3h-1.1a18,18,0,0,1-11.3-4v-.4a7.8,7.8,0,0,1,.4-2.1,8.4,8.4,0,0,0,.2-1.7,1.4,1.4,0,0,0-.1-.7l-.4-.2a2.3,2.3,0,0,1-1.3-2.7c.9-2.2,3.9-1.4,2-6.9-.4-1.2.4-1.4.4-1.7s-2.8-.5-3.6-.7-1-.1-1.3-.4a1.8,1.8,0,0,1-.4-.8,9.6,9.6,0,0,1-.8-3,18.2,18.2,0,0,1,12.5-10.3v.5c-.2,2.1-.3,4.1-.4,6.1a3.7,3.7,0,0,1-.1,1.1,1.8,1.8,0,0,1-2,1c-.3,0-.7-.1-.9,0s-.3.9-.3,1.3-.9,1.4-1.3,2.1-.7,1.7,0,2.2.4.1.5.3a.6.6,0,0,1-.3.8c-.2.1-.5.2-.6.4a1.2,1.2,0,0,0,.3,1.5,6.2,6.2,0,0,1,1.3,1.1c.4.5.5,1.3,1,1.9s3.6-.1,4.8,1.2.7,1.6,1.2,2.3a5.8,5.8,0,0,0,1.3,1,4.3,4.3,0,0,1,1.8,3.2c.1,1.3-.4,2.9.5,3.9S571.2,270.1,571.3,271Z"/></g><g class="cls-41"><path class="cls-45" d="M582.6,246.5h-1.2a.8.8,0,0,0-.1.5,2,2,0,0,1-.7,1.5l-.3.2c-.3.1-.5-.3-.6-.7l-1-2.6a2.7,2.7,0,0,0-.4-.8c-.4-.3-1-.2-1.4-.4s-.8-1.2-1.4-1.1-.4.8-.3,1.3.3,1.1,0,1.4-1,0-1.3-.4-.5-1-1.1-1.2-1.4.3-1.8,1-.8,1.4-1.4,1.6a4,4,0,0,0-1.1.3c-.7.3-.7,1.3-.4,2.1s.5,1.5.2,2.2-.1.2-.3.3-.5-.2-.8-.4a23.6,23.6,0,0,1-2.8-4.5c-.1-.3-.3-.7-.2-1a1.5,1.5,0,0,1,.2-.7,15.9,15.9,0,0,0,.1-2.3c.1-1.3,1.2-2.5.8-3.7a6.4,6.4,0,0,0-.7-1.2,1.1,1.1,0,0,1,.1-1.3h2.2A18.4,18.4,0,0,1,582.6,246.5Z"/></g><g class="cls-41"><path class="cls-45" d="M584.8,255.1a17.6,17.6,0,0,1-1.6,7.5,18.3,18.3,0,0,1-1.8,3.2v-.3a2.7,2.7,0,0,1,.2-1.3l.4-.7a4.3,4.3,0,0,0,.2-2.1,2.1,2.1,0,0,0-.3-1.1c-.2-.2-.4-.2-.5-.4s-.2-1.1-.2-1.6,0-1.3-.4-1.5a15.4,15.4,0,0,1-2.1,2.4c.1-.7-.7-1.1-1.2-1a1.6,1.6,0,0,0-.9,1.4c-.5,0-.7-.8-.5-1.2l.3-2.6c-.5-.2-1,.7-1.6.8s-1-.4-1.1-.9.2-1,.4-1.5l.8-1.6a3.6,3.6,0,0,1,1.4-1.9,4.2,4.2,0,0,1,2.8.1,2.9,2.9,0,0,0,2.7-.3,2.7,2.7,0,0,0,.7-1.5c.1-.4.2-1,.7-1.2A15.8,15.8,0,0,1,584.8,255.1Z"/></g></g><path class="cls-46" d="M580.5,266.7l-.8.9-1.5,1.4a15.5,15.5,0,0,1-2.6,1.7l-2.2,1.1A18.7,18.7,0,0,1,568,273h-1.1a17.7,17.7,0,0,1-11.3-4,18.1,18.1,0,0,1-6.6-13.9,17.3,17.3,0,0,1,1.5-7.2,17.7,17.7,0,0,1,12.3-10.2h.2l1.8-.3h.1a17.4,17.4,0,0,0-4.1,5.9,16.6,16.6,0,0,0-1.4,7,17.2,17.2,0,0,0,17.3,17.2h1.1Z"/><path class="cls-47" d="M588.8,255a22,22,0,0,0-22.1-22.1,1.2,1.2,0,1,0,0,2.4,20.5,20.5,0,0,1,12.6,4.5,19.9,19.9,0,0,1-12.6,35.2,19.6,19.6,0,0,1-15.3-7.3,1.1,1.1,0,0,0-1.6-.1,1.1,1.1,0,0,0-.4.8,2,2,0,0,0,.2.9,21.8,21.8,0,0,0,15.8,8.1V281h-6.6a1.4,1.4,0,0,0,0,2.8h16.2a1.4,1.4,0,0,0,0-2.8h-6.6v-3.9A22.2,22.2,0,0,0,588.8,255Z"/></g><path class="cls-4" d="M253,534a6,6,0,1,1-6.7-5.2A6,6,0,0,1,253,534Z"/><path class="cls-4" d="M244.4,535.4l2.7,2,2.6-4.7"/><path class="cls-4" d="M269.4,214.9a6.1,6.1,0,1,1-7.6-3.9A6.1,6.1,0,0,1,269.4,214.9Z"/><path class="cls-4" d="M218.3,62l2.9,1.4,1.7-5.1"/><path class="cls-4" d="M595.3,327.3a9.3,9.3,0,1,1-8.6-9.9A9.1,9.1,0,0,1,595.3,327.3Z"/><path class="cls-4" d="M582.1,326.7l3.4,3.8,5.3-6.2"/><path class="cls-4" d="M566.9,326.3a2.2,2.2,0,1,1-2.2-2.2A2.1,2.1,0,0,1,566.9,326.3Z"/><path class="cls-4" d="M449.1,16.9a2.2,2.2,0,1,1-2.2-2.2A2.3,2.3,0,0,1,449.1,16.9Z"/><path class="cls-4" d="M128.9,376.3a3.6,3.6,0,1,1-3.6-3.6A3.6,3.6,0,0,1,128.9,376.3Z"/><path class="cls-4" d="M669.6,412.3a5.4,5.4,0,1,1-5.4-5.4A5.4,5.4,0,0,1,669.6,412.3Z"/><path class="cls-48" d="M71.4,336.6a5.4,5.4,0,1,1-5.4-5.4A5.5,5.5,0,0,1,71.4,336.6Z"/><path class="cls-48" d="M624.6,461.7a3.6,3.6,0,1,1-3.6-3.6A3.6,3.6,0,0,1,624.6,461.7Z"/><path class="cls-4" d="M304.1,29.8a3.6,3.6,0,1,1-3.6-3.6A3.6,3.6,0,0,1,304.1,29.8Z"/><path class="cls-49" d="M370.4,12a3.6,3.6,0,1,1-3.6-3.6A3.6,3.6,0,0,1,370.4,12Z"/><path class="cls-4" d="M61.5,288.5a.7.7,0,0,1-.8-.8v-5a.8.8,0,0,1,1.5,0v5A.7.7,0,0,1,61.5,288.5Z"/><path class="cls-4" d="M64,286H59a.8.8,0,0,1,0-1.5h5a.8.8,0,0,1,0,1.5Z"/><g class="cls-5"><g class="cls-5"><g class="cls-5"><path class="cls-48" d="M58,6.4a.7.7,0,0,1-.8-.8V.8a.8.8,0,0,1,1.5,0v5A.8.8,0,0,1,58,6.4Z"/></g><g class="cls-5"><path class="cls-48" d="M60.5,3.9h-5a.7.7,0,0,1-.8-.8.7.7,0,0,1,.8-.8h5a.7.7,0,0,1,.8.8A.7.7,0,0,1,60.5,3.9Z"/></g></g></g><path class="cls-4" d="M518.1,222.4a.7.7,0,0,1-.8-.8v-4.9a.8.8,0,0,1,1.5,0v5C518.8,222.2,518.5,222.4,518.1,222.4Z"/><path class="cls-4" d="M477.7,63.9h-5a.8.8,0,0,1,0-1.5h5a.7.7,0,0,1,.8.8A.7.7,0,0,1,477.7,63.9Z"/><path class="cls-4" d="M672.7,487.4a.7.7,0,0,1-.8-.8v-5a.8.8,0,0,1,1.5,0v5A.7.7,0,0,1,672.7,487.4Z"/><path class="cls-4" d="M675.2,484.9h-5a.8.8,0,0,1,0-1.5h5a.8.8,0,0,1,0,1.5Z"/><path class="cls-12" d="M505.4,286.7v38.2a1.2,1.2,0,0,1-1.2,1.2H466.4a1.2,1.2,0,0,1-1.2-1.2V286.7a1.2,1.2,0,0,1,1.2-1.2h37.9A1.2,1.2,0,0,1,505.4,286.7Z"/><path class="cls-2" d="M505.4,318.7v6.2a1.2,1.2,0,0,1-1.2,1.2H485.5l.8-8.4,7.3-8.2a2.2,2.2,0,0,1,3.2-.1l8.1,7.6A2.4,2.4,0,0,1,505.4,318.7Z"/><path class="cls-3" d="M500.2,326.1H466.5a1.2,1.2,0,0,1-1.2-1.2v-7.2l11.6-12.2a2.2,2.2,0,0,1,3.2,0Z"/><path class="cls-2" d="M500.1,296.5a4.7,4.7,0,1,1-4.7-4.7A4.7,4.7,0,0,1,500.1,296.5Z"/><path class="cls-12" d="M504.6,332.6H466.2a.9.9,0,0,1-.9-.9V330a.9.9,0,0,1,.9-.9h38.4a.9.9,0,0,1,.9.9v1.9A.8.8,0,0,1,504.6,332.6Z"/><path class="cls-12" d="M504.6,338.9H466.2a.9.9,0,0,1-.9-.9v-1.9a.9.9,0,0,1,.9-.9h38.4a.9.9,0,0,1,.9.9v1.9A.9.9,0,0,1,504.6,338.9Z"/><path class="cls-14" d="M328.6,380.6H249.1a1.5,1.5,0,0,1-1.5-1.5V322a4.9,4.9,0,0,1,4.9-4.9h70.4a7.2,7.2,0,0,1,7.2,7.2V379A1.6,1.6,0,0,1,328.6,380.6Z"/><path class="cls-12" d="M323.9,377.5h-70a3,3,0,0,1-3.1-3v-7.5a3,3,0,0,1,3.1-3h70a3,3,0,0,1,3,3v7.5A3,3,0,0,1,323.9,377.5Z"/><path class="cls-12" d="M325,361.6H252.8a2,2,0,0,1-2-2V358a2,2,0,0,1,2-2H325a2,2,0,0,1,2,2v1.6A2,2,0,0,1,325,361.6Z"/><path class="cls-15" d="M295.2,327.8H251.7a1.2,1.2,0,0,1,0-2.4h43.4a1.2,1.2,0,1,1,0,2.4Z"/><path class="cls-15" d="M295.2,332.8H251.7a1.2,1.2,0,0,1,0-2.4h43.4a1.2,1.2,0,1,1,0,2.4Z"/><path class="cls-15" d="M295.2,337.9H251.7a1.2,1.2,0,0,1,0-2.4h43.4a1.2,1.2,0,1,1,0,2.4Z"/><path class="cls-15" d="M295.2,343H251.7a1.2,1.2,0,0,1,0-2.4h43.4a1.2,1.2,0,1,1,0,2.4Z"/><path class="cls-15" d="M295.2,348.1H251.7a1.2,1.2,0,0,1,0-2.4h43.4a1.2,1.2,0,1,1,0,2.4Z"/><path class="cls-15" d="M284.9,353.1H251.7a1.2,1.2,0,0,1,0-2.4h33.2a1.2,1.2,0,0,1,1.2,1.2A1.1,1.1,0,0,1,284.9,353.1Z"/><path class="cls-3" d="M329.3,315H248.5a.9.9,0,0,0-.9.9V322h82.5v-6.2A.8.8,0,0,0,329.3,315Z"/><path class="cls-12" d="M317.9,318.5a.8.8,0,1,1-.8-.8A.8.8,0,0,1,317.9,318.5Z"/><path class="cls-12" d="M321.7,318.5a.8.8,0,1,1-.8-.8A.8.8,0,0,1,321.7,318.5Z"/><path class="cls-12" d="M325.4,318.5a.8.8,0,1,1-.8-.8A.8.8,0,0,1,325.4,318.5Z"/><path class="cls-12" d="M326.9,326.2v26.1a.7.7,0,0,1-.8.8H300.3a.7.7,0,0,1-.8-.8V326.2a.7.7,0,0,1,.8-.8h25.9C326.6,325.3,326.9,325.7,326.9,326.2Z"/><path class="cls-2" d="M326.9,348.3v3.9a.7.7,0,0,1-.8.8H313.3l.5-5.7,4.6-5a2.2,2.2,0,0,1,3.2-.1l4.8,4.5A3.3,3.3,0,0,1,326.9,348.3Z"/><path class="cls-3" d="M323.4,353.1H300.3a.7.7,0,0,1-.8-.8v-4a2.1,2.1,0,0,1,.7-1.5l6.8-7.2a2.2,2.2,0,0,1,3.2,0Z"/><path class="cls-2" d="M323.4,332.8a3.2,3.2,0,1,1-3.2-3.2A3.2,3.2,0,0,1,323.4,332.8Z"/><path class="cls-12" d="M294.6,394H249.3a1.7,1.7,0,0,1-1.7-1.7v-2.4a1.7,1.7,0,0,1,1.7-1.7h45.3a1.7,1.7,0,0,1,1.7,1.7v2.4A1.7,1.7,0,0,1,294.6,394Z"/><path class="cls-12" d="M313.5,402.1H249.1a1.5,1.5,0,0,1,0-3h64.3a1.6,1.6,0,0,1,1.5,1.5A1.6,1.6,0,0,1,313.5,402.1Z"/><path class="cls-12" d="M301.4,408.7H249.1a1.5,1.5,0,0,1,0-3h52.2a1.6,1.6,0,0,1,1.5,1.5A1.5,1.5,0,0,1,301.4,408.7Z"/><path class="cls-14" d="M420.5,380.6H341.1a1.5,1.5,0,0,1-1.5-1.5V322a4.9,4.9,0,0,1,4.9-4.9h70.4a7.2,7.2,0,0,1,7.2,7.2V379A1.6,1.6,0,0,1,420.5,380.6Z"/><path class="cls-12" d="M415.9,377.5h-70a3,3,0,0,1-3.1-3v-7.5a3,3,0,0,1,3.1-3h70a3,3,0,0,1,3.1,3v7.5A3,3,0,0,1,415.9,377.5Z"/><path class="cls-12" d="M417,361.6H344.8a2,2,0,0,1-2-2V358a2,2,0,0,1,2-2H417a2,2,0,0,1,2,2v1.6A2,2,0,0,1,417,361.6Z"/><path class="cls-15" d="M387.1,327.8H343.7a1.2,1.2,0,0,1,0-2.4h43.4a1.2,1.2,0,1,1,0,2.4Z"/><path class="cls-15" d="M387.1,332.8H343.7a1.2,1.2,0,0,1,0-2.4h43.4a1.2,1.2,0,1,1,0,2.4Z"/><path class="cls-15" d="M387.1,337.9H343.7a1.2,1.2,0,0,1,0-2.4h43.4a1.2,1.2,0,1,1,0,2.4Z"/><path class="cls-15" d="M387.1,343H343.7a1.2,1.2,0,0,1,0-2.4h43.4a1.2,1.2,0,1,1,0,2.4Z"/><path class="cls-15" d="M387.1,348.1H343.7a1.2,1.2,0,0,1,0-2.4h43.4a1.2,1.2,0,1,1,0,2.4Z"/><path class="cls-15" d="M376.9,353.1H343.7a1.2,1.2,0,0,1,0-2.4h33.2a1.2,1.2,0,0,1,1.2,1.2A1.1,1.1,0,0,1,376.9,353.1Z"/><path class="cls-3" d="M421.3,315H340.4a.9.9,0,0,0-.9.9V322h82.5v-6.2A.8.8,0,0,0,421.3,315Z"/><path class="cls-12" d="M409.9,318.5a.8.8,0,1,1-.8-.8A.8.8,0,0,1,409.9,318.5Z"/><path class="cls-12" d="M413.7,318.5a.8.8,0,1,1-.8-.8A.9.9,0,0,1,413.7,318.5Z"/><path class="cls-12" d="M417.4,318.5a.8.8,0,1,1-.8-.8A.8.8,0,0,1,417.4,318.5Z"/><path class="cls-12" d="M418.9,326.2v26.1a.7.7,0,0,1-.8.8H392.3a.7.7,0,0,1-.8-.8V326.2a.7.7,0,0,1,.8-.8h25.9C418.6,325.3,418.9,325.7,418.9,326.2Z"/><path class="cls-2" d="M418.9,348.3v3.9a.7.7,0,0,1-.8.8H405.3l.5-5.7,4.6-5a2.2,2.2,0,0,1,3.2-.1l4.8,4.5A3.3,3.3,0,0,1,418.9,348.3Z"/><path class="cls-3" d="M415.3,353.1H392.3a.7.7,0,0,1-.8-.8v-4a2.1,2.1,0,0,1,.7-1.5l6.8-7.2a2.2,2.2,0,0,1,3.2,0Z"/><path class="cls-2" d="M415.3,332.8a3.2,3.2,0,1,1-3.2-3.2A3.2,3.2,0,0,1,415.3,332.8Z"/><path class="cls-12" d="M386.6,394H341.3a1.7,1.7,0,0,1-1.7-1.7v-2.4a1.7,1.7,0,0,1,1.7-1.7h45.3a1.7,1.7,0,0,1,1.7,1.7v2.4A1.7,1.7,0,0,1,386.6,394Z"/><path class="cls-12" d="M405.4,402.1H341.1a1.5,1.5,0,0,1,0-3h64.3a1.6,1.6,0,0,1,1.5,1.5A1.6,1.6,0,0,1,405.4,402.1Z"/><path class="cls-12" d="M393.3,408.7H341.1a1.5,1.5,0,0,1,0-3h52.2a1.6,1.6,0,0,1,1.5,1.5A1.6,1.6,0,0,1,393.3,408.7Z"/><path class="cls-50" d="M582.8,401.2l-4.5,30.2-23.9-19Z"/><circle class="cls-51" cx="249.5" cy="382.8" r="7.5"/></g></g></svg>