<svg id="color" height="512" viewBox="0 0 24 24" width="512" xmlns="http://www.w3.org/2000/svg"><circle cx="12" cy="12" fill="#ffd54f" r="12"/><path d="M9.414 7.586L7.331 5.502A.75.75 0 106.27 6.563l.72.72C6.401 7.632 6 8.267 6 9c0 1.103.897 2 2 2s2-.897 2-2c0-.533-.207-1.034-.584-1.41l-.002-.004zm7.595-.303l.72-.72a.75.75 0 10-1.061-1.061l-2.083 2.083-.002.004A2.002 2.002 0 0016 11c1.103 0 2-.897 2-2 0-.733-.401-1.368-.991-1.717z" fill="#6d4c41"/><path d="M19.458 18.002C18.35 14.842 15.353 12.72 12 12.72s-6.35 2.123-7.458 5.282A.751.751 0 005.25 19h13.5a.749.749 0 00.708-.998z" fill="#e53935"/></svg>