<svg id="color" height="512" viewBox="0 0 24 24" width="512" xmlns="http://www.w3.org/2000/svg"><circle cx="12" cy="12" fill="#ffd54f" r="12"/><path d="M12.25 21a.75.75 0 010-1.5 7.165 7.165 0 005.767-2.937.75.75 0 111.212.884A8.67 8.67 0 0112.25 21z" fill="#6d4c41"/><path d="M20.842 7.175c-.252-.031-5.922-.708-8.842.851-2.92-1.558-8.59-.882-8.842-.851a.75.75 0 00-.658.744c0 2.109.97 6.097 4.639 6.097 2.462 0 4.013-1.559 4.861-3.087.848 1.528 2.4 3.087 4.861 3.087 3.669 0 4.639-3.988 4.639-6.097a.75.75 0 00-.658-.744z" fill="#455a64"/></svg>