<svg id="color" height="512" viewBox="0 0 24 24" width="512" xmlns="http://www.w3.org/2000/svg"><circle cx="12" cy="12" fill="#ffd54f" r="12"/><g fill="#6d4c41"><circle cx="7" cy="9" r="2"/><circle cx="17" cy="9" r="2"/><path d="M14.75 19.639a.744.744 0 01-.53-.22c-1.186-1.186-3.254-1.186-4.439 0a.75.75 0 11-1.061-1.061C9.596 17.482 10.761 17 12 17s2.404.482 3.28 1.359a.75.75 0 01-.53 1.28z"/></g><path d="M18.617 12.074c-.28-.405-.954-.405-1.234 0C16.967 12.676 16 14.166 16 15c0 1.103.897 2 2 2s2-.897 2-2c0-.834-.967-2.324-1.383-2.926z" fill="#00bcd4"/></svg>