<svg id="color" height="512" viewBox="0 0 24 24" width="512" xmlns="http://www.w3.org/2000/svg"><circle cx="12" cy="12" fill="#ffd54f" r="12"/><path d="M20.47 14.97c-.23.73-.53 1.4-.92 2.03H4.45c-.39-.63-.69-1.3-.92-2.03a.713.713 0 01.12-.66c.14-.2.36-.31.6-.31h15.5c.24 0 .46.11.6.31.15.19.19.43.12.66z" fill="#fff"/><path d="M19.55 17c-1.58 2.59-4.41 4.22-7.55 4.22S6.03 19.59 4.45 17z" fill="#e53935"/><path d="M6.751 11a.748.748 0 01-.431-1.364L7.942 8.5 6.32 7.364a.748.748 0 01-.184-1.044.747.747 0 011.044-.184l2.5 1.75a.747.747 0 010 1.228l-2.5 1.75a.744.744 0 01-.429.136zm10.498 0a.744.744 0 01-.429-.136l-2.5-1.75a.747.747 0 010-1.228l2.5-1.75a.749.749 0 11.859 1.228L16.058 8.5l1.622 1.136A.75.75 0 0117.249 11z" fill="#6d4c41"/></svg>