<svg id="color" height="512" viewBox="0 0 24 24" width="512" xmlns="http://www.w3.org/2000/svg"><circle cx="12" cy="12" fill="#ffd54f" r="12"/><g fill="#6d4c41"><path d="M10.751 20a.749.749 0 01-.336-1.421l1.277-.639-1.328-.797a.75.75 0 010-1.286l1.328-.797-1.277-.639a.75.75 0 11.67-1.341l2.5 1.25a.75.75 0 01.051 1.314l-1.428.856 1.428.857a.75.75 0 01-.051 1.314l-2.5 1.25a.741.741 0 01-.334.079z"/><circle cx="7" cy="9" r="2"/><circle cx="17" cy="9" r="2"/></g><path d="M21.555 16c-.579 0-1.125.195-1.555.531A2.526 2.526 0 0018.445 16C17.097 16 16 17.048 16 18.335c0 2.007 2.975 4.185 3.57 4.601a.752.752 0 00.86 0c.595-.416 3.57-2.593 3.57-4.601C24 17.048 22.903 16 21.555 16z" fill="#e53935"/></svg>