<svg id="color" height="512" viewBox="0 0 24 24" width="512" xmlns="http://www.w3.org/2000/svg"><circle cx="12" cy="12" fill="#ffd54f" r="12"/><path d="M21.555.964c-.579 0-1.125.195-1.555.531a2.526 2.526 0 00-1.555-.531C17.097.964 16 2.012 16 3.3c0 2.007 2.975 4.185 3.57 4.601a.754.754 0 00.86 0C21.025 7.484 24 5.307 24 3.3 24 2.012 22.903.964 21.555.964zm-16 16c-.579 0-1.125.195-1.555.531a2.526 2.526 0 00-1.555-.531C1.097 16.964 0 18.012 0 19.3c0 2.007 2.975 4.185 3.57 4.601a.754.754 0 00.86 0C5.025 23.484 8 21.307 8 19.3c0-1.288-1.097-2.336-2.445-2.336z" fill="#e53935"/><path d="M9.25 11.25a.75.75 0 01-.75-.75 1.001 1.001 0 00-2 0 .75.75 0 01-1.5 0C5 9.122 6.121 8 7.5 8S10 9.122 10 10.5a.75.75 0 01-.75.75zm9 0a.75.75 0 01-.75-.75 1.001 1.001 0 00-2 0 .75.75 0 01-1.5 0C14 9.122 15.121 8 16.5 8S19 9.122 19 10.5a.75.75 0 01-.75.75zM12 18a8.116 8.116 0 01-5.78-2.395.75.75 0 111.061-1.061C8.541 15.806 10.217 16.5 12 16.5s3.459-.694 4.72-1.955a.75.75 0 111.061 1.061A8.123 8.123 0 0112 18z" fill="#6d4c41"/></svg>