<svg id="Layer_1" data-name="Layer 1" xmlns="http://www.w3.org/2000/svg" viewBox="0 0 256 256"><defs><style>.cls-1{fill:#066a93;}.cls-2{fill:#4b8ecc;}.cls-3{fill:#fff;}</style></defs><title>icon </title><path class="cls-1" d="M215.82,166.69a2.69,2.69,0,0,0-.35.55c-1.55,4.25-4.42,6.29-9,6.31-7.76,0-15.51,0-23.26,0H113.09c-3.78,0-5.07-1.26-5.1-5,0-3.27,0-6.54,0-9.82s1.41-4.66,4.78-4.66h96.48v-2q0-40.57,0-81.14c0-3-.49-3.48-3.49-3.49H71.41c-3.14,0-3.57.44-3.57,3.61q0,11.1,0,22.22c0,2.1-.1,2.24-2.25,2.23-4.76,0-4.32.48-4.33-4.36,0-6.78.13-13.56,0-20.33s4.54-10,10-10q66.67.18,133.33,0c5.47,0,9.36,1.61,11.2,7Zm-77.27-8.36a3.84,3.84,0,0,0-.08,7.68,3.84,3.84,0,1,0,.08-7.68Z"/><path class="cls-2" d="M39.41,149.51q0-19.8,0-39.61c0-4.54,2.08-6.62,6.62-6.62q23.78,0,47.54,0c4.55,0,6.64,2,6.64,6.61q0,39.78,0,79.57c0,4.45-2.12,6.53-6.54,6.54H46c-4.43,0-6.55-2.12-6.55-6.53Q39.4,169.49,39.41,149.51Zm56,.3q0-16.44,0-32.9c0-2.16-.33-2.48-2.5-2.48q-23.09,0-46.17,0c-2.29,0-2.53.26-2.53,2.6v65.29c0,2.47.16,2.63,2.65,2.63H92.7c2.52,0,2.74-.21,2.74-2.75ZM69.86,111.1c1.77,0,3.56.08,5.32,0,.6,0,1.16-.64,1.74-1-.54-.37-1.07-1.06-1.62-1.07-3.67-.1-7.34-.09-11,0-.52,0-1,.63-1.55,1,.54.38,1,1,1.61,1.08C66.19,111.18,68,111.09,69.86,111.1Zm2.71,78.06a2.83,2.83,0,1,0-5.65.07,2.83,2.83,0,1,0,5.65-.07Z"/><path class="cls-1" d="M141.94,195.37h-31.5c-2.32,0-2.47-.15-2.47-2.42,0-1,0-1.95,0-2.92,0-2.43.16-2.59,2.68-2.59h11.87c2.23,0,2.37-.15,2.39-2.32,0-5.3-.63-4.87,4.9-4.87h22c2.28,0,2.52.27,2.54,2.6,0,5.2-.56,4.57,4.59,4.59,4.71,0,9.41,0,14.12,0,3,0,3,.07,3,3.12v2.24c0,2.39-.18,2.57-2.53,2.57Z"/><path class="cls-3" d="M138.55,158.33a3.84,3.84,0,1,1-3.83,3.79A3.82,3.82,0,0,1,138.55,158.33Z"/><path class="cls-3" d="M95.44,149.81V182.2c0,2.54-.22,2.75-2.74,2.75H46.88c-2.49,0-2.65-.16-2.65-2.63V117c0-2.34.24-2.6,2.53-2.6q23.09,0,46.17,0c2.17,0,2.5.32,2.5,2.48Q95.45,133.37,95.44,149.81Z"/><path class="cls-3" d="M69.86,111.1c-1.83,0-3.67.08-5.5-.06-.56,0-1.07-.7-1.61-1.08.52-.34,1-1,1.55-1,3.66-.08,7.33-.09,11,0,.55,0,1.08.7,1.62,1.07-.58.34-1.14.94-1.74,1C73.42,111.18,71.63,111.1,69.86,111.1Z"/><path class="cls-3" d="M72.57,189.16a2.83,2.83,0,1,1-2.86-2.82A2.85,2.85,0,0,1,72.57,189.16Z"/></svg>