<svg xmlns="http://www.w3.org/2000/svg" viewBox="0 0 64 64" width="512" height="512"><g id="Expand"><path d="M12 10h2v2h-2zm4 0h10v2H16zm-6 4h16v2H10zm0 4h13v2H10zm30 2h2v2h-2zm4 0h10v2H44zm-6 4h16v2H38zm0 4h13v2H38zm-29.978-.043a25.65 25.65 0 000 2.086l2-.086a20.278 20.278 0 01-.001-1.914zm9.369 20.086l1.218-1.586a21.842 21.842 0 01-8.423-14.586l-1.986.258a23.832 23.832 0 009.191 15.914zm31.85-35.738a23.9 23.9 0 00-12.025-6.737l-.432 1.953A21.922 21.922 0 0147.8 13.7z"/><path d="M51.359 34H57a1 1 0 001-1V17a1 1 0 00-1-1h-9.811A19.925 19.925 0 0032 9c-.669 0-1.337.045-2 .111V7a1 1 0 00-1-1H7a1 1 0 00-1 1v16a1 1 0 001 1h5.639A19.939 19.939 0 0024 47.3v.7h-1a1 1 0 00-1 1v8a1 1 0 001 1h1v1a3 3 0 003 3h10a3 3 0 003-3v-1h1a1 1 0 001-1v-8a1 1 0 00-1-1h-1v-.7A19.937 19.937 0 0051.359 34zM56 32h-9a1 1 0 00-.6.2L44 34v-1a1 1 0 00-1-1h-7V18h20zm-22 5v11h-4V37a1 1 0 00-.105-.447l-2.984-5.967 4.814 1.376a1.008 1.008 0 00.55 0L34 31.469V33a1 1 0 001 1h.382L34.1 36.553A1 1 0 0034 37zM8 8h20v14h-8a1 1 0 00-1 1v1l-2.4-1.8a1 1 0 00-.6-.2H8zm17.369 37.7A17.919 17.919 0 0114.718 24h.949l3.733 2.8a1 1 0 00.6.2 1 1 0 001-1v-2h8a1 1 0 001-1V11.123A18.259 18.259 0 0132 11a17.918 17.918 0 0112.437 5H35a1 1 0 00-1 1v12.388l-2 .572-6.725-1.922a1.006 1.006 0 00-.875.162l-4 3 1.2 1.6 3.041-2.281L28 37.236V48h-2v-1.369a1 1 0 00-.631-.931zM24 50h16v2H24zm14 9a1 1 0 01-1 1H27a1 1 0 01-1-1v-1h12zm2-3H24v-2h16zm-4-8V37.236L37.618 34H42v2a1 1 0 001.6.8l3.733-2.8h1.958a17.959 17.959 0 01-10.66 11.7 1 1 0 00-.631.93V48z"/></g></svg>