<svg version="1.1" id="Capa_1" xmlns="http://www.w3.org/2000/svg" x="0" y="0" viewBox="0 0 511.999 511.999" xml:space="preserve"><path d="M423.823 337.585v-33.489c0-39.496-32.133-71.629-71.629-71.629s-71.629 32.133-71.629 71.629v33.489c-13.786 3.375-24.048 15.829-24.048 30.64a7.5 7.5 0 0015 0c0-9.125 7.423-16.548 16.548-16.548h128.258c9.125 0 16.548 7.423 16.548 16.548v48.097c0 44.485-36.192 80.677-80.678 80.677-44.485 0-80.677-36.192-80.677-80.677V400.29a7.5 7.5 0 00-15 0v16.032c0 52.757 42.921 95.677 95.678 95.677s95.677-42.92 95.677-95.677v-48.097c0-14.811-10.262-27.264-24.048-30.64zm-47.065-.908h-49.129v-32.581c0-13.545 11.02-24.564 24.564-24.564 13.545 0 24.565 11.02 24.565 24.564v32.581zm32.065.001h-17.064v-32.581c0-21.816-17.749-39.564-39.565-39.564s-39.564 17.749-39.564 39.564v32.581h-17.064v-32.581c-.002-31.225 25.402-56.629 56.628-56.629 31.225 0 56.629 25.404 56.629 56.629v32.581z"/><path d="M352.193 384.774c-12.975 0-23.532 10.557-23.532 23.532 0 10.354 6.724 19.16 16.032 22.3v17.781a7.5 7.5 0 0015 0v-17.781c9.308-3.139 16.032-11.946 16.032-22.3 0-12.976-10.557-23.532-23.532-23.532zm0 32.064c-4.704 0-8.532-3.828-8.532-8.532 0-4.704 3.828-8.532 8.532-8.532 4.705 0 8.532 3.828 8.532 8.532 0 4.704-3.828 8.532-8.532 8.532zm8.016-368.741h-48.613v-.516c0-8.556-6.96-15.516-15.516-15.516h-33.293C259.273 13.822 243.188 0 223.936 0s-35.337 13.822-38.852 32.064h-33.293c-8.556 0-15.516 6.96-15.516 15.516v.516H87.661c-12.976 0-23.532 10.557-23.532 23.532v352.71c0 12.976 10.557 23.532 23.532 23.532h144.291a7.5 7.5 0 000-14.999H87.661c-4.705 0-8.532-3.828-8.532-8.532V71.629c0-4.705 3.828-8.532 8.532-8.532h48.613v.516c0 8.556 6.96 15.516 15.516 15.516h144.29c8.556 0 15.516-6.96 15.516-15.516v-.516h48.613c4.705 0 8.532 3.828 8.532 8.532v140.282a7.5 7.5 0 0015 0V71.629c0-12.976-10.557-23.532-23.532-23.532zm-63.613 15.515a.516.516 0 01-.516.516H151.79a.516.516 0 01-.516-.516V47.581a.516.516 0 01.516-.517h40.081a7.5 7.5 0 007.5-7.5c0-13.545 11.02-24.564 24.564-24.564s24.564 11.02 24.564 24.564a7.5 7.5 0 007.5 7.5h40.081c.285 0 .516.231.516.516v16.032z"/><path d="M224.016 32.064h-.08c-4.142 0-7.46 3.358-7.46 7.5 0 4.142 3.398 7.5 7.54 7.5a7.5 7.5 0 000-15zm96.113 116.234h-104.21a7.5 7.5 0 000 15h104.209a7.5 7.5 0 10.001-15zm-130.971-17.843a7.5 7.5 0 00-10.606 0l-26.761 26.761-14.737-14.737a7.5 7.5 0 00-10.606 0 7.5 7.5 0 000 10.606l20.041 20.041c1.464 1.464 3.384 2.197 5.303 2.197s3.839-.732 5.303-2.197l32.064-32.064a7.501 7.501 0 00-.001-10.607zm74.858 114.037h-48.097a7.5 7.5 0 000 15h48.097a7.5 7.5 0 000-15zm-74.858-17.844a7.5 7.5 0 00-10.606 0l-26.761 26.761-14.737-14.737a7.5 7.5 0 00-10.606 0 7.5 7.5 0 000 10.606l20.041 20.041c1.464 1.464 3.384 2.197 5.303 2.197s3.839-.732 5.303-2.197l32.064-32.064a7.501 7.501 0 00-.001-10.607zm42.794 114.038H215.92a7.5 7.5 0 000 15h16.032a7.5 7.5 0 000-15zm-42.793-17.844a7.5 7.5 0 00-10.607 0l-26.761 26.761-14.737-14.737a7.5 7.5 0 00-10.606 0 7.5 7.5 0 000 10.606l20.041 20.04c1.464 1.464 3.384 2.197 5.303 2.197s3.839-.732 5.303-2.197l32.064-32.064a7.5 7.5 0 000-10.606z"/></svg>