<svg xmlns="http://www.w3.org/2000/svg" version="1.1" id="Layer_1" x="0" y="0" xml:space="preserve" width="512" height="512"><path d="M247.723 133.013c-3.906 0-8.696-.571-11.976-4.226-1.14-1.284-2.139-2.483-3.108-3.483-7.813-8.222-21.271 3.198-13.116 13.874l1.967 2.541c1.283 1.6 3.593 3.455 6.9 5.568 3.223 2.054 6.815 3.539 10.807 4.424v14.104c0 4.853 3.962 8.85 8.811 8.85 4.876 0 9.01-3.997 9.01-8.85v-14.189c6.387-1.483 11.862-4.596 16.338-9.306 4.504-4.712 6.757-10.963 6.757-18.757 0-5.31-1.025-9.734-3.079-13.304-2.053-3.54-4.562-6.023-7.556-7.423-3.022-1.399-6.301-2.627-9.923-3.682-3.592-1.056-6.871-1.799-9.894-2.255-2.993-.43-5.502-1.344-7.556-2.684-2.053-1.372-3.079-3.141-3.079-5.34 0-10.505 15.397-9.221 22.182-3.511 10.009 8.422 21.214-6.994 9.609-15.701l-1.34-1.2c-.913-.712-2.509-1.598-4.819-2.712-2.281-1.112-4.848-1.941-7.641-2.541V50.964c0-4.854-3.964-8.85-8.839-8.85-4.848 0-8.839 3.995-8.839 8.85v12.104c-6.502 1.285-11.891 4.512-15.625 9.278-3.764 4.854-5.674 10.222-5.674 16.215 0 6.025 1.398 10.964 4.191 14.875 2.794 3.909 6.188 6.651 10.208 8.25 3.992 1.599 7.983 2.884 11.975 3.825 4.02.972 7.414 2.027 10.207 3.255 2.795 1.199 4.192 2.884 4.192 5.082.001 6.109-3.705 9.165-11.09 9.165z"/><path d="M501.429 288.848L419.261 183.6c-5.535-7.108-13.926-11.185-23.021-11.185-6.419 0-12.496 2.038-17.596 5.907l-53.775 40.992c-6.155 4.691-10.087 11.499-11.073 19.169a29.179 29.179 0 00-.229 3.417c-20.5-1.553-41.674.008-62.237 13.374l-.922.599-52.019-7.955a29.01 29.01 0 00-.188-5.453c-.992-7.652-4.918-14.444-11.061-19.128l-53.788-40.954c-12.602-9.637-30.823-7.296-40.622 5.232L73.142 212.71c-3.428 4.39-2.646 10.727 1.744 14.153 4.391 3.428 10.728 2.646 14.155-1.744l19.582-25.086c2.964-3.79 8.678-4.536 12.494-1.617l53.8 40.964a8.453 8.453 0 013.282 5.679 8.474 8.474 0 01-1.724 6.334L94.291 356.658c-2.944 3.781-8.665 4.52-12.475 1.631l-53.777-40.996a8.475 8.475 0 01-3.296-5.697 8.423 8.423 0 011.739-6.313l13.972-17.899c3.427-4.39 2.646-10.727-1.745-14.153-4.39-3.429-10.727-2.646-14.155 1.744L10.59 292.864c-4.757 6.081-6.835 13.646-5.851 21.302.985 7.669 4.919 14.477 11.073 19.167l53.794 41.01c5.235 3.971 11.422 5.892 17.569 5.891 3.555 0 7.092-.653 10.427-1.913l6.962 9.535c-3.784 6.903-4.374 15.195-1.333 23.198 4.347 11.442 14.604 19.2 25.701 19.569a28.95 28.95 0 001.472 4.872c4.473 11.083 14.687 18.627 25.662 19.123.05.288.088.577.147.865 2.088 10.148 9.873 18.814 19.832 22.079a26.966 26.966 0 007.628 1.334c.97 4.086 2.998 8.032 6.115 11.496 4.859 5.401 11.953 8.857 19.735 8.856 5.651 0 11.666-1.834 17.447-6.06l11.419 10.674c5.817 5.428 13.139 8.138 20.391 8.138 7.356-.001 14.638-2.789 20.199-8.355a34.27 34.27 0 007.547-11.425c2.834.861 5.602 1.269 8.258 1.269 7.479-.001 14.079-3.159 18.808-8.03 3.869-3.985 6.639-9.29 7.864-14.945a29.553 29.553 0 001.53.043c7.954 0 15.586-3.081 20.976-8.479a28.694 28.694 0 007.614-13.513c1.924.375 3.856.571 5.784.571 2.427 0 4.848-.301 7.233-.912a27.017 27.017 0 0019.597-19.835c2.181-8.99-.066-18.461-6.183-27.069 15.838-12.742 22.244-19.019 29.479-30.755 4.942 3.635 10.958 5.638 17.316 5.638h.002c6.438 0 12.525-2.053 17.587-5.924l53.809-40.97c6.138-4.679 10.065-11.47 11.057-19.123.992-7.66-1.074-15.235-5.828-21.338zM134.208 408.386c-1.545 1.396-3.043 2.104-4.454 2.104-2.896 0-6.264-2.897-7.67-6.598-1.276-3.361-.681-6.169 1.775-8.35l.032-.028.031-.027 33.974-30.198c2.842-2.521 5.702-3.854 8.273-3.854 3.762 0 6.575 2.857 7.596 5.513 1.092 2.837.435 5.368-1.941 7.517l-5.922 5.341-.016.014-.086.077-.647.585-30.945 27.904zm27.461 24.103c-1.531 1.353-2.99 2.009-4.458 2.009-3.061 0-6.62-2.877-8.103-6.552-1.634-4.048.305-5.917.918-6.509.394-.378.867-.831 1.36-1.359a.065.065 0 01.009-.008l.104-.092c1.94-1.733 19.023-17.168 27.185-24.543l.608-.548c2.766-2.428 5.568-3.711 8.107-3.711 4.004 0 6.985 3.064 8.06 5.91 1.069 2.83.428 5.307-1.898 7.355l-2.092 1.84-.046.039-.015.015-29.739 26.154zm30.058 21.767c-.139.125-.27.256-.405.383l-2.366 2.135c-2.103 1.9-4.209 2.418-6.629 1.624-3.059-1.003-5.731-3.938-6.357-6.978-.544-2.643.514-5.093 3.2-7.461l3.365-2.94c.085-.074.158-.155.24-.231l22.042-19.385c5.282-4.669 10.513-5.137 13.995-1.244.49.548 4.642 5.484-.427 10.063l-13.537 12.215c-.145.128-.292.243-.436.374-.051.047-.093.101-.143.147l-12.387 11.177c-.05.043-.106.076-.155.121zm13.056 22.646c-1.063-1.18-3.113-4.239.25-7.469l13.504-12.185c1.022-.874 2.007-1.567 2.929-2.043l.127-.066c5.443-2.907 8.393.482 9.169 1.589.997 1.424 2.213 4.221-.844 6.967l-9.252 8.316-.104.094-4.011 3.605c-6.591 5.916-10.674 2.41-11.768 1.192zm159.806-53.267c-.62 2.555-2.443 4.396-5.002 5.052-4.242 1.086-9.612-1.27-14.528-6.314-.369-.408-.747-.81-1.142-1.199l-38.066-37.628c-3.962-3.914-10.347-3.878-14.262.083-3.915 3.961-3.879 10.346.082 14.261l38.005 37.567c.063.067.128.133.19.2 1.518 1.562 2.363 3.648 2.372 5.906.009 2.385-.895 4.609-2.547 6.263-1.629 1.632-4.066 2.563-6.7 2.563l-.11-.001c-2.332-.022-4.46-.803-5.958-2.166a25.098 25.098 0 00-2.073-2.365l-27.829-27.863c-3.936-3.939-10.321-3.943-14.262-.009-3.94 3.936-3.944 10.32-.009 14.261l26.391 26.424c.318.465.671.914 1.077 1.333l1.123 1.158c1.447 2.755.55 7.397-2.22 10.251-4.274 4.401-10.29.521-14.575-3.504l-11.918-11.219c-4.055-3.818-10.438-3.625-14.255.43-3.818 4.056-3.625 10.438.43 14.256l9.104 8.569c.022.021.04.044.062.064.208.194.521.488.537 1.505.039 2.363-1.522 5.604-3.795 7.879-3.318 3.321-8.835 3.202-12.554-.269l-9.98-9.328 1.22-1.097c9.896-8.886 11.493-22.677 3.884-33.539-2.476-3.535-5.577-6.281-9.056-8.187 4.904-9.671 3.533-21.413-4.382-30.26-4.465-4.992-10.772-8.401-17.812-9.156a27.664 27.664 0 00-1.704-7.594c-3.426-9.07-11.041-15.746-20.003-18.058.373-4.018-.182-8.166-1.734-12.201-4.245-11.027-14.861-18.437-26.42-18.437-7.58 0-15.068 3.089-21.664 8.94l-25.747 22.886-5.66-7.751 76.766-98.324 35.098 5.368-5.31 3.445c-28.44 18.452-30.522 39.911-22.986 53.842 6.031 11.151 18.068 17.525 30.845 17.525a39.075 39.075 0 0015.791-3.354c.136-.061.271-.123.403-.189l26.588-13.183 15.349 13.975c.015.014.031.024.045.037l.042.042 70.942 63.092c6.079 5.405 9.039 11.393 7.917 16.018zm-.848-36.721l-64.564-57.42-20.4-18.574a10.08 10.08 0 00-11.269-1.579l-32.544 16.137c-8.842 3.803-17.539.184-20.559-5.399-4.15-7.672 2.066-18.144 16.224-27.328l31.685-20.561c17.18-11.168 35.202-12.03 59.855-9.169l71.385 91.467c-7.533 13.528-11.534 17.822-29.813 32.426zm123.514-79.321a8.45 8.45 0 01-3.278 5.673l-53.822 40.979c-1.933 1.479-3.977 1.789-5.351 1.789-2.829-.001-5.426-1.246-7.118-3.41l-82.155-105.266a8.416 8.416 0 01-1.731-6.305 8.478 8.478 0 013.296-5.7l53.758-40.979c1.95-1.479 4.004-1.79 5.385-1.79 2.832 0 5.422 1.241 7.116 3.416l82.168 105.249a8.477 8.477 0 011.732 6.344z"/><path d="M196.829 204.863c15.833 8.543 33.718 13.059 51.722 13.059 60.022 0 108.854-48.887 108.854-108.976 0-41.938-24.483-80.612-62.366-98.525C280.445 3.506 264.805 0 248.551 0c-60.008 0-108.827 48.873-108.827 108.946a109.006 109.006 0 0057.105 95.917zm51.722-184.695c13.243 0 25.978 2.853 37.859 8.481 30.875 14.599 50.826 46.118 50.826 80.297 0 48.969-39.784 88.808-88.684 88.808-14.672 0-29.245-3.68-42.127-10.63a88.85 88.85 0 01-46.532-78.178c0-48.952 39.771-88.778 88.658-88.778zM50.508 257.914a10.042 10.042 0 006.284 2.202c2.962 0 5.897-1.299 7.888-3.795l.114-.143c3.474-4.353 2.761-10.698-1.592-14.172-4.353-3.472-10.699-2.762-14.172 1.593l-.114.143c-3.474 4.353-2.761 10.698 1.592 14.172z"/></svg>