<svg xmlns="http://www.w3.org/2000/svg" viewBox="0 0 1794.6 875"><defs><style>.cls-1{opacity:0.15;}.cls-2{fill:#fff;}.cls-3{fill:#81f0ff;}.cls-4{fill:#d48eff;}.cls-5{fill:#ddf3bf;}.cls-6{fill:#82b440;}.cls-7{fill:#f6bfff;}.cls-8{fill:#ffde9f;}</style></defs><title>bg-4</title><g id="Layer_2" data-name="Layer 2"><g id="Layer_1-2" data-name="Layer 1"><g class="cls-1"><path class="cls-2" d="M1236.1,861.8h2.6v9.1h5.6V873h-8.2Zm9.5,2.6h2.5V873h-2.5Zm1.3-1.2a1.6,1.6,0,0,1-1.1-.4,1.3,1.3,0,0,1,0-2,1.6,1.6,0,0,1,1.1-.4,1.6,1.6,0,0,1,1.1.4,1.3,1.3,0,0,1,.4,1,1.4,1.4,0,0,1-.4,1A1.6,1.6,0,0,1,1246.8,863.2Zm12.1,1.2-3.6,8.6h-2.6l-3.6-8.6h2.6l2.4,5.9,2.5-5.9Zm9.2,4.3v.7h-6.5a2.1,2.1,0,0,0,.8,1.3,2.8,2.8,0,0,0,1.6.5l1.2-.2,1-.6,1.3,1.4a4.5,4.5,0,0,1-3.6,1.4,5.7,5.7,0,0,1-2.6-.6,4.2,4.2,0,0,1-1.7-1.6,4.3,4.3,0,0,1-.6-2.3,4.4,4.4,0,0,1,.6-2.3,4.3,4.3,0,0,1,1.7-1.6,5.1,5.1,0,0,1,4.6,0,4,4,0,0,1,1.6,1.6A4.6,4.6,0,0,1,1268.1,868.7Zm-4.5-2.6a2.2,2.2,0,0,0-1.4.5,2,2,0,0,0-.7,1.3h4.2a2,2,0,0,0-.7-1.3A2.1,2.1,0,0,0,1263.7,866.1Zm16.2,7a6.5,6.5,0,0,1-3.1-.7,5.7,5.7,0,0,1-2.2-2.1,5.8,5.8,0,0,1-.8-3,5.7,5.7,0,0,1,.8-3,5.5,5.5,0,0,1,2.2-2.1,6.9,6.9,0,0,1,5.7-.2,5.2,5.2,0,0,1,2,1.5l-1.7,1.5a3.6,3.6,0,0,0-2.8-1.3,3.7,3.7,0,0,0-1.8.5,3.2,3.2,0,0,0-1.3,1.3,4.1,4.1,0,0,0,0,3.7,3.3,3.3,0,0,0,1.3,1.3,3.8,3.8,0,0,0,1.8.4,3.6,3.6,0,0,0,2.8-1.3l1.7,1.5a5.1,5.1,0,0,1-2,1.5A6.6,6.6,0,0,1,1279.8,873.2Zm11.4-8.9a3.5,3.5,0,0,1,2.6,1,3.8,3.8,0,0,1,1,2.8V873h-2.5v-4.5a2.2,2.2,0,0,0-.4-1.5,1.6,1.6,0,0,0-1.3-.5,2,2,0,0,0-1.5.6,2.4,2.4,0,0,0-.6,1.7V873H1286V861.1h2.5v4.2a3.2,3.2,0,0,1,1.2-.8Zm9.3,0a4.4,4.4,0,0,1,3.1,1,3.6,3.6,0,0,1,1.1,2.9V873h-2.3v-1.1a2.8,2.8,0,0,1-2.6,1.2,4.1,4.1,0,0,1-1.7-.3,2.6,2.6,0,0,1-1.1-.9,2.5,2.5,0,0,1-.4-1.3,2.2,2.2,0,0,1,.9-1.9,4.6,4.6,0,0,1,2.8-.7h2a1.5,1.5,0,0,0-.5-1.2,2.1,2.1,0,0,0-1.5-.4l-1.4.2-1.1.6-.9-1.7a5.4,5.4,0,0,1,1.7-.8Zm-.2,7.2a2.2,2.2,0,0,0,1.1-.3,1.7,1.7,0,0,0,.7-.9v-.9h-1.7c-1,0-1.5.3-1.5,1a.9.9,0,0,0,.4.8A1.8,1.8,0,0,0,1300.4,871.4Zm12.2,1.1-.9.4h-1.1a3.4,3.4,0,0,1-2.4-.8,3,3,0,0,1-.8-2.3v-3.5H1306v-1.9h1.3v-2.1h2.5v2.1h2.1v1.9h-2.1V870a1.2,1.2,0,0,0,.3.8,1.1,1.1,0,0,0,.8.3,1.6,1.6,0,0,0,1-.3Zm16.4-10.8V873h-2.1l-5.6-6.8V873h-2.6V861.8h2.1l5.6,6.8v-6.8Zm6.6,11.3a5.3,5.3,0,0,1-2.4-.6,4.4,4.4,0,0,1-1.7-1.6,4.6,4.6,0,0,1,0-4.6,4.2,4.2,0,0,1,1.7-1.6,5.2,5.2,0,0,1,2.4-.6,5.1,5.1,0,0,1,2.4.6,4.2,4.2,0,0,1,1.7,1.6,4.6,4.6,0,0,1,0,4.6,4.4,4.4,0,0,1-1.7,1.6A5.2,5.2,0,0,1,1335.5,873.1Zm0-2a2.1,2.1,0,0,0,1.6-.6,2.4,2.4,0,0,0,.6-1.7,2.4,2.4,0,0,0-.6-1.7,2.1,2.1,0,0,0-1.6-.7,2.1,2.1,0,0,0-1.6.7,2.4,2.4,0,0,0-.6,1.7,2.4,2.4,0,0,0,.6,1.7A2.1,2.1,0,0,0,1335.5,871Zm20-6.7-3.1,8.6h-2.4l-1.9-5.3-2,5.3h-2.4l-3.1-8.6h2.3l2,5.8,2.1-5.8h2.1l2.1,5.8,2.1-5.8Z"/><path class="cls-2" d="M1200.7,875l3.2-4.3a6.9,6.9,0,0,1-.9-3.4c0-4,3.6-7.3,8.1-7.3s8.2,3.3,8.2,7.3-3.7,7.3-8.2,7.3a8.5,8.5,0,0,1-4.7-1.4Zm5.8-3.3.3.2a7.5,7.5,0,0,0,4.3,1.3c3.8,0,6.8-2.7,6.8-5.9s-3.1-5.9-6.8-5.9-6.8,2.7-6.8,5.9a5.3,5.3,0,0,0,.9,3l.3.4-1.3,1.7Z"/><path class="cls-2" d="M1225.7,873.1l-1.8-2.7v-.2a5.7,5.7,0,0,0-4.2-6.2l.3.4c1.9,2.8.9,6.9-2.2,9.2l-1.4.8h.6a6.1,6.1,0,0,0,6.1-2.3Z"/><path class="cls-2" d="M1211.1,868.3a.8.8,0,1,0-.8-.8A.8.8,0,0,0,1211.1,868.3Z"/><path class="cls-2" d="M1208.4,868.3a.8.8,0,1,0-.8-.8A.8.8,0,0,0,1208.4,868.3Z"/><path class="cls-2" d="M1213.7,868.3a.8.8,0,1,0-.8-.8A.8.8,0,0,0,1213.7,868.3Z"/><path class="cls-3" d="M1431.3,258.6l24.7-24.7a2.5,2.5,0,0,0,0-3.5h0a2.5,2.5,0,0,0-3.5,0L1427.8,255a2.5,2.5,0,0,0,0,3.5h0A2.5,2.5,0,0,0,1431.3,258.6Z"/><path class="cls-3" d="M1431.3,230.1l24.7,24.7a2.5,2.5,0,0,1,0,3.5h0a2.5,2.5,0,0,1-3.5,0l-24.7-24.7a2.5,2.5,0,0,1,0-3.5h0A2.5,2.5,0,0,1,1431.3,230.1Z"/><circle class="cls-4" cx="539.2" cy="69.5" r="3.5"/><path class="cls-5" d="M78,44.2l24.7-24.7a2.5,2.5,0,0,0,0-3.5h0a2.5,2.5,0,0,0-3.5,0L74.5,40.7a2.5,2.5,0,0,0,0,3.5h0A2.5,2.5,0,0,0,78,44.2Z"/><path class="cls-5" d="M78,15.7l24.7,24.7a2.5,2.5,0,0,1,0,3.5h0a2.5,2.5,0,0,1-3.5,0L74.5,19.3a2.5,2.5,0,0,1,0-3.5h0A2.5,2.5,0,0,1,78,15.7Z"/><path class="cls-6" d="M94,44.2l24.7-24.7a2.5,2.5,0,0,0,0-3.5h0a2.5,2.5,0,0,0-3.5,0L90.5,40.7a2.5,2.5,0,0,0,0,3.5h0A2.5,2.5,0,0,0,94,44.2Z"/><path class="cls-6" d="M94,15.7l24.7,24.7a2.5,2.5,0,0,1,0,3.5h0a2.5,2.5,0,0,1-3.5,0L90.5,19.3a2.5,2.5,0,0,1,0-3.5h0A2.5,2.5,0,0,1,94,15.7Z"/><path class="cls-7" d="M99.4,355.9,93.3,397,60.7,371.1Z"/><path class="cls-7" d="M1577.4,357.4l-6.1,41.1-32.5-25.9Z"/><path class="cls-7" d="M1784.7,66l-6.1,41.1L1746,81.2Z"/><path class="cls-7" d="M1173.3,52.4l-6.1,41.1-32.5-25.9Z"/><circle class="cls-8" cx="415.2" cy="333.5" r="7.5"/><circle class="cls-8" cx="1787.1" cy="825.5" r="7.5"/><circle class="cls-8" cx="1649.2" cy="763" r="7.5"/><circle class="cls-8" cx="1577.4" cy="7.5" r="7.5"/><circle class="cls-6" cx="719.2" cy="347.5" r="6.5"/><path class="cls-6" d="M1126.4,274.3l8.2,14.3h-16.5Z"/><circle class="cls-4" cx="1628.2" cy="189.8" r="3.5"/><circle class="cls-8" cx="1021.7" cy="529.5" r="7.5"/><circle class="cls-6" cx="1403.9" cy="515.5" r="6.5"/><path class="cls-6" d="M1709.9,490l8.2,14.3h-16.5Z"/><path class="cls-5" d="M588.2,473.4,613,448.7a2.5,2.5,0,0,0,0-3.5h0a2.5,2.5,0,0,0-3.5,0l-24.7,24.7a2.5,2.5,0,0,0,0,3.5h0A2.5,2.5,0,0,0,588.2,473.4Z"/><path class="cls-5" d="M588.2,444.9,613,469.7a2.5,2.5,0,0,1,0,3.5h0a2.5,2.5,0,0,1-3.5,0l-24.7-24.7a2.5,2.5,0,0,1,0-3.5h0A2.5,2.5,0,0,1,588.2,444.9Z"/><path class="cls-6" d="M604.2,473.4,629,448.7a2.5,2.5,0,0,0,0-3.5h0a2.5,2.5,0,0,0-3.5,0l-24.7,24.7a2.5,2.5,0,0,0,0,3.5h0A2.5,2.5,0,0,0,604.2,473.4Z"/><path class="cls-6" d="M604.2,444.9,629,469.7a2.5,2.5,0,0,1,0,3.5h0a2.5,2.5,0,0,1-3.5,0l-24.7-24.7a2.5,2.5,0,0,1,0-3.5h0A2.5,2.5,0,0,1,604.2,444.9Z"/><path class="cls-5" d="M4.3,822.9,29,798.1a2.5,2.5,0,0,0,0-3.5h0a2.5,2.5,0,0,0-3.5,0L.7,819.4a2.5,2.5,0,0,0,0,3.5h0A2.5,2.5,0,0,0,4.3,822.9Z"/><path class="cls-5" d="M4.3,794.4,29,819.2a2.5,2.5,0,0,1,0,3.5h0a2.5,2.5,0,0,1-3.5,0L.7,798a2.5,2.5,0,0,1,0-3.5h0A2.5,2.5,0,0,1,4.3,794.4Z"/><path class="cls-6" d="M20.3,822.9,45,798.1a2.5,2.5,0,0,0,0-3.5h0a2.5,2.5,0,0,0-3.5,0L16.7,819.4a2.5,2.5,0,0,0,0,3.5h0A2.5,2.5,0,0,0,20.3,822.9Z"/><path class="cls-6" d="M20.3,794.4,45,819.2a2.5,2.5,0,0,1,0,3.5h0a2.5,2.5,0,0,1-3.5,0L16.7,798a2.5,2.5,0,0,1,0-3.5h0A2.5,2.5,0,0,1,20.3,794.4Z"/><path class="cls-5" d="M822.2,129.5,847,104.8a2.5,2.5,0,0,0,0-3.5h0a2.5,2.5,0,0,0-3.5,0L818.7,126a2.5,2.5,0,0,0,0,3.5h0A2.5,2.5,0,0,0,822.2,129.5Z"/><path class="cls-5" d="M822.2,101,847,125.8a2.5,2.5,0,0,1,0,3.5h0a2.5,2.5,0,0,1-3.5,0l-24.7-24.7a2.5,2.5,0,0,1,0-3.5h0A2.5,2.5,0,0,1,822.2,101Z"/><path class="cls-6" d="M838.2,129.5,863,104.8a2.5,2.5,0,0,0,0-3.5h0a2.5,2.5,0,0,0-3.5,0L834.7,126a2.5,2.5,0,0,0,0,3.5h0A2.5,2.5,0,0,0,838.2,129.5Z"/><path class="cls-6" d="M838.2,101,863,125.8a2.5,2.5,0,0,1,0,3.5h0a2.5,2.5,0,0,1-3.5,0l-24.7-24.7a2.5,2.5,0,0,1,0-3.5h0A2.5,2.5,0,0,1,838.2,101Z"/><path class="cls-5" d="M1409.6,670.2l24.7-24.7a2.5,2.5,0,0,0,0-3.5h0a2.5,2.5,0,0,0-3.5,0L1406,666.7a2.5,2.5,0,0,0,0,3.5h0A2.5,2.5,0,0,0,1409.6,670.2Z"/><path class="cls-5" d="M1409.6,641.7l24.7,24.7a2.5,2.5,0,0,1,0,3.5h0a2.5,2.5,0,0,1-3.5,0L1406,645.3a2.5,2.5,0,0,1,0-3.5h0A2.5,2.5,0,0,1,1409.6,641.7Z"/><path class="cls-6" d="M1425.6,670.2l24.7-24.7a2.5,2.5,0,0,0,0-3.5h0a2.5,2.5,0,0,0-3.5,0L1422,666.7a2.5,2.5,0,0,0,0,3.5h0A2.5,2.5,0,0,0,1425.6,670.2Z"/><path class="cls-6" d="M1425.6,641.7l24.7,24.7a2.5,2.5,0,0,1,0,3.5h0a2.5,2.5,0,0,1-3.5,0L1422,645.3a2.5,2.5,0,0,1,0-3.5h0A2.5,2.5,0,0,1,1425.6,641.7Z"/><path class="cls-5" d="M706.6,802.2l24.7-24.7a2.5,2.5,0,0,0,0-3.5h0a2.5,2.5,0,0,0-3.5,0L703,798.7a2.5,2.5,0,0,0,0,3.5h0A2.5,2.5,0,0,0,706.6,802.2Z"/><path class="cls-5" d="M706.6,773.8l24.7,24.7a2.5,2.5,0,0,1,0,3.5h0a2.5,2.5,0,0,1-3.5,0L703,777.3a2.5,2.5,0,0,1,0-3.5h0A2.5,2.5,0,0,1,706.6,773.8Z"/><path class="cls-6" d="M722.6,802.2l24.7-24.7a2.5,2.5,0,0,0,0-3.5h0a2.5,2.5,0,0,0-3.5,0L719,798.7a2.5,2.5,0,0,0,0,3.5h0A2.5,2.5,0,0,0,722.6,802.2Z"/><path class="cls-6" d="M722.6,773.8l24.7,24.7a2.5,2.5,0,0,1,0,3.5h0a2.5,2.5,0,0,1-3.5,0L719,777.3a2.5,2.5,0,0,1,0-3.5h0A2.5,2.5,0,0,1,722.6,773.8Z"/></g></g></g></svg>