<svg width="1920" height="998" viewBox="0 0 1920 998" fill="none" xmlns="http://www.w3.org/2000/svg">
    <path d="M0 0H1920V998H0V0Z" fill=""/>
    <path d="M626.67 982.8H624.08V991.888H618.46V994H626.67V982.8ZM617.19 985.392H614.7V994H617.19V985.392ZM615.94 984.192C616.4 984.192 616.78 984.059 617.06 983.792C617.35 983.525 617.5 983.195 617.5 982.8C617.5 982.405 617.35 982.075 617.06 981.808C616.78 981.541 616.4 981.408 615.94 981.408C615.49 981.408 615.11 981.536 614.82 981.792C614.54 982.048 614.39 982.368 614.39 982.752C614.39 983.168 614.54 983.515 614.82 983.792C615.11 984.059 615.49 984.192 615.94 984.192ZM603.84 985.392L607.47 994H610.04L613.66 985.392H611.08L608.7 991.248L606.24 985.392H603.84ZM594.62 989.728C594.62 989.76 594.64 989.984 594.67 990.4H601.18C601.06 990.933 600.78 991.355 600.35 991.664C599.91 991.973 599.37 992.128 598.72 992.128C598.27 992.128 597.87 992.064 597.53 991.936C597.18 991.797 596.85 991.584 596.56 991.296L595.23 992.736C596.04 993.664 597.22 994.128 598.78 994.128C599.75 994.128 600.61 993.941 601.36 993.568C602.1 993.184 602.68 992.656 603.08 991.984C603.49 991.312 603.69 990.549 603.69 989.696C603.69 988.853 603.49 988.096 603.1 987.424C602.69 986.741 602.14 986.213 601.45 985.84C600.75 985.456 599.96 985.264 599.1 985.264C598.26 985.264 597.49 985.445 596.81 985.808C596.13 986.171 595.6 986.693 595.21 987.376C594.82 988.048 594.62 988.832 594.62 989.728ZM599.08 987.152C599.65 987.152 600.12 987.312 600.51 987.632C600.89 987.952 601.13 988.389 601.21 988.944H596.97C597.06 988.4 597.29 987.968 597.68 987.648C598.06 987.317 598.53 987.152 599.08 987.152ZM582.89 994.192C584.03 994.192 585.07 993.947 585.99 993.456C586.91 992.955 587.64 992.267 588.17 991.392C588.69 990.507 588.95 989.509 588.95 988.4C588.95 987.291 588.69 986.299 588.17 985.424C587.64 984.539 586.91 983.851 585.99 983.36C585.07 982.859 584.03 982.608 582.87 982.608C581.9 982.608 581.03 982.779 580.25 983.12C579.46 983.461 578.8 983.952 578.27 984.592L579.93 986.128C580.69 985.253 581.63 984.816 582.75 984.816C583.44 984.816 584.06 984.971 584.6 985.28C585.15 985.579 585.57 986 585.88 986.544C586.18 987.088 586.33 987.707 586.33 988.4C586.33 989.093 586.18 989.712 585.88 990.256C585.57 990.8 585.15 991.227 584.6 991.536C584.06 991.835 583.44 991.984 582.75 991.984C581.63 991.984 580.69 991.541 579.93 990.656L578.27 992.192C578.8 992.843 579.46 993.339 580.25 993.68C581.04 994.021 581.92 994.192 582.89 994.192ZM571.46 985.264C570.39 985.264 569.53 985.584 568.88 986.224C568.22 986.864 567.89 987.813 567.89 989.072V994H570.39V989.456C570.39 988.773 570.54 988.267 570.84 987.936C571.13 987.595 571.57 987.424 572.13 987.424C572.76 987.424 573.26 987.621 573.64 988.016C574.01 988.4 574.2 988.976 574.2 989.744V994H576.69V982.128H574.2V986.288C573.87 985.957 573.47 985.707 573 985.536C572.53 985.355 572.01 985.264 571.46 985.264ZM562.16 985.264C560.82 985.264 559.8 985.584 559.09 986.224C558.37 986.853 558.01 987.808 558.01 989.088V994H560.35V992.928C560.82 993.728 561.69 994.128 562.97 994.128C563.63 994.128 564.21 994.016 564.7 993.792C565.18 993.568 565.55 993.259 565.81 992.864C566.06 992.469 566.19 992.021 566.19 991.52C566.19 990.72 565.89 990.091 565.29 989.632C564.69 989.173 563.75 988.944 562.49 988.944H560.51C560.51 988.4 560.67 987.984 561.01 987.696C561.34 987.397 561.83 987.248 562.49 987.248C562.95 987.248 563.41 987.323 563.85 987.472C564.29 987.611 564.66 987.803 564.97 988.048L565.87 986.304C565.4 985.973 564.84 985.717 564.19 985.536C563.53 985.355 562.85 985.264 562.16 985.264ZM562.35 992.448C561.92 992.448 561.54 992.352 561.21 992.16C560.88 991.957 560.65 991.664 560.51 991.28V990.4H562.22C563.25 990.4 563.76 990.736 563.76 991.408C563.76 991.728 563.63 991.984 563.39 992.176C563.13 992.357 562.79 992.448 562.35 992.448ZM550.2 993.584C550.45 993.765 550.75 993.904 551.11 994C551.47 994.085 551.84 994.128 552.23 994.128C553.26 994.128 554.05 993.867 554.62 993.344C555.17 992.821 555.45 992.053 555.45 991.04V987.504H556.78V985.584H555.45V983.488H552.95V985.584H550.81V987.504H552.95V991.008C552.95 991.371 552.86 991.653 552.68 991.856C552.49 992.048 552.22 992.144 551.88 992.144C551.49 992.144 551.15 992.037 550.87 991.824L550.2 993.584ZM533.82 982.8V994H535.95L541.53 987.2V994H544.09V982.8H541.95L536.38 989.6V982.8H533.82ZM527.25 994.128C528.16 994.128 528.97 993.941 529.7 993.568C530.41 993.184 530.97 992.656 531.38 991.984C531.79 991.312 531.99 990.549 531.99 989.696C531.99 988.843 531.79 988.08 531.38 987.408C530.97 986.736 530.41 986.213 529.7 985.84C528.97 985.456 528.16 985.264 527.25 985.264C526.35 985.264 525.53 985.456 524.82 985.84C524.11 986.213 523.55 986.736 523.14 987.408C522.73 988.08 522.53 988.843 522.53 989.696C522.53 990.549 522.73 991.312 523.14 991.984C523.55 992.656 524.11 993.184 524.82 993.568C525.53 993.941 526.35 994.128 527.25 994.128ZM527.25 992.08C526.61 992.08 526.09 991.867 525.68 991.44C525.27 991.003 525.06 990.421 525.06 989.696C525.06 988.971 525.27 988.395 525.68 987.968C526.09 987.531 526.61 987.312 527.25 987.312C527.89 987.312 528.42 987.531 528.84 987.968C529.25 988.395 529.46 988.971 529.46 989.696C529.46 990.421 529.25 991.003 528.84 991.44C528.42 991.867 527.89 992.08 527.25 992.08ZM507.27 985.392L510.39 994H512.79L514.73 988.656L516.73 994H519.13L522.23 985.392H519.88L517.85 991.216L515.74 985.392H513.63L511.58 991.216L509.48 985.392H507.27Z" fill="white"/>
    <path d="M662 996L658.84 991.659C659.43 990.615 659.75 989.462 659.75 988.28C659.75 984.269 656.11 981 651.63 981C647.16 981 643.48 984.269 643.48 988.308C643.48 992.346 647.13 995.588 651.63 995.588C653.37 995.588 655.01 995.121 656.37 994.214L662 996ZM656.16 992.703L655.89 992.896C654.66 993.747 653.18 994.214 651.63 994.214C647.88 994.214 644.82 991.549 644.82 988.28C644.82 985.011 647.88 982.374 651.63 982.374C655.38 982.374 658.44 985.038 658.44 988.308C658.44 989.379 658.11 990.396 657.5 991.302L657.23 991.714L658.49 993.445L656.16 992.703Z" fill="white"/>
    <path d="M637 994.104L638.8 991.385C638.77 991.302 638.77 991.247 638.74 991.165C638.29 988.5 640.13 985.918 642.95 985.011C642.87 985.121 642.76 985.231 642.68 985.368C640.75 988.143 641.74 992.264 644.9 994.544C645.33 994.874 645.82 995.121 646.27 995.341C646.08 995.396 645.87 995.451 645.65 995.478C643.16 995.918 640.78 994.956 639.55 993.17L637 994.104Z" fill="white"/>
    <path d="M651.68 989.324C651.24 989.324 650.88 988.955 650.88 988.5C650.88 988.045 651.24 987.676 651.68 987.676C652.13 987.676 652.49 988.045 652.49 988.5C652.49 988.955 652.13 989.324 651.68 989.324Z" fill="white"/>
    <path d="M654.36 989.324C653.92 989.324 653.56 988.955 653.56 988.5C653.56 988.045 653.92 987.676 654.36 987.676C654.81 987.676 655.17 988.045 655.17 988.5C655.17 988.955 654.81 989.324 654.36 989.324Z" fill="white"/>
    <path d="M649 989.324C648.56 989.324 648.2 988.955 648.2 988.5C648.2 988.045 648.56 987.676 649 987.676C649.45 987.676 649.81 988.045 649.81 988.5C649.81 988.955 649.45 989.324 649 989.324Z" fill="white"/>
    <path opacity="0.2" d="M750.83 651.535C750.83 651.535 822.12 568.443 741.8 477.946C677.04 404.982 697.72 376.886 700.77 327.663C703.27 286.062 656.14 224.533 585.51 221.484C469.81 216.365 441.08 253.61 379.58 250.996C318.09 248.382 290.33 226.82 219.04 235.314C86.7 250.996 104.54 376.559 123.81 470.432C143.07 564.305 85.1699 596.322 126.86 651.644" fill="#82B440"/>
    <path d="M389.38 637.813H501.15L488.96 590.006L486.24 579.224L480.91 558.207H409.62L404.18 579.224L401.46 590.006L389.38 637.813Z" fill="#6C9629"/>
    <path d="M401.46 590.006H488.96L486.24 579.224H404.18L401.46 590.006Z" fill="#82B440"/>
    <path d="M346.39 650.99H544.04C548.83 650.99 552.64 647.179 552.64 642.387C552.64 637.596 548.83 633.784 544.04 633.784H346.39C341.6 633.784 337.79 637.596 337.79 642.387C337.79 647.179 341.71 650.99 346.39 650.99Z" fill="#82B440"/>
    <path d="M262.8 355.215V565.503C262.8 570.512 266.82 574.542 271.83 574.542H618.59C623.6 574.542 627.63 570.512 627.63 565.503V355.215C627.63 350.205 623.6 346.176 618.59 346.176H271.83C266.82 346.176 262.8 350.205 262.8 355.215Z" fill="#82B440"/>
    <path d="M270.2 352.819H620.99V538.169H270.2V352.819Z" fill="#BDD692"/>
    <g opacity="0.3">
        <path opacity="0.3" d="M304.92 352.819H314.71V510.508H304.92V352.819Z" fill="#EEFAFF"/>
        <path opacity="0.3" d="M279.99 352.819H289.79V510.508H279.99V352.819Z" fill="#EEFAFF"/>
        <path opacity="0.3" d="M603.9 352.819H613.69V510.508H603.9V352.819Z" fill="#EEFAFF"/>
        <path opacity="0.3" d="M578.97 352.819H588.77V510.508H578.97V352.819Z" fill="#EEFAFF"/>
        <path opacity="0.3" d="M554.05 352.819H563.85V510.508H554.05V352.819Z" fill="#EEFAFF"/>
        <path opacity="0.3" d="M529.24 352.819H539.03V510.508H529.24V352.819Z" fill="#EEFAFF"/>
        <path opacity="0.3" d="M504.31 352.819H514.11V510.508H504.31V352.819Z" fill="#EEFAFF"/>
        <path opacity="0.3" d="M479.39 352.819H489.18V510.508H479.39V352.819Z" fill="#EEFAFF"/>
        <path opacity="0.3" d="M454.46 352.819H464.26V510.508H454.46V352.819Z" fill="#EEFAFF"/>
        <path opacity="0.3" d="M429.54 352.819H439.33V510.508H429.54V352.819Z" fill="#EEFAFF"/>
        <path opacity="0.3" d="M404.61 352.819H414.41V510.508H404.61V352.819Z" fill="#EEFAFF"/>
        <path opacity="0.3" d="M379.69 352.819H389.49V510.508H379.69V352.819Z" fill="#EEFAFF"/>
        <path opacity="0.3" d="M354.77 352.819H364.56V510.508H354.77V352.819Z" fill="#EEFAFF"/>
        <path opacity="0.3" d="M329.84 352.819H339.64V510.508H329.84V352.819Z" fill="#EEFAFF"/>
    </g>
    <path d="M270.2 510.508H620.99V538.278H270.2V510.508Z" fill="#0A2342"/>
    <path d="M445.21 564.196C449.89 564.196 453.59 560.385 453.59 555.811C453.59 551.128 449.78 547.425 445.21 547.425C440.53 547.425 436.83 551.237 436.83 555.811C436.83 560.493 440.64 564.196 445.21 564.196Z" fill="#6C9629"/>
    <path opacity="0.2" d="M419.42 574.433H444.12L379.25 346.176H354.66L419.42 574.433Z" fill="url(#paint0_linear)"/>
    <path opacity="0.2" d="M357.49 574.433H409.84L344.97 346.176H292.73L357.49 574.433Z" fill="url(#paint1_linear)"/>
    <path d="M283.59 527.061H571.47C572.99 527.061 574.19 525.863 574.19 524.338C574.19 522.814 572.99 521.616 571.47 521.616H283.59C282.06 521.616 280.86 522.814 280.86 524.338C280.86 525.863 282.06 527.061 283.59 527.061Z" fill="#9494ED"/>
    <path d="M427.58 521.616V527.061H571.47C572.99 527.061 574.19 525.863 574.19 524.338C574.19 522.814 572.99 521.616 571.47 521.616H427.58Z" fill="#FC7A57"/>
    <path d="M427.47 529.239C424.77 529.239 422.57 527.045 422.57 524.338C422.57 521.632 424.77 519.438 427.47 519.438C430.18 519.438 432.37 521.632 432.37 524.338C432.37 527.045 430.18 529.239 427.47 529.239Z" fill="white"/>
    <path d="M586.93 526.829C585.55 520.976 589.18 515.111 595.03 513.728C600.88 512.346 606.74 515.971 608.12 521.824C609.5 527.677 605.88 533.543 600.03 534.925C594.18 536.307 588.32 532.683 586.93 526.829Z" fill="white"/>
    <path d="M599.22 519.438L593.23 524.012C593.02 524.12 593.02 524.447 593.23 524.556L599.22 529.13C599.44 529.348 599.76 529.13 599.76 528.803V519.547C599.76 519.438 599.44 519.22 599.22 519.438Z" fill="#82B440"/>
    <path d="M701.85 490.143V512.468C701.85 512.795 701.96 513.121 702.18 513.339C702.51 513.775 702.94 513.993 703.49 513.993H736.25C736.68 513.993 737.01 513.775 737.34 513.557V492.866C737.34 492.103 736.68 491.45 735.92 491.45H712.96C712.19 491.45 711.54 490.797 711.54 490.034C711.54 489.272 710.89 488.619 710.13 488.619H703.16C702.51 488.836 701.85 489.49 701.85 490.143Z" fill="#6C9629"/>
    <path d="M702.18 513.448C702.51 513.884 702.94 514.102 703.49 514.102H736.25C736.68 514.102 737.01 513.884 737.34 513.666C737.44 513.557 737.55 513.339 737.66 513.23V513.121L744.95 496.46C745.28 495.588 744.74 494.608 743.76 494.608H711.32C710.78 494.608 710.34 494.935 710.13 495.37L703.27 510.943L702.18 513.448Z" fill="#82B440"/>
    <path d="M773.91 652.079H116.63" stroke="#82B440" stroke-width="2" stroke-miterlimit="10"/>
    <path d="M547.09 378.411H706.64C707.51 378.411 708.17 377.757 708.17 376.886V258.075C708.17 255.352 705.99 253.174 703.27 253.174H552.64C548.61 253.174 545.45 256.441 545.45 260.362V376.777C545.56 377.757 546.21 378.411 547.09 378.411Z" fill="#CCED98"/>
    <path d="M554.81 372.312H698.7C700.44 372.312 701.75 370.896 701.75 369.263V348.463C701.75 346.72 700.33 345.413 698.7 345.413H554.81C553.07 345.413 551.77 346.829 551.77 348.463V369.263C551.77 371.005 553.07 372.312 554.81 372.312Z" fill="white"/>
    <path d="M553.72 340.948H699.9C700.98 340.948 701.85 340.077 701.85 338.988V332.019C701.85 330.93 700.98 330.058 699.9 330.058H553.72C552.64 330.058 551.77 330.93 551.77 332.019V338.988C551.77 340.077 552.64 340.948 553.72 340.948Z" fill="white"/>
    <path opacity="0.31" d="M614.46 274.301H700.11C701.42 274.301 702.51 273.212 702.51 271.905C702.51 270.598 701.42 269.509 700.11 269.509H614.46C613.15 269.509 612.06 270.598 612.06 271.905C612.06 273.321 613.15 274.301 614.46 274.301Z" fill="white"/>
    <path opacity="0.31" d="M614.46 284.32H700.11C701.42 284.32 702.51 283.231 702.51 281.924C702.51 280.617 701.42 279.528 700.11 279.528H614.46C613.15 279.528 612.06 280.617 612.06 281.924C612.06 283.231 613.15 284.32 614.46 284.32Z" fill="white"/>
    <path opacity="0.31" d="M614.46 294.339H700.11C701.42 294.339 702.51 293.25 702.51 291.943C702.51 290.636 701.42 289.547 700.11 289.547H614.46C613.15 289.547 612.06 290.636 612.06 291.943C612.06 293.25 613.15 294.339 614.46 294.339Z" fill="white"/>
    <path opacity="0.31" d="M614.46 304.249H700.11C701.42 304.249 702.51 303.16 702.51 301.853C702.51 300.546 701.42 299.457 700.11 299.457H614.46C613.15 299.457 612.06 300.546 612.06 301.853C612.06 303.16 613.15 304.249 614.46 304.249Z" fill="white"/>
    <path opacity="0.31" d="M614.46 314.268H700.11C701.42 314.268 702.51 313.179 702.51 311.872C702.51 310.565 701.42 309.476 700.11 309.476H614.46C613.15 309.476 612.06 310.565 612.06 311.872C612.06 313.179 613.15 314.268 614.46 314.268Z" fill="white"/>
    <path opacity="0.31" d="M634.59 324.178H700.11C701.42 324.178 702.51 323.089 702.51 321.782C702.51 320.475 701.42 319.386 700.11 319.386H634.59C633.29 319.386 632.2 320.475 632.2 321.782C632.2 323.198 633.18 324.178 634.59 324.178Z" fill="white"/>
    <path d="M547.19 249.036H706.53C707.41 249.036 708.17 249.798 708.17 250.669V262.866H545.45V250.778C545.56 249.798 546.21 249.036 547.19 249.036Z" fill="#82B440"/>
    <path d="M569.61 256.005C569.61 256.877 570.27 257.53 571.14 257.53C572.01 257.53 572.66 256.877 572.66 256.005C572.66 255.134 572.01 254.481 571.14 254.481C570.38 254.481 569.61 255.134 569.61 256.005Z" fill="white"/>
    <path d="M562.21 256.005C562.21 256.877 562.87 257.53 563.74 257.53C564.61 257.53 565.26 256.877 565.26 256.005C565.26 255.134 564.61 254.481 563.74 254.481C562.87 254.481 562.21 255.134 562.21 256.005Z" fill="white"/>
    <path d="M554.7 256.005C554.7 256.877 555.36 257.53 556.23 257.53C557.1 257.53 557.75 256.877 557.75 256.005C557.75 255.134 557.1 254.481 556.23 254.481C555.36 254.481 554.7 255.134 554.7 256.005Z" fill="white"/>
    <path d="M551.77 271.143V322.762C551.77 323.633 552.42 324.287 553.29 324.287H604.23C605.1 324.287 605.75 323.633 605.75 322.762V271.143C605.75 270.272 605.1 269.618 604.23 269.618H553.29C552.42 269.509 551.77 270.272 551.77 271.143Z" fill="white"/>
    <path d="M551.77 313.941V322.653C551.77 323.524 552.42 324.178 553.29 324.178H578.65L577.56 312.961L567.11 301.417C566.24 300.546 564.93 300.437 563.96 301.308L552.42 312.307C551.98 312.743 551.77 313.288 551.77 313.941Z" fill="#6C9629"/>
    <path d="M558.84 324.178H604.33C605.21 324.178 605.86 323.524 605.86 322.653V313.832C605.86 313.288 605.64 312.743 605.21 312.307L589.53 295.863C588.66 294.992 587.25 294.992 586.38 295.863L558.84 324.178Z" fill="#82B440"/>
    <path d="M558.95 284.32C558.95 287.805 561.78 290.636 565.26 290.636C568.74 290.636 571.57 287.805 571.57 284.32C571.57 280.835 568.74 278.004 565.26 278.004C561.78 278.004 558.95 280.835 558.95 284.32Z" fill="#6C9629"/>
    <path d="M624.69 546.227C624.69 546.227 621.42 557.553 633.61 557.553C635.35 557.553 636.77 557.118 638.07 556.464C642.54 554.286 643.63 546.663 643.63 546.663C639.82 545.683 641.12 540.129 641.12 540.129L627.52 540.456C627.52 540.456 628.17 544.049 627.19 545.029C625.56 546.881 624.69 546.227 624.69 546.227Z" fill="#F7B59C"/>
    <path d="M642.86 545.901C642.86 545.901 643.63 556.029 634.16 556.029C625.56 556.029 625.45 549.386 626.1 545.683C616.31 546.554 605.53 550.475 600.09 555.048C593.56 563.434 589.1 576.284 589.1 576.284C589.1 576.284 592.14 577.7 595.19 578.68C598.35 579.66 600.74 581.076 600.74 581.076L604.55 633.022H664.63L665.61 581.076C665.61 581.076 669.53 580.096 672.79 579.116C677.47 577.591 679.22 576.066 679.22 576.066C679.22 576.066 675.62 565.394 670.18 556.682C664.63 551.455 654.29 547.207 642.86 545.901Z" fill="#FC7A57"/>
    <path d="M678.13 576.502C678.13 576.502 683.9 596.758 683.35 606.45C682.81 616.142 659.95 629.646 659.95 629.646L657.01 619.409C657.01 619.409 666.48 615.38 667.9 607.974C669.31 600.569 661.37 582.056 661.37 582.056C661.37 582.056 664.85 581.076 669.75 579.66C674.32 578.462 678.13 576.502 678.13 576.502Z" fill="#F7B59C"/>
    <path d="M589.75 576.502C589.75 576.502 583.98 596.758 584.53 606.45C585.07 616.142 607.93 629.646 607.93 629.646L610.86 619.409C610.86 619.409 601.4 615.38 599.98 607.974C598.57 600.569 606.84 581.62 606.84 581.62C606.84 581.62 603.03 580.749 598.24 579.442C593.56 578.244 589.75 576.502 589.75 576.502Z" fill="#F7B59C"/>
    <path d="M597.26 633.784H671.49L673.12 587.283C673.12 586.085 672.25 585.105 670.94 585.105H597.59C596.39 585.105 595.41 586.085 595.41 587.283L597.26 633.784Z" fill="#BDD692"/>
    <path d="M603.14 644.456C603.14 644.456 601.5 642.605 597.91 642.496C595.52 642.387 588.77 643.912 585.61 643.912C582.35 643.912 579.08 643.15 577.23 645.872C574.08 650.555 575.49 654.693 580.72 655.346C583.55 655.673 585.94 653.822 590.51 654.257C594.97 654.693 601.83 653.168 603.79 650.01" fill="#16324F"/>
    <path d="M609.45 642.278C609.45 642.278 605.86 643.258 603.57 643.476C601.18 643.585 595.95 643.041 593.56 644.565C590.95 646.199 591.93 650.664 593.56 651.644C596.17 653.277 598.35 652.406 603.25 650.882C608.14 649.357 613.8 649.901 613.8 649.901" fill="#F7B59C"/>
    <path d="M602.16 652.842C602.16 652.842 657.23 651.862 671.81 649.901C678.02 649.03 683.79 647.723 688.58 645.763C695.22 641.843 697.61 632.477 693.15 623.874C691.08 619.845 684.66 620.607 683.68 620.607C683.46 620.607 683.35 620.607 683.35 620.607C665.5 621.26 649.28 625.834 630.89 633.24C613.8 640.1 600.74 642.932 600.74 642.932C599.76 649.901 602.16 652.842 602.16 652.842Z" fill="#051528"/>
    <path d="M588.88 646.852C588.88 646.852 590.29 646.09 590.84 646.961C591.27 647.832 591.6 651.535 591.38 652.079C590.95 653.06 588.77 652.733 588.77 652.733L587.03 648.05L588.88 646.852Z" fill="#4C4051"/>
    <path d="M664.41 644.456C664.41 644.456 666.05 642.496 669.86 642.387C672.36 642.278 679.32 643.912 682.7 643.803C686.07 643.694 689.34 643.041 691.51 645.219C695.54 649.466 691.84 654.802 686.29 655.455C683.35 655.782 682.48 654.149 677.69 654.584C673.12 655.02 665.94 653.495 663.87 650.228" fill="#16324F"/>
    <path d="M657.99 642.278C657.99 642.278 661.69 643.367 664.2 643.476C666.7 643.585 672.14 642.932 674.64 644.565C677.37 646.199 676.39 650.882 674.64 651.971C671.92 653.713 669.64 652.842 664.63 651.317C659.62 649.793 653.64 650.337 653.64 650.337" fill="#F7B59C"/>
    <path d="M578.65 645.654C583.65 647.832 589.86 649.248 596.39 650.119C611.08 651.971 666.15 652.842 666.15 652.842C666.15 652.842 668.55 649.901 667.57 642.823C667.57 642.823 654.51 639.991 637.31 633.24C619.35 626.161 603.35 621.696 586.05 620.825C582.68 621.152 578.76 622.676 575.93 628.448C572.23 636.18 575.06 644.239 578.65 645.654Z" fill="#0A2342"/>
    <path d="M676.17 645.11C676.17 645.11 674.32 644.13 673.66 645.219C673.01 646.308 672.69 651.099 673.01 651.862C673.56 653.168 676.28 652.733 676.28 652.733L678.45 646.743L676.17 645.11Z" fill="#594A5F"/>
    <path d="M618.37 513.775C618.37 513.775 613.26 513.23 619.03 526.516C621.2 531.526 621.97 531.199 621.97 531.417C621.97 531.635 623.93 529.783 623.93 528.912C623.93 528.041 623.82 521.507 623.71 521.18C623.82 520.853 618.37 513.775 618.37 513.775Z" fill="#2C1E56"/>
    <path d="M648.41 516.824C648.41 516.824 652.33 515.735 650.81 523.576C649.72 528.912 646.89 531.09 646.89 531.308C646.89 531.526 644.93 529.674 644.93 528.803C644.93 527.932 645.04 521.398 645.15 521.071C645.15 520.853 648.41 516.824 648.41 516.824Z" fill="#2C1E56"/>
    <path d="M647.33 526.734C647.33 526.734 648.96 525.101 649.5 527.279C649.94 529.457 648.2 535.011 646.02 532.833" fill="#E5A18C"/>
    <path d="M621.53 526.734C621.53 526.734 619.9 525.101 619.35 527.279C618.92 529.457 620.66 535.011 622.84 532.833" fill="#E5A18C"/>
    <path d="M633.94 543.832C633.94 543.832 633.94 543.832 634.05 543.832C635.57 543.94 649.39 544.049 647.65 518.893H621.31C621.31 519.002 618.16 542.307 633.94 543.832Z" fill="#F7B59C"/>
    <path d="M624.9 504.845C619.9 506.261 616.74 512.577 619.25 517.586C621.64 522.596 629.58 525.427 638.4 523.576C643.63 522.487 645.26 520.418 648.41 520.527C650.81 520.636 652.99 519.22 653.86 516.933C654.94 513.884 655.71 509.745 652.44 507.35C643.84 509.745 632.41 502.667 624.9 504.845Z" fill="#2C1E56"/>
    <path d="M630.13 607.974C630.13 610.588 632.31 612.766 634.92 612.766C637.53 612.766 639.71 610.588 639.71 607.974C639.71 605.361 637.53 603.183 634.92 603.183C632.2 603.183 630.13 605.252 630.13 607.974Z" fill="white"/>
    <path d="M640.9 541.762C640.9 541.762 640.14 542.307 638.95 542.743C637.75 543.178 636.01 543.614 634.37 543.505C633.5 543.505 632.63 543.287 631.87 543.178C631.11 542.96 630.35 542.743 629.69 542.525C628.5 542.089 627.73 541.654 627.73 541.654C627.73 541.654 628.39 542.307 629.59 542.851C630.13 543.178 630.89 543.505 631.76 543.723C632.52 543.94 633.5 544.158 634.37 544.158C635.24 544.158 636.22 544.158 636.99 543.94C637.86 543.723 638.51 543.396 639.16 543.069C640.36 542.525 640.9 541.762 640.9 541.762Z" fill="#EAA18B"/>
    <path d="M640.03 529.566C639.92 530.437 639.82 531.526 640.8 531.635C641.23 531.744 641.67 531.308 641.78 531.09C641.99 530.546 641.88 530.328 641.88 529.783C641.99 528.694 640.14 528.477 640.03 529.566Z" fill="#452E17"/>
    <path d="M640.47 530.328C640.47 530.546 640.47 530.763 640.69 530.872C640.8 530.872 640.9 530.872 640.9 530.763C641.01 530.655 640.9 530.546 640.9 530.437C640.9 530.11 640.47 530.001 640.47 530.328Z" fill="white"/>
    <path d="M627.95 529.566C627.84 530.437 627.73 531.526 628.71 531.635C629.15 531.744 629.59 531.308 629.69 531.09C629.91 530.546 629.8 530.328 629.8 529.783C629.91 528.694 628.06 528.477 627.95 529.566Z" fill="#452E17"/>
    <path d="M628.39 530.328C628.39 530.546 628.39 530.763 628.61 530.872C628.71 530.872 628.82 530.872 628.82 530.763C628.93 530.655 628.82 530.546 628.82 530.437C628.82 530.11 628.39 530.001 628.39 530.328Z" fill="white"/>
    <path d="M626.43 526.298C626.32 526.516 626.43 526.298 626.32 526.625C626.32 526.952 626.54 527.17 626.97 527.17C627.95 527.17 631 527.279 631 527.279C631.33 527.279 631.33 527.061 631.11 526.952C630.56 526.516 630.02 525.863 627.19 525.863C626.97 525.863 626.54 525.972 626.43 526.298Z" fill="#003051"/>
    <path d="M643.3 526.298C643.41 526.516 643.3 526.298 643.41 526.625C643.41 526.952 643.19 527.17 642.75 527.17C641.78 527.17 638.73 527.279 638.73 527.279C638.4 527.279 638.4 527.061 638.62 526.952C639.16 526.516 639.71 525.863 642.54 525.863C642.86 525.863 643.19 525.972 643.3 526.298Z" fill="#003051"/>
    <path d="M634.92 531.199C634.92 531.199 636.12 533.704 635.68 534.248C635.35 534.793 633.94 534.793 633.94 534.793" stroke="#EAA18B" stroke-width="0.5" stroke-miterlimit="10" stroke-linecap="round"/>
    <path d="M637.97 538.495C637.97 538.495 634.37 540.673 631.11 538.278" stroke="#C9806F" stroke-width="0.5" stroke-miterlimit="10" stroke-linecap="round"/>
    <path d="M354.55 648.268V550.148C354.55 549.93 354.77 549.712 354.98 549.712H357.38C357.6 549.712 357.81 549.93 357.81 550.148V648.268C358.47 648.377 358.9 648.921 358.9 649.575C358.9 650.337 358.25 650.99 357.49 650.99H354.98C354.22 650.99 353.57 650.337 353.57 649.575C353.46 648.921 353.9 648.377 354.55 648.268Z" fill="white"/>
    <path d="M159.94 648.159L160.05 549.712H163.21V648.159H163.32C163.86 648.159 164.3 648.595 164.3 649.139V649.901C164.3 650.446 163.86 650.882 163.32 650.882H159.94C159.4 650.882 158.96 650.446 158.96 649.901V649.139C158.96 648.595 159.4 648.159 159.94 648.159Z" fill="white"/>
    <path d="M135.35 550.692H385.35C386.98 550.692 388.29 549.386 388.29 547.752C388.29 546.119 386.98 544.812 385.35 544.812H135.24C133.6 544.812 132.3 546.119 132.3 547.752C132.3 549.386 133.71 550.692 135.35 550.692Z" fill="#CCED98"/>
    <path d="M252.02 541.545H324.18L338.44 496.568C339.2 494.281 337.46 491.995 335.07 491.995H270.2C268.67 491.995 267.37 492.975 266.82 494.39L252.02 541.545Z" fill="#0A2342"/>
    <path d="M253.55 541.545H321.9L336.26 495.915C336.48 495.044 335.94 494.173 335.07 494.173H269.55C268.89 494.173 268.35 494.608 268.13 495.262L253.55 541.545Z" fill="white"/>
    <path d="M296.54 501.251H327.99C328.43 501.251 328.86 500.924 328.86 500.38C328.86 499.944 328.54 499.509 327.99 499.509H296.54C296.1 499.509 295.67 499.835 295.67 500.38C295.78 500.924 296.1 501.251 296.54 501.251Z" fill="#D8E8B8"/>
    <path d="M291.75 505.172H326.9C327.34 505.172 327.77 504.845 327.77 504.3C327.77 503.865 327.45 503.429 326.9 503.429H291.75C291.31 503.429 290.88 503.756 290.88 504.3C290.88 504.845 291.2 505.172 291.75 505.172Z" fill="#D8E8B8"/>
    <path d="M294.9 509.201H325.49C325.92 509.201 326.36 508.874 326.36 508.33C326.36 507.894 326.03 507.459 325.49 507.459H294.9C294.47 507.459 294.03 507.785 294.03 508.33C294.14 508.765 294.47 509.201 294.9 509.201Z" fill="#D8E8B8"/>
    <path d="M300.02 513.121H324.29C324.73 513.121 325.16 512.795 325.16 512.25C325.16 511.815 324.84 511.379 324.29 511.379H300.02C299.58 511.379 299.15 511.706 299.15 512.25C299.15 512.686 299.58 513.121 300.02 513.121Z" fill="#D8E8B8"/>
    <path d="M287.94 517.042H323.09C323.53 517.042 323.96 516.715 323.96 516.171C323.96 515.735 323.64 515.299 323.09 515.299H287.94C287.5 515.299 287.07 515.626 287.07 516.171C287.07 516.606 287.39 517.042 287.94 517.042Z" fill="#D8E8B8"/>
    <path d="M291.2 520.962H321.79C322.22 520.962 322.66 520.636 322.66 520.091C322.66 519.655 322.33 519.22 321.79 519.22H291.2C290.77 519.22 290.33 519.547 290.33 520.091C290.33 520.527 290.66 520.962 291.2 520.962Z" fill="#D8E8B8"/>
    <path d="M284.13 528.803H319.28C319.72 528.803 320.16 528.476 320.16 527.932C320.16 527.496 319.83 527.061 319.28 527.061H284.13C283.69 527.061 283.26 527.387 283.26 527.932C283.26 528.368 283.69 528.803 284.13 528.803Z" fill="#D8E8B8"/>
    <path d="M282.82 532.724H317.98C318.41 532.724 318.85 532.397 318.85 531.852C318.85 531.417 318.52 530.981 317.98 530.981H282.82C282.39 530.981 281.95 531.308 281.95 531.852C281.95 532.288 282.39 532.724 282.82 532.724Z" fill="#D8E8B8"/>
    <path d="M264.21 532.724H275.53C276.62 532.724 277.49 532.07 277.82 530.981L287.29 501.033C287.83 499.509 286.63 497.875 285 497.875H273.68C272.59 497.875 271.72 498.529 271.4 499.618L261.93 529.565C261.38 531.09 262.58 532.724 264.21 532.724Z" fill="#D8E8B8"/>
    <path d="M246.04 544.812H324.51C325.81 544.812 326.79 543.723 326.79 542.525C326.79 541.218 325.71 540.238 324.51 540.238H246.04C244.73 540.238 243.75 541.327 243.75 542.525C243.64 543.832 244.73 544.812 246.04 544.812Z" fill="#0A2342"/>
    <path d="M238.2 484.807C238.74 484.807 239.4 484.48 239.72 483.936L242.01 479.907C242.23 479.471 242.34 479.035 242.12 478.6C242.01 478.164 241.68 477.728 241.25 477.511L234.93 474.135C234.06 473.699 233.08 474.026 232.65 474.788L230.47 478.709C230.25 479.144 230.25 479.58 230.36 480.015C230.47 480.451 230.8 480.778 231.23 480.996L237.44 484.371C237.66 484.698 237.87 484.807 238.2 484.807ZM234.17 474.788C234.28 474.788 234.5 474.788 234.61 474.897L240.92 478.273C241.14 478.382 241.36 478.6 241.36 478.817C241.46 479.035 241.36 479.362 241.25 479.58L238.96 483.609C238.74 484.045 238.2 484.154 237.76 483.936L231.56 480.56C231.34 480.451 231.23 480.233 231.12 480.015C231.02 479.798 231.12 479.58 231.23 479.362L233.41 475.442C233.52 475.006 233.85 474.788 234.17 474.788Z" fill="#1A1A47"/>
    <path d="M250.17 519.655C250.72 520.309 251.04 520.745 251.04 520.745C251.04 520.745 254.85 517.913 255.94 517.586C257.03 517.369 259.31 518.022 260.51 518.24C262.58 518.675 261.71 516.933 261.71 516.933C261.71 516.933 263.12 517.369 264.32 517.913C265.74 518.458 267.15 519.655 267.59 519.764C268.35 519.982 269.22 519.547 268.46 518.458C267.37 516.824 262.36 512.25 261.16 511.706C259.53 510.943 257.46 509.854 255.72 510.508C253.98 511.161 248.32 515.408 248.32 515.408C248.1 516.824 249.3 518.566 250.17 519.655Z" fill="#F7B59C"/>
    <path d="M251.59 520.744C251.59 520.744 232.87 537.08 218.93 538.713C205 540.347 181.39 513.884 181.39 513.884C181.39 513.884 182.91 499.727 191.62 501.469C200.32 503.211 211.97 524.12 217.08 525.101C222.09 526.081 248.43 514.973 248.43 514.973C248.43 514.973 249.19 515.517 250.06 516.933C251.04 518.566 251.59 520.744 251.59 520.744Z" fill="#CC5337"/>
    <path d="M210.12 456.928C214.58 451.81 221.11 451.265 226.23 451.81C232.87 452.572 238.74 457.037 240.59 463.462C241.46 466.294 241.57 469.452 240.27 473.046C236.13 484.48 231.67 490.797 228.3 493.955C226.77 495.371 223.62 493.41 220.46 492.321C220.02 492.212 219.59 492.321 219.37 492.757L217.52 496.133L204.46 493.519C204.46 493.519 206.42 489.381 207.18 486.005C205.77 483.827 201.96 466.294 210.12 456.928Z" fill="#F7B59C"/>
    <path d="M233.74 473.264C232.32 473.155 230.91 473.917 230.36 475.224C229.38 477.511 227.86 480.778 226.77 481.758C226.55 481.976 226.01 482.085 225.47 481.758C224.92 481.54 224.81 480.996 224.92 480.778C225.03 479.798 225.79 477.62 226.23 476.204C226.88 474.353 226.12 472.392 223.94 471.957C223.51 471.848 222.53 471.957 222.09 472.066C218.61 473.155 221 478.6 221.11 481.431C221.11 483.391 218.72 488.074 217.74 488.51C214.25 489.925 209.03 488.619 206.2 485.134C203.37 481.649 202.83 470.105 204.35 463.245C205.87 456.384 211.42 452.463 213.28 452.028C214.15 451.81 214.91 451.81 215.45 451.81C216 451.919 216.54 451.701 216.98 451.265C218.83 449.632 224.27 446.038 232.98 449.741C243.86 454.424 245.71 464.443 245.49 469.016C245.38 471.957 243.1 471.739 241.46 471.194C240.59 470.868 239.61 471.194 238.96 471.739C237.76 472.61 236.24 473.481 233.74 473.264Z" fill="#0B0B3A"/>
    <path d="M219.91 497.984C219.91 497.984 221.11 496.677 220.68 495.915C220.13 494.935 214.25 490.252 207.4 490.47C206.31 490.47 205 490.47 203.7 493.301C202.39 496.133 202.06 497.984 202.06 497.984H219.91Z" fill="#CC5337"/>
    <path d="M189.22 581.294C189.66 581.402 190.09 581.511 190.53 581.62C196.41 582.709 205.87 582.818 205.87 582.818C224.59 582.491 232.98 572.364 236.02 567.136C237.11 565.285 237.55 564.087 237.55 564.087C236.46 563.543 232.76 560.167 231.34 555.484C229.93 550.801 231.45 539.693 233.85 535.555C235.15 533.268 239.07 528.476 241.57 523.576C243.64 519.547 244.62 515.191 242.44 512.032C236.89 503.974 228.3 499.618 228.3 499.618C228.3 499.618 212.3 493.192 198.8 494.717C190.2 495.588 182.47 499.727 180.41 510.508C175.07 538.386 189.22 581.294 189.22 581.294Z" fill="#FC7A57"/>
    <path d="M228.51 636.615C228.51 636.615 229.82 638.14 231.89 638.467C234.17 638.793 235.81 637.704 235.81 637.704L236.89 634.655L229.71 633.131L228.51 636.615Z" fill="#F7B59C"/>
    <path d="M266.17 640.318C266.17 640.318 267.69 641.625 269.76 641.625C272.05 641.625 273.46 640.318 273.46 640.318L274.01 637.16H266.61L266.17 640.318Z" fill="#F7B59C"/>
    <path d="M228.51 633.24C228.95 633.457 230.47 634.002 230.91 634.22C233.63 635.091 237.44 635.962 237.44 635.962C243.64 622.567 253.65 588.917 253.65 588.917C255.07 582.927 250.82 580.531 247.12 580.314C245.82 580.205 244.62 580.422 243.75 580.858C240.16 582.383 234.93 592.402 234.93 592.402C234.93 592.402 233.3 595.886 231.67 603.074C230.15 610.152 228.51 633.24 228.51 633.24Z" fill="#051528"/>
    <path d="M214.47 581.838C214.47 585.214 215.45 590.659 220.46 592.184C227.97 594.471 233.63 593.164 242.34 591.639C249.63 590.332 261.27 586.085 264.86 584.778C265.3 584.561 265.19 584.887 265.19 585.323C263.56 593.491 266.28 637.813 266.28 637.813C266.28 637.813 267.48 638.14 268.78 638.358C269.22 638.467 269.76 638.467 270.2 638.467C272.05 638.467 275.64 638.14 275.64 638.14C275.64 638.14 282.39 606.994 283.48 589.461C284.56 572.037 283.48 569.314 275.2 566.483C265.95 563.325 237.66 564.087 237.66 564.087C237.55 564.414 235.59 569.859 229.71 574.76C226.12 577.7 221.22 580.422 214.47 581.838Z" fill="#0A2342"/>
    <path d="M205.98 599.589V644.456C205.98 646.09 207.29 647.397 208.92 647.397C209.57 647.397 210.12 647.179 210.66 646.852C211.43 646.308 211.86 645.436 211.86 644.565V599.698H205.98V599.589Z" fill="#A3C16F"/>
    <path d="M205.98 601.549V644.239C205.98 645.654 207.07 647.07 208.49 647.179C209.14 647.288 209.79 647.179 210.34 646.852C210.45 646.634 210.55 646.525 210.66 646.308V602.638C210.66 601.985 210.12 601.44 209.47 601.44H205.98V601.549Z" fill="#CCED98"/>
    <path d="M202.28 598.064C202.28 598.282 202.28 598.5 202.39 598.718C202.5 599.153 202.72 599.589 203.04 599.807C203.48 600.242 204.13 600.569 204.79 600.569H213.38C214.8 600.569 215.89 599.48 215.89 598.064C215.89 597.411 215.56 596.758 215.13 596.322C214.69 595.886 214.04 595.56 213.38 595.56H204.79C203.37 595.56 202.28 596.758 202.28 598.064Z" fill="#A3C16F"/>
    <path d="M202.39 598.718C202.5 599.153 202.72 599.589 203.04 599.807C203.48 600.242 204.13 600.569 204.79 600.569H213.06C212.95 600.134 212.73 599.698 212.4 599.371C211.97 598.936 211.32 598.609 210.66 598.609H202.39V598.718Z" fill="#CCED98"/>
    <path d="M171.59 519.873C171.59 519.873 171.59 519.982 171.59 519.873C171.59 520.2 171.7 520.527 171.81 520.744C172.46 523.685 174.96 529.348 175.29 537.951C175.51 543.178 175.29 557.226 175.51 565.721C175.51 567.028 175.62 568.117 175.62 569.097C176.05 576.611 178.66 587.719 186.39 593.273C194.34 599.262 210.34 598.173 220.02 597.956C229.71 597.738 253.76 593.382 255.61 589.788C256.05 589.026 256.16 588.263 256.05 587.719C255.94 587.174 255.72 586.739 255.29 586.303C254.42 585.432 253 585.105 251.7 585.432C247.78 586.412 236.13 588.699 230.91 582.056C224.59 573.997 225.36 564.741 222.64 545.138C220.02 526.625 214.25 520.962 204.68 517.26C194.45 513.339 178.01 514.973 173.88 516.28C172.57 516.715 171.48 518.24 171.59 519.873Z" fill="#A3C16F"/>
    <path d="M175.29 649.901C175.29 650.446 175.73 650.99 176.38 650.99H241.36C241.9 650.99 242.44 650.555 242.44 649.901C242.44 649.357 242.12 648.921 241.57 648.812L208.92 643.476L200.76 644.783L176.38 648.703C175.73 648.921 175.29 649.466 175.29 649.901Z" fill="#CCED98"/>
    <path d="M273.57 640.318C273.57 640.318 271.61 641.08 269.87 641.08C267.69 641.08 266.17 640.318 266.17 640.318C266.17 640.318 262.36 645.11 264.43 650.555C264.54 650.882 264.86 650.99 265.08 650.99H290.44C290.77 650.99 290.99 650.773 290.99 650.446C290.99 649.793 290.77 648.812 289.24 648.377C286.85 647.614 284.46 647.288 282.71 646.634C280.86 645.981 278.25 643.367 276.84 642.823C274.88 642.169 273.57 640.318 273.57 640.318Z" fill="#1A1A47"/>
    <path d="M235.81 637.813C235.81 637.813 233.74 638.249 232 638.031C229.93 637.704 228.51 636.724 228.51 636.724C228.51 636.724 224.05 640.863 225.14 646.525C225.25 646.852 225.47 647.07 225.79 647.07C225.79 647.07 239.18 650.119 243.75 650.773C246.47 651.208 250.93 651.208 250.93 651.208C251.26 651.208 251.59 650.99 251.59 650.773C251.7 650.119 251.59 649.139 250.17 648.377C248 647.288 245.6 646.525 243.97 645.545C242.23 644.674 240.16 641.625 238.74 640.863C236.89 639.774 235.81 637.813 235.81 637.813Z" fill="#1A1A47"/>
    <path d="M286.74 542.416C286.74 542.416 289.35 541.327 290.66 540.891C291.2 540.673 291.75 540.565 292.07 540.456C292.62 540.347 293.27 540.238 293.82 540.238H308.73C309.16 540.238 309.49 539.911 309.49 539.476C309.49 538.931 309.16 538.387 308.73 538.06L307.09 537.08L302.31 534.03C299.91 532.506 298.28 532.397 295.45 532.615C294.9 532.615 292.95 533.486 292.51 533.595C289.79 534.466 289.14 534.902 287.29 535.555C286.52 535.773 286.09 535.991 285.76 535.991C285.22 536.1 285.11 536.1 285.11 536.1C284.67 539.911 286.74 542.416 286.74 542.416Z" fill="#F7B59C"/>
    <path d="M228.84 507.023C230.8 505.825 236.68 502.558 244.19 514.319C251.7 526.081 254.09 531.09 256.27 534.793C258.88 536.426 285.54 535.664 285.54 535.664C285.54 535.664 287.18 539.258 287.5 542.307C287.5 542.307 273.35 549.386 254.63 550.692C240.16 550.692 225.14 522.269 224.49 518.784C223.61 515.191 224.16 509.854 228.84 507.023Z" fill="#FC7A57"/>
    <path d="M241.03 482.085C241.14 482.085 241.36 481.976 241.36 481.867C241.46 481.649 241.36 481.431 241.14 481.322L226.44 473.808C224.81 472.937 221.33 471.194 218.83 474.897C218.72 475.115 218.72 475.333 218.93 475.442C219.15 475.55 219.37 475.55 219.48 475.333C221.44 472.392 223.83 473.264 226.01 474.461L240.7 481.976C240.92 482.085 241.03 482.085 241.03 482.085Z" fill="#1A1A47"/>
    <path d="M226.55 474.57L224.59 480.778C224.59 480.778 223.07 482.193 221.66 480.56C220.24 478.926 218.93 473.046 221.66 472.066C224.27 471.086 225.9 472.501 226.55 474.57Z" fill="#F7B59C"/>
    <path d="M172.24 517.695C172.68 517.042 173.33 516.497 174.2 516.28C178.34 515.082 194.77 513.339 205 517.26C214.58 520.962 220.35 526.625 222.96 545.138C225.68 564.741 224.92 573.997 231.23 582.056C236.46 588.699 248.1 586.412 252.02 585.432C253.22 585.105 254.63 585.432 255.61 586.303C255.94 586.63 256.27 587.174 256.38 587.719C256.48 588.263 256.38 589.026 255.94 589.788C253.98 593.382 230.04 597.738 220.35 597.956C210.66 598.173 194.66 599.153 186.72 593.273C178.88 587.61 176.38 576.611 175.94 569.097C175.83 568.117 175.83 567.028 175.83 565.721C176.05 566.374 181.39 581.511 200.21 578.027C218.39 574.651 220.02 554.722 219.37 547.97C219.26 547.207 219.15 546.554 219.15 545.901C218.94 544.703 217.96 539.367 216.76 534.793C215.89 531.744 213.82 527.061 209.57 523.685C209.03 523.249 208.49 522.923 207.83 522.596C207.62 522.487 207.4 522.378 207.29 522.269C206.96 522.16 206.75 521.942 206.42 521.833C206.09 521.725 205.77 521.507 205.44 521.398C205.22 521.289 205 521.18 204.68 521.071C189.88 515.191 173.98 519.002 173 519.22C171.81 519.547 172.13 518.022 172.24 517.695Z" fill="#CCED98"/>
    <path d="M575.06 661.445L573.42 657.089C573.42 657.089 547.74 658.287 535.55 665.91L558.73 666.346L575.06 661.445Z" fill="#E1EFFF"/>
    <path d="M495.93 661.445L497.56 657.089C497.56 657.089 523.25 658.287 535.44 665.91L512.26 666.346L495.93 661.445Z" fill="#E1EFFF"/>
    <path d="M535.44 666.019C549.37 660.574 576.36 660.247 576.36 660.247V669.395H541.43H529.45H494.52V660.247C494.62 660.138 521.51 660.574 535.44 666.019Z" fill="#9EBAD8"/>
    <path d="M491.47 666.781H579.52V669.939H491.47V666.781Z" fill="#0A2342"/>
    <path d="M312.54 333.761L304.81 328.643C303.18 329.623 301.33 330.276 299.26 330.276H261.93C256.16 330.276 251.59 325.593 251.59 319.931V308.169C251.59 302.397 256.27 297.824 261.93 297.824H299.26C305.03 297.824 309.6 302.506 309.6 308.169V319.931C309.6 322.109 308.94 324.069 307.86 325.702L312.54 333.761ZM299.26 323.633C299.26 323.089 298.82 322.653 298.28 322.653H262.36C261.82 322.653 261.38 323.089 261.38 323.633C261.38 324.178 261.82 324.613 262.36 324.613H298.28C298.82 324.613 299.26 324.178 299.26 323.633ZM262.36 319.713H281.3C281.84 319.713 282.28 319.277 282.28 318.733C282.28 318.188 281.84 317.752 281.3 317.752H262.36C261.82 317.752 261.38 318.188 261.38 318.733C261.49 319.277 261.82 319.713 262.36 319.713ZM299.26 313.941C299.26 313.396 298.82 312.961 298.28 312.961H262.36C261.82 312.961 261.38 313.396 261.38 313.941C261.38 314.485 261.82 314.921 262.36 314.921H298.28C298.82 314.812 299.26 314.485 299.26 313.941ZM262.36 310.02H288.92C289.46 310.02 289.9 309.585 289.9 309.04C289.9 308.496 289.46 308.06 288.92 308.06H262.36C261.82 308.06 261.38 308.496 261.38 309.04C261.49 309.585 261.82 310.02 262.36 310.02ZM299.26 304.249C299.26 303.704 298.82 303.269 298.28 303.269H262.36C261.82 303.269 261.38 303.704 261.38 304.249C261.38 304.793 261.82 305.229 262.36 305.229H298.28C298.82 305.12 299.26 304.684 299.26 304.249Z" fill="#CCED98"/>
    <path d="M634.92 428.07H641.45" stroke="#82B440" stroke-miterlimit="10" stroke-linecap="round"/>
    <path d="M646.78 428.07H688.79C691.19 428.07 693.15 430.03 693.15 432.426V598.718C693.15 599.262 693.04 599.807 692.82 600.242" stroke="#82B440" stroke-miterlimit="10" stroke-linecap="round" stroke-dasharray="11.86 11.86"/>
    <path d="M691.3 602.42C690.64 602.856 689.77 603.183 688.79 603.183H684.88" stroke="#82B440" stroke-miterlimit="10" stroke-linecap="round"/>
    <path d="M255.72 372.312H249.19" stroke="#82B440" stroke-miterlimit="10" stroke-linecap="round"/>
    <path d="M243.86 372.312H152.54C148.3 372.312 144.82 375.797 144.82 380.044V514.864C144.82 519.111 148.3 522.596 152.54 522.596H155.16" stroke="#82B440" stroke-miterlimit="10" stroke-linecap="round" stroke-dasharray="11.84 11.84"/>
    <path d="M157.77 522.596H164.3" stroke="#82B440" stroke-miterlimit="10" stroke-linecap="round"/>
    <path d="M539.03 269.509H476.88C469.92 269.509 464.26 275.172 464.26 282.142V341.602" stroke="#82B440" stroke-miterlimit="10" stroke-linecap="round" stroke-dasharray="12 12"/>
    <path d="M348.89 533.377C348.89 533.377 356.07 529.13 357.7 520.853C357.7 520.853 350.96 522.269 347.47 533.377" fill="white"/>
    <path d="M346.06 533.377C346.06 533.377 338.88 529.13 337.24 520.853C337.24 520.853 343.99 522.269 347.47 533.377" fill="white"/>
    <path d="M348.24 532.724C348.24 532.724 353.46 526.19 351.94 517.913C351.94 517.913 346.06 521.725 346.93 533.268" fill="white"/>
    <path d="M346.49 532.724C346.49 532.724 341.49 526.081 343.23 517.804C343.23 517.804 349 521.725 347.91 533.268" fill="white"/>
    <path d="M339.75 531.635H355.53V544.812H339.75V531.635Z" fill="#CFE3FF"/>
    <path opacity="0.5" d="M350.85 531.635H355.53V544.812H350.85V531.635Z" fill="#94C1F7"/>
    <g opacity="0.5">
        <g opacity="0.5">
            <g opacity="0.5">
                <path opacity="0.5" d="M194.77 452.79L201.96 456.602L198.36 447.345" fill="#0F7173"/>
            </g>
            <path opacity="0.5" d="M172.79 441.029C172.79 449.305 179.54 456.057 187.81 456.057C196.08 456.057 202.83 449.305 202.83 441.029C202.83 432.752 196.08 426 187.81 426C179.43 425.891 172.79 432.643 172.79 441.029Z" fill="#0F7173"/>
        </g>
    </g>
    <path d="M194.12 439.504L189.55 445.276L181.49 436.782" stroke="white" stroke-width="1.3801" stroke-miterlimit="10" stroke-linecap="round" stroke-linejoin="round"/>
    <path d="M661.48 502.231L654.29 506.043L657.88 496.786" fill="#0A2342"/>
    <path d="M683.46 490.47C683.46 498.746 676.71 505.498 668.44 505.498C660.17 505.498 653.42 498.746 653.42 490.47C653.42 482.193 660.17 475.442 668.44 475.442C676.82 475.442 683.46 482.085 683.46 490.47Z" fill="#0A2342"/>
    <path d="M674.75 489.054L670.18 494.717L662.13 486.223" stroke="white" stroke-width="1.3801" stroke-miterlimit="10" stroke-linecap="round" stroke-linejoin="round"/>
    <path d="M182.26 361.531H240.7C241.79 361.531 242.66 360.66 242.66 359.571V300.437C242.66 299.348 241.79 298.477 240.7 298.477H182.26C181.17 298.477 180.3 299.348 180.3 300.437V359.679C180.3 360.768 181.17 361.531 182.26 361.531Z" fill="white"/>
    <g opacity="0.5">
        <path opacity="0.5" d="M195.21 326.791C195.21 329.405 195.75 332.019 196.84 334.305C197.38 335.394 197.93 336.484 198.69 337.464C199.23 338.117 199.67 338.77 200.32 339.315C200.87 339.859 201.3 340.295 201.85 340.731C202.61 341.384 203.48 341.929 204.46 342.473C205.22 342.909 205.87 343.235 206.64 343.562C208.38 344.215 210.23 344.651 212.08 344.76C212.4 344.76 212.84 344.76 213.17 344.76C217.52 344.76 221.44 343.235 224.49 340.731C228.51 337.464 231.12 332.345 231.12 326.791C231.12 324.178 230.58 321.782 229.6 319.604C227.32 314.485 222.85 310.565 217.3 309.367C217.3 309.367 217.19 309.367 217.08 309.367C216.54 309.258 215.89 309.149 215.34 309.04C214.58 308.931 213.82 308.931 213.17 308.931C206.31 308.931 200.43 312.743 197.38 318.406C197.17 318.733 196.95 319.168 196.84 319.604C195.75 321.673 195.21 324.178 195.21 326.791Z" fill="#82B440"/>
        <g opacity="0.5">
            <g opacity="0.5">
                <path opacity="0.5" d="M208.7 342.691C208.59 343.562 209.68 344.107 210.55 344.324C211.1 344.433 211.64 344.542 212.08 344.651C212.4 344.651 212.84 344.651 213.17 344.651C217.41 344.651 221.44 343.126 224.49 340.622C224.49 340.513 224.49 340.295 224.49 340.186C224.49 339.533 224.27 338.879 224.05 338.117C223.94 337.573 223.83 337.028 223.83 336.375C223.83 336.157 223.83 335.939 223.94 335.721C224.05 335.612 224.27 335.503 224.38 335.503C225.36 335.068 226.12 333.761 225.68 332.781C224.81 330.603 221.76 331.365 223.72 325.92C224.16 324.722 223.29 324.504 223.29 324.178C223.51 323.415 226.12 323.633 226.88 323.524C227.32 323.415 227.86 323.415 228.19 323.089C228.4 322.871 228.51 322.653 228.62 322.326C229.06 321.346 229.27 320.366 229.38 319.277C227.1 314.159 222.53 310.238 216.87 308.931L216.76 309.476C216.98 311.545 217.08 313.614 217.19 315.574C217.19 315.901 217.19 316.337 217.3 316.663C217.63 317.426 218.5 317.752 219.26 317.644C219.59 317.644 219.91 317.535 220.13 317.644C220.57 317.861 220.46 318.515 220.46 318.95C220.57 319.713 221.33 320.366 221.76 321.02C222.31 321.673 222.42 322.762 221.76 323.198C221.55 323.306 221.33 323.306 221.22 323.524C221.11 323.742 221.22 324.069 221.55 324.287C221.76 324.395 222.09 324.504 222.2 324.722C222.53 325.158 222.31 325.811 221.87 326.247C221.44 326.573 220.89 326.9 220.57 327.336C220.13 327.88 220.02 328.643 219.59 329.187C218.39 330.385 216 329.078 214.8 330.385C214.15 331.038 214.15 332.019 213.6 332.672C213.28 333.108 212.73 333.325 212.3 333.652C211.32 334.414 210.55 335.612 210.55 336.81C210.45 338.117 210.99 339.751 210.01 340.731C209.9 341.602 208.81 341.82 208.7 342.691Z" fill="#81A8CC"/>
            </g>
            <g opacity="0.5">
                <path opacity="0.5" d="M197.38 318.188C197.71 318.188 198.04 318.188 198.26 318.297C198.36 318.297 198.47 318.406 198.58 318.406C198.69 318.515 198.69 318.733 198.69 318.95C198.69 319.495 198.91 320.148 199.34 320.475C199.45 320.584 199.56 320.584 199.67 320.693C200 320.802 200.21 320.366 200.32 320.039C200.65 319.168 200.98 318.297 201.3 317.426C201.41 317.208 201.52 316.881 201.74 316.663C202.17 316.337 202.72 316.446 203.15 316.228C203.7 315.901 203.92 315.03 204.57 315.139C205 315.248 205 315.901 204.89 316.446C204.79 316.881 204.57 317.535 204.89 317.861C205.33 318.188 205.87 317.861 206.2 317.426C206.53 316.99 206.74 316.446 207.29 316.228C207.94 316.01 208.7 316.555 209.14 317.208C209.57 317.861 209.9 318.624 210.55 318.841C210.88 318.95 211.32 318.95 211.64 319.168C212.3 319.495 212.3 320.475 212.08 321.237C211.86 322 211.53 322.762 211.86 323.415C211.97 323.524 211.97 323.633 212.19 323.742C212.51 323.851 212.73 323.524 212.95 323.306C214.04 321.891 215.02 320.475 215.78 318.841C215.89 318.515 216.11 318.188 216 317.861C216 317.644 215.89 317.426 215.78 317.208C215.56 316.446 215.78 315.683 215.67 314.921C215.56 313.614 214.47 312.416 214.91 311.218C215.02 310.783 215.34 310.456 215.56 310.02C215.78 309.585 215.78 309.04 215.45 308.714C214.69 308.605 213.93 308.605 213.28 308.605C206.31 308.714 200.43 312.634 197.38 318.188Z" fill="#81A8CC"/>
            </g>
            <g opacity="0.5">
                <path opacity="0.5" d="M195.21 326.791C195.21 329.405 195.75 332.019 196.84 334.305C197.38 335.394 197.93 336.484 198.69 337.464C198.69 337.355 198.69 337.246 198.69 337.137C198.69 336.701 198.69 336.266 198.47 335.83C198.36 335.612 198.15 335.395 198.04 335.177C197.71 334.523 197.82 333.87 197.82 333.108C197.82 332.781 197.93 332.345 198.15 332.019C198.36 331.801 198.58 331.801 198.69 331.583C199.13 331.147 198.91 330.494 198.91 329.949C198.8 329.405 198.91 328.643 199.34 328.425C200 329.296 200.65 330.167 201.41 330.821C201.3 330.167 202.06 329.732 202.61 329.841C203.15 330.058 203.48 330.712 203.48 331.256C204.02 331.256 204.13 330.494 204.02 330.058C203.92 329.187 203.81 328.316 203.7 327.445C204.24 327.227 204.68 328.098 205.33 328.207C205.87 328.316 206.31 327.771 206.42 327.336C206.53 326.791 206.2 326.356 205.98 325.811C205.77 325.267 205.44 324.722 205.22 324.178C204.89 323.415 204.46 322.653 203.81 322.326C202.94 321.891 201.96 322.217 200.98 322.435C200 322.653 198.91 322.762 198.26 322.109C197.82 321.673 197.71 321.128 197.6 320.584C197.49 320.148 197.38 319.604 196.95 319.386C195.75 321.673 195.21 324.178 195.21 326.791Z" fill="#81A8CC"/>
            </g>
        </g>
        <path opacity="0.3" d="M199.45 338.444C199.67 338.77 200 338.988 200.21 339.315C200.76 339.859 201.19 340.295 201.74 340.731C202.5 341.384 203.37 341.929 204.35 342.473C205.11 342.909 205.76 343.235 206.53 343.562C208.27 344.215 210.12 344.651 211.97 344.76C212.3 344.76 212.73 344.76 213.06 344.76C217.41 344.76 221.33 343.235 224.38 340.731C228.4 337.464 231.02 332.345 231.02 326.791C231.02 324.178 230.47 321.782 229.49 319.604C227.21 314.485 222.74 310.565 217.19 309.367C217.19 309.367 217.08 309.367 216.98 309.367C216.43 309.258 215.78 309.149 215.23 309.04H215.13C216.87 310.674 218.28 312.634 219.26 314.921C220.24 317.099 220.68 319.386 220.68 321.891C220.68 327.336 218.17 332.127 214.25 335.286C211.32 337.681 207.51 339.097 203.37 339.097C203.04 339.097 202.72 339.097 202.28 339.097C201.52 338.879 200.54 338.662 199.45 338.444Z" fill="#9999F1"/>
        <path opacity="0.5" d="M191.18 326.682C191.18 320.039 194.12 313.832 199.23 309.585C203.15 306.318 208.16 304.575 213.27 304.575C213.93 304.575 214.47 305.12 214.47 305.773C214.47 306.427 213.93 306.971 213.27 306.971C208.7 306.971 204.24 308.605 200.65 311.436C196.08 315.248 193.47 320.802 193.47 326.791C193.47 337.681 202.39 346.611 213.27 346.611C219.26 346.611 224.81 343.998 228.62 339.315C229.06 338.77 229.71 338.77 230.25 339.206C230.47 339.424 230.69 339.642 230.69 339.968C230.69 340.295 230.58 340.622 230.47 340.84C226.55 345.631 220.89 348.572 214.69 348.898V352.71H221.33C222.09 352.71 222.74 353.363 222.74 354.126C222.74 354.888 222.09 355.541 221.33 355.541H205.11C204.35 355.541 203.7 354.888 203.7 354.126C203.7 353.363 204.35 352.71 205.11 352.71H211.75V348.789C200.21 347.918 191.18 338.335 191.18 326.682Z" fill="#BDD692"/>
    </g>
    <path d="M526.95 605.687C526.51 608.954 528.91 612.004 532.17 612.439C535.44 612.875 538.49 610.479 538.92 607.212C539.36 603.945 536.96 600.896 533.7 600.46C530.32 600.025 527.39 602.312 526.95 605.687Z" fill="#BDD692"/>
    <path d="M535.55 607.103L532.83 609.063L530.21 604.381" fill="#BDD692"/>
    <path d="M510.62 286.607C509.54 289.765 511.28 293.25 514.54 294.23C517.7 295.319 521.18 293.576 522.16 290.309C523.25 287.151 521.51 283.666 518.24 282.686C515.09 281.706 511.6 283.449 510.62 286.607Z" fill="#BDD692"/>
    <path d="M518.79 289.656L515.85 291.072L514.11 285.953" fill="#BDD692"/>
    <path d="M184.65 398.993C184.98 404.111 189.44 407.923 194.56 407.596C199.67 407.269 203.48 402.804 203.15 397.686C202.83 392.568 198.36 388.756 193.25 389.083C188.02 389.41 184.22 393.874 184.65 398.993Z" fill="#BDD692"/>
    <path d="M197.93 398.448L194.56 402.26L189.22 396.053" fill="#BDD692"/>
    <path d="M213.06 398.013C213.06 399.211 214.04 400.191 215.23 400.191C216.43 400.191 217.41 399.211 217.41 398.013C217.41 396.815 216.43 395.835 215.23 395.835C214.04 395.726 213.06 396.815 213.06 398.013Z" fill="#BDD692"/>
    <path d="M288.05 244.571C288.05 245.769 289.03 246.749 290.22 246.749C291.42 246.749 292.4 245.769 292.4 244.571C292.4 243.373 291.42 242.393 290.22 242.393C289.14 242.393 288.05 243.373 288.05 244.571Z" fill="#BDD692"/>
    <path d="M651.14 447.998C651.14 449.959 652.77 451.592 654.73 451.592C656.69 451.592 658.32 449.959 658.32 447.998C658.32 446.038 656.69 444.405 654.73 444.405C652.77 444.405 651.14 446.038 651.14 447.998Z" fill="#BDD692"/>
    <path d="M110.42 484.045C110.42 487.094 112.93 489.49 115.86 489.49C118.91 489.49 121.31 486.985 121.31 484.045C121.31 480.996 118.8 478.6 115.86 478.6C112.93 478.491 110.42 480.996 110.42 484.045Z" fill="#BDD692"/>
    <path opacity="0.3" d="M708.6 408.358C708.6 411.408 711.11 413.803 714.04 413.803C717.09 413.803 719.49 411.299 719.49 408.358C719.49 405.309 716.98 402.913 714.04 402.913C711.11 402.913 708.6 405.418 708.6 408.358Z" fill="#BDD692"/>
    <path opacity="0.3" d="M155.37 533.377C155.37 535.337 157.01 536.971 158.96 536.971C160.92 536.971 162.56 535.337 162.56 533.377C162.56 531.417 160.92 529.783 158.96 529.783C157.01 529.783 155.37 531.417 155.37 533.377Z" fill="#BDD692"/>
    <path d="M433.02 257.53C433.02 259.49 434.65 261.124 436.61 261.124C438.57 261.124 440.21 259.49 440.21 257.53C440.21 255.57 438.57 253.936 436.61 253.936C434.55 253.936 433.02 255.57 433.02 257.53Z" fill="#BDD692"/>
    <path opacity="0.2" d="M366.74 239.67C366.74 241.63 368.37 243.264 370.33 243.264C372.29 243.264 373.92 241.63 373.92 239.67C373.92 237.71 372.29 236.077 370.33 236.077C368.37 236.077 366.74 237.71 366.74 239.67Z" fill="#BDD692"/>
    <path d="M718.51 360.224C718.94 360.224 719.27 359.897 719.27 359.462V354.452C719.27 354.017 718.94 353.69 718.51 353.69C718.07 353.69 717.74 354.017 717.74 354.452V359.462C717.74 359.897 718.07 360.224 718.51 360.224Z" fill="#BDD692"/>
    <path d="M716 357.719H721.01C721.45 357.719 721.77 357.393 721.77 356.957C721.77 356.521 721.45 356.195 721.01 356.195H716C715.57 356.195 715.24 356.521 715.24 356.957C715.24 357.393 715.57 357.719 716 357.719Z" fill="#BDD692"/>
    <g opacity="0.3">
        <g opacity="0.3">
            <g opacity="0.3">
                <path opacity="0.3" d="M679.11 234.116C679.54 234.116 679.87 233.79 679.87 233.354V228.453C679.87 228.018 679.54 227.691 679.11 227.691C678.67 227.691 678.34 228.018 678.34 228.453V233.463C678.45 233.79 678.67 234.116 679.11 234.116Z" fill="#BDD692"/>
            </g>
            <g opacity="0.3">
                <path opacity="0.3" d="M676.6 231.612H681.61C682.05 231.612 682.37 231.285 682.37 230.849C682.37 230.414 682.05 230.087 681.61 230.087H676.6C676.17 230.087 675.84 230.414 675.84 230.849C675.84 231.285 676.17 231.612 676.6 231.612Z" fill="#BDD692"/>
            </g>
        </g>
    </g>
    <path d="M261.93 294.121C262.36 294.121 262.69 293.794 262.69 293.359V288.458C262.69 288.022 262.36 287.696 261.93 287.696C261.49 287.696 261.16 288.022 261.16 288.458V293.467C261.16 293.903 261.49 294.121 261.93 294.121Z" fill="#BDD692"/>
    <path d="M259.42 291.616H264.43C264.87 291.616 265.19 291.289 265.19 290.854C265.19 290.418 264.87 290.092 264.43 290.092H259.42C258.99 290.092 258.66 290.418 258.66 290.854C258.66 291.398 258.99 291.616 259.42 291.616Z" fill="#BDD692"/>
    <path d="M107.27 559.078C107.7 559.078 108.03 558.751 108.03 558.315V553.306C108.03 552.87 107.7 552.544 107.27 552.544C106.83 552.544 106.5 552.87 106.5 553.306V558.315C106.5 558.751 106.83 559.078 107.27 559.078Z" fill="#BDD692"/>
    <path d="M104.76 556.573H109.77C110.2 556.573 110.53 556.246 110.53 555.811C110.53 555.375 110.2 555.048 109.77 555.048H104.76C104.33 555.048 104 555.375 104 555.811C104 556.246 104.33 556.573 104.76 556.573Z" fill="#BDD692"/>
    <path d="M274.55 358.373V396.597C274.55 397.25 275.1 397.795 275.75 397.795H313.63C314.28 397.795 314.82 397.25 314.82 396.597V358.373C314.82 357.719 314.28 357.175 313.63 357.175H275.75C275.1 357.175 274.55 357.719 274.55 358.373Z" fill="white"/>
    <path d="M274.55 390.39V396.597C274.55 397.25 275.1 397.795 275.75 397.795H294.47L293.71 389.41L286.42 381.242C285.54 380.371 284.24 380.262 283.26 381.133L275.2 388.756C274.77 389.192 274.55 389.845 274.55 390.39Z" fill="#6C9629"/>
    <path d="M279.78 397.795H313.52C314.17 397.795 314.71 397.25 314.71 396.597V389.41L303.07 377.213C302.2 376.341 300.78 376.341 299.91 377.213L279.78 397.795Z" fill="#82B440"/>
    <path d="M279.88 368.174C279.88 370.787 281.95 372.857 284.57 372.857C287.18 372.857 289.25 370.787 289.25 368.174C289.25 365.56 287.18 363.491 284.57 363.491C281.95 363.491 279.88 365.669 279.88 368.174Z" fill="#6C9629"/>
    <path d="M275.42 404.329H313.84C314.28 404.329 314.71 403.893 314.71 403.458V401.715C314.71 401.28 314.28 400.844 313.84 400.844H275.42C274.99 400.844 274.55 401.28 274.55 401.715V403.567C274.55 404.002 274.99 404.329 275.42 404.329Z" fill="white"/>
    <path d="M275.42 410.645H313.84C314.28 410.645 314.71 410.21 314.71 409.774V407.923C314.71 407.487 314.28 407.052 313.84 407.052H275.42C274.99 407.052 274.55 407.487 274.55 407.923V409.774C274.55 410.319 274.99 410.645 275.42 410.645Z" fill="white"/>
    <path d="M451.42 452.354H530.87C531.74 452.354 532.39 451.701 532.39 450.83V393.766C532.39 391.043 530.21 388.865 527.49 388.865H457.07C453.05 388.865 449.89 392.132 449.89 396.053V450.721C449.89 451.592 450.54 452.354 451.42 452.354Z" fill="#CCED98"/>
    <path d="M456.1 449.196H526.08C527.82 449.196 529.13 447.781 529.13 446.147V438.633C529.13 436.89 527.71 435.584 526.08 435.584H456.1C454.35 435.584 453.05 436.999 453.05 438.633V446.147C453.05 447.89 454.35 449.196 456.1 449.196Z" fill="white"/>
    <path d="M455.01 433.297H527.17C528.26 433.297 529.13 432.426 529.13 431.337V429.703C529.13 428.614 528.26 427.743 527.17 427.743H455.01C453.92 427.743 453.05 428.614 453.05 429.703V431.337C453.05 432.426 453.92 433.297 455.01 433.297Z" fill="white"/>
    <path opacity="0.31" d="M484.83 399.537H528.26C528.91 399.537 529.45 398.993 529.45 398.339C529.45 397.686 528.91 397.142 528.26 397.142H484.83C484.18 397.142 483.63 397.686 483.63 398.339C483.63 398.993 484.18 399.537 484.83 399.537Z" fill="white"/>
    <path opacity="0.31" d="M484.83 404.547H528.26C528.91 404.547 529.45 404.002 529.45 403.349C529.45 402.695 528.91 402.151 528.26 402.151H484.83C484.18 402.151 483.63 402.695 483.63 403.349C483.63 404.002 484.18 404.547 484.83 404.547Z" fill="white"/>
    <path opacity="0.31" d="M484.83 409.665H528.26C528.91 409.665 529.45 409.121 529.45 408.467C529.45 407.814 528.91 407.269 528.26 407.269H484.83C484.18 407.269 483.63 407.814 483.63 408.467C483.63 409.121 484.18 409.665 484.83 409.665Z" fill="white"/>
    <path opacity="0.31" d="M484.83 414.675H528.26C528.91 414.675 529.45 414.13 529.45 413.477C529.45 412.823 528.91 412.279 528.26 412.279H484.83C484.18 412.279 483.63 412.823 483.63 413.477C483.63 414.13 484.18 414.675 484.83 414.675Z" fill="white"/>
    <path opacity="0.31" d="M484.83 419.793H528.26C528.91 419.793 529.45 419.249 529.45 418.595C529.45 417.942 528.91 417.397 528.26 417.397H484.83C484.18 417.397 483.63 417.942 483.63 418.595C483.63 419.249 484.18 419.793 484.83 419.793Z" fill="white"/>
    <path opacity="0.31" d="M495.06 424.802H528.26C528.91 424.802 529.45 424.258 529.45 423.605C529.45 422.951 528.91 422.407 528.26 422.407H495.06C494.41 422.407 493.86 422.951 493.86 423.605C493.75 424.258 494.3 424.802 495.06 424.802Z" fill="white"/>
    <path d="M450.65 386.687H531.52C531.96 386.687 532.39 387.014 532.39 387.558V393.766H449.89V387.558C449.89 387.123 450.22 386.687 450.65 386.687Z" fill="#82B440"/>
    <path d="M462.08 390.172C462.08 390.607 462.41 390.934 462.84 390.934C463.28 390.934 463.61 390.607 463.61 390.172C463.61 389.736 463.28 389.41 462.84 389.41C462.41 389.41 462.08 389.845 462.08 390.172Z" fill="white"/>
    <path d="M458.27 390.172C458.27 390.607 458.6 390.934 459.03 390.934C459.47 390.934 459.8 390.607 459.8 390.172C459.8 389.736 459.47 389.41 459.03 389.41C458.6 389.41 458.27 389.845 458.27 390.172Z" fill="white"/>
    <path d="M454.57 390.172C454.57 390.607 454.9 390.934 455.33 390.934C455.77 390.934 456.1 390.607 456.1 390.172C456.1 389.736 455.77 389.41 455.33 389.41C454.9 389.41 454.57 389.845 454.57 390.172Z" fill="white"/>
    <path d="M453.05 397.904V424.04C453.05 424.476 453.37 424.802 453.81 424.802H479.71C480.15 424.802 480.48 424.476 480.48 424.04V397.904C480.48 397.468 480.15 397.142 479.71 397.142H453.81C453.37 397.033 453.05 397.468 453.05 397.904Z" fill="white"/>
    <path d="M453.05 420.011V423.931C453.05 424.367 453.37 424.694 453.81 424.694H466.65L466.11 419.031L461.54 414.021C460.67 413.15 459.36 413.041 458.38 413.912L453.59 418.377C453.27 418.922 453.05 419.466 453.05 420.011Z" fill="#6C9629"/>
    <path d="M456.64 424.802H479.71C480.15 424.802 480.48 424.476 480.48 424.04V420.011C480.48 419.466 480.26 418.922 479.82 418.486L472.97 411.299C472.09 410.427 470.68 410.427 469.81 411.299L456.64 424.802Z" fill="#82B440"/>
    <path d="M456.64 404.547C456.64 406.289 458.05 407.705 459.8 407.705C461.54 407.705 462.95 406.289 462.95 404.547C462.95 402.804 461.54 401.389 459.8 401.389C458.05 401.389 456.64 402.804 456.64 404.547Z" fill="#6C9629"/>
    <path d="M485.37 465.749H530.65C531.63 465.749 532.39 464.987 532.39 464.007V461.611C532.39 460.631 531.63 459.869 530.65 459.869H485.37C484.39 459.869 483.63 460.631 483.63 461.611V464.007C483.63 464.987 484.39 465.749 485.37 465.749Z" fill="white"/>
    <path d="M466.54 473.808H530.87C531.63 473.808 532.39 473.155 532.39 472.283C532.39 471.521 531.74 470.759 530.87 470.759H466.54C465.78 470.759 465.02 471.412 465.02 472.283C465.13 473.155 465.78 473.808 466.54 473.808Z" fill="white"/>
    <path d="M478.63 480.451H530.87C531.63 480.451 532.39 479.798 532.39 478.926C532.39 478.164 531.74 477.402 530.87 477.402H478.63C477.86 477.402 477.1 478.055 477.1 478.926C477.1 479.798 477.75 480.451 478.63 480.451Z" fill="white"/>
    <path d="M359.45 452.354H438.9C439.77 452.354 440.42 451.701 440.42 450.83V393.766C440.42 391.043 438.25 388.865 435.52 388.865H365.11C361.08 388.865 357.92 392.132 357.92 396.053V450.721C357.92 451.592 358.58 452.354 359.45 452.354Z" fill="#CCED98"/>
    <path d="M364.13 449.196H434.11C435.85 449.196 437.16 447.781 437.16 446.147V438.633C437.16 436.89 435.74 435.584 434.11 435.584H364.13C362.38 435.584 361.08 436.999 361.08 438.633V446.147C361.08 447.89 362.38 449.196 364.13 449.196Z" fill="white"/>
    <path d="M363.04 433.297H435.2C436.29 433.297 437.16 432.426 437.16 431.337V429.703C437.16 428.614 436.29 427.743 435.2 427.743H363.04C361.95 427.743 361.08 428.614 361.08 429.703V431.337C361.08 432.426 361.95 433.297 363.04 433.297Z" fill="white"/>
    <path opacity="0.31" d="M392.86 399.537H436.29C436.94 399.537 437.48 398.993 437.48 398.339C437.48 397.686 436.94 397.142 436.29 397.142H392.86C392.21 397.142 391.66 397.686 391.66 398.339C391.66 398.993 392.21 399.537 392.86 399.537Z" fill="white"/>
    <path opacity="0.31" d="M392.86 404.547H436.29C436.94 404.547 437.48 404.002 437.48 403.349C437.48 402.695 436.94 402.151 436.29 402.151H392.86C392.21 402.151 391.66 402.695 391.66 403.349C391.66 404.002 392.21 404.547 392.86 404.547Z" fill="white"/>
    <path opacity="0.31" d="M392.86 409.665H436.29C436.94 409.665 437.48 409.121 437.48 408.467C437.48 407.814 436.94 407.269 436.29 407.269H392.86C392.21 407.269 391.66 407.814 391.66 408.467C391.66 409.121 392.21 409.665 392.86 409.665Z" fill="white"/>
    <path opacity="0.31" d="M392.86 414.675H436.29C436.94 414.675 437.48 414.13 437.48 413.477C437.48 412.823 436.94 412.279 436.29 412.279H392.86C392.21 412.279 391.66 412.823 391.66 413.477C391.66 414.13 392.21 414.675 392.86 414.675Z" fill="white"/>
    <path opacity="0.31" d="M392.86 419.793H436.29C436.94 419.793 437.48 419.249 437.48 418.595C437.48 417.942 436.94 417.397 436.29 417.397H392.86C392.21 417.397 391.66 417.942 391.66 418.595C391.66 419.249 392.21 419.793 392.86 419.793Z" fill="white"/>
    <path opacity="0.31" d="M403.09 424.802H436.29C436.94 424.802 437.48 424.258 437.48 423.605C437.48 422.951 436.94 422.407 436.29 422.407H403.09C402.44 422.407 401.89 422.951 401.89 423.605C401.78 424.258 402.44 424.802 403.09 424.802Z" fill="white"/>
    <path d="M358.68 386.687H439.55C439.99 386.687 440.42 387.014 440.42 387.558V393.766H357.92V387.558C357.92 387.123 358.25 386.687 358.68 386.687Z" fill="#82B440"/>
    <path d="M370.11 390.172C370.11 390.607 370.44 390.934 370.87 390.934C371.31 390.934 371.64 390.607 371.64 390.172C371.64 389.736 371.31 389.41 370.87 389.41C370.44 389.41 370.11 389.845 370.11 390.172Z" fill="white"/>
    <path d="M366.3 390.172C366.3 390.607 366.63 390.934 367.06 390.934C367.5 390.934 367.83 390.607 367.83 390.172C367.83 389.736 367.5 389.41 367.06 389.41C366.74 389.41 366.3 389.845 366.3 390.172Z" fill="white"/>
    <path d="M362.6 390.172C362.6 390.607 362.93 390.934 363.36 390.934C363.8 390.934 364.13 390.607 364.13 390.172C364.13 389.736 363.8 389.41 363.36 389.41C362.93 389.41 362.6 389.845 362.6 390.172Z" fill="white"/>
    <path d="M361.08 397.904V424.04C361.08 424.476 361.4 424.802 361.84 424.802H387.74C388.18 424.802 388.51 424.476 388.51 424.04V397.904C388.51 397.468 388.18 397.142 387.74 397.142H361.84C361.4 397.033 361.08 397.468 361.08 397.904Z" fill="white"/>
    <path d="M361.08 420.011V423.931C361.08 424.367 361.4 424.694 361.84 424.694H374.68L374.14 419.031L369.57 414.021C368.7 413.15 367.39 413.041 366.41 413.912L361.62 418.377C361.3 418.922 361.08 419.466 361.08 420.011Z" fill="#6C9629"/>
    <path d="M364.67 424.802H387.74C388.18 424.802 388.51 424.476 388.51 424.04V420.011C388.51 419.466 388.29 418.922 387.85 418.486L381 411.299C380.13 410.427 378.71 410.427 377.84 411.299L364.67 424.802Z" fill="#82B440"/>
    <path d="M364.67 404.547C364.67 406.289 366.09 407.705 367.83 407.705C369.57 407.705 370.98 406.289 370.98 404.547C370.98 402.804 369.57 401.389 367.83 401.389C366.09 401.389 364.67 402.804 364.67 404.547Z" fill="#6C9629"/>
    <path d="M393.4 465.749H438.68C439.66 465.749 440.42 464.987 440.42 464.007V461.611C440.42 460.631 439.66 459.869 438.68 459.869H393.4C392.42 459.869 391.66 460.631 391.66 461.611V464.007C391.66 464.987 392.42 465.749 393.4 465.749Z" fill="white"/>
    <path d="M374.57 473.808H438.9C439.66 473.808 440.42 473.155 440.42 472.283C440.42 471.521 439.77 470.759 438.9 470.759H374.57C373.81 470.759 373.05 471.412 373.05 472.283C373.16 473.155 373.81 473.808 374.57 473.808Z" fill="white"/>
    <path d="M386.66 480.451H438.9C439.66 480.451 440.42 479.798 440.42 478.926C440.42 478.164 439.77 477.402 438.9 477.402H386.66C385.89 477.402 385.13 478.055 385.13 478.926C385.24 479.798 385.89 480.451 386.66 480.451Z" fill="white"/>
    <path d="M1323.5 194C1321.57 194 1320 192.433 1320 190.5C1320 188.567 1321.57 187 1323.5 187C1325.43 187 1327 188.567 1327 190.5C1327 192.433 1325.43 194 1323.5 194Z" fill="#D48EFF"/>
    <path d="M1759.95 140.483L1784.7 165.232C1785.67 166.209 1787.26 166.209 1788.23 165.232C1789.21 164.256 1789.21 162.673 1788.23 161.697L1763.48 136.948C1762.51 135.972 1760.92 135.972 1759.95 136.948C1758.97 137.924 1758.97 139.507 1759.95 140.483Z" fill="#DDF3BF"/>
    <path d="M1759.95 161.517L1784.7 136.768C1785.67 135.791 1787.26 135.791 1788.23 136.768C1789.21 137.744 1789.21 139.327 1788.23 140.303L1763.48 165.052C1762.51 166.028 1760.92 166.028 1759.95 165.052C1758.97 164.076 1758.97 162.493 1759.95 161.517Z" fill="#DDF3BF"/>
    <path d="M1743.95 140.483L1768.7 165.232C1769.67 166.209 1771.26 166.209 1772.23 165.232C1773.21 164.256 1773.21 162.673 1772.23 161.697L1747.48 136.948C1746.51 135.972 1744.92 135.972 1743.95 136.948C1742.97 137.924 1742.97 139.507 1743.95 140.483Z" fill="#82B440"/>
    <path d="M1743.95 161.517L1768.7 136.768C1769.67 135.791 1771.26 135.791 1772.23 136.768C1773.21 137.744 1773.21 139.327 1772.23 140.303L1747.48 165.052C1746.51 166.028 1744.92 166.028 1743.95 165.052C1742.97 164.076 1742.97 162.493 1743.95 161.517Z" fill="#82B440"/>
    <path d="M810.943 402.483L835.692 427.232C836.669 428.209 838.251 428.209 839.228 427.232C840.204 426.256 840.204 424.673 839.228 423.697L814.479 398.948C813.503 397.972 811.92 397.972 810.943 398.948C809.967 399.924 809.967 401.507 810.943 402.483Z" fill="#81F0FF"/>
    <path d="M810.943 423.517L835.692 398.768C836.669 397.791 838.251 397.791 839.228 398.768C840.204 399.744 840.204 401.327 839.228 402.303L814.479 427.052C813.503 428.028 811.92 428.028 810.943 427.052C809.967 426.076 809.967 424.493 810.943 423.517Z" fill="#81F0FF"/>
    <path d="M1763.34 476.935L1769.48 518.049L1802.02 492.182L1763.34 476.935Z" fill="#F6BFFF"/>
    <path d="M1447.5 462C1443.36 462 1440 458.642 1440 454.5C1440 450.358 1443.36 447 1447.5 447C1451.64 447 1455 450.358 1455 454.5C1455 458.642 1451.64 462 1447.5 462Z" fill="#FFDE9F"/>
    <path d="M1143.5 475C1139.91 475 1137 472.09 1137 468.5C1137 464.91 1139.91 462 1143.5 462C1147.09 462 1150 464.91 1150 468.5C1150 472.09 1147.09 475 1143.5 475Z" fill="#82B440"/>
    <path d="M197.21 472.96L201.71 503.132L225.59 484.149L197.21 472.96Z" fill="#A0EEFF"/>
    <path d="M530.5 462C526.358 462 523 458.642 523 454.5C523 450.358 526.358 447 530.5 447C534.642 447 538 450.358 538 454.5C538 458.642 534.642 462 530.5 462Z" fill="#F2BEFF"/>
    <path d="M837.5 443L829.27 457.25H845.73L837.5 443Z" fill="#82B440"/>
    <defs>
        <linearGradient id="paint0_linear" x1="399.37" y1="343.724" x2="399.37" y2="573.412" gradientUnits="userSpaceOnUse">
            <stop stop-color="white"/>
            <stop offset="1" stop-color="white" stop-opacity="0"/>
        </linearGradient>
        <linearGradient id="paint1_linear" x1="351.28" y1="343.724" x2="351.28" y2="573.412" gradientUnits="userSpaceOnUse">
            <stop stop-color="white"/>
            <stop offset="1" stop-color="white" stop-opacity="0"/>
        </linearGradient>
    </defs>
</svg>
